  0
SECTION
  2
HEADER
  9
$ANGBASE
  50
0.0
  9
$ANGDIR
  70
1
  9
$MEASUREMENT
  70
1
  0
ENDSEC
  0
SECTION
  2
TABLES
  0
TABLE
  2
LTYPE
  70
4
  0
LTYPE
  5
40F
  2
CONTINUOUS
  70
0
  3
Solid line
  72
65
  73
0
  40
0.0
  0
LTYPE
  5
410
  2
DASHDOT
 70
0
  3
Dash Dot ____ _ ____ _
 72
65
 73
4
 40
2.0
 49
1.25
 49
-0.25
 49
0.25
 49
-0.25
  0
LTYPE
  5
411
  2
DASHED
 70
0
  3
Dashed __ __ __ __ __
 72
65
 73
2
 40
0.75
 49
0.5
 49
-0.25
  0
LTYPE
  5
43B
  2
DOTTED
 70
0
  3
Dotted .  .  .  .
 72
65
 73
2
 40
0.2
 49
0.0
 49
-0.2
  0
ENDTAB
  0
TABLE
  2
STYLE
  70
4
  0
STYLE
  2
KICAD
  70
0
  40
0
  41
1
  42
1
  50
0
  71
0
  3
isocp.shx
  0
STYLE
  2
KICADB
  70
0
  40
0
  41
1
  42
1
  50
0
  71
0
  3
isocp.shx
  0
STYLE
  2
KICADI
  70
0
  40
0
  41
1
  42
1
  50
15
  71
0
  3
isocp.shx
  0
STYLE
  2
KICADBI
  70
0
  40
0
  41
1
  42
1
  50
15
  71
0
  3
isocp.shx
  0
ENDTAB
  0
TABLE
  2
LAYER
  70
1
  0
LAYER
  2
BLACK
  70
0
  62
7
  6
CONTINUOUS
  0
ENDTAB
  0
ENDSEC
  0
SECTION
  2
ENTITIES
0
LINE
8
BLACK
6
CONTINUOUS
10
39.5053
20
-5.66827
11
39.52
21
-5.66972
0
LINE
8
BLACK
6
CONTINUOUS
10
39.52
20
-5.66972
11
39.5388
21
-5.67544
0
LINE
8
BLACK
6
CONTINUOUS
10
39.5388
20
-5.67544
11
39.5562
21
-5.68472
0
LINE
8
BLACK
6
CONTINUOUS
10
39.5562
20
-5.68472
11
39.5714
21
-5.69722
0
LINE
8
BLACK
6
CONTINUOUS
10
39.5714
20
-5.69722
11
39.5839
21
-5.71245
0
LINE
8
BLACK
6
CONTINUOUS
10
39.5839
20
-5.71245
11
39.5932
21
-5.72982
0
LINE
8
BLACK
6
CONTINUOUS
10
39.5932
20
-5.72982
11
39.5989
21
-5.74867
0
LINE
8
BLACK
6
CONTINUOUS
10
39.5989
20
-5.74867
11
39.6009
21
-5.76827
0
LINE
8
BLACK
6
CONTINUOUS
10
39.6009
20
-5.76827
11
39.6004
21
-5.77318
0
LINE
8
BLACK
6
CONTINUOUS
10
39.6004
20
-5.77318
11
39.6004
21
-181.763
0
LINE
8
BLACK
6
CONTINUOUS
10
39.6004
20
-181.763
11
39.6009
21
-181.768
0
LINE
8
BLACK
6
CONTINUOUS
10
39.6009
20
-181.768
11
39.5989
21
-181.788
0
LINE
8
BLACK
6
CONTINUOUS
10
39.5989
20
-181.788
11
39.5932
21
-181.807
0
LINE
8
BLACK
6
CONTINUOUS
10
39.5932
20
-181.807
11
39.5839
21
-181.824
0
LINE
8
BLACK
6
CONTINUOUS
10
39.5839
20
-181.824
11
39.5714
21
-181.839
0
LINE
8
BLACK
6
CONTINUOUS
10
39.5714
20
-181.839
11
39.5562
21
-181.852
0
LINE
8
BLACK
6
CONTINUOUS
10
39.5562
20
-181.852
11
39.5388
21
-181.861
0
LINE
8
BLACK
6
CONTINUOUS
10
39.5388
20
-181.861
11
39.52
21
-181.867
0
LINE
8
BLACK
6
CONTINUOUS
10
39.52
20
-181.867
11
39.5053
21
-181.868
0
LINE
8
BLACK
6
CONTINUOUS
10
39.5053
20
-181.868
11
39.5004
21
-181.869
0
LINE
8
BLACK
6
CONTINUOUS
10
39.5004
20
-181.869
11
39.4955
21
-181.868
0
LINE
8
BLACK
6
CONTINUOUS
10
39.4955
20
-181.868
11
18.5053
21
-181.868
0
LINE
8
BLACK
6
CONTINUOUS
10
18.5053
20
-181.868
11
18.5004
21
-181.869
0
LINE
8
BLACK
6
CONTINUOUS
10
18.5004
20
-181.869
11
18.4955
21
-181.868
0
LINE
8
BLACK
6
CONTINUOUS
10
18.4955
20
-181.868
11
18.4808
21
-181.867
0
LINE
8
BLACK
6
CONTINUOUS
10
18.4808
20
-181.867
11
18.4619
21
-181.861
0
LINE
8
BLACK
6
CONTINUOUS
10
18.4619
20
-181.861
11
18.4446
21
-181.852
0
LINE
8
BLACK
6
CONTINUOUS
10
18.4446
20
-181.852
11
18.4293
21
-181.839
0
LINE
8
BLACK
6
CONTINUOUS
10
18.4293
20
-181.839
11
18.4168
21
-181.824
0
LINE
8
BLACK
6
CONTINUOUS
10
18.4168
20
-181.824
11
18.4076
21
-181.807
0
LINE
8
BLACK
6
CONTINUOUS
10
18.4076
20
-181.807
11
18.4018
21
-181.788
0
LINE
8
BLACK
6
CONTINUOUS
10
18.4018
20
-181.788
11
18.3999
21
-181.768
0
LINE
8
BLACK
6
CONTINUOUS
10
18.3999
20
-181.768
11
18.4004
21
-181.763
0
LINE
8
BLACK
6
CONTINUOUS
10
18.4004
20
-181.763
11
18.4004
21
-5.77318
0
LINE
8
BLACK
6
CONTINUOUS
10
18.4004
20
-5.77318
11
18.3999
21
-5.76827
0
LINE
8
BLACK
6
CONTINUOUS
10
18.3999
20
-5.76827
11
18.4018
21
-5.74867
0
LINE
8
BLACK
6
CONTINUOUS
10
18.4018
20
-5.74867
11
18.4076
21
-5.72982
0
LINE
8
BLACK
6
CONTINUOUS
10
18.4076
20
-5.72982
11
18.4168
21
-5.71245
0
LINE
8
BLACK
6
CONTINUOUS
10
18.4168
20
-5.71245
11
18.4293
21
-5.69722
0
LINE
8
BLACK
6
CONTINUOUS
10
18.4293
20
-5.69722
11
18.4446
21
-5.68472
0
LINE
8
BLACK
6
CONTINUOUS
10
18.4446
20
-5.68472
11
18.4619
21
-5.67544
0
LINE
8
BLACK
6
CONTINUOUS
10
18.4619
20
-5.67544
11
18.4808
21
-5.66972
0
LINE
8
BLACK
6
CONTINUOUS
10
18.4808
20
-5.66972
11
18.4955
21
-5.66827
0
LINE
8
BLACK
6
CONTINUOUS
10
18.4955
20
-5.66827
11
18.5004
21
-5.66779
0
LINE
8
BLACK
6
CONTINUOUS
10
18.5004
20
-5.66779
11
18.5053
21
-5.66827
0
LINE
8
BLACK
6
CONTINUOUS
10
18.5053
20
-5.66827
11
39.4955
21
-5.66827
0
LINE
8
BLACK
6
CONTINUOUS
10
39.4955
20
-5.66827
11
39.5004
21
-5.66779
0
LINE
8
BLACK
6
CONTINUOUS
10
39.5004
20
-5.66779
11
39.5053
21
-5.66827
0
LINE
8
BLACK
6
CONTINUOUS
10
18.6004
20
-5.86827
11
18.6004
21
-181.668
0
LINE
8
BLACK
6
CONTINUOUS
10
18.6004
20
-181.668
11
39.4004
21
-181.668
0
LINE
8
BLACK
6
CONTINUOUS
10
39.4004
20
-181.668
11
39.4004
21
-5.86827
0
LINE
8
BLACK
6
CONTINUOUS
10
39.4004
20
-5.86827
11
18.6004
21
-5.86827
  0
ENDSEC
  0
EOF
