%TF.GenerationSoftware,KiCad,Pcbnew,(5.1.9)-1*%
%TF.CreationDate,2021-09-21T18:31:50+01:00*%
%TF.ProjectId,Kosmo Noise,4b6f736d-6f20-44e6-9f69-73652e6b6963,rev?*%
%TF.SameCoordinates,Original*%
%TF.FileFunction,Other,User*%
%FSLAX46Y46*%
G04 Gerber Fmt 4.6, Leading zero omitted, Abs format (unit mm)*
G04 Created by KiCad (PCBNEW (5.1.9)-1) date 2021-09-21 18:31:50*
%MOMM*%
%LPD*%
G01*
G04 APERTURE LIST*
%ADD10C,0.120000*%
%ADD11C,0.050000*%
G04 APERTURE END LIST*
D10*
%TO.C,J2*%
X20019500Y-114727500D02*
X20019500Y-96727500D01*
X38019500Y-114727500D02*
X20019500Y-114727500D01*
X38019500Y-96727500D02*
X38019500Y-114727500D01*
X20019500Y-96727500D02*
X38019500Y-96727500D01*
%TO.C,J1*%
X20019500Y-158733000D02*
X20019500Y-140733000D01*
X38019500Y-158733000D02*
X20019500Y-158733000D01*
X38019500Y-140733000D02*
X38019500Y-158733000D01*
X20019500Y-140733000D02*
X38019500Y-140733000D01*
%TO.C,J3*%
X20019500Y-162767500D02*
X38019500Y-162767500D01*
X38019500Y-162767500D02*
X38019500Y-180767500D01*
X38019500Y-180767500D02*
X20019500Y-180767500D01*
X20019500Y-180767500D02*
X20019500Y-162767500D01*
%TO.C,J5*%
X20019500Y-118762000D02*
X38019500Y-118762000D01*
X38019500Y-118762000D02*
X38019500Y-136762000D01*
X38019500Y-136762000D02*
X20019500Y-136762000D01*
X20019500Y-136762000D02*
X20019500Y-118762000D01*
D11*
%TO.C,RV1*%
X18248000Y-34020000D02*
X18248000Y-44120000D01*
X23648000Y-34020000D02*
X18248000Y-34020000D01*
X23648000Y-44120000D02*
X23648000Y-34020000D01*
X18248000Y-44120000D02*
X23648000Y-44120000D01*
%TO.C,RV2*%
X22428000Y-26058500D02*
X22428000Y-31458500D01*
X22428000Y-31458500D02*
X32528000Y-31458500D01*
X32528000Y-31458500D02*
X32528000Y-26058500D01*
X32528000Y-26058500D02*
X22428000Y-26058500D01*
%TO.C,RV3*%
X28749500Y-80177000D02*
X38849500Y-80177000D01*
X28749500Y-74777000D02*
X28749500Y-80177000D01*
X38849500Y-74777000D02*
X28749500Y-74777000D01*
X38849500Y-80177000D02*
X38849500Y-74777000D01*
%TO.C,RV4*%
X28626000Y-80177000D02*
X28626000Y-74777000D01*
X28626000Y-74777000D02*
X18526000Y-74777000D01*
X18526000Y-74777000D02*
X18526000Y-80177000D01*
X18526000Y-80177000D02*
X28626000Y-80177000D01*
%TD*%
M02*
