%TF.GenerationSoftware,KiCad,Pcbnew,(5.1.9)-1*%
%TF.CreationDate,2021-09-21T18:31:50+01:00*%
%TF.ProjectId,Kosmo Noise,4b6f736d-6f20-44e6-9f69-73652e6b6963,rev?*%
%TF.SameCoordinates,Original*%
%TF.FileFunction,Soldermask,Top*%
%TF.FilePolarity,Negative*%
%FSLAX46Y46*%
G04 Gerber Fmt 4.6, Leading zero omitted, Abs format (unit mm)*
G04 Created by KiCad (PCBNEW (5.1.9)-1) date 2021-09-21 18:31:50*
%MOMM*%
%LPD*%
G01*
G04 APERTURE LIST*
%ADD10C,4.500000*%
%ADD11R,4.500001X4.500001*%
%ADD12C,4.500001*%
%ADD13C,1.600000*%
%ADD14R,1.600000X1.600000*%
%ADD15R,2.200000X2.200000*%
%ADD16O,2.200000X2.200000*%
%ADD17R,1.727200X1.727200*%
%ADD18O,1.727200X1.727200*%
%ADD19C,1.500000*%
%ADD20R,1.500000X1.500000*%
%ADD21O,1.600000X1.600000*%
%ADD22C,1.440000*%
%ADD23R,1.600000X2.400000*%
%ADD24O,1.600000X2.400000*%
G04 APERTURE END LIST*
D10*
%TO.C,J2*%
X22619500Y-106227500D03*
D11*
X33759500Y-110467500D03*
D12*
X29519500Y-99327500D03*
D10*
X26519500Y-112127500D03*
D12*
X35419500Y-103227500D03*
%TD*%
D10*
%TO.C,J1*%
X22619500Y-150233000D03*
D11*
X33759500Y-154473000D03*
D12*
X29519500Y-143333000D03*
D10*
X26519500Y-156133000D03*
D12*
X35419500Y-147233000D03*
%TD*%
%TO.C,J3*%
X35419500Y-169267500D03*
D10*
X26519500Y-178167500D03*
D12*
X29519500Y-165367500D03*
D11*
X33759500Y-176507500D03*
D10*
X22619500Y-172267500D03*
%TD*%
D12*
%TO.C,J5*%
X35419500Y-125262000D03*
D10*
X26519500Y-134162000D03*
D12*
X29519500Y-121362000D03*
D11*
X33759500Y-132502000D03*
D10*
X22619500Y-128262000D03*
%TD*%
D13*
%TO.C,C1*%
X38314000Y-62865000D03*
X35814000Y-62865000D03*
%TD*%
D14*
%TO.C,c1*%
X21971000Y-20510500D03*
D13*
X21971000Y-18010500D03*
%TD*%
%TO.C,C2*%
X26860500Y-57848500D03*
X24360500Y-57848500D03*
%TD*%
%TO.C,C3*%
X32345000Y-21526500D03*
X29845000Y-21526500D03*
%TD*%
%TO.C,C4*%
X24892000Y-50800000D03*
X24892000Y-48300000D03*
%TD*%
%TO.C,C5*%
X29781500Y-19240500D03*
X32281500Y-19240500D03*
%TD*%
%TO.C,C6*%
X29781500Y-16954500D03*
X32281500Y-16954500D03*
%TD*%
%TO.C,C7*%
X32321500Y-14311000D03*
X32321500Y-11811000D03*
%TD*%
%TO.C,C8*%
X37211000Y-8572500D03*
X34711000Y-8572500D03*
%TD*%
%TO.C,C9*%
X32385000Y-6834500D03*
X32385000Y-9334500D03*
%TD*%
%TO.C,C10*%
X35790500Y-65151000D03*
X38290500Y-65151000D03*
%TD*%
D14*
%TO.C,C17*%
X20764500Y-138938000D03*
D13*
X23264500Y-138938000D03*
%TD*%
%TO.C,C18*%
X20931500Y-117030500D03*
D14*
X23431500Y-117030500D03*
%TD*%
D13*
%TO.C,C21*%
X27495500Y-38227000D03*
X27495500Y-35727000D03*
%TD*%
%TO.C,C22*%
X26797000Y-18986500D03*
X26797000Y-21486500D03*
%TD*%
%TO.C,C23*%
X35790500Y-69596000D03*
X38290500Y-69596000D03*
%TD*%
%TO.C,C24*%
X35790500Y-67373500D03*
X38290500Y-67373500D03*
%TD*%
D15*
%TO.C,D1*%
X37401500Y-36195000D03*
D16*
X37401500Y-46355000D03*
%TD*%
%TO.C,D2*%
X37465000Y-49466500D03*
D15*
X37465000Y-59626500D03*
%TD*%
D17*
%TO.C,J6*%
X23939500Y-87312500D03*
D18*
X23939500Y-89852500D03*
X26479500Y-87312500D03*
X26479500Y-89852500D03*
X29019500Y-87312500D03*
X29019500Y-89852500D03*
X31559500Y-87312500D03*
X31559500Y-89852500D03*
X34099500Y-87312500D03*
X34099500Y-89852500D03*
%TD*%
D19*
%TO.C,Q1*%
X25590500Y-54673500D03*
X23050500Y-54673500D03*
D20*
X28130500Y-54673500D03*
%TD*%
D13*
%TO.C,R1*%
X34099500Y-48323500D03*
D21*
X34099500Y-58483500D03*
%TD*%
%TO.C,R2*%
X30861000Y-48323500D03*
D13*
X30861000Y-58483500D03*
%TD*%
D21*
%TO.C,R3*%
X33083500Y-60769500D03*
D13*
X33083500Y-70929500D03*
%TD*%
%TO.C,R4*%
X29908500Y-70929500D03*
D21*
X29908500Y-60769500D03*
%TD*%
%TO.C,R5*%
X19621500Y-13779500D03*
D13*
X29781500Y-13779500D03*
%TD*%
%TO.C,R6*%
X19812000Y-55689500D03*
D21*
X19812000Y-45529500D03*
%TD*%
%TO.C,R7*%
X19621500Y-10541000D03*
D13*
X29781500Y-10541000D03*
%TD*%
D21*
%TO.C,R8*%
X27749500Y-50482500D03*
D13*
X27749500Y-40322500D03*
%TD*%
%TO.C,R9*%
X30797500Y-35877500D03*
D21*
X30797500Y-46037500D03*
%TD*%
D13*
%TO.C,R10*%
X29781500Y-7429500D03*
D21*
X19621500Y-7429500D03*
%TD*%
%TO.C,R11*%
X34099500Y-46037500D03*
D13*
X34099500Y-35877500D03*
%TD*%
%TO.C,R12*%
X24701500Y-35687000D03*
D21*
X24701500Y-45847000D03*
%TD*%
%TO.C,R13*%
X35369500Y-11366500D03*
D13*
X35369500Y-21526500D03*
%TD*%
%TO.C,R14*%
X20129500Y-70167500D03*
D21*
X20129500Y-60007500D03*
%TD*%
%TO.C,R15*%
X26479500Y-60007500D03*
D13*
X26479500Y-70167500D03*
%TD*%
%TO.C,R16*%
X23368000Y-70167500D03*
D21*
X23368000Y-60007500D03*
%TD*%
D13*
%TO.C,R22*%
X28003500Y-138747500D03*
D21*
X38163500Y-138747500D03*
%TD*%
%TO.C,R23*%
X38227000Y-94996000D03*
D13*
X28067000Y-94996000D03*
%TD*%
D21*
%TO.C,R24*%
X34226500Y-160655000D03*
D13*
X24066500Y-160655000D03*
%TD*%
%TO.C,R26*%
X27940000Y-116649500D03*
D21*
X38100000Y-116649500D03*
%TD*%
D22*
%TO.C,RV1*%
X20948000Y-36520000D03*
X20948000Y-39060000D03*
X20948000Y-41600000D03*
%TD*%
%TO.C,RV2*%
X24948000Y-28758500D03*
X27488000Y-28758500D03*
X30028000Y-28758500D03*
%TD*%
%TO.C,RV3*%
X31249500Y-77477000D03*
X33789500Y-77477000D03*
X36329500Y-77477000D03*
%TD*%
%TO.C,RV4*%
X26106000Y-77477000D03*
X23566000Y-77477000D03*
X21026000Y-77477000D03*
%TD*%
D23*
%TO.C,U1*%
X35369500Y-81343500D03*
D24*
X20129500Y-73723500D03*
X32829500Y-81343500D03*
X22669500Y-73723500D03*
X30289500Y-81343500D03*
X25209500Y-73723500D03*
X27749500Y-81343500D03*
X27749500Y-73723500D03*
X25209500Y-81343500D03*
X30289500Y-73723500D03*
X22669500Y-81343500D03*
X32829500Y-73723500D03*
X20129500Y-81343500D03*
X35369500Y-73723500D03*
%TD*%
%TO.C,U2*%
X35115500Y-24765000D03*
X19875500Y-32385000D03*
X32575500Y-24765000D03*
X22415500Y-32385000D03*
X30035500Y-24765000D03*
X24955500Y-32385000D03*
X27495500Y-24765000D03*
X27495500Y-32385000D03*
X24955500Y-24765000D03*
X30035500Y-32385000D03*
X22415500Y-24765000D03*
X32575500Y-32385000D03*
X19875500Y-24765000D03*
D23*
X35115500Y-32385000D03*
%TD*%
M02*
