%TF.GenerationSoftware,KiCad,Pcbnew,(5.1.9)-1*%
%TF.CreationDate,2021-09-21T18:31:50+01:00*%
%TF.ProjectId,Kosmo Noise,4b6f736d-6f20-44e6-9f69-73652e6b6963,rev?*%
%TF.SameCoordinates,Original*%
%TF.FileFunction,OtherDrawing,Comment*%
%FSLAX46Y46*%
G04 Gerber Fmt 4.6, Leading zero omitted, Abs format (unit mm)*
G04 Created by KiCad (PCBNEW (5.1.9)-1) date 2021-09-21 18:31:50*
%MOMM*%
%LPD*%
G01*
G04 APERTURE LIST*
%ADD10C,0.200000*%
%ADD11C,0.625000*%
%ADD12C,0.500000*%
%ADD13C,0.120000*%
G04 APERTURE END LIST*
D10*
X16500384Y6231728D02*
X16500384Y-193768272D01*
X24000384Y-149768272D02*
X34000384Y-149768272D01*
X17900384Y-190768272D02*
X21100384Y-190768272D01*
X24000384Y-171768272D02*
X34000384Y-171768272D01*
X34000384Y-171768272D02*
G75*
G03*
X34000384Y-171768272I-5000000J0D01*
G01*
X18500384Y-95450111D02*
X18500384Y-181768272D01*
X39500384Y-5768272D02*
X18500384Y-5768272D01*
X41500384Y6231728D02*
X16500384Y6231728D01*
X34000384Y-149768272D02*
G75*
G03*
X34000384Y-149768272I-5000000J0D01*
G01*
X21100384Y-190768272D02*
G75*
G03*
X21100384Y-190768272I-1600000J0D01*
G01*
X41500384Y-193768272D02*
X41500384Y6231728D01*
X29000384Y-166768272D02*
X29000384Y-176768272D01*
X21100384Y3231728D02*
G75*
G03*
X21100384Y3231728I-1600000J0D01*
G01*
X17900384Y3231728D02*
X21100384Y3231728D01*
X16500384Y-193768272D02*
X41500384Y-193768272D01*
X19500384Y4831729D02*
X19500384Y1631729D01*
X19500384Y-189168271D02*
X19500384Y-192368271D01*
X29000384Y-144768272D02*
X29000384Y-154768272D01*
X39500384Y-181768272D02*
X39500384Y-95450111D01*
X21100384Y3231728D02*
G75*
G03*
X21100384Y3231728I-1600000J0D01*
G01*
X41500383Y-149768272D02*
X41500383Y-150480832D01*
X21000384Y-179768272D02*
X21000384Y-163768272D01*
X21100384Y-190768272D02*
G75*
G03*
X21100384Y-190768272I-1600000J0D01*
G01*
X29000384Y-166768272D02*
X29000384Y-176768272D01*
X41500383Y-104768272D02*
X41500383Y-105480832D01*
X38500384Y4831729D02*
X38500384Y1631729D01*
X18500384Y-181768272D02*
X39500384Y-181768272D01*
X21000384Y-97768272D02*
X37000384Y-97768272D01*
X34000384Y-105768272D02*
G75*
G03*
X34000384Y-105768272I-5000000J0D01*
G01*
X37000384Y-113768272D02*
X21000384Y-113768272D01*
X41500383Y-171768272D02*
X41500383Y-172480832D01*
X36900384Y3231728D02*
X40100384Y3231728D01*
X37000384Y-91768272D02*
X21000384Y-91768272D01*
X21000384Y-91768272D02*
X21000384Y-75768272D01*
X24000384Y-105768272D02*
X34000384Y-105768272D01*
X41500383Y-15768272D02*
X41500383Y-16480832D01*
X37000384Y-141768272D02*
X37000384Y-157768272D01*
X21000384Y-113768272D02*
X21000384Y-97768272D01*
X41500383Y-82768272D02*
X41500383Y-83480832D01*
X40100384Y-190768272D02*
G75*
G03*
X40100384Y-190768272I-1600000J0D01*
G01*
X37000384Y-97768272D02*
X37000384Y-113768272D01*
X21000384Y-75768272D02*
X37000384Y-75768272D01*
X21000384Y-135768272D02*
X21000384Y-119768272D01*
X21000384Y-141768272D02*
X37000384Y-141768272D01*
X41500383Y-37768272D02*
X41500383Y-38480832D01*
X19500384Y-189168271D02*
X19500384Y-192368271D01*
X39500384Y-105768272D02*
X39500384Y-5768272D01*
X41500384Y6231728D02*
X16500384Y6231728D01*
X41500384Y-193768272D02*
X41500384Y6231728D01*
X36900384Y-190768272D02*
X40100384Y-190768272D01*
X37000384Y-163768272D02*
X37000384Y-179768272D01*
X21000384Y-157768272D02*
X21000384Y-141768272D01*
X29000384Y-100768272D02*
X29000384Y-110768272D01*
X21000384Y-119768272D02*
X37000384Y-119768272D01*
X37000384Y-135768272D02*
X21000384Y-135768272D01*
X29000384Y-122768272D02*
X29000384Y-132768272D01*
X17900384Y-190768272D02*
X21100384Y-190768272D01*
X18500384Y-5768272D02*
X18500384Y-105768272D01*
X24000384Y-127768272D02*
X34000384Y-127768272D01*
X17900384Y3231728D02*
X21100384Y3231728D01*
X37000384Y-157768272D02*
X21000384Y-157768272D01*
X37000384Y-119768272D02*
X37000384Y-135768272D01*
X38500384Y-189168271D02*
X38500384Y-192368271D01*
X19500384Y4831729D02*
X19500384Y1631729D01*
X29000384Y-144768272D02*
X29000384Y-154768272D01*
X24000384Y-149768272D02*
X34000384Y-149768272D01*
X34000384Y-149768272D02*
G75*
G03*
X34000384Y-149768272I-5000000J0D01*
G01*
X21000384Y-163768272D02*
X37000384Y-163768272D01*
X40100384Y3231728D02*
G75*
G03*
X40100384Y3231728I-1600000J0D01*
G01*
X34000384Y-171768272D02*
G75*
G03*
X34000384Y-171768272I-5000000J0D01*
G01*
X16500384Y6231728D02*
X16500384Y-193768272D01*
X37000384Y-179768272D02*
X21000384Y-179768272D01*
X16500384Y-193768272D02*
X41500384Y-193768272D01*
X37000384Y-75768272D02*
X37000384Y-91768272D01*
X29000384Y-78768272D02*
X29000384Y-88768272D01*
X24000384Y-171768272D02*
X34000384Y-171768272D01*
X39500384Y-181768272D02*
X39500384Y-95450111D01*
X18500384Y-95450111D02*
X18500384Y-181768272D01*
X34000384Y-127768272D02*
G75*
G03*
X34000384Y-127768272I-5000000J0D01*
G01*
X37000384Y-97768272D02*
X37000384Y-113768272D01*
X21000384Y-97768272D02*
X37000384Y-97768272D01*
X41500383Y-37768272D02*
X41500383Y-38480832D01*
X29000384Y-100768272D02*
X29000384Y-110768272D01*
X21000384Y-113768272D02*
X21000384Y-97768272D01*
X41500383Y-82768272D02*
X41500383Y-83480832D01*
X21000384Y-179768272D02*
X21000384Y-163768272D01*
X37000384Y-179768272D02*
X21000384Y-179768272D01*
X21000384Y-163768272D02*
X37000384Y-163768272D01*
X36900384Y-190768272D02*
X40100384Y-190768272D01*
X40100384Y3231728D02*
G75*
G03*
X40100384Y3231728I-1600000J0D01*
G01*
X34000384Y-105768272D02*
G75*
G03*
X34000384Y-105768272I-5000000J0D01*
G01*
X29000384Y-122768272D02*
X29000384Y-132768272D01*
X21000384Y-157768272D02*
X21000384Y-141768272D01*
X37000384Y-157768272D02*
X21000384Y-157768272D01*
X37000384Y-163768272D02*
X37000384Y-179768272D01*
X40100384Y-190768272D02*
G75*
G03*
X40100384Y-190768272I-1600000J0D01*
G01*
X36900384Y3231728D02*
X40100384Y3231728D01*
X24000384Y-105768272D02*
X34000384Y-105768272D01*
X37000384Y-135768272D02*
X21000384Y-135768272D01*
X21000384Y-119768272D02*
X37000384Y-119768272D01*
X34000384Y-127768272D02*
G75*
G03*
X34000384Y-127768272I-5000000J0D01*
G01*
X21000384Y-135768272D02*
X21000384Y-119768272D01*
X38500384Y-189168271D02*
X38500384Y-192368271D01*
X38500384Y4831729D02*
X38500384Y1631729D01*
X37000384Y-119768272D02*
X37000384Y-135768272D01*
X24000384Y-127768272D02*
X34000384Y-127768272D01*
X41500383Y-15768272D02*
X41500383Y-16480832D01*
X41500383Y-104768272D02*
X41500383Y-105480832D01*
X41500383Y-149768272D02*
X41500383Y-150480832D01*
X37000384Y-141768272D02*
X37000384Y-157768272D01*
X21000384Y-141768272D02*
X37000384Y-141768272D01*
X41500383Y-171768272D02*
X41500383Y-172480832D01*
X24000384Y-83768272D02*
X34000384Y-83768272D01*
X34000384Y-83768272D02*
G75*
G03*
X34000384Y-83768272I-5000000J0D01*
G01*
X37000384Y-113768272D02*
X21000384Y-113768272D01*
D11*
X24860639Y-185141372D02*
X24003496Y-185141372D01*
X23574924Y-185379468D01*
X23360639Y-185617563D01*
X22932067Y-186331848D01*
X22717781Y-187284229D01*
X22717781Y-189188991D01*
X22932067Y-189665182D01*
X23146353Y-189903277D01*
X23574924Y-190141372D01*
X24432067Y-190141372D01*
X24860639Y-189903277D01*
X25074924Y-189665182D01*
X25289210Y-189188991D01*
X25289210Y-187998515D01*
X25074924Y-187522325D01*
X24860639Y-187284229D01*
X24432067Y-187046134D01*
X23574924Y-187046134D01*
X23146353Y-187284229D01*
X22932067Y-187522325D01*
X22717781Y-187998515D01*
X30646353Y-188236610D02*
X34074924Y-188236610D01*
X32360639Y-190141372D02*
X32360639Y-186331848D01*
X42003496Y-190141372D02*
X39432067Y-190141372D01*
X40717781Y-190141372D02*
X40717781Y-185141372D01*
X40289210Y-185855658D01*
X39860639Y-186331848D01*
X39432067Y-186569944D01*
X24613664Y-3997093D02*
X23113664Y-1616141D01*
X22042235Y-3997093D02*
X22042235Y1002906D01*
X23756521Y1002906D01*
X24185092Y764811D01*
X24399378Y526715D01*
X24613664Y50525D01*
X24613664Y-663760D01*
X24399378Y-1139950D01*
X24185092Y-1378046D01*
X23756521Y-1616141D01*
X22042235Y-1616141D01*
X26327949Y-2568522D02*
X28470807Y-2568522D01*
X25899378Y-3997093D02*
X27399378Y1002906D01*
X28899378Y-3997093D01*
X30399378Y-3997093D02*
X30399378Y1002906D01*
X32542235Y-3997093D02*
X32542235Y1002906D01*
X35113664Y-3997093D01*
X35113664Y1002906D01*
X24860639Y-185141372D02*
X24003496Y-185141372D01*
X23574924Y-185379468D01*
X23360639Y-185617563D01*
X22932067Y-186331848D01*
X22717781Y-187284229D01*
X22717781Y-189188991D01*
X22932067Y-189665182D01*
X23146353Y-189903277D01*
X23574924Y-190141372D01*
X24432067Y-190141372D01*
X24860639Y-189903277D01*
X25074924Y-189665182D01*
X25289210Y-189188991D01*
X25289210Y-187998515D01*
X25074924Y-187522325D01*
X24860639Y-187284229D01*
X24432067Y-187046134D01*
X23574924Y-187046134D01*
X23146353Y-187284229D01*
X22932067Y-187522325D01*
X22717781Y-187998515D01*
X30646353Y-188236610D02*
X34074924Y-188236610D01*
X32360639Y-190141372D02*
X32360639Y-186331848D01*
X42003496Y-190141372D02*
X39432067Y-190141372D01*
X40717781Y-190141372D02*
X40717781Y-185141372D01*
X40289210Y-185855658D01*
X39860639Y-186331848D01*
X39432067Y-186569944D01*
D12*
X19430318Y-159033523D02*
X20630318Y-163033523D01*
X21830318Y-159033523D01*
X23030318Y-163033523D02*
X23030318Y-159033523D01*
X25430318Y-159033523D02*
X26116032Y-159033523D01*
X26458889Y-159224000D01*
X26801746Y-159604952D01*
X26973175Y-160366857D01*
X26973175Y-161700190D01*
X26801746Y-162462095D01*
X26458889Y-162843047D01*
X26116032Y-163033523D01*
X25430318Y-163033523D01*
X25087461Y-162843047D01*
X24744603Y-162462095D01*
X24573175Y-161700190D01*
X24573175Y-160366857D01*
X24744603Y-159604952D01*
X25087461Y-159224000D01*
X25430318Y-159033523D01*
X30230318Y-163033523D02*
X28516032Y-163033523D01*
X28516032Y-159033523D01*
X31430318Y-160938285D02*
X32630318Y-160938285D01*
X33144603Y-163033523D02*
X31430318Y-163033523D01*
X31430318Y-159033523D01*
X33144603Y-159033523D01*
X34173175Y-159033523D02*
X36230318Y-159033523D01*
X35201746Y-163033523D02*
X35201746Y-159033523D01*
X23941826Y-119033523D02*
X23941826Y-115033523D01*
X25313255Y-115033523D01*
X25656112Y-115224000D01*
X25827541Y-115414476D01*
X25998969Y-115795428D01*
X25998969Y-116366857D01*
X25827541Y-116747809D01*
X25656112Y-116938285D01*
X25313255Y-117128761D01*
X23941826Y-117128761D01*
X27541826Y-119033523D02*
X27541826Y-115033523D01*
X29256112Y-119033523D02*
X29256112Y-115033523D01*
X31313255Y-119033523D01*
X31313255Y-115033523D01*
X33027541Y-119033523D02*
X33027541Y-115033523D01*
X35084684Y-119033523D02*
X33541826Y-116747809D01*
X35084684Y-115033523D02*
X33027541Y-117319238D01*
D11*
X24613664Y-3997093D02*
X23113664Y-1616141D01*
X22042235Y-3997093D02*
X22042235Y1002906D01*
X23756521Y1002906D01*
X24185092Y764811D01*
X24399378Y526715D01*
X24613664Y50525D01*
X24613664Y-663760D01*
X24399378Y-1139950D01*
X24185092Y-1378046D01*
X23756521Y-1616141D01*
X22042235Y-1616141D01*
X26327949Y-2568522D02*
X28470807Y-2568522D01*
X25899378Y-3997093D02*
X27399378Y1002906D01*
X28899378Y-3997093D01*
X30399378Y-3997093D02*
X30399378Y1002906D01*
X32542235Y-3997093D02*
X32542235Y1002906D01*
X35113664Y-3997093D01*
X35113664Y1002906D01*
D12*
X20660020Y-93033523D02*
X21517163Y-97033523D01*
X22202877Y-94176380D01*
X22888592Y-97033523D01*
X23745735Y-93033523D01*
X25117163Y-97033523D02*
X25117163Y-93033523D01*
X25117163Y-94938285D02*
X27174306Y-94938285D01*
X27174306Y-97033523D02*
X27174306Y-93033523D01*
X28888592Y-97033523D02*
X28888592Y-93033523D01*
X30088592Y-93033523D02*
X32145735Y-93033523D01*
X31117163Y-97033523D02*
X31117163Y-93033523D01*
X33345735Y-94938285D02*
X34545735Y-94938285D01*
X35060020Y-97033523D02*
X33345735Y-97033523D01*
X33345735Y-93033523D01*
X35060020Y-93033523D01*
X26162785Y-141033523D02*
X24962785Y-139128761D01*
X24105642Y-141033523D02*
X24105642Y-137033523D01*
X25477071Y-137033523D01*
X25819928Y-137224000D01*
X25991357Y-137414476D01*
X26162785Y-137795428D01*
X26162785Y-138366857D01*
X25991357Y-138747809D01*
X25819928Y-138938285D01*
X25477071Y-139128761D01*
X24105642Y-139128761D01*
X27705642Y-138938285D02*
X28905642Y-138938285D01*
X29419928Y-141033523D02*
X27705642Y-141033523D01*
X27705642Y-137033523D01*
X29419928Y-137033523D01*
X30962785Y-141033523D02*
X30962785Y-137033523D01*
X31819928Y-137033523D01*
X32334214Y-137224000D01*
X32677071Y-137604952D01*
X32848500Y-137985904D01*
X33019928Y-138747809D01*
X33019928Y-139319238D01*
X32848500Y-140081142D01*
X32677071Y-140462095D01*
X32334214Y-140843047D01*
X31819928Y-141033523D01*
X30962785Y-141033523D01*
D13*
%TO.C,J2*%
X34333500Y-113585500D02*
X21125500Y-113585500D01*
X36873500Y-111553500D02*
X34333500Y-113585500D01*
X21125500Y-113585500D02*
X21125500Y-97837500D01*
X36873500Y-110537500D02*
X36873500Y-111553500D01*
X36873500Y-97837500D02*
X36873500Y-110537500D01*
X21125500Y-97837500D02*
X36873500Y-97837500D01*
%TO.C,J1*%
X34333500Y-157591000D02*
X21125500Y-157591000D01*
X36873500Y-155559000D02*
X34333500Y-157591000D01*
X21125500Y-157591000D02*
X21125500Y-141843000D01*
X36873500Y-154543000D02*
X36873500Y-155559000D01*
X36873500Y-141843000D02*
X36873500Y-154543000D01*
X21125500Y-141843000D02*
X36873500Y-141843000D01*
%TO.C,J3*%
X21125500Y-163877500D02*
X36873500Y-163877500D01*
X36873500Y-163877500D02*
X36873500Y-176577500D01*
X36873500Y-176577500D02*
X36873500Y-177593500D01*
X21125500Y-179625500D02*
X21125500Y-163877500D01*
X36873500Y-177593500D02*
X34333500Y-179625500D01*
X34333500Y-179625500D02*
X21125500Y-179625500D01*
%TO.C,J5*%
X21125500Y-119872000D02*
X36873500Y-119872000D01*
X36873500Y-119872000D02*
X36873500Y-132572000D01*
X36873500Y-132572000D02*
X36873500Y-133588000D01*
X21125500Y-135620000D02*
X21125500Y-119872000D01*
X36873500Y-133588000D02*
X34333500Y-135620000D01*
X34333500Y-135620000D02*
X21125500Y-135620000D01*
%TD*%
M02*
