%TF.GenerationSoftware,KiCad,Pcbnew,(5.1.9)-1*%
%TF.CreationDate,2021-09-21T18:31:50+01:00*%
%TF.ProjectId,Kosmo Noise,4b6f736d-6f20-44e6-9f69-73652e6b6963,rev?*%
%TF.SameCoordinates,Original*%
%TF.FileFunction,Other,Fab,Bot*%
%FSLAX46Y46*%
G04 Gerber Fmt 4.6, Leading zero omitted, Abs format (unit mm)*
G04 Created by KiCad (PCBNEW (5.1.9)-1) date 2021-09-21 18:31:50*
%MOMM*%
%LPD*%
G01*
G04 APERTURE LIST*
%ADD10C,0.100000*%
%ADD11C,0.150000*%
%ADD12C,0.090000*%
G04 APERTURE END LIST*
D10*
%TO.C,C1*%
X35564000Y-63665000D02*
X35564000Y-62065000D01*
X35564000Y-62065000D02*
X38564000Y-62065000D01*
X38564000Y-62065000D02*
X38564000Y-63665000D01*
X38564000Y-63665000D02*
X35564000Y-63665000D01*
%TO.C,c1*%
X23659500Y-21639472D02*
X23029500Y-21639472D01*
X23344500Y-21954472D02*
X23344500Y-21324472D01*
X25121000Y-19260500D02*
G75*
G03*
X25121000Y-19260500I-3150000J0D01*
G01*
%TO.C,C2*%
X24110500Y-57048500D02*
X27110500Y-57048500D01*
X24110500Y-58648500D02*
X24110500Y-57048500D01*
X27110500Y-58648500D02*
X24110500Y-58648500D01*
X27110500Y-57048500D02*
X27110500Y-58648500D01*
%TO.C,C3*%
X29595000Y-22326500D02*
X29595000Y-20726500D01*
X29595000Y-20726500D02*
X32595000Y-20726500D01*
X32595000Y-20726500D02*
X32595000Y-22326500D01*
X32595000Y-22326500D02*
X29595000Y-22326500D01*
%TO.C,C4*%
X25692000Y-48050000D02*
X25692000Y-51050000D01*
X24092000Y-48050000D02*
X25692000Y-48050000D01*
X24092000Y-51050000D02*
X24092000Y-48050000D01*
X25692000Y-51050000D02*
X24092000Y-51050000D01*
%TO.C,C5*%
X32531500Y-20040500D02*
X29531500Y-20040500D01*
X32531500Y-18440500D02*
X32531500Y-20040500D01*
X29531500Y-18440500D02*
X32531500Y-18440500D01*
X29531500Y-20040500D02*
X29531500Y-18440500D01*
%TO.C,C6*%
X32531500Y-17754500D02*
X29531500Y-17754500D01*
X32531500Y-16154500D02*
X32531500Y-17754500D01*
X29531500Y-16154500D02*
X32531500Y-16154500D01*
X29531500Y-17754500D02*
X29531500Y-16154500D01*
%TO.C,C7*%
X31521500Y-11561000D02*
X33121500Y-11561000D01*
X33121500Y-11561000D02*
X33121500Y-14561000D01*
X33121500Y-14561000D02*
X31521500Y-14561000D01*
X31521500Y-14561000D02*
X31521500Y-11561000D01*
%TO.C,C8*%
X34461000Y-7772500D02*
X37461000Y-7772500D01*
X34461000Y-9372500D02*
X34461000Y-7772500D01*
X37461000Y-9372500D02*
X34461000Y-9372500D01*
X37461000Y-7772500D02*
X37461000Y-9372500D01*
%TO.C,C9*%
X33185000Y-9584500D02*
X31585000Y-9584500D01*
X31585000Y-9584500D02*
X31585000Y-6584500D01*
X31585000Y-6584500D02*
X33185000Y-6584500D01*
X33185000Y-6584500D02*
X33185000Y-9584500D01*
%TO.C,C10*%
X38540500Y-64351000D02*
X38540500Y-65951000D01*
X38540500Y-65951000D02*
X35540500Y-65951000D01*
X35540500Y-65951000D02*
X35540500Y-64351000D01*
X35540500Y-64351000D02*
X38540500Y-64351000D01*
%TO.C,C17*%
X19635528Y-140626500D02*
X19635528Y-139996500D01*
X19320528Y-140311500D02*
X19950528Y-140311500D01*
X25164500Y-138938000D02*
G75*
G03*
X25164500Y-138938000I-3150000J0D01*
G01*
%TO.C,C18*%
X25331500Y-117030500D02*
G75*
G03*
X25331500Y-117030500I-3150000J0D01*
G01*
X24875472Y-115657000D02*
X24245472Y-115657000D01*
X24560472Y-115342000D02*
X24560472Y-115972000D01*
%TO.C,C21*%
X28295500Y-35477000D02*
X28295500Y-38477000D01*
X26695500Y-35477000D02*
X28295500Y-35477000D01*
X26695500Y-38477000D02*
X26695500Y-35477000D01*
X28295500Y-38477000D02*
X26695500Y-38477000D01*
%TO.C,C22*%
X25997000Y-21736500D02*
X25997000Y-18736500D01*
X27597000Y-21736500D02*
X25997000Y-21736500D01*
X27597000Y-18736500D02*
X27597000Y-21736500D01*
X25997000Y-18736500D02*
X27597000Y-18736500D01*
%TO.C,C23*%
X38540500Y-68796000D02*
X38540500Y-70396000D01*
X38540500Y-70396000D02*
X35540500Y-70396000D01*
X35540500Y-70396000D02*
X35540500Y-68796000D01*
X35540500Y-68796000D02*
X38540500Y-68796000D01*
%TO.C,C24*%
X38540500Y-66573500D02*
X38540500Y-68173500D01*
X38540500Y-68173500D02*
X35540500Y-68173500D01*
X35540500Y-68173500D02*
X35540500Y-66573500D01*
X35540500Y-66573500D02*
X38540500Y-66573500D01*
%TO.C,D1*%
X36051500Y-38675000D02*
X38751500Y-38675000D01*
X38751500Y-38675000D02*
X38751500Y-43875000D01*
X38751500Y-43875000D02*
X36051500Y-43875000D01*
X36051500Y-43875000D02*
X36051500Y-38675000D01*
X37401500Y-36195000D02*
X37401500Y-38675000D01*
X37401500Y-46355000D02*
X37401500Y-43875000D01*
X36051500Y-39455000D02*
X38751500Y-39455000D01*
X36051500Y-39555000D02*
X38751500Y-39555000D01*
X36051500Y-39355000D02*
X38751500Y-39355000D01*
%TO.C,D2*%
X38815000Y-56466500D02*
X36115000Y-56466500D01*
X38815000Y-56266500D02*
X36115000Y-56266500D01*
X38815000Y-56366500D02*
X36115000Y-56366500D01*
X37465000Y-49466500D02*
X37465000Y-51946500D01*
X37465000Y-59626500D02*
X37465000Y-57146500D01*
X38815000Y-51946500D02*
X38815000Y-57146500D01*
X36115000Y-51946500D02*
X38815000Y-51946500D01*
X36115000Y-57146500D02*
X36115000Y-51946500D01*
X38815000Y-57146500D02*
X36115000Y-57146500D01*
%TO.C,J6*%
X39199500Y-84157500D02*
X38639500Y-84707500D01*
X18839500Y-84157500D02*
X19379500Y-84707500D01*
X39199500Y-93007500D02*
X38639500Y-92457500D01*
X18839500Y-93007500D02*
X19379500Y-92457500D01*
X38639500Y-92457500D02*
X38639500Y-84707500D01*
X39199500Y-93007500D02*
X39199500Y-84157500D01*
X19379500Y-92457500D02*
X19379500Y-84707500D01*
X18839500Y-93007500D02*
X18839500Y-84157500D01*
X31269500Y-84707500D02*
X31269500Y-84157500D01*
X26769500Y-84707500D02*
X26769500Y-84157500D01*
X31269500Y-84707500D02*
X38639500Y-84707500D01*
X19379500Y-84707500D02*
X26769500Y-84707500D01*
X18839500Y-84157500D02*
X39199500Y-84157500D01*
X19379500Y-92457500D02*
X38639500Y-92457500D01*
X18839500Y-93007500D02*
X39199500Y-93007500D01*
%TO.C,Q1*%
X27330500Y-56423500D02*
X23830500Y-56423500D01*
X23836875Y-56427125D02*
G75*
G02*
X25590500Y-52193500I1753625J1753625D01*
G01*
X27344125Y-56427125D02*
G75*
G03*
X25590500Y-52193500I-1753625J1753625D01*
G01*
%TO.C,R1*%
X32849500Y-50253500D02*
X35349500Y-50253500D01*
X35349500Y-50253500D02*
X35349500Y-56553500D01*
X35349500Y-56553500D02*
X32849500Y-56553500D01*
X32849500Y-56553500D02*
X32849500Y-50253500D01*
X34099500Y-48323500D02*
X34099500Y-50253500D01*
X34099500Y-58483500D02*
X34099500Y-56553500D01*
%TO.C,R2*%
X30861000Y-48323500D02*
X30861000Y-50253500D01*
X30861000Y-58483500D02*
X30861000Y-56553500D01*
X32111000Y-50253500D02*
X32111000Y-56553500D01*
X29611000Y-50253500D02*
X32111000Y-50253500D01*
X29611000Y-56553500D02*
X29611000Y-50253500D01*
X32111000Y-56553500D02*
X29611000Y-56553500D01*
%TO.C,R3*%
X33083500Y-60769500D02*
X33083500Y-62699500D01*
X33083500Y-70929500D02*
X33083500Y-68999500D01*
X34333500Y-62699500D02*
X34333500Y-68999500D01*
X31833500Y-62699500D02*
X34333500Y-62699500D01*
X31833500Y-68999500D02*
X31833500Y-62699500D01*
X34333500Y-68999500D02*
X31833500Y-68999500D01*
%TO.C,R4*%
X31158500Y-68999500D02*
X28658500Y-68999500D01*
X28658500Y-68999500D02*
X28658500Y-62699500D01*
X28658500Y-62699500D02*
X31158500Y-62699500D01*
X31158500Y-62699500D02*
X31158500Y-68999500D01*
X29908500Y-70929500D02*
X29908500Y-68999500D01*
X29908500Y-60769500D02*
X29908500Y-62699500D01*
%TO.C,R5*%
X19621500Y-13779500D02*
X21551500Y-13779500D01*
X29781500Y-13779500D02*
X27851500Y-13779500D01*
X21551500Y-12529500D02*
X27851500Y-12529500D01*
X21551500Y-15029500D02*
X21551500Y-12529500D01*
X27851500Y-15029500D02*
X21551500Y-15029500D01*
X27851500Y-12529500D02*
X27851500Y-15029500D01*
%TO.C,R6*%
X21062000Y-53759500D02*
X18562000Y-53759500D01*
X18562000Y-53759500D02*
X18562000Y-47459500D01*
X18562000Y-47459500D02*
X21062000Y-47459500D01*
X21062000Y-47459500D02*
X21062000Y-53759500D01*
X19812000Y-55689500D02*
X19812000Y-53759500D01*
X19812000Y-45529500D02*
X19812000Y-47459500D01*
%TO.C,R7*%
X19621500Y-10541000D02*
X21551500Y-10541000D01*
X29781500Y-10541000D02*
X27851500Y-10541000D01*
X21551500Y-9291000D02*
X27851500Y-9291000D01*
X21551500Y-11791000D02*
X21551500Y-9291000D01*
X27851500Y-11791000D02*
X21551500Y-11791000D01*
X27851500Y-9291000D02*
X27851500Y-11791000D01*
%TO.C,R8*%
X27749500Y-50482500D02*
X27749500Y-48552500D01*
X27749500Y-40322500D02*
X27749500Y-42252500D01*
X26499500Y-48552500D02*
X26499500Y-42252500D01*
X28999500Y-48552500D02*
X26499500Y-48552500D01*
X28999500Y-42252500D02*
X28999500Y-48552500D01*
X26499500Y-42252500D02*
X28999500Y-42252500D01*
%TO.C,R9*%
X29547500Y-37807500D02*
X32047500Y-37807500D01*
X32047500Y-37807500D02*
X32047500Y-44107500D01*
X32047500Y-44107500D02*
X29547500Y-44107500D01*
X29547500Y-44107500D02*
X29547500Y-37807500D01*
X30797500Y-35877500D02*
X30797500Y-37807500D01*
X30797500Y-46037500D02*
X30797500Y-44107500D01*
%TO.C,R10*%
X27851500Y-6179500D02*
X27851500Y-8679500D01*
X27851500Y-8679500D02*
X21551500Y-8679500D01*
X21551500Y-8679500D02*
X21551500Y-6179500D01*
X21551500Y-6179500D02*
X27851500Y-6179500D01*
X29781500Y-7429500D02*
X27851500Y-7429500D01*
X19621500Y-7429500D02*
X21551500Y-7429500D01*
%TO.C,R11*%
X34099500Y-46037500D02*
X34099500Y-44107500D01*
X34099500Y-35877500D02*
X34099500Y-37807500D01*
X32849500Y-44107500D02*
X32849500Y-37807500D01*
X35349500Y-44107500D02*
X32849500Y-44107500D01*
X35349500Y-37807500D02*
X35349500Y-44107500D01*
X32849500Y-37807500D02*
X35349500Y-37807500D01*
%TO.C,R12*%
X23451500Y-37617000D02*
X25951500Y-37617000D01*
X25951500Y-37617000D02*
X25951500Y-43917000D01*
X25951500Y-43917000D02*
X23451500Y-43917000D01*
X23451500Y-43917000D02*
X23451500Y-37617000D01*
X24701500Y-35687000D02*
X24701500Y-37617000D01*
X24701500Y-45847000D02*
X24701500Y-43917000D01*
%TO.C,R13*%
X35369500Y-11366500D02*
X35369500Y-13296500D01*
X35369500Y-21526500D02*
X35369500Y-19596500D01*
X36619500Y-13296500D02*
X36619500Y-19596500D01*
X34119500Y-13296500D02*
X36619500Y-13296500D01*
X34119500Y-19596500D02*
X34119500Y-13296500D01*
X36619500Y-19596500D02*
X34119500Y-19596500D01*
%TO.C,R14*%
X21379500Y-68237500D02*
X18879500Y-68237500D01*
X18879500Y-68237500D02*
X18879500Y-61937500D01*
X18879500Y-61937500D02*
X21379500Y-61937500D01*
X21379500Y-61937500D02*
X21379500Y-68237500D01*
X20129500Y-70167500D02*
X20129500Y-68237500D01*
X20129500Y-60007500D02*
X20129500Y-61937500D01*
%TO.C,R15*%
X26479500Y-60007500D02*
X26479500Y-61937500D01*
X26479500Y-70167500D02*
X26479500Y-68237500D01*
X27729500Y-61937500D02*
X27729500Y-68237500D01*
X25229500Y-61937500D02*
X27729500Y-61937500D01*
X25229500Y-68237500D02*
X25229500Y-61937500D01*
X27729500Y-68237500D02*
X25229500Y-68237500D01*
%TO.C,R16*%
X24618000Y-68237500D02*
X22118000Y-68237500D01*
X22118000Y-68237500D02*
X22118000Y-61937500D01*
X22118000Y-61937500D02*
X24618000Y-61937500D01*
X24618000Y-61937500D02*
X24618000Y-68237500D01*
X23368000Y-70167500D02*
X23368000Y-68237500D01*
X23368000Y-60007500D02*
X23368000Y-61937500D01*
%TO.C,R22*%
X29933500Y-139997500D02*
X29933500Y-137497500D01*
X29933500Y-137497500D02*
X36233500Y-137497500D01*
X36233500Y-137497500D02*
X36233500Y-139997500D01*
X36233500Y-139997500D02*
X29933500Y-139997500D01*
X28003500Y-138747500D02*
X29933500Y-138747500D01*
X38163500Y-138747500D02*
X36233500Y-138747500D01*
%TO.C,R23*%
X38227000Y-94996000D02*
X36297000Y-94996000D01*
X28067000Y-94996000D02*
X29997000Y-94996000D01*
X36297000Y-96246000D02*
X29997000Y-96246000D01*
X36297000Y-93746000D02*
X36297000Y-96246000D01*
X29997000Y-93746000D02*
X36297000Y-93746000D01*
X29997000Y-96246000D02*
X29997000Y-93746000D01*
%TO.C,R24*%
X34226500Y-160655000D02*
X32296500Y-160655000D01*
X24066500Y-160655000D02*
X25996500Y-160655000D01*
X32296500Y-161905000D02*
X25996500Y-161905000D01*
X32296500Y-159405000D02*
X32296500Y-161905000D01*
X25996500Y-159405000D02*
X32296500Y-159405000D01*
X25996500Y-161905000D02*
X25996500Y-159405000D01*
%TO.C,R26*%
X29870000Y-117899500D02*
X29870000Y-115399500D01*
X29870000Y-115399500D02*
X36170000Y-115399500D01*
X36170000Y-115399500D02*
X36170000Y-117899500D01*
X36170000Y-117899500D02*
X29870000Y-117899500D01*
X27940000Y-116649500D02*
X29870000Y-116649500D01*
X38100000Y-116649500D02*
X36170000Y-116649500D01*
%TO.C,U1*%
X36639500Y-79708500D02*
X36639500Y-74358500D01*
X36639500Y-74358500D02*
X18859500Y-74358500D01*
X18859500Y-74358500D02*
X18859500Y-80708500D01*
X18859500Y-80708500D02*
X35639500Y-80708500D01*
X35639500Y-80708500D02*
X36639500Y-79708500D01*
X36699500Y-82613500D02*
X18799500Y-82613500D01*
X18799500Y-82613500D02*
X18799500Y-72453500D01*
X18799500Y-72453500D02*
X36699500Y-72453500D01*
X36699500Y-72453500D02*
X36699500Y-82613500D01*
%TO.C,U2*%
X36445500Y-23495000D02*
X36445500Y-33655000D01*
X18545500Y-23495000D02*
X36445500Y-23495000D01*
X18545500Y-33655000D02*
X18545500Y-23495000D01*
X36445500Y-33655000D02*
X18545500Y-33655000D01*
X35385500Y-31750000D02*
X36385500Y-30750000D01*
X18605500Y-31750000D02*
X35385500Y-31750000D01*
X18605500Y-25400000D02*
X18605500Y-31750000D01*
X36385500Y-25400000D02*
X18605500Y-25400000D01*
X36385500Y-30750000D02*
X36385500Y-25400000D01*
%TD*%
%TO.C,C1*%
D11*
X37659238Y-61267380D02*
X38230666Y-61267380D01*
X37944952Y-61267380D02*
X37944952Y-60267380D01*
X38040190Y-60410238D01*
X38135428Y-60505476D01*
X38230666Y-60553095D01*
X36802095Y-60600714D02*
X36802095Y-61267380D01*
X37230666Y-60600714D02*
X37230666Y-61124523D01*
X37183047Y-61219761D01*
X37087809Y-61267380D01*
X36944952Y-61267380D01*
X36849714Y-61219761D01*
X36802095Y-61172142D01*
X35992571Y-60743571D02*
X36325904Y-60743571D01*
X36325904Y-61267380D02*
X36325904Y-60267380D01*
X35849714Y-60267380D01*
D12*
X37164000Y-63079285D02*
X37192571Y-63107857D01*
X37278285Y-63136428D01*
X37335428Y-63136428D01*
X37421142Y-63107857D01*
X37478285Y-63050714D01*
X37506857Y-62993571D01*
X37535428Y-62879285D01*
X37535428Y-62793571D01*
X37506857Y-62679285D01*
X37478285Y-62622142D01*
X37421142Y-62565000D01*
X37335428Y-62536428D01*
X37278285Y-62536428D01*
X37192571Y-62565000D01*
X37164000Y-62593571D01*
X36592571Y-63136428D02*
X36935428Y-63136428D01*
X36764000Y-63136428D02*
X36764000Y-62536428D01*
X36821142Y-62622142D01*
X36878285Y-62679285D01*
X36935428Y-62707857D01*
%TO.C,c1*%
D11*
X18023380Y-18189071D02*
X18023380Y-17617642D01*
X18023380Y-17903357D02*
X17023380Y-17903357D01*
X17166238Y-17808119D01*
X17261476Y-17712880D01*
X17309095Y-17617642D01*
X17023380Y-18808119D02*
X17023380Y-18903357D01*
X17071000Y-18998595D01*
X17118619Y-19046214D01*
X17213857Y-19093833D01*
X17404333Y-19141452D01*
X17642428Y-19141452D01*
X17832904Y-19093833D01*
X17928142Y-19046214D01*
X17975761Y-18998595D01*
X18023380Y-18903357D01*
X18023380Y-18808119D01*
X17975761Y-18712880D01*
X17928142Y-18665261D01*
X17832904Y-18617642D01*
X17642428Y-18570023D01*
X17404333Y-18570023D01*
X17213857Y-18617642D01*
X17118619Y-18665261D01*
X17071000Y-18712880D01*
X17023380Y-18808119D01*
X17356714Y-19998595D02*
X18023380Y-19998595D01*
X17356714Y-19570023D02*
X17880523Y-19570023D01*
X17975761Y-19617642D01*
X18023380Y-19712880D01*
X18023380Y-19855738D01*
X17975761Y-19950976D01*
X17928142Y-19998595D01*
X17499571Y-20808119D02*
X17499571Y-20474785D01*
X18023380Y-20474785D02*
X17023380Y-20474785D01*
X17023380Y-20950976D01*
X22375761Y-19022404D02*
X22423380Y-18927166D01*
X22423380Y-18736690D01*
X22375761Y-18641452D01*
X22328142Y-18593833D01*
X22232904Y-18546214D01*
X21947190Y-18546214D01*
X21851952Y-18593833D01*
X21804333Y-18641452D01*
X21756714Y-18736690D01*
X21756714Y-18927166D01*
X21804333Y-19022404D01*
X22423380Y-19974785D02*
X22423380Y-19403357D01*
X22423380Y-19689071D02*
X21423380Y-19689071D01*
X21566238Y-19593833D01*
X21661476Y-19498595D01*
X21709095Y-19403357D01*
%TO.C,C2*%
X27777166Y-59350880D02*
X27158119Y-59350880D01*
X27491452Y-59731833D01*
X27348595Y-59731833D01*
X27253357Y-59779452D01*
X27205738Y-59827071D01*
X27158119Y-59922309D01*
X27158119Y-60160404D01*
X27205738Y-60255642D01*
X27253357Y-60303261D01*
X27348595Y-60350880D01*
X27634309Y-60350880D01*
X27729547Y-60303261D01*
X27777166Y-60255642D01*
X26824785Y-59350880D02*
X26205738Y-59350880D01*
X26539071Y-59731833D01*
X26396214Y-59731833D01*
X26300976Y-59779452D01*
X26253357Y-59827071D01*
X26205738Y-59922309D01*
X26205738Y-60160404D01*
X26253357Y-60255642D01*
X26300976Y-60303261D01*
X26396214Y-60350880D01*
X26681928Y-60350880D01*
X26777166Y-60303261D01*
X26824785Y-60255642D01*
X25586690Y-59350880D02*
X25491452Y-59350880D01*
X25396214Y-59398500D01*
X25348595Y-59446119D01*
X25300976Y-59541357D01*
X25253357Y-59731833D01*
X25253357Y-59969928D01*
X25300976Y-60160404D01*
X25348595Y-60255642D01*
X25396214Y-60303261D01*
X25491452Y-60350880D01*
X25586690Y-60350880D01*
X25681928Y-60303261D01*
X25729547Y-60255642D01*
X25777166Y-60160404D01*
X25824785Y-59969928D01*
X25824785Y-59731833D01*
X25777166Y-59541357D01*
X25729547Y-59446119D01*
X25681928Y-59398500D01*
X25586690Y-59350880D01*
X24824785Y-59684214D02*
X24824785Y-60684214D01*
X24824785Y-59731833D02*
X24729547Y-59684214D01*
X24539071Y-59684214D01*
X24443833Y-59731833D01*
X24396214Y-59779452D01*
X24348595Y-59874690D01*
X24348595Y-60160404D01*
X24396214Y-60255642D01*
X24443833Y-60303261D01*
X24539071Y-60350880D01*
X24729547Y-60350880D01*
X24824785Y-60303261D01*
X23586690Y-59827071D02*
X23920023Y-59827071D01*
X23920023Y-60350880D02*
X23920023Y-59350880D01*
X23443833Y-59350880D01*
D12*
X25710500Y-58062785D02*
X25739071Y-58091357D01*
X25824785Y-58119928D01*
X25881928Y-58119928D01*
X25967642Y-58091357D01*
X26024785Y-58034214D01*
X26053357Y-57977071D01*
X26081928Y-57862785D01*
X26081928Y-57777071D01*
X26053357Y-57662785D01*
X26024785Y-57605642D01*
X25967642Y-57548500D01*
X25881928Y-57519928D01*
X25824785Y-57519928D01*
X25739071Y-57548500D01*
X25710500Y-57577071D01*
X25481928Y-57577071D02*
X25453357Y-57548500D01*
X25396214Y-57519928D01*
X25253357Y-57519928D01*
X25196214Y-57548500D01*
X25167642Y-57577071D01*
X25139071Y-57634214D01*
X25139071Y-57691357D01*
X25167642Y-57777071D01*
X25510500Y-58119928D01*
X25139071Y-58119928D01*
%TO.C,C3*%
D11*
X31690238Y-19928880D02*
X32261666Y-19928880D01*
X31975952Y-19928880D02*
X31975952Y-18928880D01*
X32071190Y-19071738D01*
X32166428Y-19166976D01*
X32261666Y-19214595D01*
X30833095Y-19262214D02*
X30833095Y-19928880D01*
X31261666Y-19262214D02*
X31261666Y-19786023D01*
X31214047Y-19881261D01*
X31118809Y-19928880D01*
X30975952Y-19928880D01*
X30880714Y-19881261D01*
X30833095Y-19833642D01*
X30023571Y-19405071D02*
X30356904Y-19405071D01*
X30356904Y-19928880D02*
X30356904Y-18928880D01*
X29880714Y-18928880D01*
D12*
X31195000Y-21740785D02*
X31223571Y-21769357D01*
X31309285Y-21797928D01*
X31366428Y-21797928D01*
X31452142Y-21769357D01*
X31509285Y-21712214D01*
X31537857Y-21655071D01*
X31566428Y-21540785D01*
X31566428Y-21455071D01*
X31537857Y-21340785D01*
X31509285Y-21283642D01*
X31452142Y-21226500D01*
X31366428Y-21197928D01*
X31309285Y-21197928D01*
X31223571Y-21226500D01*
X31195000Y-21255071D01*
X30995000Y-21197928D02*
X30623571Y-21197928D01*
X30823571Y-21426500D01*
X30737857Y-21426500D01*
X30680714Y-21455071D01*
X30652142Y-21483642D01*
X30623571Y-21540785D01*
X30623571Y-21683642D01*
X30652142Y-21740785D01*
X30680714Y-21769357D01*
X30737857Y-21797928D01*
X30909285Y-21797928D01*
X30966428Y-21769357D01*
X30995000Y-21740785D01*
%TO.C,C4*%
D11*
X23294380Y-48954761D02*
X23294380Y-48383333D01*
X23294380Y-48669047D02*
X22294380Y-48669047D01*
X22437238Y-48573809D01*
X22532476Y-48478571D01*
X22580095Y-48383333D01*
X22627714Y-49811904D02*
X23294380Y-49811904D01*
X22627714Y-49383333D02*
X23151523Y-49383333D01*
X23246761Y-49430952D01*
X23294380Y-49526190D01*
X23294380Y-49669047D01*
X23246761Y-49764285D01*
X23199142Y-49811904D01*
X22770571Y-50621428D02*
X22770571Y-50288095D01*
X23294380Y-50288095D02*
X22294380Y-50288095D01*
X22294380Y-50764285D01*
D12*
X25106285Y-49450000D02*
X25134857Y-49421428D01*
X25163428Y-49335714D01*
X25163428Y-49278571D01*
X25134857Y-49192857D01*
X25077714Y-49135714D01*
X25020571Y-49107142D01*
X24906285Y-49078571D01*
X24820571Y-49078571D01*
X24706285Y-49107142D01*
X24649142Y-49135714D01*
X24592000Y-49192857D01*
X24563428Y-49278571D01*
X24563428Y-49335714D01*
X24592000Y-49421428D01*
X24620571Y-49450000D01*
X24763428Y-49964285D02*
X25163428Y-49964285D01*
X24534857Y-49821428D02*
X24963428Y-49678571D01*
X24963428Y-50050000D01*
%TO.C,C5*%
D11*
X33150547Y-16738119D02*
X33102928Y-16690500D01*
X33007690Y-16642880D01*
X32769595Y-16642880D01*
X32674357Y-16690500D01*
X32626738Y-16738119D01*
X32579119Y-16833357D01*
X32579119Y-16928595D01*
X32626738Y-17071452D01*
X33198166Y-17642880D01*
X32579119Y-17642880D01*
X32198166Y-16738119D02*
X32150547Y-16690500D01*
X32055309Y-16642880D01*
X31817214Y-16642880D01*
X31721976Y-16690500D01*
X31674357Y-16738119D01*
X31626738Y-16833357D01*
X31626738Y-16928595D01*
X31674357Y-17071452D01*
X32245785Y-17642880D01*
X31626738Y-17642880D01*
X31007690Y-16642880D02*
X30912452Y-16642880D01*
X30817214Y-16690500D01*
X30769595Y-16738119D01*
X30721976Y-16833357D01*
X30674357Y-17023833D01*
X30674357Y-17261928D01*
X30721976Y-17452404D01*
X30769595Y-17547642D01*
X30817214Y-17595261D01*
X30912452Y-17642880D01*
X31007690Y-17642880D01*
X31102928Y-17595261D01*
X31150547Y-17547642D01*
X31198166Y-17452404D01*
X31245785Y-17261928D01*
X31245785Y-17023833D01*
X31198166Y-16833357D01*
X31150547Y-16738119D01*
X31102928Y-16690500D01*
X31007690Y-16642880D01*
X30245785Y-16976214D02*
X30245785Y-17642880D01*
X30245785Y-17071452D02*
X30198166Y-17023833D01*
X30102928Y-16976214D01*
X29960071Y-16976214D01*
X29864833Y-17023833D01*
X29817214Y-17119071D01*
X29817214Y-17642880D01*
X29007690Y-17119071D02*
X29341023Y-17119071D01*
X29341023Y-17642880D02*
X29341023Y-16642880D01*
X28864833Y-16642880D01*
D12*
X31131500Y-19454785D02*
X31160071Y-19483357D01*
X31245785Y-19511928D01*
X31302928Y-19511928D01*
X31388642Y-19483357D01*
X31445785Y-19426214D01*
X31474357Y-19369071D01*
X31502928Y-19254785D01*
X31502928Y-19169071D01*
X31474357Y-19054785D01*
X31445785Y-18997642D01*
X31388642Y-18940500D01*
X31302928Y-18911928D01*
X31245785Y-18911928D01*
X31160071Y-18940500D01*
X31131500Y-18969071D01*
X30588642Y-18911928D02*
X30874357Y-18911928D01*
X30902928Y-19197642D01*
X30874357Y-19169071D01*
X30817214Y-19140500D01*
X30674357Y-19140500D01*
X30617214Y-19169071D01*
X30588642Y-19197642D01*
X30560071Y-19254785D01*
X30560071Y-19397642D01*
X30588642Y-19454785D01*
X30617214Y-19483357D01*
X30674357Y-19511928D01*
X30817214Y-19511928D01*
X30874357Y-19483357D01*
X30902928Y-19454785D01*
%TO.C,C6*%
D11*
X32198166Y-14690214D02*
X32198166Y-15356880D01*
X32436261Y-14309261D02*
X32674357Y-15023547D01*
X32055309Y-15023547D01*
X31769595Y-14356880D02*
X31102928Y-14356880D01*
X31531500Y-15356880D01*
X30721976Y-14690214D02*
X30721976Y-15356880D01*
X30721976Y-14785452D02*
X30674357Y-14737833D01*
X30579119Y-14690214D01*
X30436261Y-14690214D01*
X30341023Y-14737833D01*
X30293404Y-14833071D01*
X30293404Y-15356880D01*
X29483880Y-14833071D02*
X29817214Y-14833071D01*
X29817214Y-15356880D02*
X29817214Y-14356880D01*
X29341023Y-14356880D01*
D12*
X31131500Y-17168785D02*
X31160071Y-17197357D01*
X31245785Y-17225928D01*
X31302928Y-17225928D01*
X31388642Y-17197357D01*
X31445785Y-17140214D01*
X31474357Y-17083071D01*
X31502928Y-16968785D01*
X31502928Y-16883071D01*
X31474357Y-16768785D01*
X31445785Y-16711642D01*
X31388642Y-16654500D01*
X31302928Y-16625928D01*
X31245785Y-16625928D01*
X31160071Y-16654500D01*
X31131500Y-16683071D01*
X30617214Y-16625928D02*
X30731500Y-16625928D01*
X30788642Y-16654500D01*
X30817214Y-16683071D01*
X30874357Y-16768785D01*
X30902928Y-16883071D01*
X30902928Y-17111642D01*
X30874357Y-17168785D01*
X30845785Y-17197357D01*
X30788642Y-17225928D01*
X30674357Y-17225928D01*
X30617214Y-17197357D01*
X30588642Y-17168785D01*
X30560071Y-17111642D01*
X30560071Y-16968785D01*
X30588642Y-16911642D01*
X30617214Y-16883071D01*
X30674357Y-16854500D01*
X30788642Y-16854500D01*
X30845785Y-16883071D01*
X30874357Y-16911642D01*
X30902928Y-16968785D01*
%TO.C,C7*%
D11*
X34157214Y-11894333D02*
X34823880Y-11894333D01*
X33776261Y-11656238D02*
X34490547Y-11418142D01*
X34490547Y-12037190D01*
X33823880Y-12322904D02*
X33823880Y-12989571D01*
X34823880Y-12561000D01*
X34157214Y-13370523D02*
X34823880Y-13370523D01*
X34252452Y-13370523D02*
X34204833Y-13418142D01*
X34157214Y-13513380D01*
X34157214Y-13656238D01*
X34204833Y-13751476D01*
X34300071Y-13799095D01*
X34823880Y-13799095D01*
X34300071Y-14608619D02*
X34300071Y-14275285D01*
X34823880Y-14275285D02*
X33823880Y-14275285D01*
X33823880Y-14751476D01*
D12*
X32535785Y-12961000D02*
X32564357Y-12932428D01*
X32592928Y-12846714D01*
X32592928Y-12789571D01*
X32564357Y-12703857D01*
X32507214Y-12646714D01*
X32450071Y-12618142D01*
X32335785Y-12589571D01*
X32250071Y-12589571D01*
X32135785Y-12618142D01*
X32078642Y-12646714D01*
X32021500Y-12703857D01*
X31992928Y-12789571D01*
X31992928Y-12846714D01*
X32021500Y-12932428D01*
X32050071Y-12961000D01*
X31992928Y-13161000D02*
X31992928Y-13561000D01*
X32592928Y-13303857D01*
%TO.C,C8*%
D11*
X37127666Y-10408214D02*
X37127666Y-11074880D01*
X37365761Y-10027261D02*
X37603857Y-10741547D01*
X36984809Y-10741547D01*
X36699095Y-10074880D02*
X36032428Y-10074880D01*
X36461000Y-11074880D01*
X35651476Y-10408214D02*
X35651476Y-11074880D01*
X35651476Y-10503452D02*
X35603857Y-10455833D01*
X35508619Y-10408214D01*
X35365761Y-10408214D01*
X35270523Y-10455833D01*
X35222904Y-10551071D01*
X35222904Y-11074880D01*
X34413380Y-10551071D02*
X34746714Y-10551071D01*
X34746714Y-11074880D02*
X34746714Y-10074880D01*
X34270523Y-10074880D01*
D12*
X36061000Y-8786785D02*
X36089571Y-8815357D01*
X36175285Y-8843928D01*
X36232428Y-8843928D01*
X36318142Y-8815357D01*
X36375285Y-8758214D01*
X36403857Y-8701071D01*
X36432428Y-8586785D01*
X36432428Y-8501071D01*
X36403857Y-8386785D01*
X36375285Y-8329642D01*
X36318142Y-8272500D01*
X36232428Y-8243928D01*
X36175285Y-8243928D01*
X36089571Y-8272500D01*
X36061000Y-8301071D01*
X35718142Y-8501071D02*
X35775285Y-8472500D01*
X35803857Y-8443928D01*
X35832428Y-8386785D01*
X35832428Y-8358214D01*
X35803857Y-8301071D01*
X35775285Y-8272500D01*
X35718142Y-8243928D01*
X35603857Y-8243928D01*
X35546714Y-8272500D01*
X35518142Y-8301071D01*
X35489571Y-8358214D01*
X35489571Y-8386785D01*
X35518142Y-8443928D01*
X35546714Y-8472500D01*
X35603857Y-8501071D01*
X35718142Y-8501071D01*
X35775285Y-8529642D01*
X35803857Y-8558214D01*
X35832428Y-8615357D01*
X35832428Y-8729642D01*
X35803857Y-8786785D01*
X35775285Y-8815357D01*
X35718142Y-8843928D01*
X35603857Y-8843928D01*
X35546714Y-8815357D01*
X35518142Y-8786785D01*
X35489571Y-8729642D01*
X35489571Y-8615357D01*
X35518142Y-8558214D01*
X35546714Y-8529642D01*
X35603857Y-8501071D01*
%TO.C,C9*%
D11*
X29787380Y-6394023D02*
X29787380Y-7013071D01*
X30168333Y-6679738D01*
X30168333Y-6822595D01*
X30215952Y-6917833D01*
X30263571Y-6965452D01*
X30358809Y-7013071D01*
X30596904Y-7013071D01*
X30692142Y-6965452D01*
X30739761Y-6917833D01*
X30787380Y-6822595D01*
X30787380Y-6536880D01*
X30739761Y-6441642D01*
X30692142Y-6394023D01*
X29787380Y-7346404D02*
X29787380Y-7965452D01*
X30168333Y-7632119D01*
X30168333Y-7774976D01*
X30215952Y-7870214D01*
X30263571Y-7917833D01*
X30358809Y-7965452D01*
X30596904Y-7965452D01*
X30692142Y-7917833D01*
X30739761Y-7870214D01*
X30787380Y-7774976D01*
X30787380Y-7489261D01*
X30739761Y-7394023D01*
X30692142Y-7346404D01*
X30120714Y-8394023D02*
X30787380Y-8394023D01*
X30215952Y-8394023D02*
X30168333Y-8441642D01*
X30120714Y-8536880D01*
X30120714Y-8679738D01*
X30168333Y-8774976D01*
X30263571Y-8822595D01*
X30787380Y-8822595D01*
X30263571Y-9632119D02*
X30263571Y-9298785D01*
X30787380Y-9298785D02*
X29787380Y-9298785D01*
X29787380Y-9774976D01*
D12*
X32599285Y-7984500D02*
X32627857Y-7955928D01*
X32656428Y-7870214D01*
X32656428Y-7813071D01*
X32627857Y-7727357D01*
X32570714Y-7670214D01*
X32513571Y-7641642D01*
X32399285Y-7613071D01*
X32313571Y-7613071D01*
X32199285Y-7641642D01*
X32142142Y-7670214D01*
X32085000Y-7727357D01*
X32056428Y-7813071D01*
X32056428Y-7870214D01*
X32085000Y-7955928D01*
X32113571Y-7984500D01*
X32656428Y-8270214D02*
X32656428Y-8384500D01*
X32627857Y-8441642D01*
X32599285Y-8470214D01*
X32513571Y-8527357D01*
X32399285Y-8555928D01*
X32170714Y-8555928D01*
X32113571Y-8527357D01*
X32085000Y-8498785D01*
X32056428Y-8441642D01*
X32056428Y-8327357D01*
X32085000Y-8270214D01*
X32113571Y-8241642D01*
X32170714Y-8213071D01*
X32313571Y-8213071D01*
X32370714Y-8241642D01*
X32399285Y-8270214D01*
X32427857Y-8327357D01*
X32427857Y-8441642D01*
X32399285Y-8498785D01*
X32370714Y-8527357D01*
X32313571Y-8555928D01*
%TO.C,C10*%
D11*
X37635738Y-67653380D02*
X38207166Y-67653380D01*
X37921452Y-67653380D02*
X37921452Y-66653380D01*
X38016690Y-66796238D01*
X38111928Y-66891476D01*
X38207166Y-66939095D01*
X36778595Y-66986714D02*
X36778595Y-67653380D01*
X37207166Y-66986714D02*
X37207166Y-67510523D01*
X37159547Y-67605761D01*
X37064309Y-67653380D01*
X36921452Y-67653380D01*
X36826214Y-67605761D01*
X36778595Y-67558142D01*
X35969071Y-67129571D02*
X36302404Y-67129571D01*
X36302404Y-67653380D02*
X36302404Y-66653380D01*
X35826214Y-66653380D01*
D12*
X37426214Y-65365285D02*
X37454785Y-65393857D01*
X37540500Y-65422428D01*
X37597642Y-65422428D01*
X37683357Y-65393857D01*
X37740500Y-65336714D01*
X37769071Y-65279571D01*
X37797642Y-65165285D01*
X37797642Y-65079571D01*
X37769071Y-64965285D01*
X37740500Y-64908142D01*
X37683357Y-64851000D01*
X37597642Y-64822428D01*
X37540500Y-64822428D01*
X37454785Y-64851000D01*
X37426214Y-64879571D01*
X36854785Y-65422428D02*
X37197642Y-65422428D01*
X37026214Y-65422428D02*
X37026214Y-64822428D01*
X37083357Y-64908142D01*
X37140500Y-64965285D01*
X37197642Y-64993857D01*
X36483357Y-64822428D02*
X36426214Y-64822428D01*
X36369071Y-64851000D01*
X36340500Y-64879571D01*
X36311928Y-64936714D01*
X36283357Y-65051000D01*
X36283357Y-65193857D01*
X36311928Y-65308142D01*
X36340500Y-65365285D01*
X36369071Y-65393857D01*
X36426214Y-65422428D01*
X36483357Y-65422428D01*
X36540500Y-65393857D01*
X36569071Y-65365285D01*
X36597642Y-65308142D01*
X36626214Y-65193857D01*
X36626214Y-65051000D01*
X36597642Y-64936714D01*
X36569071Y-64879571D01*
X36540500Y-64851000D01*
X36483357Y-64822428D01*
%TO.C,C17*%
D11*
X23085928Y-134990380D02*
X23657357Y-134990380D01*
X23371642Y-134990380D02*
X23371642Y-133990380D01*
X23466880Y-134133238D01*
X23562119Y-134228476D01*
X23657357Y-134276095D01*
X22466880Y-133990380D02*
X22371642Y-133990380D01*
X22276404Y-134038000D01*
X22228785Y-134085619D01*
X22181166Y-134180857D01*
X22133547Y-134371333D01*
X22133547Y-134609428D01*
X22181166Y-134799904D01*
X22228785Y-134895142D01*
X22276404Y-134942761D01*
X22371642Y-134990380D01*
X22466880Y-134990380D01*
X22562119Y-134942761D01*
X22609738Y-134895142D01*
X22657357Y-134799904D01*
X22704976Y-134609428D01*
X22704976Y-134371333D01*
X22657357Y-134180857D01*
X22609738Y-134085619D01*
X22562119Y-134038000D01*
X22466880Y-133990380D01*
X21276404Y-134323714D02*
X21276404Y-134990380D01*
X21704976Y-134323714D02*
X21704976Y-134847523D01*
X21657357Y-134942761D01*
X21562119Y-134990380D01*
X21419261Y-134990380D01*
X21324023Y-134942761D01*
X21276404Y-134895142D01*
X20466880Y-134466571D02*
X20800214Y-134466571D01*
X20800214Y-134990380D02*
X20800214Y-133990380D01*
X20324023Y-133990380D01*
X22657357Y-139295142D02*
X22704976Y-139342761D01*
X22847833Y-139390380D01*
X22943071Y-139390380D01*
X23085928Y-139342761D01*
X23181166Y-139247523D01*
X23228785Y-139152285D01*
X23276404Y-138961809D01*
X23276404Y-138818952D01*
X23228785Y-138628476D01*
X23181166Y-138533238D01*
X23085928Y-138438000D01*
X22943071Y-138390380D01*
X22847833Y-138390380D01*
X22704976Y-138438000D01*
X22657357Y-138485619D01*
X21704976Y-139390380D02*
X22276404Y-139390380D01*
X21990690Y-139390380D02*
X21990690Y-138390380D01*
X22085928Y-138533238D01*
X22181166Y-138628476D01*
X22276404Y-138676095D01*
X21371642Y-138390380D02*
X20704976Y-138390380D01*
X21133547Y-139390380D01*
%TO.C,C18*%
X23252928Y-121882880D02*
X23824357Y-121882880D01*
X23538642Y-121882880D02*
X23538642Y-120882880D01*
X23633880Y-121025738D01*
X23729119Y-121120976D01*
X23824357Y-121168595D01*
X22633880Y-120882880D02*
X22538642Y-120882880D01*
X22443404Y-120930500D01*
X22395785Y-120978119D01*
X22348166Y-121073357D01*
X22300547Y-121263833D01*
X22300547Y-121501928D01*
X22348166Y-121692404D01*
X22395785Y-121787642D01*
X22443404Y-121835261D01*
X22538642Y-121882880D01*
X22633880Y-121882880D01*
X22729119Y-121835261D01*
X22776738Y-121787642D01*
X22824357Y-121692404D01*
X22871976Y-121501928D01*
X22871976Y-121263833D01*
X22824357Y-121073357D01*
X22776738Y-120978119D01*
X22729119Y-120930500D01*
X22633880Y-120882880D01*
X21443404Y-121216214D02*
X21443404Y-121882880D01*
X21871976Y-121216214D02*
X21871976Y-121740023D01*
X21824357Y-121835261D01*
X21729119Y-121882880D01*
X21586261Y-121882880D01*
X21491023Y-121835261D01*
X21443404Y-121787642D01*
X20633880Y-121359071D02*
X20967214Y-121359071D01*
X20967214Y-121882880D02*
X20967214Y-120882880D01*
X20491023Y-120882880D01*
X22824357Y-117387642D02*
X22871976Y-117435261D01*
X23014833Y-117482880D01*
X23110071Y-117482880D01*
X23252928Y-117435261D01*
X23348166Y-117340023D01*
X23395785Y-117244785D01*
X23443404Y-117054309D01*
X23443404Y-116911452D01*
X23395785Y-116720976D01*
X23348166Y-116625738D01*
X23252928Y-116530500D01*
X23110071Y-116482880D01*
X23014833Y-116482880D01*
X22871976Y-116530500D01*
X22824357Y-116578119D01*
X21871976Y-117482880D02*
X22443404Y-117482880D01*
X22157690Y-117482880D02*
X22157690Y-116482880D01*
X22252928Y-116625738D01*
X22348166Y-116720976D01*
X22443404Y-116768595D01*
X21300547Y-116911452D02*
X21395785Y-116863833D01*
X21443404Y-116816214D01*
X21491023Y-116720976D01*
X21491023Y-116673357D01*
X21443404Y-116578119D01*
X21395785Y-116530500D01*
X21300547Y-116482880D01*
X21110071Y-116482880D01*
X21014833Y-116530500D01*
X20967214Y-116578119D01*
X20919595Y-116673357D01*
X20919595Y-116720976D01*
X20967214Y-116816214D01*
X21014833Y-116863833D01*
X21110071Y-116911452D01*
X21300547Y-116911452D01*
X21395785Y-116959071D01*
X21443404Y-117006690D01*
X21491023Y-117101928D01*
X21491023Y-117292404D01*
X21443404Y-117387642D01*
X21395785Y-117435261D01*
X21300547Y-117482880D01*
X21110071Y-117482880D01*
X21014833Y-117435261D01*
X20967214Y-117387642D01*
X20919595Y-117292404D01*
X20919595Y-117101928D01*
X20967214Y-117006690D01*
X21014833Y-116959071D01*
X21110071Y-116911452D01*
%TO.C,C21*%
X24897880Y-35334142D02*
X24897880Y-35429380D01*
X24945500Y-35524619D01*
X24993119Y-35572238D01*
X25088357Y-35619857D01*
X25278833Y-35667476D01*
X25516928Y-35667476D01*
X25707404Y-35619857D01*
X25802642Y-35572238D01*
X25850261Y-35524619D01*
X25897880Y-35429380D01*
X25897880Y-35334142D01*
X25850261Y-35238904D01*
X25802642Y-35191285D01*
X25707404Y-35143666D01*
X25516928Y-35096047D01*
X25278833Y-35096047D01*
X25088357Y-35143666D01*
X24993119Y-35191285D01*
X24945500Y-35238904D01*
X24897880Y-35334142D01*
X25802642Y-36096047D02*
X25850261Y-36143666D01*
X25897880Y-36096047D01*
X25850261Y-36048428D01*
X25802642Y-36096047D01*
X25897880Y-36096047D01*
X25897880Y-37096047D02*
X25897880Y-36524619D01*
X25897880Y-36810333D02*
X24897880Y-36810333D01*
X25040738Y-36715095D01*
X25135976Y-36619857D01*
X25183595Y-36524619D01*
X25231214Y-37953190D02*
X25897880Y-37953190D01*
X25231214Y-37524619D02*
X25755023Y-37524619D01*
X25850261Y-37572238D01*
X25897880Y-37667476D01*
X25897880Y-37810333D01*
X25850261Y-37905571D01*
X25802642Y-37953190D01*
X25374071Y-38762714D02*
X25374071Y-38429380D01*
X25897880Y-38429380D02*
X24897880Y-38429380D01*
X24897880Y-38905571D01*
D12*
X27709785Y-36591285D02*
X27738357Y-36562714D01*
X27766928Y-36477000D01*
X27766928Y-36419857D01*
X27738357Y-36334142D01*
X27681214Y-36277000D01*
X27624071Y-36248428D01*
X27509785Y-36219857D01*
X27424071Y-36219857D01*
X27309785Y-36248428D01*
X27252642Y-36277000D01*
X27195500Y-36334142D01*
X27166928Y-36419857D01*
X27166928Y-36477000D01*
X27195500Y-36562714D01*
X27224071Y-36591285D01*
X27224071Y-36819857D02*
X27195500Y-36848428D01*
X27166928Y-36905571D01*
X27166928Y-37048428D01*
X27195500Y-37105571D01*
X27224071Y-37134142D01*
X27281214Y-37162714D01*
X27338357Y-37162714D01*
X27424071Y-37134142D01*
X27766928Y-36791285D01*
X27766928Y-37162714D01*
X27766928Y-37734142D02*
X27766928Y-37391285D01*
X27766928Y-37562714D02*
X27166928Y-37562714D01*
X27252642Y-37505571D01*
X27309785Y-37448428D01*
X27338357Y-37391285D01*
%TO.C,C22*%
D11*
X28299380Y-18593642D02*
X28299380Y-18688880D01*
X28347000Y-18784119D01*
X28394619Y-18831738D01*
X28489857Y-18879357D01*
X28680333Y-18926976D01*
X28918428Y-18926976D01*
X29108904Y-18879357D01*
X29204142Y-18831738D01*
X29251761Y-18784119D01*
X29299380Y-18688880D01*
X29299380Y-18593642D01*
X29251761Y-18498404D01*
X29204142Y-18450785D01*
X29108904Y-18403166D01*
X28918428Y-18355547D01*
X28680333Y-18355547D01*
X28489857Y-18403166D01*
X28394619Y-18450785D01*
X28347000Y-18498404D01*
X28299380Y-18593642D01*
X29204142Y-19355547D02*
X29251761Y-19403166D01*
X29299380Y-19355547D01*
X29251761Y-19307928D01*
X29204142Y-19355547D01*
X29299380Y-19355547D01*
X29299380Y-20355547D02*
X29299380Y-19784119D01*
X29299380Y-20069833D02*
X28299380Y-20069833D01*
X28442238Y-19974595D01*
X28537476Y-19879357D01*
X28585095Y-19784119D01*
X28632714Y-21212690D02*
X29299380Y-21212690D01*
X28632714Y-20784119D02*
X29156523Y-20784119D01*
X29251761Y-20831738D01*
X29299380Y-20926976D01*
X29299380Y-21069833D01*
X29251761Y-21165071D01*
X29204142Y-21212690D01*
X28775571Y-22022214D02*
X28775571Y-21688880D01*
X29299380Y-21688880D02*
X28299380Y-21688880D01*
X28299380Y-22165071D01*
D12*
X27011285Y-19850785D02*
X27039857Y-19822214D01*
X27068428Y-19736500D01*
X27068428Y-19679357D01*
X27039857Y-19593642D01*
X26982714Y-19536500D01*
X26925571Y-19507928D01*
X26811285Y-19479357D01*
X26725571Y-19479357D01*
X26611285Y-19507928D01*
X26554142Y-19536500D01*
X26497000Y-19593642D01*
X26468428Y-19679357D01*
X26468428Y-19736500D01*
X26497000Y-19822214D01*
X26525571Y-19850785D01*
X26525571Y-20079357D02*
X26497000Y-20107928D01*
X26468428Y-20165071D01*
X26468428Y-20307928D01*
X26497000Y-20365071D01*
X26525571Y-20393642D01*
X26582714Y-20422214D01*
X26639857Y-20422214D01*
X26725571Y-20393642D01*
X27068428Y-20050785D01*
X27068428Y-20422214D01*
X26525571Y-20650785D02*
X26497000Y-20679357D01*
X26468428Y-20736500D01*
X26468428Y-20879357D01*
X26497000Y-20936500D01*
X26525571Y-20965071D01*
X26582714Y-20993642D01*
X26639857Y-20993642D01*
X26725571Y-20965071D01*
X27068428Y-20622214D01*
X27068428Y-20993642D01*
%TO.C,C23*%
D11*
X38683357Y-71098380D02*
X38588119Y-71098380D01*
X38492880Y-71146000D01*
X38445261Y-71193619D01*
X38397642Y-71288857D01*
X38350023Y-71479333D01*
X38350023Y-71717428D01*
X38397642Y-71907904D01*
X38445261Y-72003142D01*
X38492880Y-72050761D01*
X38588119Y-72098380D01*
X38683357Y-72098380D01*
X38778595Y-72050761D01*
X38826214Y-72003142D01*
X38873833Y-71907904D01*
X38921452Y-71717428D01*
X38921452Y-71479333D01*
X38873833Y-71288857D01*
X38826214Y-71193619D01*
X38778595Y-71146000D01*
X38683357Y-71098380D01*
X37921452Y-72003142D02*
X37873833Y-72050761D01*
X37921452Y-72098380D01*
X37969071Y-72050761D01*
X37921452Y-72003142D01*
X37921452Y-72098380D01*
X36921452Y-72098380D02*
X37492880Y-72098380D01*
X37207166Y-72098380D02*
X37207166Y-71098380D01*
X37302404Y-71241238D01*
X37397642Y-71336476D01*
X37492880Y-71384095D01*
X36064309Y-71431714D02*
X36064309Y-72098380D01*
X36492880Y-71431714D02*
X36492880Y-71955523D01*
X36445261Y-72050761D01*
X36350023Y-72098380D01*
X36207166Y-72098380D01*
X36111928Y-72050761D01*
X36064309Y-72003142D01*
X35254785Y-71574571D02*
X35588119Y-71574571D01*
X35588119Y-72098380D02*
X35588119Y-71098380D01*
X35111928Y-71098380D01*
D12*
X37426214Y-69810285D02*
X37454785Y-69838857D01*
X37540500Y-69867428D01*
X37597642Y-69867428D01*
X37683357Y-69838857D01*
X37740500Y-69781714D01*
X37769071Y-69724571D01*
X37797642Y-69610285D01*
X37797642Y-69524571D01*
X37769071Y-69410285D01*
X37740500Y-69353142D01*
X37683357Y-69296000D01*
X37597642Y-69267428D01*
X37540500Y-69267428D01*
X37454785Y-69296000D01*
X37426214Y-69324571D01*
X37197642Y-69324571D02*
X37169071Y-69296000D01*
X37111928Y-69267428D01*
X36969071Y-69267428D01*
X36911928Y-69296000D01*
X36883357Y-69324571D01*
X36854785Y-69381714D01*
X36854785Y-69438857D01*
X36883357Y-69524571D01*
X37226214Y-69867428D01*
X36854785Y-69867428D01*
X36654785Y-69267428D02*
X36283357Y-69267428D01*
X36483357Y-69496000D01*
X36397642Y-69496000D01*
X36340500Y-69524571D01*
X36311928Y-69553142D01*
X36283357Y-69610285D01*
X36283357Y-69753142D01*
X36311928Y-69810285D01*
X36340500Y-69838857D01*
X36397642Y-69867428D01*
X36569071Y-69867428D01*
X36626214Y-69838857D01*
X36654785Y-69810285D01*
%TO.C,C24*%
D11*
X38683357Y-68875880D02*
X38588119Y-68875880D01*
X38492880Y-68923500D01*
X38445261Y-68971119D01*
X38397642Y-69066357D01*
X38350023Y-69256833D01*
X38350023Y-69494928D01*
X38397642Y-69685404D01*
X38445261Y-69780642D01*
X38492880Y-69828261D01*
X38588119Y-69875880D01*
X38683357Y-69875880D01*
X38778595Y-69828261D01*
X38826214Y-69780642D01*
X38873833Y-69685404D01*
X38921452Y-69494928D01*
X38921452Y-69256833D01*
X38873833Y-69066357D01*
X38826214Y-68971119D01*
X38778595Y-68923500D01*
X38683357Y-68875880D01*
X37921452Y-69780642D02*
X37873833Y-69828261D01*
X37921452Y-69875880D01*
X37969071Y-69828261D01*
X37921452Y-69780642D01*
X37921452Y-69875880D01*
X36921452Y-69875880D02*
X37492880Y-69875880D01*
X37207166Y-69875880D02*
X37207166Y-68875880D01*
X37302404Y-69018738D01*
X37397642Y-69113976D01*
X37492880Y-69161595D01*
X36064309Y-69209214D02*
X36064309Y-69875880D01*
X36492880Y-69209214D02*
X36492880Y-69733023D01*
X36445261Y-69828261D01*
X36350023Y-69875880D01*
X36207166Y-69875880D01*
X36111928Y-69828261D01*
X36064309Y-69780642D01*
X35254785Y-69352071D02*
X35588119Y-69352071D01*
X35588119Y-69875880D02*
X35588119Y-68875880D01*
X35111928Y-68875880D01*
D12*
X37426214Y-67587785D02*
X37454785Y-67616357D01*
X37540500Y-67644928D01*
X37597642Y-67644928D01*
X37683357Y-67616357D01*
X37740500Y-67559214D01*
X37769071Y-67502071D01*
X37797642Y-67387785D01*
X37797642Y-67302071D01*
X37769071Y-67187785D01*
X37740500Y-67130642D01*
X37683357Y-67073500D01*
X37597642Y-67044928D01*
X37540500Y-67044928D01*
X37454785Y-67073500D01*
X37426214Y-67102071D01*
X37197642Y-67102071D02*
X37169071Y-67073500D01*
X37111928Y-67044928D01*
X36969071Y-67044928D01*
X36911928Y-67073500D01*
X36883357Y-67102071D01*
X36854785Y-67159214D01*
X36854785Y-67216357D01*
X36883357Y-67302071D01*
X37226214Y-67644928D01*
X36854785Y-67644928D01*
X36340500Y-67244928D02*
X36340500Y-67644928D01*
X36483357Y-67016357D02*
X36626214Y-67444928D01*
X36254785Y-67444928D01*
%TO.C,D1*%
D11*
X40323880Y-39132142D02*
X40323880Y-38560714D01*
X40323880Y-38846428D02*
X39323880Y-38846428D01*
X39466738Y-38751190D01*
X39561976Y-38655952D01*
X39609595Y-38560714D01*
X40323880Y-39560714D02*
X39323880Y-39560714D01*
X40323880Y-40132142D01*
X39323880Y-40132142D01*
X39323880Y-41084523D02*
X39323880Y-40608333D01*
X39800071Y-40560714D01*
X39752452Y-40608333D01*
X39704833Y-40703571D01*
X39704833Y-40941666D01*
X39752452Y-41036904D01*
X39800071Y-41084523D01*
X39895309Y-41132142D01*
X40133404Y-41132142D01*
X40228642Y-41084523D01*
X40276261Y-41036904D01*
X40323880Y-40941666D01*
X40323880Y-40703571D01*
X40276261Y-40608333D01*
X40228642Y-40560714D01*
X39752452Y-41703571D02*
X39704833Y-41608333D01*
X39657214Y-41560714D01*
X39561976Y-41513095D01*
X39514357Y-41513095D01*
X39419119Y-41560714D01*
X39371500Y-41608333D01*
X39323880Y-41703571D01*
X39323880Y-41894047D01*
X39371500Y-41989285D01*
X39419119Y-42036904D01*
X39514357Y-42084523D01*
X39561976Y-42084523D01*
X39657214Y-42036904D01*
X39704833Y-41989285D01*
X39752452Y-41894047D01*
X39752452Y-41703571D01*
X39800071Y-41608333D01*
X39847690Y-41560714D01*
X39942928Y-41513095D01*
X40133404Y-41513095D01*
X40228642Y-41560714D01*
X40276261Y-41608333D01*
X40323880Y-41703571D01*
X40323880Y-41894047D01*
X40276261Y-41989285D01*
X40228642Y-42036904D01*
X40133404Y-42084523D01*
X39942928Y-42084523D01*
X39847690Y-42036904D01*
X39800071Y-41989285D01*
X39752452Y-41894047D01*
X40323880Y-43036904D02*
X40323880Y-42465476D01*
X40323880Y-42751190D02*
X39323880Y-42751190D01*
X39466738Y-42655952D01*
X39561976Y-42560714D01*
X39609595Y-42465476D01*
X39323880Y-43370238D02*
X39323880Y-44036904D01*
X40323880Y-43608333D01*
X37853880Y-40926904D02*
X36853880Y-40926904D01*
X36853880Y-41165000D01*
X36901500Y-41307857D01*
X36996738Y-41403095D01*
X37091976Y-41450714D01*
X37282452Y-41498333D01*
X37425309Y-41498333D01*
X37615785Y-41450714D01*
X37711023Y-41403095D01*
X37806261Y-41307857D01*
X37853880Y-41165000D01*
X37853880Y-40926904D01*
X37853880Y-42450714D02*
X37853880Y-41879285D01*
X37853880Y-42165000D02*
X36853880Y-42165000D01*
X36996738Y-42069761D01*
X37091976Y-41974523D01*
X37139595Y-41879285D01*
X35753880Y-35933095D02*
X34753880Y-35933095D01*
X35753880Y-36504523D02*
X35182452Y-36075952D01*
X34753880Y-36504523D02*
X35325309Y-35933095D01*
%TO.C,D2*%
X35447380Y-52403642D02*
X35447380Y-51832214D01*
X35447380Y-52117928D02*
X34447380Y-52117928D01*
X34590238Y-52022690D01*
X34685476Y-51927452D01*
X34733095Y-51832214D01*
X35447380Y-52832214D02*
X34447380Y-52832214D01*
X35447380Y-53403642D01*
X34447380Y-53403642D01*
X34447380Y-54356023D02*
X34447380Y-53879833D01*
X34923571Y-53832214D01*
X34875952Y-53879833D01*
X34828333Y-53975071D01*
X34828333Y-54213166D01*
X34875952Y-54308404D01*
X34923571Y-54356023D01*
X35018809Y-54403642D01*
X35256904Y-54403642D01*
X35352142Y-54356023D01*
X35399761Y-54308404D01*
X35447380Y-54213166D01*
X35447380Y-53975071D01*
X35399761Y-53879833D01*
X35352142Y-53832214D01*
X34875952Y-54975071D02*
X34828333Y-54879833D01*
X34780714Y-54832214D01*
X34685476Y-54784595D01*
X34637857Y-54784595D01*
X34542619Y-54832214D01*
X34495000Y-54879833D01*
X34447380Y-54975071D01*
X34447380Y-55165547D01*
X34495000Y-55260785D01*
X34542619Y-55308404D01*
X34637857Y-55356023D01*
X34685476Y-55356023D01*
X34780714Y-55308404D01*
X34828333Y-55260785D01*
X34875952Y-55165547D01*
X34875952Y-54975071D01*
X34923571Y-54879833D01*
X34971190Y-54832214D01*
X35066428Y-54784595D01*
X35256904Y-54784595D01*
X35352142Y-54832214D01*
X35399761Y-54879833D01*
X35447380Y-54975071D01*
X35447380Y-55165547D01*
X35399761Y-55260785D01*
X35352142Y-55308404D01*
X35256904Y-55356023D01*
X35066428Y-55356023D01*
X34971190Y-55308404D01*
X34923571Y-55260785D01*
X34875952Y-55165547D01*
X35447380Y-56308404D02*
X35447380Y-55736976D01*
X35447380Y-56022690D02*
X34447380Y-56022690D01*
X34590238Y-55927452D01*
X34685476Y-55832214D01*
X34733095Y-55736976D01*
X34447380Y-56641738D02*
X34447380Y-57308404D01*
X35447380Y-56879833D01*
X40017380Y-59364595D02*
X39017380Y-59364595D01*
X40017380Y-59936023D02*
X39445952Y-59507452D01*
X39017380Y-59936023D02*
X39588809Y-59364595D01*
X37917380Y-53418404D02*
X36917380Y-53418404D01*
X36917380Y-53656500D01*
X36965000Y-53799357D01*
X37060238Y-53894595D01*
X37155476Y-53942214D01*
X37345952Y-53989833D01*
X37488809Y-53989833D01*
X37679285Y-53942214D01*
X37774523Y-53894595D01*
X37869761Y-53799357D01*
X37917380Y-53656500D01*
X37917380Y-53418404D01*
X37012619Y-54370785D02*
X36965000Y-54418404D01*
X36917380Y-54513642D01*
X36917380Y-54751738D01*
X36965000Y-54846976D01*
X37012619Y-54894595D01*
X37107857Y-54942214D01*
X37203095Y-54942214D01*
X37345952Y-54894595D01*
X37917380Y-54323166D01*
X37917380Y-54942214D01*
%TO.C,J6*%
X42684261Y-79296785D02*
X42731880Y-79439642D01*
X42731880Y-79677738D01*
X42684261Y-79772976D01*
X42636642Y-79820595D01*
X42541404Y-79868214D01*
X42446166Y-79868214D01*
X42350928Y-79820595D01*
X42303309Y-79772976D01*
X42255690Y-79677738D01*
X42208071Y-79487261D01*
X42160452Y-79392023D01*
X42112833Y-79344404D01*
X42017595Y-79296785D01*
X41922357Y-79296785D01*
X41827119Y-79344404D01*
X41779500Y-79392023D01*
X41731880Y-79487261D01*
X41731880Y-79725357D01*
X41779500Y-79868214D01*
X42065214Y-80201547D02*
X42731880Y-80439642D01*
X42065214Y-80677738D02*
X42731880Y-80439642D01*
X42969976Y-80344404D01*
X43017595Y-80296785D01*
X43065214Y-80201547D01*
X42065214Y-81058690D02*
X42731880Y-81058690D01*
X42160452Y-81058690D02*
X42112833Y-81106309D01*
X42065214Y-81201547D01*
X42065214Y-81344404D01*
X42112833Y-81439642D01*
X42208071Y-81487261D01*
X42731880Y-81487261D01*
X42065214Y-81820595D02*
X42065214Y-82201547D01*
X41731880Y-81963452D02*
X42589023Y-81963452D01*
X42684261Y-82011071D01*
X42731880Y-82106309D01*
X42731880Y-82201547D01*
X42731880Y-82534880D02*
X41731880Y-82534880D01*
X42731880Y-82963452D02*
X42208071Y-82963452D01*
X42112833Y-82915833D01*
X42065214Y-82820595D01*
X42065214Y-82677738D01*
X42112833Y-82582500D01*
X42160452Y-82534880D01*
X42827119Y-83201547D02*
X42827119Y-83963452D01*
X42065214Y-84201547D02*
X43065214Y-84201547D01*
X42112833Y-84201547D02*
X42065214Y-84296785D01*
X42065214Y-84487261D01*
X42112833Y-84582500D01*
X42160452Y-84630119D01*
X42255690Y-84677738D01*
X42541404Y-84677738D01*
X42636642Y-84630119D01*
X42684261Y-84582500D01*
X42731880Y-84487261D01*
X42731880Y-84296785D01*
X42684261Y-84201547D01*
X42731880Y-85249166D02*
X42684261Y-85153928D01*
X42636642Y-85106309D01*
X42541404Y-85058690D01*
X42255690Y-85058690D01*
X42160452Y-85106309D01*
X42112833Y-85153928D01*
X42065214Y-85249166D01*
X42065214Y-85392023D01*
X42112833Y-85487261D01*
X42160452Y-85534880D01*
X42255690Y-85582500D01*
X42541404Y-85582500D01*
X42636642Y-85534880D01*
X42684261Y-85487261D01*
X42731880Y-85392023D01*
X42731880Y-85249166D01*
X42065214Y-85915833D02*
X42731880Y-86106309D01*
X42255690Y-86296785D01*
X42731880Y-86487261D01*
X42065214Y-86677738D01*
X42684261Y-87439642D02*
X42731880Y-87344404D01*
X42731880Y-87153928D01*
X42684261Y-87058690D01*
X42589023Y-87011071D01*
X42208071Y-87011071D01*
X42112833Y-87058690D01*
X42065214Y-87153928D01*
X42065214Y-87344404D01*
X42112833Y-87439642D01*
X42208071Y-87487261D01*
X42303309Y-87487261D01*
X42398547Y-87011071D01*
X42731880Y-87915833D02*
X42065214Y-87915833D01*
X42255690Y-87915833D02*
X42160452Y-87963452D01*
X42112833Y-88011071D01*
X42065214Y-88106309D01*
X42065214Y-88201547D01*
X42827119Y-88296785D02*
X42827119Y-89058690D01*
X41827119Y-89249166D02*
X41779500Y-89296785D01*
X41731880Y-89392023D01*
X41731880Y-89630119D01*
X41779500Y-89725357D01*
X41827119Y-89772976D01*
X41922357Y-89820595D01*
X42017595Y-89820595D01*
X42160452Y-89772976D01*
X42731880Y-89201547D01*
X42731880Y-89820595D01*
X42731880Y-90153928D02*
X42065214Y-90677738D01*
X42065214Y-90153928D02*
X42731880Y-90677738D01*
X41731880Y-91534880D02*
X41731880Y-91058690D01*
X42208071Y-91011071D01*
X42160452Y-91058690D01*
X42112833Y-91153928D01*
X42112833Y-91392023D01*
X42160452Y-91487261D01*
X42208071Y-91534880D01*
X42303309Y-91582500D01*
X42541404Y-91582500D01*
X42636642Y-91534880D01*
X42684261Y-91487261D01*
X42731880Y-91392023D01*
X42731880Y-91153928D01*
X42684261Y-91058690D01*
X42636642Y-91011071D01*
X42827119Y-91772976D02*
X42827119Y-92534880D01*
X42065214Y-92772976D02*
X43065214Y-92772976D01*
X42112833Y-92772976D02*
X42065214Y-92868214D01*
X42065214Y-93058690D01*
X42112833Y-93153928D01*
X42160452Y-93201547D01*
X42255690Y-93249166D01*
X42541404Y-93249166D01*
X42636642Y-93201547D01*
X42684261Y-93153928D01*
X42731880Y-93058690D01*
X42731880Y-92868214D01*
X42684261Y-92772976D01*
X42731880Y-94106309D02*
X42208071Y-94106309D01*
X42112833Y-94058690D01*
X42065214Y-93963452D01*
X42065214Y-93772976D01*
X42112833Y-93677738D01*
X42684261Y-94106309D02*
X42731880Y-94011071D01*
X42731880Y-93772976D01*
X42684261Y-93677738D01*
X42589023Y-93630119D01*
X42493785Y-93630119D01*
X42398547Y-93677738D01*
X42350928Y-93772976D01*
X42350928Y-94011071D01*
X42303309Y-94106309D01*
X42684261Y-94534880D02*
X42731880Y-94630119D01*
X42731880Y-94820595D01*
X42684261Y-94915833D01*
X42589023Y-94963452D01*
X42541404Y-94963452D01*
X42446166Y-94915833D01*
X42398547Y-94820595D01*
X42398547Y-94677738D01*
X42350928Y-94582500D01*
X42255690Y-94534880D01*
X42208071Y-94534880D01*
X42112833Y-94582500D01*
X42065214Y-94677738D01*
X42065214Y-94820595D01*
X42112833Y-94915833D01*
X42684261Y-95344404D02*
X42731880Y-95439642D01*
X42731880Y-95630119D01*
X42684261Y-95725357D01*
X42589023Y-95772976D01*
X42541404Y-95772976D01*
X42446166Y-95725357D01*
X42398547Y-95630119D01*
X42398547Y-95487261D01*
X42350928Y-95392023D01*
X42255690Y-95344404D01*
X42208071Y-95344404D01*
X42112833Y-95392023D01*
X42065214Y-95487261D01*
X42065214Y-95630119D01*
X42112833Y-95725357D01*
X42731880Y-96201547D02*
X42065214Y-96201547D01*
X41731880Y-96201547D02*
X41779500Y-96153928D01*
X41827119Y-96201547D01*
X41779500Y-96249166D01*
X41731880Y-96201547D01*
X41827119Y-96201547D01*
X42065214Y-96582500D02*
X42731880Y-96820595D01*
X42065214Y-97058690D01*
X42684261Y-97820595D02*
X42731880Y-97725357D01*
X42731880Y-97534880D01*
X42684261Y-97439642D01*
X42589023Y-97392023D01*
X42208071Y-97392023D01*
X42112833Y-97439642D01*
X42065214Y-97534880D01*
X42065214Y-97725357D01*
X42112833Y-97820595D01*
X42208071Y-97868214D01*
X42303309Y-97868214D01*
X42398547Y-97392023D01*
X28471880Y-88249166D02*
X29186166Y-88249166D01*
X29329023Y-88201547D01*
X29424261Y-88106309D01*
X29471880Y-87963452D01*
X29471880Y-87868214D01*
X28471880Y-89153928D02*
X28471880Y-88963452D01*
X28519500Y-88868214D01*
X28567119Y-88820595D01*
X28709976Y-88725357D01*
X28900452Y-88677738D01*
X29281404Y-88677738D01*
X29376642Y-88725357D01*
X29424261Y-88772976D01*
X29471880Y-88868214D01*
X29471880Y-89058690D01*
X29424261Y-89153928D01*
X29376642Y-89201547D01*
X29281404Y-89249166D01*
X29043309Y-89249166D01*
X28948071Y-89201547D01*
X28900452Y-89153928D01*
X28852833Y-89058690D01*
X28852833Y-88868214D01*
X28900452Y-88772976D01*
X28948071Y-88725357D01*
X29043309Y-88677738D01*
%TO.C,Q1*%
X28304785Y-57011119D02*
X28257166Y-56963500D01*
X28161928Y-56915880D01*
X27923833Y-56915880D01*
X27828595Y-56963500D01*
X27780976Y-57011119D01*
X27733357Y-57106357D01*
X27733357Y-57201595D01*
X27780976Y-57344452D01*
X28352404Y-57915880D01*
X27733357Y-57915880D01*
X27304785Y-57915880D02*
X27304785Y-56915880D01*
X26733357Y-57915880D01*
X26733357Y-56915880D01*
X26352404Y-56915880D02*
X25733357Y-56915880D01*
X26066690Y-57296833D01*
X25923833Y-57296833D01*
X25828595Y-57344452D01*
X25780976Y-57392071D01*
X25733357Y-57487309D01*
X25733357Y-57725404D01*
X25780976Y-57820642D01*
X25828595Y-57868261D01*
X25923833Y-57915880D01*
X26209547Y-57915880D01*
X26304785Y-57868261D01*
X26352404Y-57820642D01*
X25257166Y-57915880D02*
X25066690Y-57915880D01*
X24971452Y-57868261D01*
X24923833Y-57820642D01*
X24828595Y-57677785D01*
X24780976Y-57487309D01*
X24780976Y-57106357D01*
X24828595Y-57011119D01*
X24876214Y-56963500D01*
X24971452Y-56915880D01*
X25161928Y-56915880D01*
X25257166Y-56963500D01*
X25304785Y-57011119D01*
X25352404Y-57106357D01*
X25352404Y-57344452D01*
X25304785Y-57439690D01*
X25257166Y-57487309D01*
X25161928Y-57534928D01*
X24971452Y-57534928D01*
X24876214Y-57487309D01*
X24828595Y-57439690D01*
X24780976Y-57344452D01*
X24161928Y-56915880D02*
X24066690Y-56915880D01*
X23971452Y-56963500D01*
X23923833Y-57011119D01*
X23876214Y-57106357D01*
X23828595Y-57296833D01*
X23828595Y-57534928D01*
X23876214Y-57725404D01*
X23923833Y-57820642D01*
X23971452Y-57868261D01*
X24066690Y-57915880D01*
X24161928Y-57915880D01*
X24257166Y-57868261D01*
X24304785Y-57820642D01*
X24352404Y-57725404D01*
X24400023Y-57534928D01*
X24400023Y-57296833D01*
X24352404Y-57106357D01*
X24304785Y-57011119D01*
X24257166Y-56963500D01*
X24161928Y-56915880D01*
X22971452Y-57249214D02*
X22971452Y-57915880D01*
X23209547Y-56868261D02*
X23447642Y-57582547D01*
X22828595Y-57582547D01*
X25685738Y-51661119D02*
X25780976Y-51613500D01*
X25876214Y-51518261D01*
X26019071Y-51375404D01*
X26114309Y-51327785D01*
X26209547Y-51327785D01*
X26161928Y-51565880D02*
X26257166Y-51518261D01*
X26352404Y-51423023D01*
X26400023Y-51232547D01*
X26400023Y-50899214D01*
X26352404Y-50708738D01*
X26257166Y-50613500D01*
X26161928Y-50565880D01*
X25971452Y-50565880D01*
X25876214Y-50613500D01*
X25780976Y-50708738D01*
X25733357Y-50899214D01*
X25733357Y-51232547D01*
X25780976Y-51423023D01*
X25876214Y-51518261D01*
X25971452Y-51565880D01*
X26161928Y-51565880D01*
X24780976Y-51565880D02*
X25352404Y-51565880D01*
X25066690Y-51565880D02*
X25066690Y-50565880D01*
X25161928Y-50708738D01*
X25257166Y-50803976D01*
X25352404Y-50851595D01*
%TO.C,R1*%
X36255214Y-52236833D02*
X36921880Y-52236833D01*
X35874261Y-51998738D02*
X36588547Y-51760642D01*
X36588547Y-52379690D01*
X35921880Y-52665404D02*
X35921880Y-53332071D01*
X36921880Y-52903500D01*
X35921880Y-53903500D02*
X35921880Y-53998738D01*
X35969500Y-54093976D01*
X36017119Y-54141595D01*
X36112357Y-54189214D01*
X36302833Y-54236833D01*
X36540928Y-54236833D01*
X36731404Y-54189214D01*
X36826642Y-54141595D01*
X36874261Y-54093976D01*
X36921880Y-53998738D01*
X36921880Y-53903500D01*
X36874261Y-53808261D01*
X36826642Y-53760642D01*
X36731404Y-53713023D01*
X36540928Y-53665404D01*
X36302833Y-53665404D01*
X36112357Y-53713023D01*
X36017119Y-53760642D01*
X35969500Y-53808261D01*
X35921880Y-53903500D01*
X36921880Y-54665404D02*
X35921880Y-54665404D01*
X36540928Y-54760642D02*
X36921880Y-55046357D01*
X36255214Y-55046357D02*
X36636166Y-54665404D01*
X34551880Y-53236833D02*
X34075690Y-52903500D01*
X34551880Y-52665404D02*
X33551880Y-52665404D01*
X33551880Y-53046357D01*
X33599500Y-53141595D01*
X33647119Y-53189214D01*
X33742357Y-53236833D01*
X33885214Y-53236833D01*
X33980452Y-53189214D01*
X34028071Y-53141595D01*
X34075690Y-53046357D01*
X34075690Y-52665404D01*
X34551880Y-54189214D02*
X34551880Y-53617785D01*
X34551880Y-53903500D02*
X33551880Y-53903500D01*
X33694738Y-53808261D01*
X33789976Y-53713023D01*
X33837595Y-53617785D01*
%TO.C,R2*%
X28276714Y-52236833D02*
X28943380Y-52236833D01*
X27895761Y-51998738D02*
X28610047Y-51760642D01*
X28610047Y-52379690D01*
X27943380Y-52665404D02*
X27943380Y-53332071D01*
X28943380Y-52903500D01*
X27943380Y-53903500D02*
X27943380Y-53998738D01*
X27991000Y-54093976D01*
X28038619Y-54141595D01*
X28133857Y-54189214D01*
X28324333Y-54236833D01*
X28562428Y-54236833D01*
X28752904Y-54189214D01*
X28848142Y-54141595D01*
X28895761Y-54093976D01*
X28943380Y-53998738D01*
X28943380Y-53903500D01*
X28895761Y-53808261D01*
X28848142Y-53760642D01*
X28752904Y-53713023D01*
X28562428Y-53665404D01*
X28324333Y-53665404D01*
X28133857Y-53713023D01*
X28038619Y-53760642D01*
X27991000Y-53808261D01*
X27943380Y-53903500D01*
X28943380Y-54665404D02*
X27943380Y-54665404D01*
X28562428Y-54760642D02*
X28943380Y-55046357D01*
X28276714Y-55046357D02*
X28657666Y-54665404D01*
X31313380Y-53236833D02*
X30837190Y-52903500D01*
X31313380Y-52665404D02*
X30313380Y-52665404D01*
X30313380Y-53046357D01*
X30361000Y-53141595D01*
X30408619Y-53189214D01*
X30503857Y-53236833D01*
X30646714Y-53236833D01*
X30741952Y-53189214D01*
X30789571Y-53141595D01*
X30837190Y-53046357D01*
X30837190Y-52665404D01*
X30408619Y-53617785D02*
X30361000Y-53665404D01*
X30313380Y-53760642D01*
X30313380Y-53998738D01*
X30361000Y-54093976D01*
X30408619Y-54141595D01*
X30503857Y-54189214D01*
X30599095Y-54189214D01*
X30741952Y-54141595D01*
X31313380Y-53570166D01*
X31313380Y-54189214D01*
%TO.C,R3*%
X30165880Y-65159023D02*
X30165880Y-64968547D01*
X30213500Y-64873309D01*
X30261119Y-64825690D01*
X30403976Y-64730452D01*
X30594452Y-64682833D01*
X30975404Y-64682833D01*
X31070642Y-64730452D01*
X31118261Y-64778071D01*
X31165880Y-64873309D01*
X31165880Y-65063785D01*
X31118261Y-65159023D01*
X31070642Y-65206642D01*
X30975404Y-65254261D01*
X30737309Y-65254261D01*
X30642071Y-65206642D01*
X30594452Y-65159023D01*
X30546833Y-65063785D01*
X30546833Y-64873309D01*
X30594452Y-64778071D01*
X30642071Y-64730452D01*
X30737309Y-64682833D01*
X31165880Y-65682833D02*
X30165880Y-65682833D01*
X30784928Y-65778071D02*
X31165880Y-66063785D01*
X30499214Y-66063785D02*
X30880166Y-65682833D01*
X30594452Y-66635214D02*
X30546833Y-66539976D01*
X30499214Y-66492357D01*
X30403976Y-66444738D01*
X30356357Y-66444738D01*
X30261119Y-66492357D01*
X30213500Y-66539976D01*
X30165880Y-66635214D01*
X30165880Y-66825690D01*
X30213500Y-66920928D01*
X30261119Y-66968547D01*
X30356357Y-67016166D01*
X30403976Y-67016166D01*
X30499214Y-66968547D01*
X30546833Y-66920928D01*
X30594452Y-66825690D01*
X30594452Y-66635214D01*
X30642071Y-66539976D01*
X30689690Y-66492357D01*
X30784928Y-66444738D01*
X30975404Y-66444738D01*
X31070642Y-66492357D01*
X31118261Y-66539976D01*
X31165880Y-66635214D01*
X31165880Y-66825690D01*
X31118261Y-66920928D01*
X31070642Y-66968547D01*
X30975404Y-67016166D01*
X30784928Y-67016166D01*
X30689690Y-66968547D01*
X30642071Y-66920928D01*
X30594452Y-66825690D01*
X33535880Y-65682833D02*
X33059690Y-65349500D01*
X33535880Y-65111404D02*
X32535880Y-65111404D01*
X32535880Y-65492357D01*
X32583500Y-65587595D01*
X32631119Y-65635214D01*
X32726357Y-65682833D01*
X32869214Y-65682833D01*
X32964452Y-65635214D01*
X33012071Y-65587595D01*
X33059690Y-65492357D01*
X33059690Y-65111404D01*
X32535880Y-66016166D02*
X32535880Y-66635214D01*
X32916833Y-66301880D01*
X32916833Y-66444738D01*
X32964452Y-66539976D01*
X33012071Y-66587595D01*
X33107309Y-66635214D01*
X33345404Y-66635214D01*
X33440642Y-66587595D01*
X33488261Y-66539976D01*
X33535880Y-66444738D01*
X33535880Y-66159023D01*
X33488261Y-66063785D01*
X33440642Y-66016166D01*
%TO.C,R4*%
X27990880Y-65182833D02*
X27990880Y-64611404D01*
X27990880Y-64897119D02*
X26990880Y-64897119D01*
X27133738Y-64801880D01*
X27228976Y-64706642D01*
X27276595Y-64611404D01*
X26990880Y-65801880D02*
X26990880Y-65897119D01*
X27038500Y-65992357D01*
X27086119Y-66039976D01*
X27181357Y-66087595D01*
X27371833Y-66135214D01*
X27609928Y-66135214D01*
X27800404Y-66087595D01*
X27895642Y-66039976D01*
X27943261Y-65992357D01*
X27990880Y-65897119D01*
X27990880Y-65801880D01*
X27943261Y-65706642D01*
X27895642Y-65659023D01*
X27800404Y-65611404D01*
X27609928Y-65563785D01*
X27371833Y-65563785D01*
X27181357Y-65611404D01*
X27086119Y-65659023D01*
X27038500Y-65706642D01*
X26990880Y-65801880D01*
X26990880Y-66754261D02*
X26990880Y-66849500D01*
X27038500Y-66944738D01*
X27086119Y-66992357D01*
X27181357Y-67039976D01*
X27371833Y-67087595D01*
X27609928Y-67087595D01*
X27800404Y-67039976D01*
X27895642Y-66992357D01*
X27943261Y-66944738D01*
X27990880Y-66849500D01*
X27990880Y-66754261D01*
X27943261Y-66659023D01*
X27895642Y-66611404D01*
X27800404Y-66563785D01*
X27609928Y-66516166D01*
X27371833Y-66516166D01*
X27181357Y-66563785D01*
X27086119Y-66611404D01*
X27038500Y-66659023D01*
X26990880Y-66754261D01*
X30360880Y-65682833D02*
X29884690Y-65349500D01*
X30360880Y-65111404D02*
X29360880Y-65111404D01*
X29360880Y-65492357D01*
X29408500Y-65587595D01*
X29456119Y-65635214D01*
X29551357Y-65682833D01*
X29694214Y-65682833D01*
X29789452Y-65635214D01*
X29837071Y-65587595D01*
X29884690Y-65492357D01*
X29884690Y-65111404D01*
X29694214Y-66539976D02*
X30360880Y-66539976D01*
X29313261Y-66301880D02*
X30027547Y-66063785D01*
X30027547Y-66682833D01*
%TO.C,R5*%
X25439595Y-15601880D02*
X24820547Y-15601880D01*
X25153880Y-15982833D01*
X25011023Y-15982833D01*
X24915785Y-16030452D01*
X24868166Y-16078071D01*
X24820547Y-16173309D01*
X24820547Y-16411404D01*
X24868166Y-16506642D01*
X24915785Y-16554261D01*
X25011023Y-16601880D01*
X25296738Y-16601880D01*
X25391976Y-16554261D01*
X25439595Y-16506642D01*
X24391976Y-16601880D02*
X24391976Y-15601880D01*
X24296738Y-16220928D02*
X24011023Y-16601880D01*
X24011023Y-15935214D02*
X24391976Y-16316166D01*
X24868166Y-14231880D02*
X25201500Y-13755690D01*
X25439595Y-14231880D02*
X25439595Y-13231880D01*
X25058642Y-13231880D01*
X24963404Y-13279500D01*
X24915785Y-13327119D01*
X24868166Y-13422357D01*
X24868166Y-13565214D01*
X24915785Y-13660452D01*
X24963404Y-13708071D01*
X25058642Y-13755690D01*
X25439595Y-13755690D01*
X23963404Y-13231880D02*
X24439595Y-13231880D01*
X24487214Y-13708071D01*
X24439595Y-13660452D01*
X24344357Y-13612833D01*
X24106261Y-13612833D01*
X24011023Y-13660452D01*
X23963404Y-13708071D01*
X23915785Y-13803309D01*
X23915785Y-14041404D01*
X23963404Y-14136642D01*
X24011023Y-14184261D01*
X24106261Y-14231880D01*
X24344357Y-14231880D01*
X24439595Y-14184261D01*
X24487214Y-14136642D01*
%TO.C,R6*%
X17894380Y-50014261D02*
X17894380Y-49442833D01*
X17894380Y-49728547D02*
X16894380Y-49728547D01*
X17037238Y-49633309D01*
X17132476Y-49538071D01*
X17180095Y-49442833D01*
X16894380Y-50633309D02*
X16894380Y-50728547D01*
X16942000Y-50823785D01*
X16989619Y-50871404D01*
X17084857Y-50919023D01*
X17275333Y-50966642D01*
X17513428Y-50966642D01*
X17703904Y-50919023D01*
X17799142Y-50871404D01*
X17846761Y-50823785D01*
X17894380Y-50728547D01*
X17894380Y-50633309D01*
X17846761Y-50538071D01*
X17799142Y-50490452D01*
X17703904Y-50442833D01*
X17513428Y-50395214D01*
X17275333Y-50395214D01*
X17084857Y-50442833D01*
X16989619Y-50490452D01*
X16942000Y-50538071D01*
X16894380Y-50633309D01*
X17894380Y-51395214D02*
X16894380Y-51395214D01*
X17513428Y-51490452D02*
X17894380Y-51776166D01*
X17227714Y-51776166D02*
X17608666Y-51395214D01*
X20264380Y-50442833D02*
X19788190Y-50109500D01*
X20264380Y-49871404D02*
X19264380Y-49871404D01*
X19264380Y-50252357D01*
X19312000Y-50347595D01*
X19359619Y-50395214D01*
X19454857Y-50442833D01*
X19597714Y-50442833D01*
X19692952Y-50395214D01*
X19740571Y-50347595D01*
X19788190Y-50252357D01*
X19788190Y-49871404D01*
X19264380Y-51299976D02*
X19264380Y-51109500D01*
X19312000Y-51014261D01*
X19359619Y-50966642D01*
X19502476Y-50871404D01*
X19692952Y-50823785D01*
X20073904Y-50823785D01*
X20169142Y-50871404D01*
X20216761Y-50919023D01*
X20264380Y-51014261D01*
X20264380Y-51204738D01*
X20216761Y-51299976D01*
X20169142Y-51347595D01*
X20073904Y-51395214D01*
X19835809Y-51395214D01*
X19740571Y-51347595D01*
X19692952Y-51299976D01*
X19645333Y-51204738D01*
X19645333Y-51014261D01*
X19692952Y-50919023D01*
X19740571Y-50871404D01*
X19835809Y-50823785D01*
%TO.C,R7*%
X24820547Y-13363380D02*
X25391976Y-13363380D01*
X25106261Y-13363380D02*
X25106261Y-12363380D01*
X25201500Y-12506238D01*
X25296738Y-12601476D01*
X25391976Y-12649095D01*
X24391976Y-13363380D02*
X24391976Y-12363380D01*
X24296738Y-12982428D02*
X24011023Y-13363380D01*
X24011023Y-12696714D02*
X24391976Y-13077666D01*
X24868166Y-10993380D02*
X25201500Y-10517190D01*
X25439595Y-10993380D02*
X25439595Y-9993380D01*
X25058642Y-9993380D01*
X24963404Y-10041000D01*
X24915785Y-10088619D01*
X24868166Y-10183857D01*
X24868166Y-10326714D01*
X24915785Y-10421952D01*
X24963404Y-10469571D01*
X25058642Y-10517190D01*
X25439595Y-10517190D01*
X24534833Y-9993380D02*
X23868166Y-9993380D01*
X24296738Y-10993380D01*
%TO.C,R8*%
X29905214Y-44235833D02*
X30571880Y-44235833D01*
X29524261Y-43997738D02*
X30238547Y-43759642D01*
X30238547Y-44378690D01*
X29571880Y-44664404D02*
X29571880Y-45331071D01*
X30571880Y-44902500D01*
X29571880Y-45902500D02*
X29571880Y-45997738D01*
X29619500Y-46092976D01*
X29667119Y-46140595D01*
X29762357Y-46188214D01*
X29952833Y-46235833D01*
X30190928Y-46235833D01*
X30381404Y-46188214D01*
X30476642Y-46140595D01*
X30524261Y-46092976D01*
X30571880Y-45997738D01*
X30571880Y-45902500D01*
X30524261Y-45807261D01*
X30476642Y-45759642D01*
X30381404Y-45712023D01*
X30190928Y-45664404D01*
X29952833Y-45664404D01*
X29762357Y-45712023D01*
X29667119Y-45759642D01*
X29619500Y-45807261D01*
X29571880Y-45902500D01*
X30571880Y-46664404D02*
X29571880Y-46664404D01*
X30190928Y-46759642D02*
X30571880Y-47045357D01*
X29905214Y-47045357D02*
X30286166Y-46664404D01*
X28201880Y-45235833D02*
X27725690Y-44902500D01*
X28201880Y-44664404D02*
X27201880Y-44664404D01*
X27201880Y-45045357D01*
X27249500Y-45140595D01*
X27297119Y-45188214D01*
X27392357Y-45235833D01*
X27535214Y-45235833D01*
X27630452Y-45188214D01*
X27678071Y-45140595D01*
X27725690Y-45045357D01*
X27725690Y-44664404D01*
X27630452Y-45807261D02*
X27582833Y-45712023D01*
X27535214Y-45664404D01*
X27439976Y-45616785D01*
X27392357Y-45616785D01*
X27297119Y-45664404D01*
X27249500Y-45712023D01*
X27201880Y-45807261D01*
X27201880Y-45997738D01*
X27249500Y-46092976D01*
X27297119Y-46140595D01*
X27392357Y-46188214D01*
X27439976Y-46188214D01*
X27535214Y-46140595D01*
X27582833Y-46092976D01*
X27630452Y-45997738D01*
X27630452Y-45807261D01*
X27678071Y-45712023D01*
X27725690Y-45664404D01*
X27820928Y-45616785D01*
X28011404Y-45616785D01*
X28106642Y-45664404D01*
X28154261Y-45712023D01*
X28201880Y-45807261D01*
X28201880Y-45997738D01*
X28154261Y-46092976D01*
X28106642Y-46140595D01*
X28011404Y-46188214D01*
X27820928Y-46188214D01*
X27725690Y-46140595D01*
X27678071Y-46092976D01*
X27630452Y-45997738D01*
%TO.C,R9*%
X33619880Y-40362261D02*
X33619880Y-39790833D01*
X33619880Y-40076547D02*
X32619880Y-40076547D01*
X32762738Y-39981309D01*
X32857976Y-39886071D01*
X32905595Y-39790833D01*
X32619880Y-40981309D02*
X32619880Y-41076547D01*
X32667500Y-41171785D01*
X32715119Y-41219404D01*
X32810357Y-41267023D01*
X33000833Y-41314642D01*
X33238928Y-41314642D01*
X33429404Y-41267023D01*
X33524642Y-41219404D01*
X33572261Y-41171785D01*
X33619880Y-41076547D01*
X33619880Y-40981309D01*
X33572261Y-40886071D01*
X33524642Y-40838452D01*
X33429404Y-40790833D01*
X33238928Y-40743214D01*
X33000833Y-40743214D01*
X32810357Y-40790833D01*
X32715119Y-40838452D01*
X32667500Y-40886071D01*
X32619880Y-40981309D01*
X33619880Y-41743214D02*
X32619880Y-41743214D01*
X33238928Y-41838452D02*
X33619880Y-42124166D01*
X32953214Y-42124166D02*
X33334166Y-41743214D01*
X31249880Y-40790833D02*
X30773690Y-40457500D01*
X31249880Y-40219404D02*
X30249880Y-40219404D01*
X30249880Y-40600357D01*
X30297500Y-40695595D01*
X30345119Y-40743214D01*
X30440357Y-40790833D01*
X30583214Y-40790833D01*
X30678452Y-40743214D01*
X30726071Y-40695595D01*
X30773690Y-40600357D01*
X30773690Y-40219404D01*
X31249880Y-41267023D02*
X31249880Y-41457500D01*
X31202261Y-41552738D01*
X31154642Y-41600357D01*
X31011785Y-41695595D01*
X30821309Y-41743214D01*
X30440357Y-41743214D01*
X30345119Y-41695595D01*
X30297500Y-41647976D01*
X30249880Y-41552738D01*
X30249880Y-41362261D01*
X30297500Y-41267023D01*
X30345119Y-41219404D01*
X30440357Y-41171785D01*
X30678452Y-41171785D01*
X30773690Y-41219404D01*
X30821309Y-41267023D01*
X30868928Y-41362261D01*
X30868928Y-41552738D01*
X30821309Y-41647976D01*
X30773690Y-41695595D01*
X30678452Y-41743214D01*
%TO.C,R10*%
X25987214Y-9251880D02*
X25368166Y-9251880D01*
X25701500Y-9632833D01*
X25558642Y-9632833D01*
X25463404Y-9680452D01*
X25415785Y-9728071D01*
X25368166Y-9823309D01*
X25368166Y-10061404D01*
X25415785Y-10156642D01*
X25463404Y-10204261D01*
X25558642Y-10251880D01*
X25844357Y-10251880D01*
X25939595Y-10204261D01*
X25987214Y-10156642D01*
X24749119Y-9251880D02*
X24653880Y-9251880D01*
X24558642Y-9299500D01*
X24511023Y-9347119D01*
X24463404Y-9442357D01*
X24415785Y-9632833D01*
X24415785Y-9870928D01*
X24463404Y-10061404D01*
X24511023Y-10156642D01*
X24558642Y-10204261D01*
X24653880Y-10251880D01*
X24749119Y-10251880D01*
X24844357Y-10204261D01*
X24891976Y-10156642D01*
X24939595Y-10061404D01*
X24987214Y-9870928D01*
X24987214Y-9632833D01*
X24939595Y-9442357D01*
X24891976Y-9347119D01*
X24844357Y-9299500D01*
X24749119Y-9251880D01*
X23796738Y-9251880D02*
X23701500Y-9251880D01*
X23606261Y-9299500D01*
X23558642Y-9347119D01*
X23511023Y-9442357D01*
X23463404Y-9632833D01*
X23463404Y-9870928D01*
X23511023Y-10061404D01*
X23558642Y-10156642D01*
X23606261Y-10204261D01*
X23701500Y-10251880D01*
X23796738Y-10251880D01*
X23891976Y-10204261D01*
X23939595Y-10156642D01*
X23987214Y-10061404D01*
X24034833Y-9870928D01*
X24034833Y-9632833D01*
X23987214Y-9442357D01*
X23939595Y-9347119D01*
X23891976Y-9299500D01*
X23796738Y-9251880D01*
X25344357Y-7881880D02*
X25677690Y-7405690D01*
X25915785Y-7881880D02*
X25915785Y-6881880D01*
X25534833Y-6881880D01*
X25439595Y-6929500D01*
X25391976Y-6977119D01*
X25344357Y-7072357D01*
X25344357Y-7215214D01*
X25391976Y-7310452D01*
X25439595Y-7358071D01*
X25534833Y-7405690D01*
X25915785Y-7405690D01*
X24391976Y-7881880D02*
X24963404Y-7881880D01*
X24677690Y-7881880D02*
X24677690Y-6881880D01*
X24772928Y-7024738D01*
X24868166Y-7119976D01*
X24963404Y-7167595D01*
X23772928Y-6881880D02*
X23677690Y-6881880D01*
X23582452Y-6929500D01*
X23534833Y-6977119D01*
X23487214Y-7072357D01*
X23439595Y-7262833D01*
X23439595Y-7500928D01*
X23487214Y-7691404D01*
X23534833Y-7786642D01*
X23582452Y-7834261D01*
X23677690Y-7881880D01*
X23772928Y-7881880D01*
X23868166Y-7834261D01*
X23915785Y-7786642D01*
X23963404Y-7691404D01*
X24011023Y-7500928D01*
X24011023Y-7262833D01*
X23963404Y-7072357D01*
X23915785Y-6977119D01*
X23868166Y-6929500D01*
X23772928Y-6881880D01*
%TO.C,R11*%
X36017119Y-39386071D02*
X35969500Y-39433690D01*
X35921880Y-39528928D01*
X35921880Y-39767023D01*
X35969500Y-39862261D01*
X36017119Y-39909880D01*
X36112357Y-39957500D01*
X36207595Y-39957500D01*
X36350452Y-39909880D01*
X36921880Y-39338452D01*
X36921880Y-39957500D01*
X36826642Y-40386071D02*
X36874261Y-40433690D01*
X36921880Y-40386071D01*
X36874261Y-40338452D01*
X36826642Y-40386071D01*
X36921880Y-40386071D01*
X36017119Y-40814642D02*
X35969500Y-40862261D01*
X35921880Y-40957500D01*
X35921880Y-41195595D01*
X35969500Y-41290833D01*
X36017119Y-41338452D01*
X36112357Y-41386071D01*
X36207595Y-41386071D01*
X36350452Y-41338452D01*
X36921880Y-40767023D01*
X36921880Y-41386071D01*
X36921880Y-41814642D02*
X35921880Y-41814642D01*
X36636166Y-42147976D01*
X35921880Y-42481309D01*
X36921880Y-42481309D01*
X34551880Y-40314642D02*
X34075690Y-39981309D01*
X34551880Y-39743214D02*
X33551880Y-39743214D01*
X33551880Y-40124166D01*
X33599500Y-40219404D01*
X33647119Y-40267023D01*
X33742357Y-40314642D01*
X33885214Y-40314642D01*
X33980452Y-40267023D01*
X34028071Y-40219404D01*
X34075690Y-40124166D01*
X34075690Y-39743214D01*
X34551880Y-41267023D02*
X34551880Y-40695595D01*
X34551880Y-40981309D02*
X33551880Y-40981309D01*
X33694738Y-40886071D01*
X33789976Y-40790833D01*
X33837595Y-40695595D01*
X34551880Y-42219404D02*
X34551880Y-41647976D01*
X34551880Y-41933690D02*
X33551880Y-41933690D01*
X33694738Y-41838452D01*
X33789976Y-41743214D01*
X33837595Y-41647976D01*
%TO.C,R12*%
X27523880Y-40171761D02*
X27523880Y-39600333D01*
X27523880Y-39886047D02*
X26523880Y-39886047D01*
X26666738Y-39790809D01*
X26761976Y-39695571D01*
X26809595Y-39600333D01*
X26523880Y-40790809D02*
X26523880Y-40886047D01*
X26571500Y-40981285D01*
X26619119Y-41028904D01*
X26714357Y-41076523D01*
X26904833Y-41124142D01*
X27142928Y-41124142D01*
X27333404Y-41076523D01*
X27428642Y-41028904D01*
X27476261Y-40981285D01*
X27523880Y-40886047D01*
X27523880Y-40790809D01*
X27476261Y-40695571D01*
X27428642Y-40647952D01*
X27333404Y-40600333D01*
X27142928Y-40552714D01*
X26904833Y-40552714D01*
X26714357Y-40600333D01*
X26619119Y-40647952D01*
X26571500Y-40695571D01*
X26523880Y-40790809D01*
X27523880Y-41552714D02*
X26523880Y-41552714D01*
X27142928Y-41647952D02*
X27523880Y-41933666D01*
X26857214Y-41933666D02*
X27238166Y-41552714D01*
X25153880Y-40124142D02*
X24677690Y-39790809D01*
X25153880Y-39552714D02*
X24153880Y-39552714D01*
X24153880Y-39933666D01*
X24201500Y-40028904D01*
X24249119Y-40076523D01*
X24344357Y-40124142D01*
X24487214Y-40124142D01*
X24582452Y-40076523D01*
X24630071Y-40028904D01*
X24677690Y-39933666D01*
X24677690Y-39552714D01*
X25153880Y-41076523D02*
X25153880Y-40505095D01*
X25153880Y-40790809D02*
X24153880Y-40790809D01*
X24296738Y-40695571D01*
X24391976Y-40600333D01*
X24439595Y-40505095D01*
X24249119Y-41457476D02*
X24201500Y-41505095D01*
X24153880Y-41600333D01*
X24153880Y-41838428D01*
X24201500Y-41933666D01*
X24249119Y-41981285D01*
X24344357Y-42028904D01*
X24439595Y-42028904D01*
X24582452Y-41981285D01*
X25153880Y-41409857D01*
X25153880Y-42028904D01*
%TO.C,R13*%
X33451880Y-15851261D02*
X33451880Y-15279833D01*
X33451880Y-15565547D02*
X32451880Y-15565547D01*
X32594738Y-15470309D01*
X32689976Y-15375071D01*
X32737595Y-15279833D01*
X32451880Y-16470309D02*
X32451880Y-16565547D01*
X32499500Y-16660785D01*
X32547119Y-16708404D01*
X32642357Y-16756023D01*
X32832833Y-16803642D01*
X33070928Y-16803642D01*
X33261404Y-16756023D01*
X33356642Y-16708404D01*
X33404261Y-16660785D01*
X33451880Y-16565547D01*
X33451880Y-16470309D01*
X33404261Y-16375071D01*
X33356642Y-16327452D01*
X33261404Y-16279833D01*
X33070928Y-16232214D01*
X32832833Y-16232214D01*
X32642357Y-16279833D01*
X32547119Y-16327452D01*
X32499500Y-16375071D01*
X32451880Y-16470309D01*
X33451880Y-17232214D02*
X32451880Y-17232214D01*
X33070928Y-17327452D02*
X33451880Y-17613166D01*
X32785214Y-17613166D02*
X33166166Y-17232214D01*
X35821880Y-15803642D02*
X35345690Y-15470309D01*
X35821880Y-15232214D02*
X34821880Y-15232214D01*
X34821880Y-15613166D01*
X34869500Y-15708404D01*
X34917119Y-15756023D01*
X35012357Y-15803642D01*
X35155214Y-15803642D01*
X35250452Y-15756023D01*
X35298071Y-15708404D01*
X35345690Y-15613166D01*
X35345690Y-15232214D01*
X35821880Y-16756023D02*
X35821880Y-16184595D01*
X35821880Y-16470309D02*
X34821880Y-16470309D01*
X34964738Y-16375071D01*
X35059976Y-16279833D01*
X35107595Y-16184595D01*
X34821880Y-17089357D02*
X34821880Y-17708404D01*
X35202833Y-17375071D01*
X35202833Y-17517928D01*
X35250452Y-17613166D01*
X35298071Y-17660785D01*
X35393309Y-17708404D01*
X35631404Y-17708404D01*
X35726642Y-17660785D01*
X35774261Y-17613166D01*
X35821880Y-17517928D01*
X35821880Y-17232214D01*
X35774261Y-17136976D01*
X35726642Y-17089357D01*
%TO.C,R14*%
X18211880Y-64492261D02*
X18211880Y-63920833D01*
X18211880Y-64206547D02*
X17211880Y-64206547D01*
X17354738Y-64111309D01*
X17449976Y-64016071D01*
X17497595Y-63920833D01*
X17211880Y-65111309D02*
X17211880Y-65206547D01*
X17259500Y-65301785D01*
X17307119Y-65349404D01*
X17402357Y-65397023D01*
X17592833Y-65444642D01*
X17830928Y-65444642D01*
X18021404Y-65397023D01*
X18116642Y-65349404D01*
X18164261Y-65301785D01*
X18211880Y-65206547D01*
X18211880Y-65111309D01*
X18164261Y-65016071D01*
X18116642Y-64968452D01*
X18021404Y-64920833D01*
X17830928Y-64873214D01*
X17592833Y-64873214D01*
X17402357Y-64920833D01*
X17307119Y-64968452D01*
X17259500Y-65016071D01*
X17211880Y-65111309D01*
X18211880Y-65873214D02*
X17211880Y-65873214D01*
X17830928Y-65968452D02*
X18211880Y-66254166D01*
X17545214Y-66254166D02*
X17926166Y-65873214D01*
X20581880Y-64444642D02*
X20105690Y-64111309D01*
X20581880Y-63873214D02*
X19581880Y-63873214D01*
X19581880Y-64254166D01*
X19629500Y-64349404D01*
X19677119Y-64397023D01*
X19772357Y-64444642D01*
X19915214Y-64444642D01*
X20010452Y-64397023D01*
X20058071Y-64349404D01*
X20105690Y-64254166D01*
X20105690Y-63873214D01*
X20581880Y-65397023D02*
X20581880Y-64825595D01*
X20581880Y-65111309D02*
X19581880Y-65111309D01*
X19724738Y-65016071D01*
X19819976Y-64920833D01*
X19867595Y-64825595D01*
X19915214Y-66254166D02*
X20581880Y-66254166D01*
X19534261Y-66016071D02*
X20248547Y-65777976D01*
X20248547Y-66397023D01*
%TO.C,R15*%
X24561880Y-64492261D02*
X24561880Y-63920833D01*
X24561880Y-64206547D02*
X23561880Y-64206547D01*
X23704738Y-64111309D01*
X23799976Y-64016071D01*
X23847595Y-63920833D01*
X23561880Y-65111309D02*
X23561880Y-65206547D01*
X23609500Y-65301785D01*
X23657119Y-65349404D01*
X23752357Y-65397023D01*
X23942833Y-65444642D01*
X24180928Y-65444642D01*
X24371404Y-65397023D01*
X24466642Y-65349404D01*
X24514261Y-65301785D01*
X24561880Y-65206547D01*
X24561880Y-65111309D01*
X24514261Y-65016071D01*
X24466642Y-64968452D01*
X24371404Y-64920833D01*
X24180928Y-64873214D01*
X23942833Y-64873214D01*
X23752357Y-64920833D01*
X23657119Y-64968452D01*
X23609500Y-65016071D01*
X23561880Y-65111309D01*
X24561880Y-65873214D02*
X23561880Y-65873214D01*
X24180928Y-65968452D02*
X24561880Y-66254166D01*
X23895214Y-66254166D02*
X24276166Y-65873214D01*
X26931880Y-64444642D02*
X26455690Y-64111309D01*
X26931880Y-63873214D02*
X25931880Y-63873214D01*
X25931880Y-64254166D01*
X25979500Y-64349404D01*
X26027119Y-64397023D01*
X26122357Y-64444642D01*
X26265214Y-64444642D01*
X26360452Y-64397023D01*
X26408071Y-64349404D01*
X26455690Y-64254166D01*
X26455690Y-63873214D01*
X26931880Y-65397023D02*
X26931880Y-64825595D01*
X26931880Y-65111309D02*
X25931880Y-65111309D01*
X26074738Y-65016071D01*
X26169976Y-64920833D01*
X26217595Y-64825595D01*
X25931880Y-66301785D02*
X25931880Y-65825595D01*
X26408071Y-65777976D01*
X26360452Y-65825595D01*
X26312833Y-65920833D01*
X26312833Y-66158928D01*
X26360452Y-66254166D01*
X26408071Y-66301785D01*
X26503309Y-66349404D01*
X26741404Y-66349404D01*
X26836642Y-66301785D01*
X26884261Y-66254166D01*
X26931880Y-66158928D01*
X26931880Y-65920833D01*
X26884261Y-65825595D01*
X26836642Y-65777976D01*
%TO.C,R16*%
X21450380Y-64492261D02*
X21450380Y-63920833D01*
X21450380Y-64206547D02*
X20450380Y-64206547D01*
X20593238Y-64111309D01*
X20688476Y-64016071D01*
X20736095Y-63920833D01*
X20450380Y-65111309D02*
X20450380Y-65206547D01*
X20498000Y-65301785D01*
X20545619Y-65349404D01*
X20640857Y-65397023D01*
X20831333Y-65444642D01*
X21069428Y-65444642D01*
X21259904Y-65397023D01*
X21355142Y-65349404D01*
X21402761Y-65301785D01*
X21450380Y-65206547D01*
X21450380Y-65111309D01*
X21402761Y-65016071D01*
X21355142Y-64968452D01*
X21259904Y-64920833D01*
X21069428Y-64873214D01*
X20831333Y-64873214D01*
X20640857Y-64920833D01*
X20545619Y-64968452D01*
X20498000Y-65016071D01*
X20450380Y-65111309D01*
X21450380Y-65873214D02*
X20450380Y-65873214D01*
X21069428Y-65968452D02*
X21450380Y-66254166D01*
X20783714Y-66254166D02*
X21164666Y-65873214D01*
X23820380Y-64444642D02*
X23344190Y-64111309D01*
X23820380Y-63873214D02*
X22820380Y-63873214D01*
X22820380Y-64254166D01*
X22868000Y-64349404D01*
X22915619Y-64397023D01*
X23010857Y-64444642D01*
X23153714Y-64444642D01*
X23248952Y-64397023D01*
X23296571Y-64349404D01*
X23344190Y-64254166D01*
X23344190Y-63873214D01*
X23820380Y-65397023D02*
X23820380Y-64825595D01*
X23820380Y-65111309D02*
X22820380Y-65111309D01*
X22963238Y-65016071D01*
X23058476Y-64920833D01*
X23106095Y-64825595D01*
X22820380Y-66254166D02*
X22820380Y-66063690D01*
X22868000Y-65968452D01*
X22915619Y-65920833D01*
X23058476Y-65825595D01*
X23248952Y-65777976D01*
X23629904Y-65777976D01*
X23725142Y-65825595D01*
X23772761Y-65873214D01*
X23820380Y-65968452D01*
X23820380Y-66158928D01*
X23772761Y-66254166D01*
X23725142Y-66301785D01*
X23629904Y-66349404D01*
X23391809Y-66349404D01*
X23296571Y-66301785D01*
X23248952Y-66254166D01*
X23201333Y-66158928D01*
X23201333Y-65968452D01*
X23248952Y-65873214D01*
X23296571Y-65825595D01*
X23391809Y-65777976D01*
%TO.C,R22*%
X33202547Y-136829880D02*
X33773976Y-136829880D01*
X33488261Y-136829880D02*
X33488261Y-135829880D01*
X33583500Y-135972738D01*
X33678738Y-136067976D01*
X33773976Y-136115595D01*
X32773976Y-136829880D02*
X32773976Y-135829880D01*
X32678738Y-136448928D02*
X32393023Y-136829880D01*
X32393023Y-136163214D02*
X32773976Y-136544166D01*
X33726357Y-139199880D02*
X34059690Y-138723690D01*
X34297785Y-139199880D02*
X34297785Y-138199880D01*
X33916833Y-138199880D01*
X33821595Y-138247500D01*
X33773976Y-138295119D01*
X33726357Y-138390357D01*
X33726357Y-138533214D01*
X33773976Y-138628452D01*
X33821595Y-138676071D01*
X33916833Y-138723690D01*
X34297785Y-138723690D01*
X33345404Y-138295119D02*
X33297785Y-138247500D01*
X33202547Y-138199880D01*
X32964452Y-138199880D01*
X32869214Y-138247500D01*
X32821595Y-138295119D01*
X32773976Y-138390357D01*
X32773976Y-138485595D01*
X32821595Y-138628452D01*
X33393023Y-139199880D01*
X32773976Y-139199880D01*
X32393023Y-138295119D02*
X32345404Y-138247500D01*
X32250166Y-138199880D01*
X32012071Y-138199880D01*
X31916833Y-138247500D01*
X31869214Y-138295119D01*
X31821595Y-138390357D01*
X31821595Y-138485595D01*
X31869214Y-138628452D01*
X32440642Y-139199880D01*
X31821595Y-139199880D01*
%TO.C,R23*%
X33266047Y-93078380D02*
X33837476Y-93078380D01*
X33551761Y-93078380D02*
X33551761Y-92078380D01*
X33647000Y-92221238D01*
X33742238Y-92316476D01*
X33837476Y-92364095D01*
X32837476Y-93078380D02*
X32837476Y-92078380D01*
X32742238Y-92697428D02*
X32456523Y-93078380D01*
X32456523Y-92411714D02*
X32837476Y-92792666D01*
X33789857Y-95448380D02*
X34123190Y-94972190D01*
X34361285Y-95448380D02*
X34361285Y-94448380D01*
X33980333Y-94448380D01*
X33885095Y-94496000D01*
X33837476Y-94543619D01*
X33789857Y-94638857D01*
X33789857Y-94781714D01*
X33837476Y-94876952D01*
X33885095Y-94924571D01*
X33980333Y-94972190D01*
X34361285Y-94972190D01*
X33408904Y-94543619D02*
X33361285Y-94496000D01*
X33266047Y-94448380D01*
X33027952Y-94448380D01*
X32932714Y-94496000D01*
X32885095Y-94543619D01*
X32837476Y-94638857D01*
X32837476Y-94734095D01*
X32885095Y-94876952D01*
X33456523Y-95448380D01*
X32837476Y-95448380D01*
X32504142Y-94448380D02*
X31885095Y-94448380D01*
X32218428Y-94829333D01*
X32075571Y-94829333D01*
X31980333Y-94876952D01*
X31932714Y-94924571D01*
X31885095Y-95019809D01*
X31885095Y-95257904D01*
X31932714Y-95353142D01*
X31980333Y-95400761D01*
X32075571Y-95448380D01*
X32361285Y-95448380D01*
X32456523Y-95400761D01*
X32504142Y-95353142D01*
%TO.C,R24*%
X29265547Y-158737380D02*
X29836976Y-158737380D01*
X29551261Y-158737380D02*
X29551261Y-157737380D01*
X29646500Y-157880238D01*
X29741738Y-157975476D01*
X29836976Y-158023095D01*
X28836976Y-158737380D02*
X28836976Y-157737380D01*
X28741738Y-158356428D02*
X28456023Y-158737380D01*
X28456023Y-158070714D02*
X28836976Y-158451666D01*
X29789357Y-161107380D02*
X30122690Y-160631190D01*
X30360785Y-161107380D02*
X30360785Y-160107380D01*
X29979833Y-160107380D01*
X29884595Y-160155000D01*
X29836976Y-160202619D01*
X29789357Y-160297857D01*
X29789357Y-160440714D01*
X29836976Y-160535952D01*
X29884595Y-160583571D01*
X29979833Y-160631190D01*
X30360785Y-160631190D01*
X29408404Y-160202619D02*
X29360785Y-160155000D01*
X29265547Y-160107380D01*
X29027452Y-160107380D01*
X28932214Y-160155000D01*
X28884595Y-160202619D01*
X28836976Y-160297857D01*
X28836976Y-160393095D01*
X28884595Y-160535952D01*
X29456023Y-161107380D01*
X28836976Y-161107380D01*
X27979833Y-160440714D02*
X27979833Y-161107380D01*
X28217928Y-160059761D02*
X28456023Y-160774047D01*
X27836976Y-160774047D01*
%TO.C,R26*%
X33139047Y-114731880D02*
X33710476Y-114731880D01*
X33424761Y-114731880D02*
X33424761Y-113731880D01*
X33520000Y-113874738D01*
X33615238Y-113969976D01*
X33710476Y-114017595D01*
X32710476Y-114731880D02*
X32710476Y-113731880D01*
X32615238Y-114350928D02*
X32329523Y-114731880D01*
X32329523Y-114065214D02*
X32710476Y-114446166D01*
X33662857Y-117101880D02*
X33996190Y-116625690D01*
X34234285Y-117101880D02*
X34234285Y-116101880D01*
X33853333Y-116101880D01*
X33758095Y-116149500D01*
X33710476Y-116197119D01*
X33662857Y-116292357D01*
X33662857Y-116435214D01*
X33710476Y-116530452D01*
X33758095Y-116578071D01*
X33853333Y-116625690D01*
X34234285Y-116625690D01*
X33281904Y-116197119D02*
X33234285Y-116149500D01*
X33139047Y-116101880D01*
X32900952Y-116101880D01*
X32805714Y-116149500D01*
X32758095Y-116197119D01*
X32710476Y-116292357D01*
X32710476Y-116387595D01*
X32758095Y-116530452D01*
X33329523Y-117101880D01*
X32710476Y-117101880D01*
X31853333Y-116101880D02*
X32043809Y-116101880D01*
X32139047Y-116149500D01*
X32186666Y-116197119D01*
X32281904Y-116339976D01*
X32329523Y-116530452D01*
X32329523Y-116911404D01*
X32281904Y-117006642D01*
X32234285Y-117054261D01*
X32139047Y-117101880D01*
X31948571Y-117101880D01*
X31853333Y-117054261D01*
X31805714Y-117006642D01*
X31758095Y-116911404D01*
X31758095Y-116673309D01*
X31805714Y-116578071D01*
X31853333Y-116530452D01*
X31948571Y-116482833D01*
X32139047Y-116482833D01*
X32234285Y-116530452D01*
X32281904Y-116578071D01*
X32329523Y-116673309D01*
%TO.C,U1*%
X17251880Y-75414452D02*
X17251880Y-75985880D01*
X18251880Y-75700166D02*
X17251880Y-75700166D01*
X18251880Y-76795404D02*
X18251880Y-76319214D01*
X17251880Y-76319214D01*
X17251880Y-77319214D02*
X17251880Y-77414452D01*
X17299500Y-77509690D01*
X17347119Y-77557309D01*
X17442357Y-77604928D01*
X17632833Y-77652547D01*
X17870928Y-77652547D01*
X18061404Y-77604928D01*
X18156642Y-77557309D01*
X18204261Y-77509690D01*
X18251880Y-77414452D01*
X18251880Y-77319214D01*
X18204261Y-77223976D01*
X18156642Y-77176357D01*
X18061404Y-77128738D01*
X17870928Y-77081119D01*
X17632833Y-77081119D01*
X17442357Y-77128738D01*
X17347119Y-77176357D01*
X17299500Y-77223976D01*
X17251880Y-77319214D01*
X17251880Y-77985880D02*
X17251880Y-78652547D01*
X18251880Y-78223976D01*
X17585214Y-79462071D02*
X18251880Y-79462071D01*
X17204261Y-79223976D02*
X17918547Y-78985880D01*
X17918547Y-79604928D01*
X27201880Y-76771595D02*
X28011404Y-76771595D01*
X28106642Y-76819214D01*
X28154261Y-76866833D01*
X28201880Y-76962071D01*
X28201880Y-77152547D01*
X28154261Y-77247785D01*
X28106642Y-77295404D01*
X28011404Y-77343023D01*
X27201880Y-77343023D01*
X28201880Y-78343023D02*
X28201880Y-77771595D01*
X28201880Y-78057309D02*
X27201880Y-78057309D01*
X27344738Y-77962071D01*
X27439976Y-77866833D01*
X27487595Y-77771595D01*
%TO.C,U2*%
X16997880Y-26455952D02*
X16997880Y-27027380D01*
X17997880Y-26741666D02*
X16997880Y-26741666D01*
X17997880Y-27836904D02*
X17997880Y-27360714D01*
X16997880Y-27360714D01*
X16997880Y-28360714D02*
X16997880Y-28455952D01*
X17045500Y-28551190D01*
X17093119Y-28598809D01*
X17188357Y-28646428D01*
X17378833Y-28694047D01*
X17616928Y-28694047D01*
X17807404Y-28646428D01*
X17902642Y-28598809D01*
X17950261Y-28551190D01*
X17997880Y-28455952D01*
X17997880Y-28360714D01*
X17950261Y-28265476D01*
X17902642Y-28217857D01*
X17807404Y-28170238D01*
X17616928Y-28122619D01*
X17378833Y-28122619D01*
X17188357Y-28170238D01*
X17093119Y-28217857D01*
X17045500Y-28265476D01*
X16997880Y-28360714D01*
X16997880Y-29027380D02*
X16997880Y-29694047D01*
X17997880Y-29265476D01*
X17331214Y-30503571D02*
X17997880Y-30503571D01*
X16950261Y-30265476D02*
X17664547Y-30027380D01*
X17664547Y-30646428D01*
X26947880Y-27813095D02*
X27757404Y-27813095D01*
X27852642Y-27860714D01*
X27900261Y-27908333D01*
X27947880Y-28003571D01*
X27947880Y-28194047D01*
X27900261Y-28289285D01*
X27852642Y-28336904D01*
X27757404Y-28384523D01*
X26947880Y-28384523D01*
X27043119Y-28813095D02*
X26995500Y-28860714D01*
X26947880Y-28955952D01*
X26947880Y-29194047D01*
X26995500Y-29289285D01*
X27043119Y-29336904D01*
X27138357Y-29384523D01*
X27233595Y-29384523D01*
X27376452Y-29336904D01*
X27947880Y-28765476D01*
X27947880Y-29384523D01*
%TD*%
M02*
