%TF.GenerationSoftware,KiCad,Pcbnew,(5.1.9)-1*%
%TF.CreationDate,2021-09-21T18:31:50+01:00*%
%TF.ProjectId,Kosmo Noise,4b6f736d-6f20-44e6-9f69-73652e6b6963,rev?*%
%TF.SameCoordinates,Original*%
%TF.FileFunction,Copper,L2,Bot*%
%TF.FilePolarity,Positive*%
%FSLAX46Y46*%
G04 Gerber Fmt 4.6, Leading zero omitted, Abs format (unit mm)*
G04 Created by KiCad (PCBNEW (5.1.9)-1) date 2021-09-21 18:31:50*
%MOMM*%
%LPD*%
G01*
G04 APERTURE LIST*
%TA.AperFunction,ComponentPad*%
%ADD10C,4.500000*%
%TD*%
%TA.AperFunction,ComponentPad*%
%ADD11R,4.500001X4.500001*%
%TD*%
%TA.AperFunction,ComponentPad*%
%ADD12C,4.500001*%
%TD*%
%TA.AperFunction,ComponentPad*%
%ADD13C,1.600000*%
%TD*%
%TA.AperFunction,ComponentPad*%
%ADD14R,1.600000X1.600000*%
%TD*%
%TA.AperFunction,ComponentPad*%
%ADD15R,2.200000X2.200000*%
%TD*%
%TA.AperFunction,ComponentPad*%
%ADD16O,2.200000X2.200000*%
%TD*%
%TA.AperFunction,ComponentPad*%
%ADD17R,1.727200X1.727200*%
%TD*%
%TA.AperFunction,ComponentPad*%
%ADD18O,1.727200X1.727200*%
%TD*%
%TA.AperFunction,ComponentPad*%
%ADD19C,1.500000*%
%TD*%
%TA.AperFunction,ComponentPad*%
%ADD20R,1.500000X1.500000*%
%TD*%
%TA.AperFunction,ComponentPad*%
%ADD21O,1.600000X1.600000*%
%TD*%
%TA.AperFunction,ComponentPad*%
%ADD22C,1.440000*%
%TD*%
%TA.AperFunction,ComponentPad*%
%ADD23R,1.600000X2.400000*%
%TD*%
%TA.AperFunction,ComponentPad*%
%ADD24O,1.600000X2.400000*%
%TD*%
%TA.AperFunction,ViaPad*%
%ADD25C,0.800000*%
%TD*%
%TA.AperFunction,Conductor*%
%ADD26C,0.250000*%
%TD*%
%TA.AperFunction,Conductor*%
%ADD27C,0.254000*%
%TD*%
%TA.AperFunction,Conductor*%
%ADD28C,0.100000*%
%TD*%
G04 APERTURE END LIST*
D10*
%TO.P,J2,T*%
%TO.N,Net-(J2-PadT)*%
X22619500Y-106227500D03*
D11*
%TO.P,J2,S*%
%TO.N,GND*%
X33759500Y-110467500D03*
D12*
%TO.P,J2,R*%
%TO.N,N/C*%
X29519500Y-99327500D03*
D10*
%TO.P,J2,TN*%
%TO.N,Net-(J2-PadTN)*%
X26519500Y-112127500D03*
D12*
%TO.P,J2,RN*%
%TO.N,N/C*%
X35419500Y-103227500D03*
%TD*%
D10*
%TO.P,J1,T*%
%TO.N,Net-(J1-PadT)*%
X22619500Y-150233000D03*
D11*
%TO.P,J1,S*%
%TO.N,GND*%
X33759500Y-154473000D03*
D12*
%TO.P,J1,R*%
%TO.N,N/C*%
X29519500Y-143333000D03*
D10*
%TO.P,J1,TN*%
%TO.N,Net-(J1-PadTN)*%
X26519500Y-156133000D03*
D12*
%TO.P,J1,RN*%
%TO.N,N/C*%
X35419500Y-147233000D03*
%TD*%
%TO.P,J3,RN*%
%TO.N,N/C*%
X35419500Y-169267500D03*
D10*
%TO.P,J3,TN*%
%TO.N,Net-(J3-PadTN)*%
X26519500Y-178167500D03*
D12*
%TO.P,J3,R*%
%TO.N,N/C*%
X29519500Y-165367500D03*
D11*
%TO.P,J3,S*%
%TO.N,GND*%
X33759500Y-176507500D03*
D10*
%TO.P,J3,T*%
%TO.N,Net-(J3-PadT)*%
X22619500Y-172267500D03*
%TD*%
D12*
%TO.P,J5,RN*%
%TO.N,N/C*%
X35419500Y-125262000D03*
D10*
%TO.P,J5,TN*%
%TO.N,Net-(J5-PadTN)*%
X26519500Y-134162000D03*
D12*
%TO.P,J5,R*%
%TO.N,N/C*%
X29519500Y-121362000D03*
D11*
%TO.P,J5,S*%
%TO.N,GND*%
X33759500Y-132502000D03*
D10*
%TO.P,J5,T*%
%TO.N,Net-(J5-PadT)*%
X22619500Y-128262000D03*
%TD*%
D13*
%TO.P,C1,2*%
%TO.N,GND*%
X38314000Y-62865000D03*
%TO.P,C1,1*%
%TO.N,Net-(C1-Pad1)*%
X35814000Y-62865000D03*
%TD*%
D14*
%TO.P,c1,1*%
%TO.N,Net-(U2-Pad8)*%
X21971000Y-20510500D03*
D13*
%TO.P,c1,2*%
%TO.N,Net-(R3-Pad2)*%
X21971000Y-18010500D03*
%TD*%
%TO.P,C2,1*%
%TO.N,Net-(C2-Pad1)*%
X26860500Y-57848500D03*
%TO.P,C2,2*%
%TO.N,Net-(C2-Pad2)*%
X24360500Y-57848500D03*
%TD*%
%TO.P,C3,2*%
%TO.N,GND*%
X32345000Y-21526500D03*
%TO.P,C3,1*%
%TO.N,Net-(C3-Pad1)*%
X29845000Y-21526500D03*
%TD*%
%TO.P,C4,1*%
%TO.N,Net-(C4-Pad1)*%
X24892000Y-50800000D03*
%TO.P,C4,2*%
%TO.N,Net-(C4-Pad2)*%
X24892000Y-48300000D03*
%TD*%
%TO.P,C5,1*%
%TO.N,Net-(C5-Pad1)*%
X29781500Y-19240500D03*
%TO.P,C5,2*%
%TO.N,GND*%
X32281500Y-19240500D03*
%TD*%
%TO.P,C6,1*%
%TO.N,Net-(C5-Pad1)*%
X29781500Y-16954500D03*
%TO.P,C6,2*%
%TO.N,GND*%
X32281500Y-16954500D03*
%TD*%
%TO.P,C7,2*%
%TO.N,GND*%
X32321500Y-14311000D03*
%TO.P,C7,1*%
%TO.N,Net-(C7-Pad1)*%
X32321500Y-11811000D03*
%TD*%
%TO.P,C8,1*%
%TO.N,Net-(C7-Pad1)*%
X37211000Y-8572500D03*
%TO.P,C8,2*%
%TO.N,GND*%
X34711000Y-8572500D03*
%TD*%
%TO.P,C9,2*%
%TO.N,GND*%
X32385000Y-6834500D03*
%TO.P,C9,1*%
%TO.N,Net-(C9-Pad1)*%
X32385000Y-9334500D03*
%TD*%
%TO.P,C10,2*%
%TO.N,Net-(C10-Pad2)*%
X35790500Y-65151000D03*
%TO.P,C10,1*%
%TO.N,GND*%
X38290500Y-65151000D03*
%TD*%
D14*
%TO.P,C17,1*%
%TO.N,+12V*%
X20764500Y-138938000D03*
D13*
%TO.P,C17,2*%
%TO.N,GND*%
X23264500Y-138938000D03*
%TD*%
%TO.P,C18,2*%
%TO.N,-12V*%
X20931500Y-117030500D03*
D14*
%TO.P,C18,1*%
%TO.N,GND*%
X23431500Y-117030500D03*
%TD*%
D13*
%TO.P,C21,1*%
%TO.N,GND*%
X27495500Y-38227000D03*
%TO.P,C21,2*%
%TO.N,+12V*%
X27495500Y-35727000D03*
%TD*%
%TO.P,C22,1*%
%TO.N,GND*%
X26797000Y-18986500D03*
%TO.P,C22,2*%
%TO.N,-12V*%
X26797000Y-21486500D03*
%TD*%
%TO.P,C23,2*%
%TO.N,+12V*%
X35790500Y-69596000D03*
%TO.P,C23,1*%
%TO.N,GND*%
X38290500Y-69596000D03*
%TD*%
%TO.P,C24,2*%
%TO.N,-12V*%
X35790500Y-67373500D03*
%TO.P,C24,1*%
%TO.N,GND*%
X38290500Y-67373500D03*
%TD*%
D15*
%TO.P,D1,1*%
%TO.N,+12V*%
X37401500Y-36195000D03*
D16*
%TO.P,D1,2*%
%TO.N,Net-(D1-Pad2)*%
X37401500Y-46355000D03*
%TD*%
%TO.P,D2,2*%
%TO.N,-12V*%
X37465000Y-49466500D03*
D15*
%TO.P,D2,1*%
%TO.N,Net-(D2-Pad1)*%
X37465000Y-59626500D03*
%TD*%
D17*
%TO.P,J6,1*%
%TO.N,Net-(D2-Pad1)*%
X23939500Y-87312500D03*
D18*
%TO.P,J6,2*%
X23939500Y-89852500D03*
%TO.P,J6,3*%
%TO.N,GND*%
X26479500Y-87312500D03*
%TO.P,J6,4*%
X26479500Y-89852500D03*
%TO.P,J6,5*%
X29019500Y-87312500D03*
%TO.P,J6,6*%
X29019500Y-89852500D03*
%TO.P,J6,7*%
X31559500Y-87312500D03*
%TO.P,J6,8*%
X31559500Y-89852500D03*
%TO.P,J6,9*%
%TO.N,Net-(D1-Pad2)*%
X34099500Y-87312500D03*
%TO.P,J6,10*%
X34099500Y-89852500D03*
%TD*%
D19*
%TO.P,Q1,2*%
%TO.N,Net-(Q1-Pad2)*%
X25590500Y-54673500D03*
%TO.P,Q1,3*%
%TO.N,Net-(Q1-Pad3)*%
X23050500Y-54673500D03*
D20*
%TO.P,Q1,1*%
%TO.N,Net-(C4-Pad1)*%
X28130500Y-54673500D03*
%TD*%
D13*
%TO.P,R1,1*%
%TO.N,Net-(C1-Pad1)*%
X34099500Y-48323500D03*
D21*
%TO.P,R1,2*%
%TO.N,+12V*%
X34099500Y-58483500D03*
%TD*%
%TO.P,R2,2*%
%TO.N,Net-(C1-Pad1)*%
X30861000Y-48323500D03*
D13*
%TO.P,R2,1*%
%TO.N,Net-(C4-Pad1)*%
X30861000Y-58483500D03*
%TD*%
D21*
%TO.P,R3,2*%
%TO.N,Net-(R3-Pad2)*%
X33083500Y-60769500D03*
D13*
%TO.P,R3,1*%
%TO.N,Net-(C9-Pad1)*%
X33083500Y-70929500D03*
%TD*%
%TO.P,R4,1*%
%TO.N,GND*%
X29908500Y-70929500D03*
D21*
%TO.P,R4,2*%
%TO.N,Net-(C2-Pad1)*%
X29908500Y-60769500D03*
%TD*%
%TO.P,R5,2*%
%TO.N,Net-(C9-Pad1)*%
X19621500Y-13779500D03*
D13*
%TO.P,R5,1*%
%TO.N,Net-(C3-Pad1)*%
X29781500Y-13779500D03*
%TD*%
%TO.P,R6,1*%
%TO.N,-12V*%
X19812000Y-55689500D03*
D21*
%TO.P,R6,2*%
%TO.N,Net-(Q1-Pad2)*%
X19812000Y-45529500D03*
%TD*%
%TO.P,R7,2*%
%TO.N,Net-(C9-Pad1)*%
X19621500Y-10541000D03*
D13*
%TO.P,R7,1*%
%TO.N,Net-(C5-Pad1)*%
X29781500Y-10541000D03*
%TD*%
D21*
%TO.P,R8,2*%
%TO.N,Net-(C4-Pad2)*%
X27749500Y-50482500D03*
D13*
%TO.P,R8,1*%
%TO.N,GND*%
X27749500Y-40322500D03*
%TD*%
%TO.P,R9,1*%
%TO.N,Net-(R11-Pad2)*%
X30797500Y-35877500D03*
D21*
%TO.P,R9,2*%
%TO.N,Net-(C4-Pad2)*%
X30797500Y-46037500D03*
%TD*%
D13*
%TO.P,R10,1*%
%TO.N,Net-(C7-Pad1)*%
X29781500Y-7429500D03*
D21*
%TO.P,R10,2*%
%TO.N,Net-(C9-Pad1)*%
X19621500Y-7429500D03*
%TD*%
%TO.P,R11,2*%
%TO.N,Net-(R11-Pad2)*%
X34099500Y-46037500D03*
D13*
%TO.P,R11,1*%
%TO.N,Net-(R11-Pad1)*%
X34099500Y-35877500D03*
%TD*%
%TO.P,R12,1*%
%TO.N,Net-(R12-Pad1)*%
X24701500Y-35687000D03*
D21*
%TO.P,R12,2*%
%TO.N,Net-(R11-Pad1)*%
X24701500Y-45847000D03*
%TD*%
%TO.P,R13,2*%
%TO.N,Net-(C9-Pad1)*%
X35369500Y-11366500D03*
D13*
%TO.P,R13,1*%
%TO.N,Net-(R13-Pad1)*%
X35369500Y-21526500D03*
%TD*%
%TO.P,R14,1*%
%TO.N,Net-(R14-Pad1)*%
X20129500Y-70167500D03*
D21*
%TO.P,R14,2*%
%TO.N,Net-(C10-Pad2)*%
X20129500Y-60007500D03*
%TD*%
%TO.P,R15,2*%
%TO.N,Net-(C2-Pad1)*%
X26479500Y-60007500D03*
D13*
%TO.P,R15,1*%
%TO.N,Net-(R15-Pad1)*%
X26479500Y-70167500D03*
%TD*%
%TO.P,R16,1*%
%TO.N,Net-(R16-Pad1)*%
X23368000Y-70167500D03*
D21*
%TO.P,R16,2*%
%TO.N,Net-(C10-Pad2)*%
X23368000Y-60007500D03*
%TD*%
D13*
%TO.P,R22,1*%
%TO.N,Net-(J1-PadT)*%
X28003500Y-138747500D03*
D21*
%TO.P,R22,2*%
%TO.N,/brown*%
X38163500Y-138747500D03*
%TD*%
%TO.P,R23,2*%
%TO.N,/white*%
X38227000Y-94996000D03*
D13*
%TO.P,R23,1*%
%TO.N,Net-(J2-PadT)*%
X28067000Y-94996000D03*
%TD*%
D21*
%TO.P,R24,2*%
%TO.N,/violet*%
X34226500Y-160655000D03*
D13*
%TO.P,R24,1*%
%TO.N,Net-(J3-PadT)*%
X24066500Y-160655000D03*
%TD*%
%TO.P,R26,1*%
%TO.N,Net-(J5-PadT)*%
X27940000Y-116649500D03*
D21*
%TO.P,R26,2*%
%TO.N,/pink*%
X38100000Y-116649500D03*
%TD*%
D22*
%TO.P,RV1,1*%
%TO.N,Net-(R12-Pad1)*%
X20948000Y-36520000D03*
%TO.P,RV1,2*%
%TO.N,/white*%
X20948000Y-39060000D03*
%TO.P,RV1,3*%
X20948000Y-41600000D03*
%TD*%
%TO.P,RV2,3*%
%TO.N,/pink*%
X24948000Y-28758500D03*
%TO.P,RV2,2*%
X27488000Y-28758500D03*
%TO.P,RV2,1*%
%TO.N,Net-(R13-Pad1)*%
X30028000Y-28758500D03*
%TD*%
%TO.P,RV3,1*%
%TO.N,Net-(R15-Pad1)*%
X31249500Y-77477000D03*
%TO.P,RV3,2*%
%TO.N,/violet*%
X33789500Y-77477000D03*
%TO.P,RV3,3*%
X36329500Y-77477000D03*
%TD*%
%TO.P,RV4,3*%
%TO.N,/brown*%
X26106000Y-77477000D03*
%TO.P,RV4,2*%
X23566000Y-77477000D03*
%TO.P,RV4,1*%
%TO.N,Net-(R16-Pad1)*%
X21026000Y-77477000D03*
%TD*%
D23*
%TO.P,U1,1*%
%TO.N,Net-(C2-Pad2)*%
X35369500Y-81343500D03*
D24*
%TO.P,U1,8*%
%TO.N,Net-(R14-Pad1)*%
X20129500Y-73723500D03*
%TO.P,U1,2*%
%TO.N,Net-(C2-Pad2)*%
X32829500Y-81343500D03*
%TO.P,U1,9*%
%TO.N,Net-(R14-Pad1)*%
X22669500Y-73723500D03*
%TO.P,U1,3*%
%TO.N,/white*%
X30289500Y-81343500D03*
%TO.P,U1,10*%
X25209500Y-73723500D03*
%TO.P,U1,4*%
%TO.N,+12V*%
X27749500Y-81343500D03*
%TO.P,U1,11*%
%TO.N,-12V*%
X27749500Y-73723500D03*
%TO.P,U1,5*%
%TO.N,Net-(R15-Pad1)*%
X25209500Y-81343500D03*
%TO.P,U1,12*%
%TO.N,GND*%
X30289500Y-73723500D03*
%TO.P,U1,6*%
X22669500Y-81343500D03*
%TO.P,U1,13*%
%TO.N,Net-(R16-Pad1)*%
X32829500Y-73723500D03*
%TO.P,U1,7*%
%TO.N,/violet*%
X20129500Y-81343500D03*
%TO.P,U1,14*%
%TO.N,/brown*%
X35369500Y-73723500D03*
%TD*%
%TO.P,U2,14*%
%TO.N,/pink*%
X35115500Y-24765000D03*
%TO.P,U2,7*%
%TO.N,/white*%
X19875500Y-32385000D03*
%TO.P,U2,13*%
%TO.N,Net-(R13-Pad1)*%
X32575500Y-24765000D03*
%TO.P,U2,6*%
%TO.N,Net-(R12-Pad1)*%
X22415500Y-32385000D03*
%TO.P,U2,12*%
%TO.N,GND*%
X30035500Y-24765000D03*
%TO.P,U2,5*%
X24955500Y-32385000D03*
%TO.P,U2,11*%
%TO.N,-12V*%
X27495500Y-24765000D03*
%TO.P,U2,4*%
%TO.N,+12V*%
X27495500Y-32385000D03*
%TO.P,U2,10*%
%TO.N,/white*%
X24955500Y-24765000D03*
%TO.P,U2,3*%
%TO.N,GND*%
X30035500Y-32385000D03*
%TO.P,U2,9*%
%TO.N,Net-(U2-Pad8)*%
X22415500Y-24765000D03*
%TO.P,U2,2*%
%TO.N,Net-(R11-Pad2)*%
X32575500Y-32385000D03*
%TO.P,U2,8*%
%TO.N,Net-(U2-Pad8)*%
X19875500Y-24765000D03*
D23*
%TO.P,U2,1*%
%TO.N,Net-(R11-Pad1)*%
X35115500Y-32385000D03*
%TD*%
D25*
%TO.N,Net-(C2-Pad2)*%
X31877000Y-66040000D03*
X30607000Y-64071500D03*
%TO.N,Net-(C9-Pad1)*%
X29993841Y-55477159D03*
%TO.N,-12V*%
X33039383Y-63338203D03*
%TO.N,Net-(R11-Pad2)*%
X34163000Y-41211500D03*
%TO.N,/brown*%
X33401000Y-95377000D03*
X37655500Y-85725000D03*
%TO.N,/violet*%
X31559500Y-95313500D03*
X36766500Y-86296500D03*
X26827299Y-79247011D03*
%TO.N,/pink*%
X35514923Y-119663153D03*
%TD*%
D26*
%TO.N,Net-(R3-Pad2)*%
X20891500Y-16931000D02*
X21971000Y-18010500D01*
X20891500Y-7366000D02*
X20891500Y-16931000D01*
X21953001Y-6304499D02*
X20891500Y-7366000D01*
X30561499Y-6304499D02*
X21953001Y-6304499D01*
X33083500Y-60769500D02*
X32436012Y-60122012D01*
X32436012Y-60122012D02*
X32436012Y-39205990D01*
X38798500Y-31287002D02*
X38798500Y-8494998D01*
X32436012Y-39205990D02*
X35565511Y-36076491D01*
X31259999Y-7356497D02*
X31259999Y-7002999D01*
X35565511Y-34519991D02*
X38798500Y-31287002D01*
X31259999Y-7002999D02*
X30561499Y-6304499D01*
X35565511Y-36076491D02*
X35565511Y-34519991D01*
X38798500Y-8494998D02*
X37751001Y-7447499D01*
X37751001Y-7447499D02*
X33437003Y-7447499D01*
X33437003Y-7447499D02*
X32675003Y-8209499D01*
X32113001Y-8209499D02*
X31259999Y-7356497D01*
X32675003Y-8209499D02*
X32113001Y-8209499D01*
%TO.N,Net-(U2-Pad8)*%
X19875500Y-24765000D02*
X22415500Y-24765000D01*
X22415500Y-20955000D02*
X21971000Y-20510500D01*
X22415500Y-24765000D02*
X22415500Y-20955000D01*
%TO.N,Net-(C1-Pad1)*%
X32974499Y-49448501D02*
X34099500Y-48323500D01*
X32974499Y-58995497D02*
X32974499Y-49448501D01*
X35814000Y-61834998D02*
X32974499Y-58995497D01*
X35814000Y-62865000D02*
X35814000Y-61834998D01*
%TO.N,GND*%
X38290500Y-69596000D02*
X38290500Y-67373500D01*
X38290500Y-67373500D02*
X38290500Y-65151000D01*
X38290500Y-62888500D02*
X38314000Y-62865000D01*
X38290500Y-65151000D02*
X38290500Y-62888500D01*
X30556997Y-78522001D02*
X26334510Y-74299514D01*
X31751101Y-78522001D02*
X30556997Y-78522001D01*
X32294501Y-75728501D02*
X32294501Y-77978601D01*
X26334510Y-74299514D02*
X26334510Y-72181510D01*
X32294501Y-77978601D02*
X31751101Y-78522001D01*
X30289500Y-73723500D02*
X32294501Y-75728501D01*
X21975499Y-43747001D02*
X27495500Y-38227000D01*
X22827999Y-71292501D02*
X21975499Y-70440001D01*
X26334510Y-72181510D02*
X25445501Y-71292501D01*
X25445501Y-71292501D02*
X22827999Y-71292501D01*
X21975499Y-70440001D02*
X21975499Y-43747001D01*
X35831999Y-72054501D02*
X38290500Y-69596000D01*
X32543499Y-72054501D02*
X35831999Y-72054501D01*
X31418498Y-70929500D02*
X32543499Y-72054501D01*
X29908500Y-70929500D02*
X31418498Y-70929500D01*
%TO.N,Net-(C2-Pad2)*%
X31877000Y-65341500D02*
X30607000Y-64071500D01*
X31877000Y-66040000D02*
X31877000Y-65341500D01*
%TO.N,Net-(C9-Pad1)*%
X28783499Y-66629499D02*
X28783499Y-56687501D01*
X28783499Y-56687501D02*
X29993841Y-55477159D01*
X33083500Y-70929500D02*
X28783499Y-66629499D01*
%TO.N,Net-(C10-Pad2)*%
X25485501Y-57558497D02*
X25485501Y-58388501D01*
X26665501Y-54053497D02*
X26665501Y-56378497D01*
X27120499Y-53598499D02*
X26665501Y-54053497D01*
X29140501Y-53598499D02*
X27120499Y-53598499D01*
X26665501Y-56378497D02*
X25485501Y-57558497D01*
X31986001Y-56443999D02*
X29140501Y-53598499D01*
X31986001Y-59023501D02*
X31986001Y-56443999D01*
X31813500Y-59196002D02*
X31986001Y-59023501D01*
X32543499Y-61894501D02*
X31813500Y-61164502D01*
X34688999Y-63962499D02*
X32621001Y-61894501D01*
X35790500Y-65151000D02*
X34688999Y-64049499D01*
X25485501Y-58388501D02*
X23866502Y-60007500D01*
X34688999Y-64049499D02*
X34688999Y-63962499D01*
X32621001Y-61894501D02*
X32543499Y-61894501D01*
X23866502Y-60007500D02*
X23368000Y-60007500D01*
X31813500Y-61164502D02*
X31813500Y-59196002D01*
%TO.N,+12V*%
X36939001Y-68447499D02*
X35790500Y-69596000D01*
X36939001Y-61885503D02*
X36939001Y-68447499D01*
X34099500Y-59046002D02*
X36939001Y-61885503D01*
X34099500Y-58483500D02*
X34099500Y-59046002D01*
%TO.N,-12V*%
X35790500Y-67373500D02*
X33039383Y-64622383D01*
X33039383Y-64622383D02*
X33039383Y-63338203D01*
%TO.N,Net-(R11-Pad2)*%
X32575500Y-34099500D02*
X30797500Y-35877500D01*
X32575500Y-32385000D02*
X32575500Y-34099500D01*
X34163000Y-45974000D02*
X34099500Y-46037500D01*
X34163000Y-41211500D02*
X34163000Y-45974000D01*
%TO.N,Net-(R11-Pad1)*%
X34099500Y-36449000D02*
X34099500Y-35877500D01*
X24701500Y-45847000D02*
X34099500Y-36449000D01*
X35115500Y-34861500D02*
X34099500Y-35877500D01*
X35115500Y-32385000D02*
X35115500Y-34861500D01*
%TO.N,Net-(R12-Pad1)*%
X22415500Y-33401000D02*
X22415500Y-32385000D01*
X24701500Y-35687000D02*
X22415500Y-33401000D01*
%TO.N,Net-(R14-Pad1)*%
X20129500Y-70167500D02*
X20129500Y-73723500D01*
X20129500Y-73723500D02*
X22669500Y-73723500D01*
%TO.N,Net-(R15-Pad1)*%
X28874510Y-75102010D02*
X31249500Y-77477000D01*
X28874510Y-72562510D02*
X28874510Y-75102010D01*
X26479500Y-70167500D02*
X28874510Y-72562510D01*
%TO.N,Net-(R16-Pad1)*%
X23368000Y-70167500D02*
X24493001Y-69042499D01*
X31304490Y-72198490D02*
X32829500Y-73723500D01*
X28465999Y-71152001D02*
X29512488Y-72198490D01*
X29512488Y-72198490D02*
X31304490Y-72198490D01*
X28465999Y-69042499D02*
X28465999Y-71152001D01*
X24493001Y-69042499D02*
X28465999Y-69042499D01*
%TO.N,/brown*%
X37655500Y-76009500D02*
X35369500Y-73723500D01*
X37655500Y-85725000D02*
X37655500Y-76009500D01*
X26106000Y-77477000D02*
X23566000Y-77477000D01*
X32844499Y-95933501D02*
X32844499Y-106297499D01*
X33401000Y-95377000D02*
X32844499Y-95933501D01*
X31184499Y-113670999D02*
X38163500Y-120650000D01*
X32844499Y-106297499D02*
X31184499Y-107957499D01*
X31184499Y-107957499D02*
X31184499Y-113670999D01*
X38163500Y-138747500D02*
X38163500Y-120650000D01*
%TO.N,/white*%
X34507231Y-88501101D02*
X38227000Y-92220870D01*
X33528971Y-88501101D02*
X34507231Y-88501101D01*
X32910899Y-87883029D02*
X33528971Y-88501101D01*
X32910899Y-83964899D02*
X32910899Y-87883029D01*
X38227000Y-92220870D02*
X38227000Y-94996000D01*
X30289500Y-81343500D02*
X32910899Y-83964899D01*
X24955500Y-24765000D02*
X24638000Y-24765000D01*
X19875500Y-29845000D02*
X24955500Y-24765000D01*
X19875500Y-32385000D02*
X19875500Y-29845000D01*
X19875500Y-37987500D02*
X20948000Y-39060000D01*
X19875500Y-32385000D02*
X19875500Y-37987500D01*
X25209500Y-73723500D02*
X25209500Y-74123500D01*
X30289500Y-79203500D02*
X30289500Y-81343500D01*
X25209500Y-74123500D02*
X30289500Y-79203500D01*
X23228512Y-71742512D02*
X25209500Y-73723500D01*
X20948000Y-41600000D02*
X21525488Y-42177488D01*
X21525488Y-42177488D02*
X21525488Y-70866399D01*
X21525488Y-70866399D02*
X22401601Y-71742512D01*
X22401601Y-71742512D02*
X23228512Y-71742512D01*
%TO.N,/violet*%
X36329500Y-79718498D02*
X36329500Y-77477000D01*
X36766500Y-80155498D02*
X36329500Y-79718498D01*
X36766500Y-86296500D02*
X36766500Y-80155498D01*
X20129500Y-81343500D02*
X20129500Y-79893500D01*
X20129500Y-79893500D02*
X20775989Y-79247011D01*
X20775989Y-79247011D02*
X26827299Y-79247011D01*
X36334502Y-129988004D02*
X32844499Y-126498001D01*
X34226500Y-160655000D02*
X36334502Y-158546998D01*
X32844499Y-123359005D02*
X36540297Y-119663207D01*
X36334502Y-158546998D02*
X36334502Y-151959004D01*
X32394488Y-96148488D02*
X31559500Y-95313500D01*
X32844499Y-148469001D02*
X32844499Y-138502005D01*
X32394488Y-106111100D02*
X32394488Y-96148488D01*
X30734488Y-107771099D02*
X32394488Y-106111100D01*
X36540297Y-119663207D02*
X30734488Y-113857399D01*
X32844499Y-126498001D02*
X32844499Y-123359005D01*
X36334502Y-151959004D02*
X32844499Y-148469001D01*
X30734488Y-113857399D02*
X30734488Y-107771099D01*
X36334502Y-135012002D02*
X36334502Y-129988004D01*
X32844499Y-138502005D02*
X36334502Y-135012002D01*
%TO.N,/pink*%
X23929767Y-28758500D02*
X24948000Y-28758500D01*
X20937001Y-43135603D02*
X19902999Y-42101601D01*
X20937001Y-56229501D02*
X20937001Y-43135603D01*
X19004490Y-58162012D02*
X20937001Y-56229501D01*
X20999603Y-40554999D02*
X20015499Y-40554999D01*
X21993001Y-39561601D02*
X20999603Y-40554999D01*
X21993001Y-33994501D02*
X21993001Y-39561601D01*
X21000510Y-33002010D02*
X21993001Y-33994501D01*
X20015499Y-40554999D02*
X19902999Y-40667499D01*
X19902999Y-42101601D02*
X19902999Y-40667499D01*
X21000510Y-33002010D02*
X21000510Y-31687757D01*
X19004490Y-86676620D02*
X19004490Y-86441490D01*
X19004490Y-86441490D02*
X19004490Y-58162012D01*
X19004490Y-86441490D02*
X19004490Y-128457992D01*
X21383499Y-130837001D02*
X24341075Y-130837001D01*
X19004490Y-128457992D02*
X21383499Y-130837001D01*
X24341075Y-130837001D02*
X35514923Y-119663153D01*
X33590490Y-23239990D02*
X35115500Y-24765000D01*
X27029506Y-23239990D02*
X33590490Y-23239990D01*
X26080510Y-24188986D02*
X27029506Y-23239990D01*
X26080510Y-26607756D02*
X26080510Y-24188986D01*
X23645383Y-29042883D02*
X26080510Y-26607756D01*
X21000510Y-31687757D02*
X23645383Y-29042883D01*
X23645383Y-29042883D02*
X23929767Y-28758500D01*
X27488000Y-28758500D02*
X24948000Y-28758500D01*
%TD*%
D27*
%TO.N,GND*%
X32084499Y-126460678D02*
X32080823Y-126498001D01*
X32084499Y-126535323D01*
X32084499Y-126535333D01*
X32095496Y-126646986D01*
X32138953Y-126790247D01*
X32209525Y-126922277D01*
X32249370Y-126970827D01*
X32304498Y-127038002D01*
X32333502Y-127061805D01*
X34887379Y-129615683D01*
X34045250Y-129617000D01*
X33886500Y-129775750D01*
X33886500Y-132375000D01*
X33906500Y-132375000D01*
X33906500Y-132629000D01*
X33886500Y-132629000D01*
X33886500Y-135228250D01*
X34045250Y-135387000D01*
X34883391Y-135388311D01*
X32333497Y-137938206D01*
X32304499Y-137962004D01*
X32280701Y-137991002D01*
X32280700Y-137991003D01*
X32209525Y-138077729D01*
X32138953Y-138209759D01*
X32108679Y-138309563D01*
X32095497Y-138353019D01*
X32084500Y-138464672D01*
X32080823Y-138502005D01*
X32084500Y-138539337D01*
X32084500Y-141986588D01*
X32076154Y-141966440D01*
X31760426Y-141493920D01*
X31358580Y-141092074D01*
X30886060Y-140776346D01*
X30361023Y-140558869D01*
X29803648Y-140448000D01*
X29235352Y-140448000D01*
X28677977Y-140558869D01*
X28152940Y-140776346D01*
X27680420Y-141092074D01*
X27278574Y-141493920D01*
X26962846Y-141966440D01*
X26745369Y-142491477D01*
X26634500Y-143048852D01*
X26634500Y-143617148D01*
X26745369Y-144174523D01*
X26962846Y-144699560D01*
X27278574Y-145172080D01*
X27680420Y-145573926D01*
X28152940Y-145889654D01*
X28677977Y-146107131D01*
X29235352Y-146218000D01*
X29803648Y-146218000D01*
X30361023Y-146107131D01*
X30886060Y-145889654D01*
X31358580Y-145573926D01*
X31760426Y-145172080D01*
X32076154Y-144699560D01*
X32084499Y-144679412D01*
X32084499Y-148431679D01*
X32080823Y-148469001D01*
X32084499Y-148506323D01*
X32084499Y-148506333D01*
X32095496Y-148617986D01*
X32138953Y-148761247D01*
X32209525Y-148893277D01*
X32249370Y-148941827D01*
X32304498Y-149009002D01*
X32333502Y-149032805D01*
X34887379Y-151586683D01*
X34045250Y-151588000D01*
X33886500Y-151746750D01*
X33886500Y-154346000D01*
X33906500Y-154346000D01*
X33906500Y-154600000D01*
X33886500Y-154600000D01*
X33886500Y-157199250D01*
X34045250Y-157358000D01*
X35574502Y-157360392D01*
X35574502Y-158232196D01*
X34550386Y-159256312D01*
X34367835Y-159220000D01*
X34085165Y-159220000D01*
X33807926Y-159275147D01*
X33546773Y-159383320D01*
X33311741Y-159540363D01*
X33111863Y-159740241D01*
X32954820Y-159975273D01*
X32846647Y-160236426D01*
X32791500Y-160513665D01*
X32791500Y-160796335D01*
X32846647Y-161073574D01*
X32954820Y-161334727D01*
X33111863Y-161569759D01*
X33311741Y-161769637D01*
X33546773Y-161926680D01*
X33807926Y-162034853D01*
X34085165Y-162090000D01*
X34367835Y-162090000D01*
X34645074Y-162034853D01*
X34906227Y-161926680D01*
X35141259Y-161769637D01*
X35341137Y-161569759D01*
X35498180Y-161334727D01*
X35606353Y-161073574D01*
X35661500Y-160796335D01*
X35661500Y-160513665D01*
X35625188Y-160331114D01*
X36845506Y-159110796D01*
X36874503Y-159086999D01*
X36931129Y-159018000D01*
X36969476Y-158971275D01*
X37040048Y-158839245D01*
X37040048Y-158839244D01*
X37083505Y-158695984D01*
X37094502Y-158584331D01*
X37094502Y-158584321D01*
X37098178Y-158546999D01*
X37094502Y-158509676D01*
X37094502Y-151996337D01*
X37098179Y-151959004D01*
X37083505Y-151810018D01*
X37040048Y-151666757D01*
X36969476Y-151534728D01*
X36898301Y-151448001D01*
X36874503Y-151419003D01*
X36845505Y-151395205D01*
X35568300Y-150118000D01*
X35703648Y-150118000D01*
X36261023Y-150007131D01*
X36786060Y-149789654D01*
X37258580Y-149473926D01*
X37660426Y-149072080D01*
X37976154Y-148599560D01*
X38193631Y-148074523D01*
X38304500Y-147517148D01*
X38304500Y-146948852D01*
X38193631Y-146391477D01*
X37976154Y-145866440D01*
X37660426Y-145393920D01*
X37258580Y-144992074D01*
X36786060Y-144676346D01*
X36261023Y-144458869D01*
X35703648Y-144348000D01*
X35135352Y-144348000D01*
X34577977Y-144458869D01*
X34052940Y-144676346D01*
X33604499Y-144975985D01*
X33604499Y-138816806D01*
X36845506Y-135575800D01*
X36874503Y-135552003D01*
X36969476Y-135436278D01*
X37040048Y-135304249D01*
X37083505Y-135160988D01*
X37094502Y-135049335D01*
X37094502Y-135049334D01*
X37098179Y-135012002D01*
X37094502Y-134974669D01*
X37094502Y-130025337D01*
X37098179Y-129988004D01*
X37083505Y-129839018D01*
X37040048Y-129695757D01*
X36969476Y-129563728D01*
X36898301Y-129477001D01*
X36874503Y-129448003D01*
X36845505Y-129424205D01*
X35568300Y-128147000D01*
X35703648Y-128147000D01*
X36261023Y-128036131D01*
X36786060Y-127818654D01*
X37258580Y-127502926D01*
X37403501Y-127358005D01*
X37403500Y-137529457D01*
X37248741Y-137632863D01*
X37048863Y-137832741D01*
X36891820Y-138067773D01*
X36783647Y-138328926D01*
X36728500Y-138606165D01*
X36728500Y-138888835D01*
X36783647Y-139166074D01*
X36891820Y-139427227D01*
X37048863Y-139662259D01*
X37248741Y-139862137D01*
X37483773Y-140019180D01*
X37744926Y-140127353D01*
X38022165Y-140182500D01*
X38304835Y-140182500D01*
X38582074Y-140127353D01*
X38765384Y-140051423D01*
X38765384Y-181033272D01*
X26900313Y-181033272D01*
X27361023Y-180941631D01*
X27886060Y-180724154D01*
X28358580Y-180408426D01*
X28760426Y-180006580D01*
X29076154Y-179534060D01*
X29293631Y-179009023D01*
X29343662Y-178757500D01*
X30871428Y-178757500D01*
X30883688Y-178881982D01*
X30919998Y-179001680D01*
X30978963Y-179111994D01*
X31058315Y-179208685D01*
X31155006Y-179288037D01*
X31265320Y-179347002D01*
X31385018Y-179383312D01*
X31509500Y-179395572D01*
X33473750Y-179392500D01*
X33632500Y-179233750D01*
X33632500Y-176634500D01*
X33886500Y-176634500D01*
X33886500Y-179233750D01*
X34045250Y-179392500D01*
X36009500Y-179395572D01*
X36133982Y-179383312D01*
X36253680Y-179347002D01*
X36363994Y-179288037D01*
X36460685Y-179208685D01*
X36540037Y-179111994D01*
X36599002Y-179001680D01*
X36635312Y-178881982D01*
X36647572Y-178757500D01*
X36644500Y-176793250D01*
X36485750Y-176634500D01*
X33886500Y-176634500D01*
X33632500Y-176634500D01*
X31033250Y-176634500D01*
X30874500Y-176793250D01*
X30871428Y-178757500D01*
X29343662Y-178757500D01*
X29404500Y-178451648D01*
X29404500Y-177883352D01*
X29293631Y-177325977D01*
X29076154Y-176800940D01*
X28760426Y-176328420D01*
X28358580Y-175926574D01*
X27886060Y-175610846D01*
X27361023Y-175393369D01*
X26803648Y-175282500D01*
X26235352Y-175282500D01*
X25677977Y-175393369D01*
X25152940Y-175610846D01*
X24680420Y-175926574D01*
X24278574Y-176328420D01*
X23962846Y-176800940D01*
X23745369Y-177325977D01*
X23634500Y-177883352D01*
X23634500Y-178451648D01*
X23745369Y-179009023D01*
X23962846Y-179534060D01*
X24278574Y-180006580D01*
X24680420Y-180408426D01*
X25152940Y-180724154D01*
X25677977Y-180941631D01*
X26138687Y-181033272D01*
X19235384Y-181033272D01*
X19235384Y-171983352D01*
X19734500Y-171983352D01*
X19734500Y-172551648D01*
X19845369Y-173109023D01*
X20062846Y-173634060D01*
X20378574Y-174106580D01*
X20780420Y-174508426D01*
X21252940Y-174824154D01*
X21777977Y-175041631D01*
X22335352Y-175152500D01*
X22903648Y-175152500D01*
X23461023Y-175041631D01*
X23986060Y-174824154D01*
X24458580Y-174508426D01*
X24709506Y-174257500D01*
X30871428Y-174257500D01*
X30874500Y-176221750D01*
X31033250Y-176380500D01*
X33632500Y-176380500D01*
X33632500Y-173781250D01*
X33886500Y-173781250D01*
X33886500Y-176380500D01*
X36485750Y-176380500D01*
X36644500Y-176221750D01*
X36647572Y-174257500D01*
X36635312Y-174133018D01*
X36599002Y-174013320D01*
X36540037Y-173903006D01*
X36460685Y-173806315D01*
X36363994Y-173726963D01*
X36253680Y-173667998D01*
X36133982Y-173631688D01*
X36009500Y-173619428D01*
X34045250Y-173622500D01*
X33886500Y-173781250D01*
X33632500Y-173781250D01*
X33473750Y-173622500D01*
X31509500Y-173619428D01*
X31385018Y-173631688D01*
X31265320Y-173667998D01*
X31155006Y-173726963D01*
X31058315Y-173806315D01*
X30978963Y-173903006D01*
X30919998Y-174013320D01*
X30883688Y-174133018D01*
X30871428Y-174257500D01*
X24709506Y-174257500D01*
X24860426Y-174106580D01*
X25176154Y-173634060D01*
X25393631Y-173109023D01*
X25504500Y-172551648D01*
X25504500Y-171983352D01*
X25393631Y-171425977D01*
X25176154Y-170900940D01*
X24860426Y-170428420D01*
X24458580Y-170026574D01*
X23986060Y-169710846D01*
X23461023Y-169493369D01*
X22903648Y-169382500D01*
X22335352Y-169382500D01*
X21777977Y-169493369D01*
X21252940Y-169710846D01*
X20780420Y-170026574D01*
X20378574Y-170428420D01*
X20062846Y-170900940D01*
X19845369Y-171425977D01*
X19734500Y-171983352D01*
X19235384Y-171983352D01*
X19235384Y-168983352D01*
X32534500Y-168983352D01*
X32534500Y-169551648D01*
X32645369Y-170109023D01*
X32862846Y-170634060D01*
X33178574Y-171106580D01*
X33580420Y-171508426D01*
X34052940Y-171824154D01*
X34577977Y-172041631D01*
X35135352Y-172152500D01*
X35703648Y-172152500D01*
X36261023Y-172041631D01*
X36786060Y-171824154D01*
X37258580Y-171508426D01*
X37660426Y-171106580D01*
X37976154Y-170634060D01*
X38193631Y-170109023D01*
X38304500Y-169551648D01*
X38304500Y-168983352D01*
X38193631Y-168425977D01*
X37976154Y-167900940D01*
X37660426Y-167428420D01*
X37258580Y-167026574D01*
X36786060Y-166710846D01*
X36261023Y-166493369D01*
X35703648Y-166382500D01*
X35135352Y-166382500D01*
X34577977Y-166493369D01*
X34052940Y-166710846D01*
X33580420Y-167026574D01*
X33178574Y-167428420D01*
X32862846Y-167900940D01*
X32645369Y-168425977D01*
X32534500Y-168983352D01*
X19235384Y-168983352D01*
X19235384Y-165083352D01*
X26634500Y-165083352D01*
X26634500Y-165651648D01*
X26745369Y-166209023D01*
X26962846Y-166734060D01*
X27278574Y-167206580D01*
X27680420Y-167608426D01*
X28152940Y-167924154D01*
X28677977Y-168141631D01*
X29235352Y-168252500D01*
X29803648Y-168252500D01*
X30361023Y-168141631D01*
X30886060Y-167924154D01*
X31358580Y-167608426D01*
X31760426Y-167206580D01*
X32076154Y-166734060D01*
X32293631Y-166209023D01*
X32404500Y-165651648D01*
X32404500Y-165083352D01*
X32293631Y-164525977D01*
X32076154Y-164000940D01*
X31760426Y-163528420D01*
X31358580Y-163126574D01*
X30886060Y-162810846D01*
X30361023Y-162593369D01*
X29803648Y-162482500D01*
X29235352Y-162482500D01*
X28677977Y-162593369D01*
X28152940Y-162810846D01*
X27680420Y-163126574D01*
X27278574Y-163528420D01*
X26962846Y-164000940D01*
X26745369Y-164525977D01*
X26634500Y-165083352D01*
X19235384Y-165083352D01*
X19235384Y-160513665D01*
X22631500Y-160513665D01*
X22631500Y-160796335D01*
X22686647Y-161073574D01*
X22794820Y-161334727D01*
X22951863Y-161569759D01*
X23151741Y-161769637D01*
X23386773Y-161926680D01*
X23647926Y-162034853D01*
X23925165Y-162090000D01*
X24207835Y-162090000D01*
X24485074Y-162034853D01*
X24746227Y-161926680D01*
X24981259Y-161769637D01*
X25181137Y-161569759D01*
X25338180Y-161334727D01*
X25446353Y-161073574D01*
X25501500Y-160796335D01*
X25501500Y-160513665D01*
X25446353Y-160236426D01*
X25338180Y-159975273D01*
X25181137Y-159740241D01*
X24981259Y-159540363D01*
X24746227Y-159383320D01*
X24485074Y-159275147D01*
X24207835Y-159220000D01*
X23925165Y-159220000D01*
X23647926Y-159275147D01*
X23386773Y-159383320D01*
X23151741Y-159540363D01*
X22951863Y-159740241D01*
X22794820Y-159975273D01*
X22686647Y-160236426D01*
X22631500Y-160513665D01*
X19235384Y-160513665D01*
X19235384Y-155848852D01*
X23634500Y-155848852D01*
X23634500Y-156417148D01*
X23745369Y-156974523D01*
X23962846Y-157499560D01*
X24278574Y-157972080D01*
X24680420Y-158373926D01*
X25152940Y-158689654D01*
X25677977Y-158907131D01*
X26235352Y-159018000D01*
X26803648Y-159018000D01*
X27361023Y-158907131D01*
X27886060Y-158689654D01*
X28358580Y-158373926D01*
X28760426Y-157972080D01*
X29076154Y-157499560D01*
X29293631Y-156974523D01*
X29343662Y-156723000D01*
X30871428Y-156723000D01*
X30883688Y-156847482D01*
X30919998Y-156967180D01*
X30978963Y-157077494D01*
X31058315Y-157174185D01*
X31155006Y-157253537D01*
X31265320Y-157312502D01*
X31385018Y-157348812D01*
X31509500Y-157361072D01*
X33473750Y-157358000D01*
X33632500Y-157199250D01*
X33632500Y-154600000D01*
X31033250Y-154600000D01*
X30874500Y-154758750D01*
X30871428Y-156723000D01*
X29343662Y-156723000D01*
X29404500Y-156417148D01*
X29404500Y-155848852D01*
X29293631Y-155291477D01*
X29076154Y-154766440D01*
X28760426Y-154293920D01*
X28358580Y-153892074D01*
X27886060Y-153576346D01*
X27361023Y-153358869D01*
X26803648Y-153248000D01*
X26235352Y-153248000D01*
X25677977Y-153358869D01*
X25152940Y-153576346D01*
X24680420Y-153892074D01*
X24278574Y-154293920D01*
X23962846Y-154766440D01*
X23745369Y-155291477D01*
X23634500Y-155848852D01*
X19235384Y-155848852D01*
X19235384Y-149948852D01*
X19734500Y-149948852D01*
X19734500Y-150517148D01*
X19845369Y-151074523D01*
X20062846Y-151599560D01*
X20378574Y-152072080D01*
X20780420Y-152473926D01*
X21252940Y-152789654D01*
X21777977Y-153007131D01*
X22335352Y-153118000D01*
X22903648Y-153118000D01*
X23461023Y-153007131D01*
X23986060Y-152789654D01*
X24458580Y-152473926D01*
X24709506Y-152223000D01*
X30871428Y-152223000D01*
X30874500Y-154187250D01*
X31033250Y-154346000D01*
X33632500Y-154346000D01*
X33632500Y-151746750D01*
X33473750Y-151588000D01*
X31509500Y-151584928D01*
X31385018Y-151597188D01*
X31265320Y-151633498D01*
X31155006Y-151692463D01*
X31058315Y-151771815D01*
X30978963Y-151868506D01*
X30919998Y-151978820D01*
X30883688Y-152098518D01*
X30871428Y-152223000D01*
X24709506Y-152223000D01*
X24860426Y-152072080D01*
X25176154Y-151599560D01*
X25393631Y-151074523D01*
X25504500Y-150517148D01*
X25504500Y-149948852D01*
X25393631Y-149391477D01*
X25176154Y-148866440D01*
X24860426Y-148393920D01*
X24458580Y-147992074D01*
X23986060Y-147676346D01*
X23461023Y-147458869D01*
X22903648Y-147348000D01*
X22335352Y-147348000D01*
X21777977Y-147458869D01*
X21252940Y-147676346D01*
X20780420Y-147992074D01*
X20378574Y-148393920D01*
X20062846Y-148866440D01*
X19845369Y-149391477D01*
X19734500Y-149948852D01*
X19235384Y-149948852D01*
X19235384Y-138138000D01*
X19326428Y-138138000D01*
X19326428Y-139738000D01*
X19338688Y-139862482D01*
X19374998Y-139982180D01*
X19433963Y-140092494D01*
X19513315Y-140189185D01*
X19610006Y-140268537D01*
X19720320Y-140327502D01*
X19840018Y-140363812D01*
X19964500Y-140376072D01*
X21564500Y-140376072D01*
X21688982Y-140363812D01*
X21808680Y-140327502D01*
X21918994Y-140268537D01*
X22015685Y-140189185D01*
X22095037Y-140092494D01*
X22154002Y-139982180D01*
X22169617Y-139930702D01*
X22451403Y-139930702D01*
X22522986Y-140174671D01*
X22778496Y-140295571D01*
X23052684Y-140364300D01*
X23335012Y-140378217D01*
X23614630Y-140336787D01*
X23880792Y-140241603D01*
X24006014Y-140174671D01*
X24077597Y-139930702D01*
X23264500Y-139117605D01*
X22451403Y-139930702D01*
X22169617Y-139930702D01*
X22190312Y-139862482D01*
X22202572Y-139738000D01*
X22202572Y-139730785D01*
X22271798Y-139751097D01*
X23084895Y-138938000D01*
X23444105Y-138938000D01*
X24257202Y-139751097D01*
X24501171Y-139679514D01*
X24622071Y-139424004D01*
X24690800Y-139149816D01*
X24704717Y-138867488D01*
X24665998Y-138606165D01*
X26568500Y-138606165D01*
X26568500Y-138888835D01*
X26623647Y-139166074D01*
X26731820Y-139427227D01*
X26888863Y-139662259D01*
X27088741Y-139862137D01*
X27323773Y-140019180D01*
X27584926Y-140127353D01*
X27862165Y-140182500D01*
X28144835Y-140182500D01*
X28422074Y-140127353D01*
X28683227Y-140019180D01*
X28918259Y-139862137D01*
X29118137Y-139662259D01*
X29275180Y-139427227D01*
X29383353Y-139166074D01*
X29438500Y-138888835D01*
X29438500Y-138606165D01*
X29383353Y-138328926D01*
X29275180Y-138067773D01*
X29118137Y-137832741D01*
X28918259Y-137632863D01*
X28683227Y-137475820D01*
X28422074Y-137367647D01*
X28144835Y-137312500D01*
X27862165Y-137312500D01*
X27584926Y-137367647D01*
X27323773Y-137475820D01*
X27088741Y-137632863D01*
X26888863Y-137832741D01*
X26731820Y-138067773D01*
X26623647Y-138328926D01*
X26568500Y-138606165D01*
X24665998Y-138606165D01*
X24663287Y-138587870D01*
X24568103Y-138321708D01*
X24501171Y-138196486D01*
X24257202Y-138124903D01*
X23444105Y-138938000D01*
X23084895Y-138938000D01*
X22271798Y-138124903D01*
X22202572Y-138145215D01*
X22202572Y-138138000D01*
X22190312Y-138013518D01*
X22169618Y-137945298D01*
X22451403Y-137945298D01*
X23264500Y-138758395D01*
X24077597Y-137945298D01*
X24006014Y-137701329D01*
X23750504Y-137580429D01*
X23476316Y-137511700D01*
X23193988Y-137497783D01*
X22914370Y-137539213D01*
X22648208Y-137634397D01*
X22522986Y-137701329D01*
X22451403Y-137945298D01*
X22169618Y-137945298D01*
X22154002Y-137893820D01*
X22095037Y-137783506D01*
X22015685Y-137686815D01*
X21918994Y-137607463D01*
X21808680Y-137548498D01*
X21688982Y-137512188D01*
X21564500Y-137499928D01*
X19964500Y-137499928D01*
X19840018Y-137512188D01*
X19720320Y-137548498D01*
X19610006Y-137607463D01*
X19513315Y-137686815D01*
X19433963Y-137783506D01*
X19374998Y-137893820D01*
X19338688Y-138013518D01*
X19326428Y-138138000D01*
X19235384Y-138138000D01*
X19235384Y-133877852D01*
X23634500Y-133877852D01*
X23634500Y-134446148D01*
X23745369Y-135003523D01*
X23962846Y-135528560D01*
X24278574Y-136001080D01*
X24680420Y-136402926D01*
X25152940Y-136718654D01*
X25677977Y-136936131D01*
X26235352Y-137047000D01*
X26803648Y-137047000D01*
X27361023Y-136936131D01*
X27886060Y-136718654D01*
X28358580Y-136402926D01*
X28760426Y-136001080D01*
X29076154Y-135528560D01*
X29293631Y-135003523D01*
X29343662Y-134752000D01*
X30871428Y-134752000D01*
X30883688Y-134876482D01*
X30919998Y-134996180D01*
X30978963Y-135106494D01*
X31058315Y-135203185D01*
X31155006Y-135282537D01*
X31265320Y-135341502D01*
X31385018Y-135377812D01*
X31509500Y-135390072D01*
X33473750Y-135387000D01*
X33632500Y-135228250D01*
X33632500Y-132629000D01*
X31033250Y-132629000D01*
X30874500Y-132787750D01*
X30871428Y-134752000D01*
X29343662Y-134752000D01*
X29404500Y-134446148D01*
X29404500Y-133877852D01*
X29293631Y-133320477D01*
X29076154Y-132795440D01*
X28760426Y-132322920D01*
X28358580Y-131921074D01*
X27886060Y-131605346D01*
X27361023Y-131387869D01*
X26803648Y-131277000D01*
X26235352Y-131277000D01*
X25677977Y-131387869D01*
X25152940Y-131605346D01*
X24680420Y-131921074D01*
X24278574Y-132322920D01*
X23962846Y-132795440D01*
X23745369Y-133320477D01*
X23634500Y-133877852D01*
X19235384Y-133877852D01*
X19235384Y-129763687D01*
X20819700Y-131348004D01*
X20843498Y-131377002D01*
X20959223Y-131471975D01*
X21091252Y-131542547D01*
X21234513Y-131586004D01*
X21346166Y-131597001D01*
X21346174Y-131597001D01*
X21383499Y-131600677D01*
X21420824Y-131597001D01*
X24303753Y-131597001D01*
X24341075Y-131600677D01*
X24378397Y-131597001D01*
X24378408Y-131597001D01*
X24490061Y-131586004D01*
X24633322Y-131542547D01*
X24765351Y-131471975D01*
X24881076Y-131377002D01*
X24904879Y-131347998D01*
X26000877Y-130252000D01*
X30871428Y-130252000D01*
X30874500Y-132216250D01*
X31033250Y-132375000D01*
X33632500Y-132375000D01*
X33632500Y-129775750D01*
X33473750Y-129617000D01*
X31509500Y-129613928D01*
X31385018Y-129626188D01*
X31265320Y-129662498D01*
X31155006Y-129721463D01*
X31058315Y-129800815D01*
X30978963Y-129897506D01*
X30919998Y-130007820D01*
X30883688Y-130127518D01*
X30871428Y-130252000D01*
X26000877Y-130252000D01*
X32084500Y-124168379D01*
X32084499Y-126460678D01*
%TA.AperFunction,Conductor*%
D28*
G36*
X32084499Y-126460678D02*
G01*
X32080823Y-126498001D01*
X32084499Y-126535323D01*
X32084499Y-126535333D01*
X32095496Y-126646986D01*
X32138953Y-126790247D01*
X32209525Y-126922277D01*
X32249370Y-126970827D01*
X32304498Y-127038002D01*
X32333502Y-127061805D01*
X34887379Y-129615683D01*
X34045250Y-129617000D01*
X33886500Y-129775750D01*
X33886500Y-132375000D01*
X33906500Y-132375000D01*
X33906500Y-132629000D01*
X33886500Y-132629000D01*
X33886500Y-135228250D01*
X34045250Y-135387000D01*
X34883391Y-135388311D01*
X32333497Y-137938206D01*
X32304499Y-137962004D01*
X32280701Y-137991002D01*
X32280700Y-137991003D01*
X32209525Y-138077729D01*
X32138953Y-138209759D01*
X32108679Y-138309563D01*
X32095497Y-138353019D01*
X32084500Y-138464672D01*
X32080823Y-138502005D01*
X32084500Y-138539337D01*
X32084500Y-141986588D01*
X32076154Y-141966440D01*
X31760426Y-141493920D01*
X31358580Y-141092074D01*
X30886060Y-140776346D01*
X30361023Y-140558869D01*
X29803648Y-140448000D01*
X29235352Y-140448000D01*
X28677977Y-140558869D01*
X28152940Y-140776346D01*
X27680420Y-141092074D01*
X27278574Y-141493920D01*
X26962846Y-141966440D01*
X26745369Y-142491477D01*
X26634500Y-143048852D01*
X26634500Y-143617148D01*
X26745369Y-144174523D01*
X26962846Y-144699560D01*
X27278574Y-145172080D01*
X27680420Y-145573926D01*
X28152940Y-145889654D01*
X28677977Y-146107131D01*
X29235352Y-146218000D01*
X29803648Y-146218000D01*
X30361023Y-146107131D01*
X30886060Y-145889654D01*
X31358580Y-145573926D01*
X31760426Y-145172080D01*
X32076154Y-144699560D01*
X32084499Y-144679412D01*
X32084499Y-148431679D01*
X32080823Y-148469001D01*
X32084499Y-148506323D01*
X32084499Y-148506333D01*
X32095496Y-148617986D01*
X32138953Y-148761247D01*
X32209525Y-148893277D01*
X32249370Y-148941827D01*
X32304498Y-149009002D01*
X32333502Y-149032805D01*
X34887379Y-151586683D01*
X34045250Y-151588000D01*
X33886500Y-151746750D01*
X33886500Y-154346000D01*
X33906500Y-154346000D01*
X33906500Y-154600000D01*
X33886500Y-154600000D01*
X33886500Y-157199250D01*
X34045250Y-157358000D01*
X35574502Y-157360392D01*
X35574502Y-158232196D01*
X34550386Y-159256312D01*
X34367835Y-159220000D01*
X34085165Y-159220000D01*
X33807926Y-159275147D01*
X33546773Y-159383320D01*
X33311741Y-159540363D01*
X33111863Y-159740241D01*
X32954820Y-159975273D01*
X32846647Y-160236426D01*
X32791500Y-160513665D01*
X32791500Y-160796335D01*
X32846647Y-161073574D01*
X32954820Y-161334727D01*
X33111863Y-161569759D01*
X33311741Y-161769637D01*
X33546773Y-161926680D01*
X33807926Y-162034853D01*
X34085165Y-162090000D01*
X34367835Y-162090000D01*
X34645074Y-162034853D01*
X34906227Y-161926680D01*
X35141259Y-161769637D01*
X35341137Y-161569759D01*
X35498180Y-161334727D01*
X35606353Y-161073574D01*
X35661500Y-160796335D01*
X35661500Y-160513665D01*
X35625188Y-160331114D01*
X36845506Y-159110796D01*
X36874503Y-159086999D01*
X36931129Y-159018000D01*
X36969476Y-158971275D01*
X37040048Y-158839245D01*
X37040048Y-158839244D01*
X37083505Y-158695984D01*
X37094502Y-158584331D01*
X37094502Y-158584321D01*
X37098178Y-158546999D01*
X37094502Y-158509676D01*
X37094502Y-151996337D01*
X37098179Y-151959004D01*
X37083505Y-151810018D01*
X37040048Y-151666757D01*
X36969476Y-151534728D01*
X36898301Y-151448001D01*
X36874503Y-151419003D01*
X36845505Y-151395205D01*
X35568300Y-150118000D01*
X35703648Y-150118000D01*
X36261023Y-150007131D01*
X36786060Y-149789654D01*
X37258580Y-149473926D01*
X37660426Y-149072080D01*
X37976154Y-148599560D01*
X38193631Y-148074523D01*
X38304500Y-147517148D01*
X38304500Y-146948852D01*
X38193631Y-146391477D01*
X37976154Y-145866440D01*
X37660426Y-145393920D01*
X37258580Y-144992074D01*
X36786060Y-144676346D01*
X36261023Y-144458869D01*
X35703648Y-144348000D01*
X35135352Y-144348000D01*
X34577977Y-144458869D01*
X34052940Y-144676346D01*
X33604499Y-144975985D01*
X33604499Y-138816806D01*
X36845506Y-135575800D01*
X36874503Y-135552003D01*
X36969476Y-135436278D01*
X37040048Y-135304249D01*
X37083505Y-135160988D01*
X37094502Y-135049335D01*
X37094502Y-135049334D01*
X37098179Y-135012002D01*
X37094502Y-134974669D01*
X37094502Y-130025337D01*
X37098179Y-129988004D01*
X37083505Y-129839018D01*
X37040048Y-129695757D01*
X36969476Y-129563728D01*
X36898301Y-129477001D01*
X36874503Y-129448003D01*
X36845505Y-129424205D01*
X35568300Y-128147000D01*
X35703648Y-128147000D01*
X36261023Y-128036131D01*
X36786060Y-127818654D01*
X37258580Y-127502926D01*
X37403501Y-127358005D01*
X37403500Y-137529457D01*
X37248741Y-137632863D01*
X37048863Y-137832741D01*
X36891820Y-138067773D01*
X36783647Y-138328926D01*
X36728500Y-138606165D01*
X36728500Y-138888835D01*
X36783647Y-139166074D01*
X36891820Y-139427227D01*
X37048863Y-139662259D01*
X37248741Y-139862137D01*
X37483773Y-140019180D01*
X37744926Y-140127353D01*
X38022165Y-140182500D01*
X38304835Y-140182500D01*
X38582074Y-140127353D01*
X38765384Y-140051423D01*
X38765384Y-181033272D01*
X26900313Y-181033272D01*
X27361023Y-180941631D01*
X27886060Y-180724154D01*
X28358580Y-180408426D01*
X28760426Y-180006580D01*
X29076154Y-179534060D01*
X29293631Y-179009023D01*
X29343662Y-178757500D01*
X30871428Y-178757500D01*
X30883688Y-178881982D01*
X30919998Y-179001680D01*
X30978963Y-179111994D01*
X31058315Y-179208685D01*
X31155006Y-179288037D01*
X31265320Y-179347002D01*
X31385018Y-179383312D01*
X31509500Y-179395572D01*
X33473750Y-179392500D01*
X33632500Y-179233750D01*
X33632500Y-176634500D01*
X33886500Y-176634500D01*
X33886500Y-179233750D01*
X34045250Y-179392500D01*
X36009500Y-179395572D01*
X36133982Y-179383312D01*
X36253680Y-179347002D01*
X36363994Y-179288037D01*
X36460685Y-179208685D01*
X36540037Y-179111994D01*
X36599002Y-179001680D01*
X36635312Y-178881982D01*
X36647572Y-178757500D01*
X36644500Y-176793250D01*
X36485750Y-176634500D01*
X33886500Y-176634500D01*
X33632500Y-176634500D01*
X31033250Y-176634500D01*
X30874500Y-176793250D01*
X30871428Y-178757500D01*
X29343662Y-178757500D01*
X29404500Y-178451648D01*
X29404500Y-177883352D01*
X29293631Y-177325977D01*
X29076154Y-176800940D01*
X28760426Y-176328420D01*
X28358580Y-175926574D01*
X27886060Y-175610846D01*
X27361023Y-175393369D01*
X26803648Y-175282500D01*
X26235352Y-175282500D01*
X25677977Y-175393369D01*
X25152940Y-175610846D01*
X24680420Y-175926574D01*
X24278574Y-176328420D01*
X23962846Y-176800940D01*
X23745369Y-177325977D01*
X23634500Y-177883352D01*
X23634500Y-178451648D01*
X23745369Y-179009023D01*
X23962846Y-179534060D01*
X24278574Y-180006580D01*
X24680420Y-180408426D01*
X25152940Y-180724154D01*
X25677977Y-180941631D01*
X26138687Y-181033272D01*
X19235384Y-181033272D01*
X19235384Y-171983352D01*
X19734500Y-171983352D01*
X19734500Y-172551648D01*
X19845369Y-173109023D01*
X20062846Y-173634060D01*
X20378574Y-174106580D01*
X20780420Y-174508426D01*
X21252940Y-174824154D01*
X21777977Y-175041631D01*
X22335352Y-175152500D01*
X22903648Y-175152500D01*
X23461023Y-175041631D01*
X23986060Y-174824154D01*
X24458580Y-174508426D01*
X24709506Y-174257500D01*
X30871428Y-174257500D01*
X30874500Y-176221750D01*
X31033250Y-176380500D01*
X33632500Y-176380500D01*
X33632500Y-173781250D01*
X33886500Y-173781250D01*
X33886500Y-176380500D01*
X36485750Y-176380500D01*
X36644500Y-176221750D01*
X36647572Y-174257500D01*
X36635312Y-174133018D01*
X36599002Y-174013320D01*
X36540037Y-173903006D01*
X36460685Y-173806315D01*
X36363994Y-173726963D01*
X36253680Y-173667998D01*
X36133982Y-173631688D01*
X36009500Y-173619428D01*
X34045250Y-173622500D01*
X33886500Y-173781250D01*
X33632500Y-173781250D01*
X33473750Y-173622500D01*
X31509500Y-173619428D01*
X31385018Y-173631688D01*
X31265320Y-173667998D01*
X31155006Y-173726963D01*
X31058315Y-173806315D01*
X30978963Y-173903006D01*
X30919998Y-174013320D01*
X30883688Y-174133018D01*
X30871428Y-174257500D01*
X24709506Y-174257500D01*
X24860426Y-174106580D01*
X25176154Y-173634060D01*
X25393631Y-173109023D01*
X25504500Y-172551648D01*
X25504500Y-171983352D01*
X25393631Y-171425977D01*
X25176154Y-170900940D01*
X24860426Y-170428420D01*
X24458580Y-170026574D01*
X23986060Y-169710846D01*
X23461023Y-169493369D01*
X22903648Y-169382500D01*
X22335352Y-169382500D01*
X21777977Y-169493369D01*
X21252940Y-169710846D01*
X20780420Y-170026574D01*
X20378574Y-170428420D01*
X20062846Y-170900940D01*
X19845369Y-171425977D01*
X19734500Y-171983352D01*
X19235384Y-171983352D01*
X19235384Y-168983352D01*
X32534500Y-168983352D01*
X32534500Y-169551648D01*
X32645369Y-170109023D01*
X32862846Y-170634060D01*
X33178574Y-171106580D01*
X33580420Y-171508426D01*
X34052940Y-171824154D01*
X34577977Y-172041631D01*
X35135352Y-172152500D01*
X35703648Y-172152500D01*
X36261023Y-172041631D01*
X36786060Y-171824154D01*
X37258580Y-171508426D01*
X37660426Y-171106580D01*
X37976154Y-170634060D01*
X38193631Y-170109023D01*
X38304500Y-169551648D01*
X38304500Y-168983352D01*
X38193631Y-168425977D01*
X37976154Y-167900940D01*
X37660426Y-167428420D01*
X37258580Y-167026574D01*
X36786060Y-166710846D01*
X36261023Y-166493369D01*
X35703648Y-166382500D01*
X35135352Y-166382500D01*
X34577977Y-166493369D01*
X34052940Y-166710846D01*
X33580420Y-167026574D01*
X33178574Y-167428420D01*
X32862846Y-167900940D01*
X32645369Y-168425977D01*
X32534500Y-168983352D01*
X19235384Y-168983352D01*
X19235384Y-165083352D01*
X26634500Y-165083352D01*
X26634500Y-165651648D01*
X26745369Y-166209023D01*
X26962846Y-166734060D01*
X27278574Y-167206580D01*
X27680420Y-167608426D01*
X28152940Y-167924154D01*
X28677977Y-168141631D01*
X29235352Y-168252500D01*
X29803648Y-168252500D01*
X30361023Y-168141631D01*
X30886060Y-167924154D01*
X31358580Y-167608426D01*
X31760426Y-167206580D01*
X32076154Y-166734060D01*
X32293631Y-166209023D01*
X32404500Y-165651648D01*
X32404500Y-165083352D01*
X32293631Y-164525977D01*
X32076154Y-164000940D01*
X31760426Y-163528420D01*
X31358580Y-163126574D01*
X30886060Y-162810846D01*
X30361023Y-162593369D01*
X29803648Y-162482500D01*
X29235352Y-162482500D01*
X28677977Y-162593369D01*
X28152940Y-162810846D01*
X27680420Y-163126574D01*
X27278574Y-163528420D01*
X26962846Y-164000940D01*
X26745369Y-164525977D01*
X26634500Y-165083352D01*
X19235384Y-165083352D01*
X19235384Y-160513665D01*
X22631500Y-160513665D01*
X22631500Y-160796335D01*
X22686647Y-161073574D01*
X22794820Y-161334727D01*
X22951863Y-161569759D01*
X23151741Y-161769637D01*
X23386773Y-161926680D01*
X23647926Y-162034853D01*
X23925165Y-162090000D01*
X24207835Y-162090000D01*
X24485074Y-162034853D01*
X24746227Y-161926680D01*
X24981259Y-161769637D01*
X25181137Y-161569759D01*
X25338180Y-161334727D01*
X25446353Y-161073574D01*
X25501500Y-160796335D01*
X25501500Y-160513665D01*
X25446353Y-160236426D01*
X25338180Y-159975273D01*
X25181137Y-159740241D01*
X24981259Y-159540363D01*
X24746227Y-159383320D01*
X24485074Y-159275147D01*
X24207835Y-159220000D01*
X23925165Y-159220000D01*
X23647926Y-159275147D01*
X23386773Y-159383320D01*
X23151741Y-159540363D01*
X22951863Y-159740241D01*
X22794820Y-159975273D01*
X22686647Y-160236426D01*
X22631500Y-160513665D01*
X19235384Y-160513665D01*
X19235384Y-155848852D01*
X23634500Y-155848852D01*
X23634500Y-156417148D01*
X23745369Y-156974523D01*
X23962846Y-157499560D01*
X24278574Y-157972080D01*
X24680420Y-158373926D01*
X25152940Y-158689654D01*
X25677977Y-158907131D01*
X26235352Y-159018000D01*
X26803648Y-159018000D01*
X27361023Y-158907131D01*
X27886060Y-158689654D01*
X28358580Y-158373926D01*
X28760426Y-157972080D01*
X29076154Y-157499560D01*
X29293631Y-156974523D01*
X29343662Y-156723000D01*
X30871428Y-156723000D01*
X30883688Y-156847482D01*
X30919998Y-156967180D01*
X30978963Y-157077494D01*
X31058315Y-157174185D01*
X31155006Y-157253537D01*
X31265320Y-157312502D01*
X31385018Y-157348812D01*
X31509500Y-157361072D01*
X33473750Y-157358000D01*
X33632500Y-157199250D01*
X33632500Y-154600000D01*
X31033250Y-154600000D01*
X30874500Y-154758750D01*
X30871428Y-156723000D01*
X29343662Y-156723000D01*
X29404500Y-156417148D01*
X29404500Y-155848852D01*
X29293631Y-155291477D01*
X29076154Y-154766440D01*
X28760426Y-154293920D01*
X28358580Y-153892074D01*
X27886060Y-153576346D01*
X27361023Y-153358869D01*
X26803648Y-153248000D01*
X26235352Y-153248000D01*
X25677977Y-153358869D01*
X25152940Y-153576346D01*
X24680420Y-153892074D01*
X24278574Y-154293920D01*
X23962846Y-154766440D01*
X23745369Y-155291477D01*
X23634500Y-155848852D01*
X19235384Y-155848852D01*
X19235384Y-149948852D01*
X19734500Y-149948852D01*
X19734500Y-150517148D01*
X19845369Y-151074523D01*
X20062846Y-151599560D01*
X20378574Y-152072080D01*
X20780420Y-152473926D01*
X21252940Y-152789654D01*
X21777977Y-153007131D01*
X22335352Y-153118000D01*
X22903648Y-153118000D01*
X23461023Y-153007131D01*
X23986060Y-152789654D01*
X24458580Y-152473926D01*
X24709506Y-152223000D01*
X30871428Y-152223000D01*
X30874500Y-154187250D01*
X31033250Y-154346000D01*
X33632500Y-154346000D01*
X33632500Y-151746750D01*
X33473750Y-151588000D01*
X31509500Y-151584928D01*
X31385018Y-151597188D01*
X31265320Y-151633498D01*
X31155006Y-151692463D01*
X31058315Y-151771815D01*
X30978963Y-151868506D01*
X30919998Y-151978820D01*
X30883688Y-152098518D01*
X30871428Y-152223000D01*
X24709506Y-152223000D01*
X24860426Y-152072080D01*
X25176154Y-151599560D01*
X25393631Y-151074523D01*
X25504500Y-150517148D01*
X25504500Y-149948852D01*
X25393631Y-149391477D01*
X25176154Y-148866440D01*
X24860426Y-148393920D01*
X24458580Y-147992074D01*
X23986060Y-147676346D01*
X23461023Y-147458869D01*
X22903648Y-147348000D01*
X22335352Y-147348000D01*
X21777977Y-147458869D01*
X21252940Y-147676346D01*
X20780420Y-147992074D01*
X20378574Y-148393920D01*
X20062846Y-148866440D01*
X19845369Y-149391477D01*
X19734500Y-149948852D01*
X19235384Y-149948852D01*
X19235384Y-138138000D01*
X19326428Y-138138000D01*
X19326428Y-139738000D01*
X19338688Y-139862482D01*
X19374998Y-139982180D01*
X19433963Y-140092494D01*
X19513315Y-140189185D01*
X19610006Y-140268537D01*
X19720320Y-140327502D01*
X19840018Y-140363812D01*
X19964500Y-140376072D01*
X21564500Y-140376072D01*
X21688982Y-140363812D01*
X21808680Y-140327502D01*
X21918994Y-140268537D01*
X22015685Y-140189185D01*
X22095037Y-140092494D01*
X22154002Y-139982180D01*
X22169617Y-139930702D01*
X22451403Y-139930702D01*
X22522986Y-140174671D01*
X22778496Y-140295571D01*
X23052684Y-140364300D01*
X23335012Y-140378217D01*
X23614630Y-140336787D01*
X23880792Y-140241603D01*
X24006014Y-140174671D01*
X24077597Y-139930702D01*
X23264500Y-139117605D01*
X22451403Y-139930702D01*
X22169617Y-139930702D01*
X22190312Y-139862482D01*
X22202572Y-139738000D01*
X22202572Y-139730785D01*
X22271798Y-139751097D01*
X23084895Y-138938000D01*
X23444105Y-138938000D01*
X24257202Y-139751097D01*
X24501171Y-139679514D01*
X24622071Y-139424004D01*
X24690800Y-139149816D01*
X24704717Y-138867488D01*
X24665998Y-138606165D01*
X26568500Y-138606165D01*
X26568500Y-138888835D01*
X26623647Y-139166074D01*
X26731820Y-139427227D01*
X26888863Y-139662259D01*
X27088741Y-139862137D01*
X27323773Y-140019180D01*
X27584926Y-140127353D01*
X27862165Y-140182500D01*
X28144835Y-140182500D01*
X28422074Y-140127353D01*
X28683227Y-140019180D01*
X28918259Y-139862137D01*
X29118137Y-139662259D01*
X29275180Y-139427227D01*
X29383353Y-139166074D01*
X29438500Y-138888835D01*
X29438500Y-138606165D01*
X29383353Y-138328926D01*
X29275180Y-138067773D01*
X29118137Y-137832741D01*
X28918259Y-137632863D01*
X28683227Y-137475820D01*
X28422074Y-137367647D01*
X28144835Y-137312500D01*
X27862165Y-137312500D01*
X27584926Y-137367647D01*
X27323773Y-137475820D01*
X27088741Y-137632863D01*
X26888863Y-137832741D01*
X26731820Y-138067773D01*
X26623647Y-138328926D01*
X26568500Y-138606165D01*
X24665998Y-138606165D01*
X24663287Y-138587870D01*
X24568103Y-138321708D01*
X24501171Y-138196486D01*
X24257202Y-138124903D01*
X23444105Y-138938000D01*
X23084895Y-138938000D01*
X22271798Y-138124903D01*
X22202572Y-138145215D01*
X22202572Y-138138000D01*
X22190312Y-138013518D01*
X22169618Y-137945298D01*
X22451403Y-137945298D01*
X23264500Y-138758395D01*
X24077597Y-137945298D01*
X24006014Y-137701329D01*
X23750504Y-137580429D01*
X23476316Y-137511700D01*
X23193988Y-137497783D01*
X22914370Y-137539213D01*
X22648208Y-137634397D01*
X22522986Y-137701329D01*
X22451403Y-137945298D01*
X22169618Y-137945298D01*
X22154002Y-137893820D01*
X22095037Y-137783506D01*
X22015685Y-137686815D01*
X21918994Y-137607463D01*
X21808680Y-137548498D01*
X21688982Y-137512188D01*
X21564500Y-137499928D01*
X19964500Y-137499928D01*
X19840018Y-137512188D01*
X19720320Y-137548498D01*
X19610006Y-137607463D01*
X19513315Y-137686815D01*
X19433963Y-137783506D01*
X19374998Y-137893820D01*
X19338688Y-138013518D01*
X19326428Y-138138000D01*
X19235384Y-138138000D01*
X19235384Y-133877852D01*
X23634500Y-133877852D01*
X23634500Y-134446148D01*
X23745369Y-135003523D01*
X23962846Y-135528560D01*
X24278574Y-136001080D01*
X24680420Y-136402926D01*
X25152940Y-136718654D01*
X25677977Y-136936131D01*
X26235352Y-137047000D01*
X26803648Y-137047000D01*
X27361023Y-136936131D01*
X27886060Y-136718654D01*
X28358580Y-136402926D01*
X28760426Y-136001080D01*
X29076154Y-135528560D01*
X29293631Y-135003523D01*
X29343662Y-134752000D01*
X30871428Y-134752000D01*
X30883688Y-134876482D01*
X30919998Y-134996180D01*
X30978963Y-135106494D01*
X31058315Y-135203185D01*
X31155006Y-135282537D01*
X31265320Y-135341502D01*
X31385018Y-135377812D01*
X31509500Y-135390072D01*
X33473750Y-135387000D01*
X33632500Y-135228250D01*
X33632500Y-132629000D01*
X31033250Y-132629000D01*
X30874500Y-132787750D01*
X30871428Y-134752000D01*
X29343662Y-134752000D01*
X29404500Y-134446148D01*
X29404500Y-133877852D01*
X29293631Y-133320477D01*
X29076154Y-132795440D01*
X28760426Y-132322920D01*
X28358580Y-131921074D01*
X27886060Y-131605346D01*
X27361023Y-131387869D01*
X26803648Y-131277000D01*
X26235352Y-131277000D01*
X25677977Y-131387869D01*
X25152940Y-131605346D01*
X24680420Y-131921074D01*
X24278574Y-132322920D01*
X23962846Y-132795440D01*
X23745369Y-133320477D01*
X23634500Y-133877852D01*
X19235384Y-133877852D01*
X19235384Y-129763687D01*
X20819700Y-131348004D01*
X20843498Y-131377002D01*
X20959223Y-131471975D01*
X21091252Y-131542547D01*
X21234513Y-131586004D01*
X21346166Y-131597001D01*
X21346174Y-131597001D01*
X21383499Y-131600677D01*
X21420824Y-131597001D01*
X24303753Y-131597001D01*
X24341075Y-131600677D01*
X24378397Y-131597001D01*
X24378408Y-131597001D01*
X24490061Y-131586004D01*
X24633322Y-131542547D01*
X24765351Y-131471975D01*
X24881076Y-131377002D01*
X24904879Y-131347998D01*
X26000877Y-130252000D01*
X30871428Y-130252000D01*
X30874500Y-132216250D01*
X31033250Y-132375000D01*
X33632500Y-132375000D01*
X33632500Y-129775750D01*
X33473750Y-129617000D01*
X31509500Y-129613928D01*
X31385018Y-129626188D01*
X31265320Y-129662498D01*
X31155006Y-129721463D01*
X31058315Y-129800815D01*
X30978963Y-129897506D01*
X30919998Y-130007820D01*
X30883688Y-130127518D01*
X30871428Y-130252000D01*
X26000877Y-130252000D01*
X32084500Y-124168379D01*
X32084499Y-126460678D01*
G37*
%TD.AperFunction*%
D27*
X22796500Y-81216500D02*
X22816500Y-81216500D01*
X22816500Y-81470500D01*
X22796500Y-81470500D01*
X22796500Y-83013415D01*
X23018539Y-83135404D01*
X23101318Y-83117867D01*
X23361146Y-83007215D01*
X23594395Y-82848000D01*
X23792101Y-82646339D01*
X23942235Y-82416759D01*
X24010568Y-82544601D01*
X24189893Y-82763108D01*
X24408400Y-82942432D01*
X24657693Y-83075682D01*
X24928192Y-83157736D01*
X25209500Y-83185443D01*
X25490809Y-83157736D01*
X25761308Y-83075682D01*
X26010601Y-82942432D01*
X26229108Y-82763108D01*
X26408432Y-82544601D01*
X26479500Y-82411642D01*
X26550568Y-82544601D01*
X26729893Y-82763108D01*
X26948400Y-82942432D01*
X27197693Y-83075682D01*
X27468192Y-83157736D01*
X27749500Y-83185443D01*
X28030809Y-83157736D01*
X28301308Y-83075682D01*
X28550601Y-82942432D01*
X28769108Y-82763108D01*
X28948432Y-82544601D01*
X29019500Y-82411642D01*
X29090568Y-82544601D01*
X29269893Y-82763108D01*
X29488400Y-82942432D01*
X29737693Y-83075682D01*
X30008192Y-83157736D01*
X30289500Y-83185443D01*
X30570809Y-83157736D01*
X30841308Y-83075682D01*
X30910107Y-83038908D01*
X32150899Y-84279701D01*
X32150900Y-85942216D01*
X32069314Y-85903278D01*
X31918526Y-85857542D01*
X31686500Y-85978683D01*
X31686500Y-87185500D01*
X31706500Y-87185500D01*
X31706500Y-87439500D01*
X31686500Y-87439500D01*
X31686500Y-89725500D01*
X31706500Y-89725500D01*
X31706500Y-89979500D01*
X31686500Y-89979500D01*
X31686500Y-91186317D01*
X31918526Y-91307458D01*
X32069314Y-91261722D01*
X32334444Y-91135184D01*
X32569793Y-90959354D01*
X32766317Y-90740988D01*
X32824941Y-90642397D01*
X32935461Y-90807802D01*
X33144198Y-91016539D01*
X33389647Y-91180542D01*
X33662375Y-91293510D01*
X33951901Y-91351100D01*
X34247099Y-91351100D01*
X34536625Y-91293510D01*
X34809353Y-91180542D01*
X35054802Y-91016539D01*
X35263539Y-90807802D01*
X35427542Y-90562353D01*
X35446914Y-90515585D01*
X37467000Y-92535672D01*
X37467001Y-93777956D01*
X37312241Y-93881363D01*
X37112363Y-94081241D01*
X36955320Y-94316273D01*
X36847147Y-94577426D01*
X36792000Y-94854665D01*
X36792000Y-95137335D01*
X36847147Y-95414574D01*
X36955320Y-95675727D01*
X37112363Y-95910759D01*
X37312241Y-96110637D01*
X37547273Y-96267680D01*
X37808426Y-96375853D01*
X38085665Y-96431000D01*
X38368335Y-96431000D01*
X38645574Y-96375853D01*
X38765384Y-96326226D01*
X38765384Y-115371879D01*
X38518574Y-115269647D01*
X38241335Y-115214500D01*
X37958665Y-115214500D01*
X37681426Y-115269647D01*
X37420273Y-115377820D01*
X37185241Y-115534863D01*
X36985363Y-115734741D01*
X36828320Y-115969773D01*
X36720147Y-116230926D01*
X36665000Y-116508165D01*
X36665000Y-116790835D01*
X36720147Y-117068074D01*
X36828320Y-117329227D01*
X36985363Y-117564259D01*
X37185241Y-117764137D01*
X37420273Y-117921180D01*
X37681426Y-118029353D01*
X37958665Y-118084500D01*
X38241335Y-118084500D01*
X38518574Y-118029353D01*
X38765384Y-117927121D01*
X38765384Y-120185404D01*
X38703501Y-120109999D01*
X38674503Y-120086201D01*
X31944499Y-113356198D01*
X31944499Y-113354892D01*
X33473750Y-113352500D01*
X33632500Y-113193750D01*
X33632500Y-110594500D01*
X33886500Y-110594500D01*
X33886500Y-113193750D01*
X34045250Y-113352500D01*
X36009500Y-113355572D01*
X36133982Y-113343312D01*
X36253680Y-113307002D01*
X36363994Y-113248037D01*
X36460685Y-113168685D01*
X36540037Y-113071994D01*
X36599002Y-112961680D01*
X36635312Y-112841982D01*
X36647572Y-112717500D01*
X36644500Y-110753250D01*
X36485750Y-110594500D01*
X33886500Y-110594500D01*
X33632500Y-110594500D01*
X33612500Y-110594500D01*
X33612500Y-110340500D01*
X33632500Y-110340500D01*
X33632500Y-107741250D01*
X33886500Y-107741250D01*
X33886500Y-110340500D01*
X36485750Y-110340500D01*
X36644500Y-110181750D01*
X36647572Y-108217500D01*
X36635312Y-108093018D01*
X36599002Y-107973320D01*
X36540037Y-107863006D01*
X36460685Y-107766315D01*
X36363994Y-107686963D01*
X36253680Y-107627998D01*
X36133982Y-107591688D01*
X36009500Y-107579428D01*
X34045250Y-107582500D01*
X33886500Y-107741250D01*
X33632500Y-107741250D01*
X33473750Y-107582500D01*
X32635610Y-107581189D01*
X33355502Y-106861298D01*
X33384500Y-106837500D01*
X33479473Y-106721775D01*
X33550045Y-106589746D01*
X33593502Y-106446485D01*
X33604499Y-106334832D01*
X33608176Y-106297499D01*
X33604499Y-106260166D01*
X33604499Y-105484515D01*
X34052940Y-105784154D01*
X34577977Y-106001631D01*
X35135352Y-106112500D01*
X35703648Y-106112500D01*
X36261023Y-106001631D01*
X36786060Y-105784154D01*
X37258580Y-105468426D01*
X37660426Y-105066580D01*
X37976154Y-104594060D01*
X38193631Y-104069023D01*
X38304500Y-103511648D01*
X38304500Y-102943352D01*
X38193631Y-102385977D01*
X37976154Y-101860940D01*
X37660426Y-101388420D01*
X37258580Y-100986574D01*
X36786060Y-100670846D01*
X36261023Y-100453369D01*
X35703648Y-100342500D01*
X35135352Y-100342500D01*
X34577977Y-100453369D01*
X34052940Y-100670846D01*
X33604499Y-100970485D01*
X33604499Y-96391799D01*
X33702898Y-96372226D01*
X33891256Y-96294205D01*
X34060774Y-96180937D01*
X34204937Y-96036774D01*
X34318205Y-95867256D01*
X34396226Y-95678898D01*
X34436000Y-95478939D01*
X34436000Y-95275061D01*
X34396226Y-95075102D01*
X34318205Y-94886744D01*
X34204937Y-94717226D01*
X34060774Y-94573063D01*
X33891256Y-94459795D01*
X33702898Y-94381774D01*
X33502939Y-94342000D01*
X33299061Y-94342000D01*
X33099102Y-94381774D01*
X32910744Y-94459795D01*
X32741226Y-94573063D01*
X32597063Y-94717226D01*
X32495655Y-94868994D01*
X32476705Y-94823244D01*
X32363437Y-94653726D01*
X32219274Y-94509563D01*
X32049756Y-94396295D01*
X31861398Y-94318274D01*
X31661439Y-94278500D01*
X31457561Y-94278500D01*
X31257602Y-94318274D01*
X31069244Y-94396295D01*
X30899726Y-94509563D01*
X30755563Y-94653726D01*
X30642295Y-94823244D01*
X30564274Y-95011602D01*
X30524500Y-95211561D01*
X30524500Y-95415439D01*
X30564274Y-95615398D01*
X30642295Y-95803756D01*
X30755563Y-95973274D01*
X30899726Y-96117437D01*
X31069244Y-96230705D01*
X31257602Y-96308726D01*
X31457561Y-96348500D01*
X31519698Y-96348500D01*
X31634489Y-96463291D01*
X31634489Y-97362483D01*
X31358580Y-97086574D01*
X30886060Y-96770846D01*
X30361023Y-96553369D01*
X29803648Y-96442500D01*
X29235352Y-96442500D01*
X28677977Y-96553369D01*
X28152940Y-96770846D01*
X27680420Y-97086574D01*
X27278574Y-97488420D01*
X26962846Y-97960940D01*
X26745369Y-98485977D01*
X26634500Y-99043352D01*
X26634500Y-99611648D01*
X26745369Y-100169023D01*
X26962846Y-100694060D01*
X27278574Y-101166580D01*
X27680420Y-101568426D01*
X28152940Y-101884154D01*
X28677977Y-102101631D01*
X29235352Y-102212500D01*
X29803648Y-102212500D01*
X30361023Y-102101631D01*
X30886060Y-101884154D01*
X31358580Y-101568426D01*
X31634488Y-101292518D01*
X31634488Y-105796298D01*
X30223486Y-107207300D01*
X30194488Y-107231098D01*
X30170690Y-107260096D01*
X30170689Y-107260097D01*
X30099515Y-107346823D01*
X30028942Y-107478853D01*
X29985486Y-107622113D01*
X29970812Y-107771099D01*
X29974489Y-107808431D01*
X29974488Y-113820076D01*
X29970812Y-113857399D01*
X29974488Y-113894722D01*
X29974488Y-113894731D01*
X29985485Y-114006384D01*
X30028942Y-114149645D01*
X30099514Y-114281675D01*
X30119455Y-114305973D01*
X30194487Y-114397400D01*
X30223491Y-114421203D01*
X34758327Y-118956039D01*
X34710986Y-119003379D01*
X34597718Y-119172897D01*
X34519697Y-119361255D01*
X34479923Y-119561214D01*
X34479923Y-119623350D01*
X32391433Y-121711841D01*
X32404500Y-121646148D01*
X32404500Y-121077852D01*
X32293631Y-120520477D01*
X32076154Y-119995440D01*
X31760426Y-119522920D01*
X31358580Y-119121074D01*
X30886060Y-118805346D01*
X30361023Y-118587869D01*
X29803648Y-118477000D01*
X29235352Y-118477000D01*
X28677977Y-118587869D01*
X28152940Y-118805346D01*
X27680420Y-119121074D01*
X27278574Y-119522920D01*
X26962846Y-119995440D01*
X26745369Y-120520477D01*
X26634500Y-121077852D01*
X26634500Y-121646148D01*
X26745369Y-122203523D01*
X26962846Y-122728560D01*
X27278574Y-123201080D01*
X27680420Y-123602926D01*
X28152940Y-123918654D01*
X28677977Y-124136131D01*
X29235352Y-124247000D01*
X29803648Y-124247000D01*
X29869341Y-124233933D01*
X25491433Y-128611842D01*
X25504500Y-128546148D01*
X25504500Y-127977852D01*
X25393631Y-127420477D01*
X25176154Y-126895440D01*
X24860426Y-126422920D01*
X24458580Y-126021074D01*
X23986060Y-125705346D01*
X23461023Y-125487869D01*
X22903648Y-125377000D01*
X22335352Y-125377000D01*
X21777977Y-125487869D01*
X21252940Y-125705346D01*
X20780420Y-126021074D01*
X20378574Y-126422920D01*
X20062846Y-126895440D01*
X19845369Y-127420477D01*
X19764490Y-127827082D01*
X19764490Y-117866877D01*
X19816863Y-117945259D01*
X20016741Y-118145137D01*
X20251773Y-118302180D01*
X20512926Y-118410353D01*
X20790165Y-118465500D01*
X21072835Y-118465500D01*
X21350074Y-118410353D01*
X21611227Y-118302180D01*
X21846259Y-118145137D01*
X22012839Y-117978557D01*
X22041998Y-118074680D01*
X22100963Y-118184994D01*
X22180315Y-118281685D01*
X22277006Y-118361037D01*
X22387320Y-118420002D01*
X22507018Y-118456312D01*
X22631500Y-118468572D01*
X23145750Y-118465500D01*
X23304500Y-118306750D01*
X23304500Y-117157500D01*
X23558500Y-117157500D01*
X23558500Y-118306750D01*
X23717250Y-118465500D01*
X24231500Y-118468572D01*
X24355982Y-118456312D01*
X24475680Y-118420002D01*
X24585994Y-118361037D01*
X24682685Y-118281685D01*
X24762037Y-118184994D01*
X24821002Y-118074680D01*
X24857312Y-117954982D01*
X24869572Y-117830500D01*
X24866500Y-117316250D01*
X24707750Y-117157500D01*
X23558500Y-117157500D01*
X23304500Y-117157500D01*
X23284500Y-117157500D01*
X23284500Y-116903500D01*
X23304500Y-116903500D01*
X23304500Y-115754250D01*
X23558500Y-115754250D01*
X23558500Y-116903500D01*
X24707750Y-116903500D01*
X24866500Y-116744750D01*
X24867913Y-116508165D01*
X26505000Y-116508165D01*
X26505000Y-116790835D01*
X26560147Y-117068074D01*
X26668320Y-117329227D01*
X26825363Y-117564259D01*
X27025241Y-117764137D01*
X27260273Y-117921180D01*
X27521426Y-118029353D01*
X27798665Y-118084500D01*
X28081335Y-118084500D01*
X28358574Y-118029353D01*
X28619727Y-117921180D01*
X28854759Y-117764137D01*
X29054637Y-117564259D01*
X29211680Y-117329227D01*
X29319853Y-117068074D01*
X29375000Y-116790835D01*
X29375000Y-116508165D01*
X29319853Y-116230926D01*
X29211680Y-115969773D01*
X29054637Y-115734741D01*
X28854759Y-115534863D01*
X28619727Y-115377820D01*
X28358574Y-115269647D01*
X28081335Y-115214500D01*
X27798665Y-115214500D01*
X27521426Y-115269647D01*
X27260273Y-115377820D01*
X27025241Y-115534863D01*
X26825363Y-115734741D01*
X26668320Y-115969773D01*
X26560147Y-116230926D01*
X26505000Y-116508165D01*
X24867913Y-116508165D01*
X24869572Y-116230500D01*
X24857312Y-116106018D01*
X24821002Y-115986320D01*
X24762037Y-115876006D01*
X24682685Y-115779315D01*
X24585994Y-115699963D01*
X24475680Y-115640998D01*
X24355982Y-115604688D01*
X24231500Y-115592428D01*
X23717250Y-115595500D01*
X23558500Y-115754250D01*
X23304500Y-115754250D01*
X23145750Y-115595500D01*
X22631500Y-115592428D01*
X22507018Y-115604688D01*
X22387320Y-115640998D01*
X22277006Y-115699963D01*
X22180315Y-115779315D01*
X22100963Y-115876006D01*
X22041998Y-115986320D01*
X22012839Y-116082443D01*
X21846259Y-115915863D01*
X21611227Y-115758820D01*
X21350074Y-115650647D01*
X21072835Y-115595500D01*
X20790165Y-115595500D01*
X20512926Y-115650647D01*
X20251773Y-115758820D01*
X20016741Y-115915863D01*
X19816863Y-116115741D01*
X19764490Y-116194123D01*
X19764490Y-111843352D01*
X23634500Y-111843352D01*
X23634500Y-112411648D01*
X23745369Y-112969023D01*
X23962846Y-113494060D01*
X24278574Y-113966580D01*
X24680420Y-114368426D01*
X25152940Y-114684154D01*
X25677977Y-114901631D01*
X26235352Y-115012500D01*
X26803648Y-115012500D01*
X27361023Y-114901631D01*
X27886060Y-114684154D01*
X28358580Y-114368426D01*
X28760426Y-113966580D01*
X29076154Y-113494060D01*
X29293631Y-112969023D01*
X29404500Y-112411648D01*
X29404500Y-111843352D01*
X29293631Y-111285977D01*
X29076154Y-110760940D01*
X28760426Y-110288420D01*
X28358580Y-109886574D01*
X27886060Y-109570846D01*
X27361023Y-109353369D01*
X26803648Y-109242500D01*
X26235352Y-109242500D01*
X25677977Y-109353369D01*
X25152940Y-109570846D01*
X24680420Y-109886574D01*
X24278574Y-110288420D01*
X23962846Y-110760940D01*
X23745369Y-111285977D01*
X23634500Y-111843352D01*
X19764490Y-111843352D01*
X19764490Y-106662418D01*
X19845369Y-107069023D01*
X20062846Y-107594060D01*
X20378574Y-108066580D01*
X20780420Y-108468426D01*
X21252940Y-108784154D01*
X21777977Y-109001631D01*
X22335352Y-109112500D01*
X22903648Y-109112500D01*
X23461023Y-109001631D01*
X23986060Y-108784154D01*
X24458580Y-108468426D01*
X24860426Y-108066580D01*
X25176154Y-107594060D01*
X25393631Y-107069023D01*
X25504500Y-106511648D01*
X25504500Y-105943352D01*
X25393631Y-105385977D01*
X25176154Y-104860940D01*
X24860426Y-104388420D01*
X24458580Y-103986574D01*
X23986060Y-103670846D01*
X23461023Y-103453369D01*
X22903648Y-103342500D01*
X22335352Y-103342500D01*
X21777977Y-103453369D01*
X21252940Y-103670846D01*
X20780420Y-103986574D01*
X20378574Y-104388420D01*
X20062846Y-104860940D01*
X19845369Y-105385977D01*
X19764490Y-105792582D01*
X19764490Y-94854665D01*
X26632000Y-94854665D01*
X26632000Y-95137335D01*
X26687147Y-95414574D01*
X26795320Y-95675727D01*
X26952363Y-95910759D01*
X27152241Y-96110637D01*
X27387273Y-96267680D01*
X27648426Y-96375853D01*
X27925665Y-96431000D01*
X28208335Y-96431000D01*
X28485574Y-96375853D01*
X28746727Y-96267680D01*
X28981759Y-96110637D01*
X29181637Y-95910759D01*
X29338680Y-95675727D01*
X29446853Y-95414574D01*
X29502000Y-95137335D01*
X29502000Y-94854665D01*
X29446853Y-94577426D01*
X29338680Y-94316273D01*
X29181637Y-94081241D01*
X28981759Y-93881363D01*
X28746727Y-93724320D01*
X28485574Y-93616147D01*
X28208335Y-93561000D01*
X27925665Y-93561000D01*
X27648426Y-93616147D01*
X27387273Y-93724320D01*
X27152241Y-93881363D01*
X26952363Y-94081241D01*
X26795320Y-94316273D01*
X26687147Y-94577426D01*
X26632000Y-94854665D01*
X19764490Y-94854665D01*
X19764490Y-86448900D01*
X22437828Y-86448900D01*
X22437828Y-88176100D01*
X22450088Y-88300582D01*
X22486398Y-88420280D01*
X22545363Y-88530594D01*
X22624715Y-88627285D01*
X22721406Y-88706637D01*
X22831720Y-88765602D01*
X22889523Y-88783136D01*
X22775461Y-88897198D01*
X22611458Y-89142647D01*
X22498490Y-89415375D01*
X22440900Y-89704901D01*
X22440900Y-90000099D01*
X22498490Y-90289625D01*
X22611458Y-90562353D01*
X22775461Y-90807802D01*
X22984198Y-91016539D01*
X23229647Y-91180542D01*
X23502375Y-91293510D01*
X23791901Y-91351100D01*
X24087099Y-91351100D01*
X24376625Y-91293510D01*
X24649353Y-91180542D01*
X24894802Y-91016539D01*
X25103539Y-90807802D01*
X25214059Y-90642397D01*
X25272683Y-90740988D01*
X25469207Y-90959354D01*
X25704556Y-91135184D01*
X25969686Y-91261722D01*
X26120474Y-91307458D01*
X26352500Y-91186317D01*
X26352500Y-89979500D01*
X26606500Y-89979500D01*
X26606500Y-91186317D01*
X26838526Y-91307458D01*
X26989314Y-91261722D01*
X27254444Y-91135184D01*
X27489793Y-90959354D01*
X27686317Y-90740988D01*
X27749500Y-90634730D01*
X27812683Y-90740988D01*
X28009207Y-90959354D01*
X28244556Y-91135184D01*
X28509686Y-91261722D01*
X28660474Y-91307458D01*
X28892500Y-91186317D01*
X28892500Y-89979500D01*
X29146500Y-89979500D01*
X29146500Y-91186317D01*
X29378526Y-91307458D01*
X29529314Y-91261722D01*
X29794444Y-91135184D01*
X30029793Y-90959354D01*
X30226317Y-90740988D01*
X30289500Y-90634730D01*
X30352683Y-90740988D01*
X30549207Y-90959354D01*
X30784556Y-91135184D01*
X31049686Y-91261722D01*
X31200474Y-91307458D01*
X31432500Y-91186317D01*
X31432500Y-89979500D01*
X29146500Y-89979500D01*
X28892500Y-89979500D01*
X26606500Y-89979500D01*
X26352500Y-89979500D01*
X26332500Y-89979500D01*
X26332500Y-89725500D01*
X26352500Y-89725500D01*
X26352500Y-87439500D01*
X26606500Y-87439500D01*
X26606500Y-89725500D01*
X28892500Y-89725500D01*
X28892500Y-87439500D01*
X29146500Y-87439500D01*
X29146500Y-89725500D01*
X31432500Y-89725500D01*
X31432500Y-87439500D01*
X29146500Y-87439500D01*
X28892500Y-87439500D01*
X26606500Y-87439500D01*
X26352500Y-87439500D01*
X26332500Y-87439500D01*
X26332500Y-87185500D01*
X26352500Y-87185500D01*
X26352500Y-85978683D01*
X26606500Y-85978683D01*
X26606500Y-87185500D01*
X28892500Y-87185500D01*
X28892500Y-85978683D01*
X29146500Y-85978683D01*
X29146500Y-87185500D01*
X31432500Y-87185500D01*
X31432500Y-85978683D01*
X31200474Y-85857542D01*
X31049686Y-85903278D01*
X30784556Y-86029816D01*
X30549207Y-86205646D01*
X30352683Y-86424012D01*
X30289500Y-86530270D01*
X30226317Y-86424012D01*
X30029793Y-86205646D01*
X29794444Y-86029816D01*
X29529314Y-85903278D01*
X29378526Y-85857542D01*
X29146500Y-85978683D01*
X28892500Y-85978683D01*
X28660474Y-85857542D01*
X28509686Y-85903278D01*
X28244556Y-86029816D01*
X28009207Y-86205646D01*
X27812683Y-86424012D01*
X27749500Y-86530270D01*
X27686317Y-86424012D01*
X27489793Y-86205646D01*
X27254444Y-86029816D01*
X26989314Y-85903278D01*
X26838526Y-85857542D01*
X26606500Y-85978683D01*
X26352500Y-85978683D01*
X26120474Y-85857542D01*
X25969686Y-85903278D01*
X25704556Y-86029816D01*
X25469207Y-86205646D01*
X25412124Y-86269074D01*
X25392602Y-86204720D01*
X25333637Y-86094406D01*
X25254285Y-85997715D01*
X25157594Y-85918363D01*
X25047280Y-85859398D01*
X24927582Y-85823088D01*
X24803100Y-85810828D01*
X23075900Y-85810828D01*
X22951418Y-85823088D01*
X22831720Y-85859398D01*
X22721406Y-85918363D01*
X22624715Y-85997715D01*
X22545363Y-86094406D01*
X22486398Y-86204720D01*
X22450088Y-86324418D01*
X22437828Y-86448900D01*
X19764490Y-86448900D01*
X19764490Y-83132346D01*
X19848192Y-83157736D01*
X20129500Y-83185443D01*
X20410809Y-83157736D01*
X20681308Y-83075682D01*
X20930601Y-82942432D01*
X21149108Y-82763108D01*
X21328432Y-82544601D01*
X21396765Y-82416759D01*
X21546899Y-82646339D01*
X21744605Y-82848000D01*
X21977854Y-83007215D01*
X22237682Y-83117867D01*
X22320461Y-83135404D01*
X22542500Y-83013415D01*
X22542500Y-81470500D01*
X22522500Y-81470500D01*
X22522500Y-81216500D01*
X22542500Y-81216500D01*
X22542500Y-81196500D01*
X22796500Y-81196500D01*
X22796500Y-81216500D01*
%TA.AperFunction,Conductor*%
D28*
G36*
X22796500Y-81216500D02*
G01*
X22816500Y-81216500D01*
X22816500Y-81470500D01*
X22796500Y-81470500D01*
X22796500Y-83013415D01*
X23018539Y-83135404D01*
X23101318Y-83117867D01*
X23361146Y-83007215D01*
X23594395Y-82848000D01*
X23792101Y-82646339D01*
X23942235Y-82416759D01*
X24010568Y-82544601D01*
X24189893Y-82763108D01*
X24408400Y-82942432D01*
X24657693Y-83075682D01*
X24928192Y-83157736D01*
X25209500Y-83185443D01*
X25490809Y-83157736D01*
X25761308Y-83075682D01*
X26010601Y-82942432D01*
X26229108Y-82763108D01*
X26408432Y-82544601D01*
X26479500Y-82411642D01*
X26550568Y-82544601D01*
X26729893Y-82763108D01*
X26948400Y-82942432D01*
X27197693Y-83075682D01*
X27468192Y-83157736D01*
X27749500Y-83185443D01*
X28030809Y-83157736D01*
X28301308Y-83075682D01*
X28550601Y-82942432D01*
X28769108Y-82763108D01*
X28948432Y-82544601D01*
X29019500Y-82411642D01*
X29090568Y-82544601D01*
X29269893Y-82763108D01*
X29488400Y-82942432D01*
X29737693Y-83075682D01*
X30008192Y-83157736D01*
X30289500Y-83185443D01*
X30570809Y-83157736D01*
X30841308Y-83075682D01*
X30910107Y-83038908D01*
X32150899Y-84279701D01*
X32150900Y-85942216D01*
X32069314Y-85903278D01*
X31918526Y-85857542D01*
X31686500Y-85978683D01*
X31686500Y-87185500D01*
X31706500Y-87185500D01*
X31706500Y-87439500D01*
X31686500Y-87439500D01*
X31686500Y-89725500D01*
X31706500Y-89725500D01*
X31706500Y-89979500D01*
X31686500Y-89979500D01*
X31686500Y-91186317D01*
X31918526Y-91307458D01*
X32069314Y-91261722D01*
X32334444Y-91135184D01*
X32569793Y-90959354D01*
X32766317Y-90740988D01*
X32824941Y-90642397D01*
X32935461Y-90807802D01*
X33144198Y-91016539D01*
X33389647Y-91180542D01*
X33662375Y-91293510D01*
X33951901Y-91351100D01*
X34247099Y-91351100D01*
X34536625Y-91293510D01*
X34809353Y-91180542D01*
X35054802Y-91016539D01*
X35263539Y-90807802D01*
X35427542Y-90562353D01*
X35446914Y-90515585D01*
X37467000Y-92535672D01*
X37467001Y-93777956D01*
X37312241Y-93881363D01*
X37112363Y-94081241D01*
X36955320Y-94316273D01*
X36847147Y-94577426D01*
X36792000Y-94854665D01*
X36792000Y-95137335D01*
X36847147Y-95414574D01*
X36955320Y-95675727D01*
X37112363Y-95910759D01*
X37312241Y-96110637D01*
X37547273Y-96267680D01*
X37808426Y-96375853D01*
X38085665Y-96431000D01*
X38368335Y-96431000D01*
X38645574Y-96375853D01*
X38765384Y-96326226D01*
X38765384Y-115371879D01*
X38518574Y-115269647D01*
X38241335Y-115214500D01*
X37958665Y-115214500D01*
X37681426Y-115269647D01*
X37420273Y-115377820D01*
X37185241Y-115534863D01*
X36985363Y-115734741D01*
X36828320Y-115969773D01*
X36720147Y-116230926D01*
X36665000Y-116508165D01*
X36665000Y-116790835D01*
X36720147Y-117068074D01*
X36828320Y-117329227D01*
X36985363Y-117564259D01*
X37185241Y-117764137D01*
X37420273Y-117921180D01*
X37681426Y-118029353D01*
X37958665Y-118084500D01*
X38241335Y-118084500D01*
X38518574Y-118029353D01*
X38765384Y-117927121D01*
X38765384Y-120185404D01*
X38703501Y-120109999D01*
X38674503Y-120086201D01*
X31944499Y-113356198D01*
X31944499Y-113354892D01*
X33473750Y-113352500D01*
X33632500Y-113193750D01*
X33632500Y-110594500D01*
X33886500Y-110594500D01*
X33886500Y-113193750D01*
X34045250Y-113352500D01*
X36009500Y-113355572D01*
X36133982Y-113343312D01*
X36253680Y-113307002D01*
X36363994Y-113248037D01*
X36460685Y-113168685D01*
X36540037Y-113071994D01*
X36599002Y-112961680D01*
X36635312Y-112841982D01*
X36647572Y-112717500D01*
X36644500Y-110753250D01*
X36485750Y-110594500D01*
X33886500Y-110594500D01*
X33632500Y-110594500D01*
X33612500Y-110594500D01*
X33612500Y-110340500D01*
X33632500Y-110340500D01*
X33632500Y-107741250D01*
X33886500Y-107741250D01*
X33886500Y-110340500D01*
X36485750Y-110340500D01*
X36644500Y-110181750D01*
X36647572Y-108217500D01*
X36635312Y-108093018D01*
X36599002Y-107973320D01*
X36540037Y-107863006D01*
X36460685Y-107766315D01*
X36363994Y-107686963D01*
X36253680Y-107627998D01*
X36133982Y-107591688D01*
X36009500Y-107579428D01*
X34045250Y-107582500D01*
X33886500Y-107741250D01*
X33632500Y-107741250D01*
X33473750Y-107582500D01*
X32635610Y-107581189D01*
X33355502Y-106861298D01*
X33384500Y-106837500D01*
X33479473Y-106721775D01*
X33550045Y-106589746D01*
X33593502Y-106446485D01*
X33604499Y-106334832D01*
X33608176Y-106297499D01*
X33604499Y-106260166D01*
X33604499Y-105484515D01*
X34052940Y-105784154D01*
X34577977Y-106001631D01*
X35135352Y-106112500D01*
X35703648Y-106112500D01*
X36261023Y-106001631D01*
X36786060Y-105784154D01*
X37258580Y-105468426D01*
X37660426Y-105066580D01*
X37976154Y-104594060D01*
X38193631Y-104069023D01*
X38304500Y-103511648D01*
X38304500Y-102943352D01*
X38193631Y-102385977D01*
X37976154Y-101860940D01*
X37660426Y-101388420D01*
X37258580Y-100986574D01*
X36786060Y-100670846D01*
X36261023Y-100453369D01*
X35703648Y-100342500D01*
X35135352Y-100342500D01*
X34577977Y-100453369D01*
X34052940Y-100670846D01*
X33604499Y-100970485D01*
X33604499Y-96391799D01*
X33702898Y-96372226D01*
X33891256Y-96294205D01*
X34060774Y-96180937D01*
X34204937Y-96036774D01*
X34318205Y-95867256D01*
X34396226Y-95678898D01*
X34436000Y-95478939D01*
X34436000Y-95275061D01*
X34396226Y-95075102D01*
X34318205Y-94886744D01*
X34204937Y-94717226D01*
X34060774Y-94573063D01*
X33891256Y-94459795D01*
X33702898Y-94381774D01*
X33502939Y-94342000D01*
X33299061Y-94342000D01*
X33099102Y-94381774D01*
X32910744Y-94459795D01*
X32741226Y-94573063D01*
X32597063Y-94717226D01*
X32495655Y-94868994D01*
X32476705Y-94823244D01*
X32363437Y-94653726D01*
X32219274Y-94509563D01*
X32049756Y-94396295D01*
X31861398Y-94318274D01*
X31661439Y-94278500D01*
X31457561Y-94278500D01*
X31257602Y-94318274D01*
X31069244Y-94396295D01*
X30899726Y-94509563D01*
X30755563Y-94653726D01*
X30642295Y-94823244D01*
X30564274Y-95011602D01*
X30524500Y-95211561D01*
X30524500Y-95415439D01*
X30564274Y-95615398D01*
X30642295Y-95803756D01*
X30755563Y-95973274D01*
X30899726Y-96117437D01*
X31069244Y-96230705D01*
X31257602Y-96308726D01*
X31457561Y-96348500D01*
X31519698Y-96348500D01*
X31634489Y-96463291D01*
X31634489Y-97362483D01*
X31358580Y-97086574D01*
X30886060Y-96770846D01*
X30361023Y-96553369D01*
X29803648Y-96442500D01*
X29235352Y-96442500D01*
X28677977Y-96553369D01*
X28152940Y-96770846D01*
X27680420Y-97086574D01*
X27278574Y-97488420D01*
X26962846Y-97960940D01*
X26745369Y-98485977D01*
X26634500Y-99043352D01*
X26634500Y-99611648D01*
X26745369Y-100169023D01*
X26962846Y-100694060D01*
X27278574Y-101166580D01*
X27680420Y-101568426D01*
X28152940Y-101884154D01*
X28677977Y-102101631D01*
X29235352Y-102212500D01*
X29803648Y-102212500D01*
X30361023Y-102101631D01*
X30886060Y-101884154D01*
X31358580Y-101568426D01*
X31634488Y-101292518D01*
X31634488Y-105796298D01*
X30223486Y-107207300D01*
X30194488Y-107231098D01*
X30170690Y-107260096D01*
X30170689Y-107260097D01*
X30099515Y-107346823D01*
X30028942Y-107478853D01*
X29985486Y-107622113D01*
X29970812Y-107771099D01*
X29974489Y-107808431D01*
X29974488Y-113820076D01*
X29970812Y-113857399D01*
X29974488Y-113894722D01*
X29974488Y-113894731D01*
X29985485Y-114006384D01*
X30028942Y-114149645D01*
X30099514Y-114281675D01*
X30119455Y-114305973D01*
X30194487Y-114397400D01*
X30223491Y-114421203D01*
X34758327Y-118956039D01*
X34710986Y-119003379D01*
X34597718Y-119172897D01*
X34519697Y-119361255D01*
X34479923Y-119561214D01*
X34479923Y-119623350D01*
X32391433Y-121711841D01*
X32404500Y-121646148D01*
X32404500Y-121077852D01*
X32293631Y-120520477D01*
X32076154Y-119995440D01*
X31760426Y-119522920D01*
X31358580Y-119121074D01*
X30886060Y-118805346D01*
X30361023Y-118587869D01*
X29803648Y-118477000D01*
X29235352Y-118477000D01*
X28677977Y-118587869D01*
X28152940Y-118805346D01*
X27680420Y-119121074D01*
X27278574Y-119522920D01*
X26962846Y-119995440D01*
X26745369Y-120520477D01*
X26634500Y-121077852D01*
X26634500Y-121646148D01*
X26745369Y-122203523D01*
X26962846Y-122728560D01*
X27278574Y-123201080D01*
X27680420Y-123602926D01*
X28152940Y-123918654D01*
X28677977Y-124136131D01*
X29235352Y-124247000D01*
X29803648Y-124247000D01*
X29869341Y-124233933D01*
X25491433Y-128611842D01*
X25504500Y-128546148D01*
X25504500Y-127977852D01*
X25393631Y-127420477D01*
X25176154Y-126895440D01*
X24860426Y-126422920D01*
X24458580Y-126021074D01*
X23986060Y-125705346D01*
X23461023Y-125487869D01*
X22903648Y-125377000D01*
X22335352Y-125377000D01*
X21777977Y-125487869D01*
X21252940Y-125705346D01*
X20780420Y-126021074D01*
X20378574Y-126422920D01*
X20062846Y-126895440D01*
X19845369Y-127420477D01*
X19764490Y-127827082D01*
X19764490Y-117866877D01*
X19816863Y-117945259D01*
X20016741Y-118145137D01*
X20251773Y-118302180D01*
X20512926Y-118410353D01*
X20790165Y-118465500D01*
X21072835Y-118465500D01*
X21350074Y-118410353D01*
X21611227Y-118302180D01*
X21846259Y-118145137D01*
X22012839Y-117978557D01*
X22041998Y-118074680D01*
X22100963Y-118184994D01*
X22180315Y-118281685D01*
X22277006Y-118361037D01*
X22387320Y-118420002D01*
X22507018Y-118456312D01*
X22631500Y-118468572D01*
X23145750Y-118465500D01*
X23304500Y-118306750D01*
X23304500Y-117157500D01*
X23558500Y-117157500D01*
X23558500Y-118306750D01*
X23717250Y-118465500D01*
X24231500Y-118468572D01*
X24355982Y-118456312D01*
X24475680Y-118420002D01*
X24585994Y-118361037D01*
X24682685Y-118281685D01*
X24762037Y-118184994D01*
X24821002Y-118074680D01*
X24857312Y-117954982D01*
X24869572Y-117830500D01*
X24866500Y-117316250D01*
X24707750Y-117157500D01*
X23558500Y-117157500D01*
X23304500Y-117157500D01*
X23284500Y-117157500D01*
X23284500Y-116903500D01*
X23304500Y-116903500D01*
X23304500Y-115754250D01*
X23558500Y-115754250D01*
X23558500Y-116903500D01*
X24707750Y-116903500D01*
X24866500Y-116744750D01*
X24867913Y-116508165D01*
X26505000Y-116508165D01*
X26505000Y-116790835D01*
X26560147Y-117068074D01*
X26668320Y-117329227D01*
X26825363Y-117564259D01*
X27025241Y-117764137D01*
X27260273Y-117921180D01*
X27521426Y-118029353D01*
X27798665Y-118084500D01*
X28081335Y-118084500D01*
X28358574Y-118029353D01*
X28619727Y-117921180D01*
X28854759Y-117764137D01*
X29054637Y-117564259D01*
X29211680Y-117329227D01*
X29319853Y-117068074D01*
X29375000Y-116790835D01*
X29375000Y-116508165D01*
X29319853Y-116230926D01*
X29211680Y-115969773D01*
X29054637Y-115734741D01*
X28854759Y-115534863D01*
X28619727Y-115377820D01*
X28358574Y-115269647D01*
X28081335Y-115214500D01*
X27798665Y-115214500D01*
X27521426Y-115269647D01*
X27260273Y-115377820D01*
X27025241Y-115534863D01*
X26825363Y-115734741D01*
X26668320Y-115969773D01*
X26560147Y-116230926D01*
X26505000Y-116508165D01*
X24867913Y-116508165D01*
X24869572Y-116230500D01*
X24857312Y-116106018D01*
X24821002Y-115986320D01*
X24762037Y-115876006D01*
X24682685Y-115779315D01*
X24585994Y-115699963D01*
X24475680Y-115640998D01*
X24355982Y-115604688D01*
X24231500Y-115592428D01*
X23717250Y-115595500D01*
X23558500Y-115754250D01*
X23304500Y-115754250D01*
X23145750Y-115595500D01*
X22631500Y-115592428D01*
X22507018Y-115604688D01*
X22387320Y-115640998D01*
X22277006Y-115699963D01*
X22180315Y-115779315D01*
X22100963Y-115876006D01*
X22041998Y-115986320D01*
X22012839Y-116082443D01*
X21846259Y-115915863D01*
X21611227Y-115758820D01*
X21350074Y-115650647D01*
X21072835Y-115595500D01*
X20790165Y-115595500D01*
X20512926Y-115650647D01*
X20251773Y-115758820D01*
X20016741Y-115915863D01*
X19816863Y-116115741D01*
X19764490Y-116194123D01*
X19764490Y-111843352D01*
X23634500Y-111843352D01*
X23634500Y-112411648D01*
X23745369Y-112969023D01*
X23962846Y-113494060D01*
X24278574Y-113966580D01*
X24680420Y-114368426D01*
X25152940Y-114684154D01*
X25677977Y-114901631D01*
X26235352Y-115012500D01*
X26803648Y-115012500D01*
X27361023Y-114901631D01*
X27886060Y-114684154D01*
X28358580Y-114368426D01*
X28760426Y-113966580D01*
X29076154Y-113494060D01*
X29293631Y-112969023D01*
X29404500Y-112411648D01*
X29404500Y-111843352D01*
X29293631Y-111285977D01*
X29076154Y-110760940D01*
X28760426Y-110288420D01*
X28358580Y-109886574D01*
X27886060Y-109570846D01*
X27361023Y-109353369D01*
X26803648Y-109242500D01*
X26235352Y-109242500D01*
X25677977Y-109353369D01*
X25152940Y-109570846D01*
X24680420Y-109886574D01*
X24278574Y-110288420D01*
X23962846Y-110760940D01*
X23745369Y-111285977D01*
X23634500Y-111843352D01*
X19764490Y-111843352D01*
X19764490Y-106662418D01*
X19845369Y-107069023D01*
X20062846Y-107594060D01*
X20378574Y-108066580D01*
X20780420Y-108468426D01*
X21252940Y-108784154D01*
X21777977Y-109001631D01*
X22335352Y-109112500D01*
X22903648Y-109112500D01*
X23461023Y-109001631D01*
X23986060Y-108784154D01*
X24458580Y-108468426D01*
X24860426Y-108066580D01*
X25176154Y-107594060D01*
X25393631Y-107069023D01*
X25504500Y-106511648D01*
X25504500Y-105943352D01*
X25393631Y-105385977D01*
X25176154Y-104860940D01*
X24860426Y-104388420D01*
X24458580Y-103986574D01*
X23986060Y-103670846D01*
X23461023Y-103453369D01*
X22903648Y-103342500D01*
X22335352Y-103342500D01*
X21777977Y-103453369D01*
X21252940Y-103670846D01*
X20780420Y-103986574D01*
X20378574Y-104388420D01*
X20062846Y-104860940D01*
X19845369Y-105385977D01*
X19764490Y-105792582D01*
X19764490Y-94854665D01*
X26632000Y-94854665D01*
X26632000Y-95137335D01*
X26687147Y-95414574D01*
X26795320Y-95675727D01*
X26952363Y-95910759D01*
X27152241Y-96110637D01*
X27387273Y-96267680D01*
X27648426Y-96375853D01*
X27925665Y-96431000D01*
X28208335Y-96431000D01*
X28485574Y-96375853D01*
X28746727Y-96267680D01*
X28981759Y-96110637D01*
X29181637Y-95910759D01*
X29338680Y-95675727D01*
X29446853Y-95414574D01*
X29502000Y-95137335D01*
X29502000Y-94854665D01*
X29446853Y-94577426D01*
X29338680Y-94316273D01*
X29181637Y-94081241D01*
X28981759Y-93881363D01*
X28746727Y-93724320D01*
X28485574Y-93616147D01*
X28208335Y-93561000D01*
X27925665Y-93561000D01*
X27648426Y-93616147D01*
X27387273Y-93724320D01*
X27152241Y-93881363D01*
X26952363Y-94081241D01*
X26795320Y-94316273D01*
X26687147Y-94577426D01*
X26632000Y-94854665D01*
X19764490Y-94854665D01*
X19764490Y-86448900D01*
X22437828Y-86448900D01*
X22437828Y-88176100D01*
X22450088Y-88300582D01*
X22486398Y-88420280D01*
X22545363Y-88530594D01*
X22624715Y-88627285D01*
X22721406Y-88706637D01*
X22831720Y-88765602D01*
X22889523Y-88783136D01*
X22775461Y-88897198D01*
X22611458Y-89142647D01*
X22498490Y-89415375D01*
X22440900Y-89704901D01*
X22440900Y-90000099D01*
X22498490Y-90289625D01*
X22611458Y-90562353D01*
X22775461Y-90807802D01*
X22984198Y-91016539D01*
X23229647Y-91180542D01*
X23502375Y-91293510D01*
X23791901Y-91351100D01*
X24087099Y-91351100D01*
X24376625Y-91293510D01*
X24649353Y-91180542D01*
X24894802Y-91016539D01*
X25103539Y-90807802D01*
X25214059Y-90642397D01*
X25272683Y-90740988D01*
X25469207Y-90959354D01*
X25704556Y-91135184D01*
X25969686Y-91261722D01*
X26120474Y-91307458D01*
X26352500Y-91186317D01*
X26352500Y-89979500D01*
X26606500Y-89979500D01*
X26606500Y-91186317D01*
X26838526Y-91307458D01*
X26989314Y-91261722D01*
X27254444Y-91135184D01*
X27489793Y-90959354D01*
X27686317Y-90740988D01*
X27749500Y-90634730D01*
X27812683Y-90740988D01*
X28009207Y-90959354D01*
X28244556Y-91135184D01*
X28509686Y-91261722D01*
X28660474Y-91307458D01*
X28892500Y-91186317D01*
X28892500Y-89979500D01*
X29146500Y-89979500D01*
X29146500Y-91186317D01*
X29378526Y-91307458D01*
X29529314Y-91261722D01*
X29794444Y-91135184D01*
X30029793Y-90959354D01*
X30226317Y-90740988D01*
X30289500Y-90634730D01*
X30352683Y-90740988D01*
X30549207Y-90959354D01*
X30784556Y-91135184D01*
X31049686Y-91261722D01*
X31200474Y-91307458D01*
X31432500Y-91186317D01*
X31432500Y-89979500D01*
X29146500Y-89979500D01*
X28892500Y-89979500D01*
X26606500Y-89979500D01*
X26352500Y-89979500D01*
X26332500Y-89979500D01*
X26332500Y-89725500D01*
X26352500Y-89725500D01*
X26352500Y-87439500D01*
X26606500Y-87439500D01*
X26606500Y-89725500D01*
X28892500Y-89725500D01*
X28892500Y-87439500D01*
X29146500Y-87439500D01*
X29146500Y-89725500D01*
X31432500Y-89725500D01*
X31432500Y-87439500D01*
X29146500Y-87439500D01*
X28892500Y-87439500D01*
X26606500Y-87439500D01*
X26352500Y-87439500D01*
X26332500Y-87439500D01*
X26332500Y-87185500D01*
X26352500Y-87185500D01*
X26352500Y-85978683D01*
X26606500Y-85978683D01*
X26606500Y-87185500D01*
X28892500Y-87185500D01*
X28892500Y-85978683D01*
X29146500Y-85978683D01*
X29146500Y-87185500D01*
X31432500Y-87185500D01*
X31432500Y-85978683D01*
X31200474Y-85857542D01*
X31049686Y-85903278D01*
X30784556Y-86029816D01*
X30549207Y-86205646D01*
X30352683Y-86424012D01*
X30289500Y-86530270D01*
X30226317Y-86424012D01*
X30029793Y-86205646D01*
X29794444Y-86029816D01*
X29529314Y-85903278D01*
X29378526Y-85857542D01*
X29146500Y-85978683D01*
X28892500Y-85978683D01*
X28660474Y-85857542D01*
X28509686Y-85903278D01*
X28244556Y-86029816D01*
X28009207Y-86205646D01*
X27812683Y-86424012D01*
X27749500Y-86530270D01*
X27686317Y-86424012D01*
X27489793Y-86205646D01*
X27254444Y-86029816D01*
X26989314Y-85903278D01*
X26838526Y-85857542D01*
X26606500Y-85978683D01*
X26352500Y-85978683D01*
X26120474Y-85857542D01*
X25969686Y-85903278D01*
X25704556Y-86029816D01*
X25469207Y-86205646D01*
X25412124Y-86269074D01*
X25392602Y-86204720D01*
X25333637Y-86094406D01*
X25254285Y-85997715D01*
X25157594Y-85918363D01*
X25047280Y-85859398D01*
X24927582Y-85823088D01*
X24803100Y-85810828D01*
X23075900Y-85810828D01*
X22951418Y-85823088D01*
X22831720Y-85859398D01*
X22721406Y-85918363D01*
X22624715Y-85997715D01*
X22545363Y-86094406D01*
X22486398Y-86204720D01*
X22450088Y-86324418D01*
X22437828Y-86448900D01*
X19764490Y-86448900D01*
X19764490Y-83132346D01*
X19848192Y-83157736D01*
X20129500Y-83185443D01*
X20410809Y-83157736D01*
X20681308Y-83075682D01*
X20930601Y-82942432D01*
X21149108Y-82763108D01*
X21328432Y-82544601D01*
X21396765Y-82416759D01*
X21546899Y-82646339D01*
X21744605Y-82848000D01*
X21977854Y-83007215D01*
X22237682Y-83117867D01*
X22320461Y-83135404D01*
X22542500Y-83013415D01*
X22542500Y-81470500D01*
X22522500Y-81470500D01*
X22522500Y-81216500D01*
X22542500Y-81216500D01*
X22542500Y-81196500D01*
X22796500Y-81196500D01*
X22796500Y-81216500D01*
G37*
%TD.AperFunction*%
D27*
X31178526Y-61588778D02*
X31210985Y-61628329D01*
X31273499Y-61704503D01*
X31302502Y-61728305D01*
X31979704Y-62405509D01*
X32003498Y-62434502D01*
X32032491Y-62458296D01*
X32032495Y-62458300D01*
X32046718Y-62469972D01*
X32119223Y-62529475D01*
X32251252Y-62600047D01*
X32251961Y-62600262D01*
X32282787Y-62631088D01*
X32235446Y-62678429D01*
X32122178Y-62847947D01*
X32044157Y-63036305D01*
X32004383Y-63236264D01*
X32004383Y-63440142D01*
X32044157Y-63640101D01*
X32122178Y-63828459D01*
X32235446Y-63997977D01*
X32279383Y-64041914D01*
X32279383Y-64585060D01*
X32275707Y-64622383D01*
X32279383Y-64659705D01*
X32279383Y-64659715D01*
X32280406Y-64670104D01*
X31642000Y-64031699D01*
X31642000Y-63969561D01*
X31602226Y-63769602D01*
X31524205Y-63581244D01*
X31410937Y-63411726D01*
X31266774Y-63267563D01*
X31097256Y-63154295D01*
X30908898Y-63076274D01*
X30708939Y-63036500D01*
X30505061Y-63036500D01*
X30305102Y-63076274D01*
X30116744Y-63154295D01*
X29947226Y-63267563D01*
X29803063Y-63411726D01*
X29689795Y-63581244D01*
X29611774Y-63769602D01*
X29572000Y-63969561D01*
X29572000Y-64173439D01*
X29611774Y-64373398D01*
X29689795Y-64561756D01*
X29803063Y-64731274D01*
X29947226Y-64875437D01*
X30116744Y-64988705D01*
X30305102Y-65066726D01*
X30505061Y-65106500D01*
X30567199Y-65106500D01*
X30980081Y-65519383D01*
X30959795Y-65549744D01*
X30881774Y-65738102D01*
X30842000Y-65938061D01*
X30842000Y-66141939D01*
X30881774Y-66341898D01*
X30959795Y-66530256D01*
X31073063Y-66699774D01*
X31217226Y-66843937D01*
X31386744Y-66957205D01*
X31575102Y-67035226D01*
X31775061Y-67075000D01*
X31978939Y-67075000D01*
X32178898Y-67035226D01*
X32367256Y-66957205D01*
X32536774Y-66843937D01*
X32680937Y-66699774D01*
X32794205Y-66530256D01*
X32872226Y-66341898D01*
X32912000Y-66141939D01*
X32912000Y-65938061D01*
X32872226Y-65738102D01*
X32794205Y-65549744D01*
X32680937Y-65380226D01*
X32640508Y-65339797D01*
X32637000Y-65304176D01*
X32637000Y-65304167D01*
X32635977Y-65293778D01*
X34391812Y-67049614D01*
X34355500Y-67232165D01*
X34355500Y-67514835D01*
X34410647Y-67792074D01*
X34518820Y-68053227D01*
X34675863Y-68288259D01*
X34872354Y-68484750D01*
X34675863Y-68681241D01*
X34518820Y-68916273D01*
X34410647Y-69177426D01*
X34355500Y-69454665D01*
X34355500Y-69737335D01*
X34410647Y-70014574D01*
X34518820Y-70275727D01*
X34675863Y-70510759D01*
X34875741Y-70710637D01*
X35110773Y-70867680D01*
X35371926Y-70975853D01*
X35649165Y-71031000D01*
X35931835Y-71031000D01*
X36209074Y-70975853D01*
X36470227Y-70867680D01*
X36705259Y-70710637D01*
X36905137Y-70510759D01*
X37039192Y-70310131D01*
X37053829Y-70337514D01*
X37297798Y-70409097D01*
X38110895Y-69596000D01*
X38096753Y-69581858D01*
X38276358Y-69402253D01*
X38290500Y-69416395D01*
X38304643Y-69402253D01*
X38484248Y-69581858D01*
X38470105Y-69596000D01*
X38484248Y-69610143D01*
X38304643Y-69789748D01*
X38290500Y-69775605D01*
X37477403Y-70588702D01*
X37548986Y-70832671D01*
X37804496Y-70953571D01*
X38078684Y-71022300D01*
X38361012Y-71036217D01*
X38640630Y-70994787D01*
X38765385Y-70950173D01*
X38765385Y-91679542D01*
X38738004Y-91657072D01*
X35297663Y-88216732D01*
X35427542Y-88022353D01*
X35540510Y-87749625D01*
X35598100Y-87460099D01*
X35598100Y-87164901D01*
X35540510Y-86875375D01*
X35427542Y-86602647D01*
X35263539Y-86357198D01*
X35054802Y-86148461D01*
X34809353Y-85984458D01*
X34536625Y-85871490D01*
X34247099Y-85813900D01*
X33951901Y-85813900D01*
X33670899Y-85869794D01*
X33670899Y-84002221D01*
X33674575Y-83964898D01*
X33670899Y-83927576D01*
X33670899Y-83927566D01*
X33659902Y-83815913D01*
X33616445Y-83672652D01*
X33545874Y-83540624D01*
X33545873Y-83540622D01*
X33474698Y-83453896D01*
X33450900Y-83424898D01*
X33421903Y-83401101D01*
X33162775Y-83141973D01*
X33381308Y-83075682D01*
X33630601Y-82942432D01*
X33849108Y-82763108D01*
X33941919Y-82650018D01*
X33943688Y-82667982D01*
X33979998Y-82787680D01*
X34038963Y-82897994D01*
X34118315Y-82994685D01*
X34215006Y-83074037D01*
X34325320Y-83133002D01*
X34445018Y-83169312D01*
X34569500Y-83181572D01*
X36006501Y-83181572D01*
X36006500Y-85592789D01*
X35962563Y-85636726D01*
X35849295Y-85806244D01*
X35771274Y-85994602D01*
X35731500Y-86194561D01*
X35731500Y-86398439D01*
X35771274Y-86598398D01*
X35849295Y-86786756D01*
X35962563Y-86956274D01*
X36106726Y-87100437D01*
X36276244Y-87213705D01*
X36464602Y-87291726D01*
X36664561Y-87331500D01*
X36868439Y-87331500D01*
X37068398Y-87291726D01*
X37256756Y-87213705D01*
X37426274Y-87100437D01*
X37570437Y-86956274D01*
X37683705Y-86786756D01*
X37694788Y-86760000D01*
X37757439Y-86760000D01*
X37957398Y-86720226D01*
X38145756Y-86642205D01*
X38315274Y-86528937D01*
X38459437Y-86384774D01*
X38572705Y-86215256D01*
X38650726Y-86026898D01*
X38690500Y-85826939D01*
X38690500Y-85623061D01*
X38650726Y-85423102D01*
X38572705Y-85234744D01*
X38459437Y-85065226D01*
X38415500Y-85021289D01*
X38415500Y-76046822D01*
X38419176Y-76009499D01*
X38415500Y-75972176D01*
X38415500Y-75972167D01*
X38404503Y-75860514D01*
X38361046Y-75717253D01*
X38290474Y-75585224D01*
X38195501Y-75469499D01*
X38166503Y-75445701D01*
X36804500Y-74083699D01*
X36804500Y-73253008D01*
X36783736Y-73042191D01*
X36701682Y-72771692D01*
X36568432Y-72522399D01*
X36389107Y-72303892D01*
X36170600Y-72124568D01*
X35921307Y-71991318D01*
X35650808Y-71909264D01*
X35369500Y-71881557D01*
X35088191Y-71909264D01*
X34817692Y-71991318D01*
X34568399Y-72124568D01*
X34349892Y-72303893D01*
X34170568Y-72522400D01*
X34099500Y-72655358D01*
X34028432Y-72522399D01*
X33849107Y-72303892D01*
X33737126Y-72211991D01*
X33763227Y-72201180D01*
X33998259Y-72044137D01*
X34198137Y-71844259D01*
X34355180Y-71609227D01*
X34463353Y-71348074D01*
X34518500Y-71070835D01*
X34518500Y-70788165D01*
X34463353Y-70510926D01*
X34355180Y-70249773D01*
X34198137Y-70014741D01*
X33998259Y-69814863D01*
X33763227Y-69657820D01*
X33502074Y-69549647D01*
X33224835Y-69494500D01*
X32942165Y-69494500D01*
X32759614Y-69530812D01*
X29543499Y-66314698D01*
X29543499Y-62160009D01*
X29767165Y-62204500D01*
X30049835Y-62204500D01*
X30327074Y-62149353D01*
X30588227Y-62041180D01*
X30823259Y-61884137D01*
X31023137Y-61684259D01*
X31137820Y-61512623D01*
X31178526Y-61588778D01*
%TA.AperFunction,Conductor*%
D28*
G36*
X31178526Y-61588778D02*
G01*
X31210985Y-61628329D01*
X31273499Y-61704503D01*
X31302502Y-61728305D01*
X31979704Y-62405509D01*
X32003498Y-62434502D01*
X32032491Y-62458296D01*
X32032495Y-62458300D01*
X32046718Y-62469972D01*
X32119223Y-62529475D01*
X32251252Y-62600047D01*
X32251961Y-62600262D01*
X32282787Y-62631088D01*
X32235446Y-62678429D01*
X32122178Y-62847947D01*
X32044157Y-63036305D01*
X32004383Y-63236264D01*
X32004383Y-63440142D01*
X32044157Y-63640101D01*
X32122178Y-63828459D01*
X32235446Y-63997977D01*
X32279383Y-64041914D01*
X32279383Y-64585060D01*
X32275707Y-64622383D01*
X32279383Y-64659705D01*
X32279383Y-64659715D01*
X32280406Y-64670104D01*
X31642000Y-64031699D01*
X31642000Y-63969561D01*
X31602226Y-63769602D01*
X31524205Y-63581244D01*
X31410937Y-63411726D01*
X31266774Y-63267563D01*
X31097256Y-63154295D01*
X30908898Y-63076274D01*
X30708939Y-63036500D01*
X30505061Y-63036500D01*
X30305102Y-63076274D01*
X30116744Y-63154295D01*
X29947226Y-63267563D01*
X29803063Y-63411726D01*
X29689795Y-63581244D01*
X29611774Y-63769602D01*
X29572000Y-63969561D01*
X29572000Y-64173439D01*
X29611774Y-64373398D01*
X29689795Y-64561756D01*
X29803063Y-64731274D01*
X29947226Y-64875437D01*
X30116744Y-64988705D01*
X30305102Y-65066726D01*
X30505061Y-65106500D01*
X30567199Y-65106500D01*
X30980081Y-65519383D01*
X30959795Y-65549744D01*
X30881774Y-65738102D01*
X30842000Y-65938061D01*
X30842000Y-66141939D01*
X30881774Y-66341898D01*
X30959795Y-66530256D01*
X31073063Y-66699774D01*
X31217226Y-66843937D01*
X31386744Y-66957205D01*
X31575102Y-67035226D01*
X31775061Y-67075000D01*
X31978939Y-67075000D01*
X32178898Y-67035226D01*
X32367256Y-66957205D01*
X32536774Y-66843937D01*
X32680937Y-66699774D01*
X32794205Y-66530256D01*
X32872226Y-66341898D01*
X32912000Y-66141939D01*
X32912000Y-65938061D01*
X32872226Y-65738102D01*
X32794205Y-65549744D01*
X32680937Y-65380226D01*
X32640508Y-65339797D01*
X32637000Y-65304176D01*
X32637000Y-65304167D01*
X32635977Y-65293778D01*
X34391812Y-67049614D01*
X34355500Y-67232165D01*
X34355500Y-67514835D01*
X34410647Y-67792074D01*
X34518820Y-68053227D01*
X34675863Y-68288259D01*
X34872354Y-68484750D01*
X34675863Y-68681241D01*
X34518820Y-68916273D01*
X34410647Y-69177426D01*
X34355500Y-69454665D01*
X34355500Y-69737335D01*
X34410647Y-70014574D01*
X34518820Y-70275727D01*
X34675863Y-70510759D01*
X34875741Y-70710637D01*
X35110773Y-70867680D01*
X35371926Y-70975853D01*
X35649165Y-71031000D01*
X35931835Y-71031000D01*
X36209074Y-70975853D01*
X36470227Y-70867680D01*
X36705259Y-70710637D01*
X36905137Y-70510759D01*
X37039192Y-70310131D01*
X37053829Y-70337514D01*
X37297798Y-70409097D01*
X38110895Y-69596000D01*
X38096753Y-69581858D01*
X38276358Y-69402253D01*
X38290500Y-69416395D01*
X38304643Y-69402253D01*
X38484248Y-69581858D01*
X38470105Y-69596000D01*
X38484248Y-69610143D01*
X38304643Y-69789748D01*
X38290500Y-69775605D01*
X37477403Y-70588702D01*
X37548986Y-70832671D01*
X37804496Y-70953571D01*
X38078684Y-71022300D01*
X38361012Y-71036217D01*
X38640630Y-70994787D01*
X38765385Y-70950173D01*
X38765385Y-91679542D01*
X38738004Y-91657072D01*
X35297663Y-88216732D01*
X35427542Y-88022353D01*
X35540510Y-87749625D01*
X35598100Y-87460099D01*
X35598100Y-87164901D01*
X35540510Y-86875375D01*
X35427542Y-86602647D01*
X35263539Y-86357198D01*
X35054802Y-86148461D01*
X34809353Y-85984458D01*
X34536625Y-85871490D01*
X34247099Y-85813900D01*
X33951901Y-85813900D01*
X33670899Y-85869794D01*
X33670899Y-84002221D01*
X33674575Y-83964898D01*
X33670899Y-83927576D01*
X33670899Y-83927566D01*
X33659902Y-83815913D01*
X33616445Y-83672652D01*
X33545874Y-83540624D01*
X33545873Y-83540622D01*
X33474698Y-83453896D01*
X33450900Y-83424898D01*
X33421903Y-83401101D01*
X33162775Y-83141973D01*
X33381308Y-83075682D01*
X33630601Y-82942432D01*
X33849108Y-82763108D01*
X33941919Y-82650018D01*
X33943688Y-82667982D01*
X33979998Y-82787680D01*
X34038963Y-82897994D01*
X34118315Y-82994685D01*
X34215006Y-83074037D01*
X34325320Y-83133002D01*
X34445018Y-83169312D01*
X34569500Y-83181572D01*
X36006501Y-83181572D01*
X36006500Y-85592789D01*
X35962563Y-85636726D01*
X35849295Y-85806244D01*
X35771274Y-85994602D01*
X35731500Y-86194561D01*
X35731500Y-86398439D01*
X35771274Y-86598398D01*
X35849295Y-86786756D01*
X35962563Y-86956274D01*
X36106726Y-87100437D01*
X36276244Y-87213705D01*
X36464602Y-87291726D01*
X36664561Y-87331500D01*
X36868439Y-87331500D01*
X37068398Y-87291726D01*
X37256756Y-87213705D01*
X37426274Y-87100437D01*
X37570437Y-86956274D01*
X37683705Y-86786756D01*
X37694788Y-86760000D01*
X37757439Y-86760000D01*
X37957398Y-86720226D01*
X38145756Y-86642205D01*
X38315274Y-86528937D01*
X38459437Y-86384774D01*
X38572705Y-86215256D01*
X38650726Y-86026898D01*
X38690500Y-85826939D01*
X38690500Y-85623061D01*
X38650726Y-85423102D01*
X38572705Y-85234744D01*
X38459437Y-85065226D01*
X38415500Y-85021289D01*
X38415500Y-76046822D01*
X38419176Y-76009499D01*
X38415500Y-75972176D01*
X38415500Y-75972167D01*
X38404503Y-75860514D01*
X38361046Y-75717253D01*
X38290474Y-75585224D01*
X38195501Y-75469499D01*
X38166503Y-75445701D01*
X36804500Y-74083699D01*
X36804500Y-73253008D01*
X36783736Y-73042191D01*
X36701682Y-72771692D01*
X36568432Y-72522399D01*
X36389107Y-72303892D01*
X36170600Y-72124568D01*
X35921307Y-71991318D01*
X35650808Y-71909264D01*
X35369500Y-71881557D01*
X35088191Y-71909264D01*
X34817692Y-71991318D01*
X34568399Y-72124568D01*
X34349892Y-72303893D01*
X34170568Y-72522400D01*
X34099500Y-72655358D01*
X34028432Y-72522399D01*
X33849107Y-72303892D01*
X33737126Y-72211991D01*
X33763227Y-72201180D01*
X33998259Y-72044137D01*
X34198137Y-71844259D01*
X34355180Y-71609227D01*
X34463353Y-71348074D01*
X34518500Y-71070835D01*
X34518500Y-70788165D01*
X34463353Y-70510926D01*
X34355180Y-70249773D01*
X34198137Y-70014741D01*
X33998259Y-69814863D01*
X33763227Y-69657820D01*
X33502074Y-69549647D01*
X33224835Y-69494500D01*
X32942165Y-69494500D01*
X32759614Y-69530812D01*
X29543499Y-66314698D01*
X29543499Y-62160009D01*
X29767165Y-62204500D01*
X30049835Y-62204500D01*
X30327074Y-62149353D01*
X30588227Y-62041180D01*
X30823259Y-61884137D01*
X31023137Y-61684259D01*
X31137820Y-61512623D01*
X31178526Y-61588778D01*
G37*
%TD.AperFunction*%
D27*
X34170568Y-74924601D02*
X34349893Y-75143108D01*
X34568400Y-75322432D01*
X34817693Y-75455682D01*
X35088192Y-75537736D01*
X35369500Y-75565443D01*
X35650809Y-75537736D01*
X35921308Y-75455682D01*
X35990107Y-75418908D01*
X36759788Y-76188590D01*
X36724739Y-76174072D01*
X36462956Y-76122000D01*
X36196044Y-76122000D01*
X35934261Y-76174072D01*
X35687667Y-76276215D01*
X35465738Y-76424503D01*
X35277003Y-76613238D01*
X35128715Y-76835167D01*
X35059500Y-77002266D01*
X34990285Y-76835167D01*
X34841997Y-76613238D01*
X34653262Y-76424503D01*
X34431333Y-76276215D01*
X34184739Y-76174072D01*
X33922956Y-76122000D01*
X33656044Y-76122000D01*
X33394261Y-76174072D01*
X33147667Y-76276215D01*
X32925738Y-76424503D01*
X32737003Y-76613238D01*
X32588715Y-76835167D01*
X32519500Y-77002266D01*
X32450285Y-76835167D01*
X32301997Y-76613238D01*
X32113262Y-76424503D01*
X31891333Y-76276215D01*
X31644739Y-76174072D01*
X31382956Y-76122000D01*
X31116044Y-76122000D01*
X30993648Y-76146346D01*
X30405801Y-75558500D01*
X30416502Y-75558500D01*
X30416502Y-75393416D01*
X30638539Y-75515404D01*
X30721318Y-75497867D01*
X30981146Y-75387215D01*
X31214395Y-75228000D01*
X31412101Y-75026339D01*
X31562235Y-74796759D01*
X31630568Y-74924601D01*
X31809893Y-75143108D01*
X32028400Y-75322432D01*
X32277693Y-75455682D01*
X32548192Y-75537736D01*
X32829500Y-75565443D01*
X33110809Y-75537736D01*
X33381308Y-75455682D01*
X33630601Y-75322432D01*
X33849108Y-75143108D01*
X34028432Y-74924601D01*
X34099500Y-74791642D01*
X34170568Y-74924601D01*
%TA.AperFunction,Conductor*%
D28*
G36*
X34170568Y-74924601D02*
G01*
X34349893Y-75143108D01*
X34568400Y-75322432D01*
X34817693Y-75455682D01*
X35088192Y-75537736D01*
X35369500Y-75565443D01*
X35650809Y-75537736D01*
X35921308Y-75455682D01*
X35990107Y-75418908D01*
X36759788Y-76188590D01*
X36724739Y-76174072D01*
X36462956Y-76122000D01*
X36196044Y-76122000D01*
X35934261Y-76174072D01*
X35687667Y-76276215D01*
X35465738Y-76424503D01*
X35277003Y-76613238D01*
X35128715Y-76835167D01*
X35059500Y-77002266D01*
X34990285Y-76835167D01*
X34841997Y-76613238D01*
X34653262Y-76424503D01*
X34431333Y-76276215D01*
X34184739Y-76174072D01*
X33922956Y-76122000D01*
X33656044Y-76122000D01*
X33394261Y-76174072D01*
X33147667Y-76276215D01*
X32925738Y-76424503D01*
X32737003Y-76613238D01*
X32588715Y-76835167D01*
X32519500Y-77002266D01*
X32450285Y-76835167D01*
X32301997Y-76613238D01*
X32113262Y-76424503D01*
X31891333Y-76276215D01*
X31644739Y-76174072D01*
X31382956Y-76122000D01*
X31116044Y-76122000D01*
X30993648Y-76146346D01*
X30405801Y-75558500D01*
X30416502Y-75558500D01*
X30416502Y-75393416D01*
X30638539Y-75515404D01*
X30721318Y-75497867D01*
X30981146Y-75387215D01*
X31214395Y-75228000D01*
X31412101Y-75026339D01*
X31562235Y-74796759D01*
X31630568Y-74924601D01*
X31809893Y-75143108D01*
X32028400Y-75322432D01*
X32277693Y-75455682D01*
X32548192Y-75537736D01*
X32829500Y-75565443D01*
X33110809Y-75537736D01*
X33381308Y-75455682D01*
X33630601Y-75322432D01*
X33849108Y-75143108D01*
X34028432Y-74924601D01*
X34099500Y-74791642D01*
X34170568Y-74924601D01*
G37*
%TD.AperFunction*%
D27*
X30416500Y-73596500D02*
X30436500Y-73596500D01*
X30436500Y-73850500D01*
X30416500Y-73850500D01*
X30416500Y-73870500D01*
X30162500Y-73870500D01*
X30162500Y-73850500D01*
X30142500Y-73850500D01*
X30142500Y-73596500D01*
X30162500Y-73596500D01*
X30162500Y-73576500D01*
X30416500Y-73576500D01*
X30416500Y-73596500D01*
%TA.AperFunction,Conductor*%
D28*
G36*
X30416500Y-73596500D02*
G01*
X30436500Y-73596500D01*
X30436500Y-73850500D01*
X30416500Y-73850500D01*
X30416500Y-73870500D01*
X30162500Y-73870500D01*
X30162500Y-73850500D01*
X30142500Y-73850500D01*
X30142500Y-73596500D01*
X30162500Y-73596500D01*
X30162500Y-73576500D01*
X30416500Y-73576500D01*
X30416500Y-73596500D01*
G37*
%TD.AperFunction*%
D27*
X25044500Y-70026165D02*
X25044500Y-70308835D01*
X25099647Y-70586074D01*
X25207820Y-70847227D01*
X25364863Y-71082259D01*
X25564741Y-71282137D01*
X25799773Y-71439180D01*
X26060926Y-71547353D01*
X26338165Y-71602500D01*
X26620835Y-71602500D01*
X26803386Y-71566188D01*
X27221342Y-71984144D01*
X27197692Y-71991318D01*
X26948399Y-72124568D01*
X26729892Y-72303893D01*
X26550568Y-72522400D01*
X26479500Y-72655358D01*
X26408432Y-72522399D01*
X26229107Y-72303892D01*
X26010600Y-72124568D01*
X25761307Y-71991318D01*
X25490808Y-71909264D01*
X25209500Y-71881557D01*
X24928191Y-71909264D01*
X24657692Y-71991318D01*
X24588893Y-72028092D01*
X24013966Y-71453164D01*
X24047727Y-71439180D01*
X24282759Y-71282137D01*
X24482637Y-71082259D01*
X24639680Y-70847227D01*
X24747853Y-70586074D01*
X24803000Y-70308835D01*
X24803000Y-70026165D01*
X24766688Y-69843614D01*
X24807803Y-69802499D01*
X25088991Y-69802499D01*
X25044500Y-70026165D01*
%TA.AperFunction,Conductor*%
D28*
G36*
X25044500Y-70026165D02*
G01*
X25044500Y-70308835D01*
X25099647Y-70586074D01*
X25207820Y-70847227D01*
X25364863Y-71082259D01*
X25564741Y-71282137D01*
X25799773Y-71439180D01*
X26060926Y-71547353D01*
X26338165Y-71602500D01*
X26620835Y-71602500D01*
X26803386Y-71566188D01*
X27221342Y-71984144D01*
X27197692Y-71991318D01*
X26948399Y-72124568D01*
X26729892Y-72303893D01*
X26550568Y-72522400D01*
X26479500Y-72655358D01*
X26408432Y-72522399D01*
X26229107Y-72303892D01*
X26010600Y-72124568D01*
X25761307Y-71991318D01*
X25490808Y-71909264D01*
X25209500Y-71881557D01*
X24928191Y-71909264D01*
X24657692Y-71991318D01*
X24588893Y-72028092D01*
X24013966Y-71453164D01*
X24047727Y-71439180D01*
X24282759Y-71282137D01*
X24482637Y-71082259D01*
X24639680Y-70847227D01*
X24747853Y-70586074D01*
X24803000Y-70308835D01*
X24803000Y-70026165D01*
X24766688Y-69843614D01*
X24807803Y-69802499D01*
X25088991Y-69802499D01*
X25044500Y-70026165D01*
G37*
%TD.AperFunction*%
D27*
X28023499Y-66592177D02*
X28019823Y-66629499D01*
X28023499Y-66666821D01*
X28023499Y-66666831D01*
X28034496Y-66778484D01*
X28054351Y-66843937D01*
X28077953Y-66921745D01*
X28148525Y-67053775D01*
X28171076Y-67081253D01*
X28243498Y-67169500D01*
X28272502Y-67193303D01*
X31684812Y-70605614D01*
X31648500Y-70788165D01*
X31648500Y-71070835D01*
X31703647Y-71348074D01*
X31811820Y-71609227D01*
X31845808Y-71660094D01*
X31844491Y-71658489D01*
X31728766Y-71563516D01*
X31596737Y-71492944D01*
X31453476Y-71449487D01*
X31341823Y-71438490D01*
X31341812Y-71438490D01*
X31304490Y-71434814D01*
X31267168Y-71438490D01*
X31255195Y-71438490D01*
X31266071Y-71415504D01*
X31334800Y-71141316D01*
X31348717Y-70858988D01*
X31307287Y-70579370D01*
X31212103Y-70313208D01*
X31145171Y-70187986D01*
X30901202Y-70116403D01*
X30088105Y-70929500D01*
X30102248Y-70943643D01*
X29922643Y-71123248D01*
X29908500Y-71109105D01*
X29894358Y-71123248D01*
X29714753Y-70943643D01*
X29728895Y-70929500D01*
X29714753Y-70915358D01*
X29894358Y-70735753D01*
X29908500Y-70749895D01*
X30721597Y-69936798D01*
X30650014Y-69692829D01*
X30394504Y-69571929D01*
X30120316Y-69503200D01*
X29837988Y-69489283D01*
X29558370Y-69530713D01*
X29292208Y-69625897D01*
X29225999Y-69661286D01*
X29225999Y-69079832D01*
X29229676Y-69042499D01*
X29215002Y-68893513D01*
X29171545Y-68750252D01*
X29100973Y-68618223D01*
X29006000Y-68502498D01*
X28890275Y-68407525D01*
X28758246Y-68336953D01*
X28614985Y-68293496D01*
X28503332Y-68282499D01*
X28465999Y-68278822D01*
X28428666Y-68282499D01*
X24530326Y-68282499D01*
X24493001Y-68278823D01*
X24455676Y-68282499D01*
X24455668Y-68282499D01*
X24344015Y-68293496D01*
X24200754Y-68336953D01*
X24068725Y-68407525D01*
X23953000Y-68502498D01*
X23929202Y-68531496D01*
X23691886Y-68768812D01*
X23509335Y-68732500D01*
X23226665Y-68732500D01*
X22949426Y-68787647D01*
X22688273Y-68895820D01*
X22453241Y-69052863D01*
X22285488Y-69220616D01*
X22285488Y-60954384D01*
X22453241Y-61122137D01*
X22688273Y-61279180D01*
X22949426Y-61387353D01*
X23226665Y-61442500D01*
X23509335Y-61442500D01*
X23786574Y-61387353D01*
X24047727Y-61279180D01*
X24282759Y-61122137D01*
X24482637Y-60922259D01*
X24639680Y-60687227D01*
X24747853Y-60426074D01*
X24803000Y-60148835D01*
X24803000Y-60145803D01*
X25044500Y-59904303D01*
X25044500Y-60148835D01*
X25099647Y-60426074D01*
X25207820Y-60687227D01*
X25364863Y-60922259D01*
X25564741Y-61122137D01*
X25799773Y-61279180D01*
X26060926Y-61387353D01*
X26338165Y-61442500D01*
X26620835Y-61442500D01*
X26898074Y-61387353D01*
X27159227Y-61279180D01*
X27394259Y-61122137D01*
X27594137Y-60922259D01*
X27751180Y-60687227D01*
X27859353Y-60426074D01*
X27914500Y-60148835D01*
X27914500Y-59866165D01*
X27859353Y-59588926D01*
X27751180Y-59327773D01*
X27594137Y-59092741D01*
X27588992Y-59087596D01*
X27775259Y-58963137D01*
X27975137Y-58763259D01*
X28023500Y-58690879D01*
X28023499Y-66592177D01*
%TA.AperFunction,Conductor*%
D28*
G36*
X28023499Y-66592177D02*
G01*
X28019823Y-66629499D01*
X28023499Y-66666821D01*
X28023499Y-66666831D01*
X28034496Y-66778484D01*
X28054351Y-66843937D01*
X28077953Y-66921745D01*
X28148525Y-67053775D01*
X28171076Y-67081253D01*
X28243498Y-67169500D01*
X28272502Y-67193303D01*
X31684812Y-70605614D01*
X31648500Y-70788165D01*
X31648500Y-71070835D01*
X31703647Y-71348074D01*
X31811820Y-71609227D01*
X31845808Y-71660094D01*
X31844491Y-71658489D01*
X31728766Y-71563516D01*
X31596737Y-71492944D01*
X31453476Y-71449487D01*
X31341823Y-71438490D01*
X31341812Y-71438490D01*
X31304490Y-71434814D01*
X31267168Y-71438490D01*
X31255195Y-71438490D01*
X31266071Y-71415504D01*
X31334800Y-71141316D01*
X31348717Y-70858988D01*
X31307287Y-70579370D01*
X31212103Y-70313208D01*
X31145171Y-70187986D01*
X30901202Y-70116403D01*
X30088105Y-70929500D01*
X30102248Y-70943643D01*
X29922643Y-71123248D01*
X29908500Y-71109105D01*
X29894358Y-71123248D01*
X29714753Y-70943643D01*
X29728895Y-70929500D01*
X29714753Y-70915358D01*
X29894358Y-70735753D01*
X29908500Y-70749895D01*
X30721597Y-69936798D01*
X30650014Y-69692829D01*
X30394504Y-69571929D01*
X30120316Y-69503200D01*
X29837988Y-69489283D01*
X29558370Y-69530713D01*
X29292208Y-69625897D01*
X29225999Y-69661286D01*
X29225999Y-69079832D01*
X29229676Y-69042499D01*
X29215002Y-68893513D01*
X29171545Y-68750252D01*
X29100973Y-68618223D01*
X29006000Y-68502498D01*
X28890275Y-68407525D01*
X28758246Y-68336953D01*
X28614985Y-68293496D01*
X28503332Y-68282499D01*
X28465999Y-68278822D01*
X28428666Y-68282499D01*
X24530326Y-68282499D01*
X24493001Y-68278823D01*
X24455676Y-68282499D01*
X24455668Y-68282499D01*
X24344015Y-68293496D01*
X24200754Y-68336953D01*
X24068725Y-68407525D01*
X23953000Y-68502498D01*
X23929202Y-68531496D01*
X23691886Y-68768812D01*
X23509335Y-68732500D01*
X23226665Y-68732500D01*
X22949426Y-68787647D01*
X22688273Y-68895820D01*
X22453241Y-69052863D01*
X22285488Y-69220616D01*
X22285488Y-60954384D01*
X22453241Y-61122137D01*
X22688273Y-61279180D01*
X22949426Y-61387353D01*
X23226665Y-61442500D01*
X23509335Y-61442500D01*
X23786574Y-61387353D01*
X24047727Y-61279180D01*
X24282759Y-61122137D01*
X24482637Y-60922259D01*
X24639680Y-60687227D01*
X24747853Y-60426074D01*
X24803000Y-60148835D01*
X24803000Y-60145803D01*
X25044500Y-59904303D01*
X25044500Y-60148835D01*
X25099647Y-60426074D01*
X25207820Y-60687227D01*
X25364863Y-60922259D01*
X25564741Y-61122137D01*
X25799773Y-61279180D01*
X26060926Y-61387353D01*
X26338165Y-61442500D01*
X26620835Y-61442500D01*
X26898074Y-61387353D01*
X27159227Y-61279180D01*
X27394259Y-61122137D01*
X27594137Y-60922259D01*
X27751180Y-60687227D01*
X27859353Y-60426074D01*
X27914500Y-60148835D01*
X27914500Y-59866165D01*
X27859353Y-59588926D01*
X27751180Y-59327773D01*
X27594137Y-59092741D01*
X27588992Y-59087596D01*
X27775259Y-58963137D01*
X27975137Y-58763259D01*
X28023500Y-58690879D01*
X28023499Y-66592177D01*
G37*
%TD.AperFunction*%
D27*
X38484248Y-67359358D02*
X38470105Y-67373500D01*
X38484248Y-67387643D01*
X38304643Y-67567248D01*
X38290500Y-67553105D01*
X38276358Y-67567248D01*
X38096753Y-67387643D01*
X38110895Y-67373500D01*
X38096753Y-67359358D01*
X38276358Y-67179753D01*
X38290500Y-67193895D01*
X38304643Y-67179753D01*
X38484248Y-67359358D01*
%TA.AperFunction,Conductor*%
D28*
G36*
X38484248Y-67359358D02*
G01*
X38470105Y-67373500D01*
X38484248Y-67387643D01*
X38304643Y-67567248D01*
X38290500Y-67553105D01*
X38276358Y-67567248D01*
X38096753Y-67387643D01*
X38110895Y-67373500D01*
X38096753Y-67359358D01*
X38276358Y-67179753D01*
X38290500Y-67193895D01*
X38304643Y-67179753D01*
X38484248Y-67359358D01*
G37*
%TD.AperFunction*%
D27*
X38484248Y-65136858D02*
X38470105Y-65151000D01*
X38484248Y-65165143D01*
X38304643Y-65344748D01*
X38290500Y-65330605D01*
X38276358Y-65344748D01*
X38096753Y-65165143D01*
X38110895Y-65151000D01*
X38096753Y-65136858D01*
X38276358Y-64957253D01*
X38290500Y-64971395D01*
X38304643Y-64957253D01*
X38484248Y-65136858D01*
%TA.AperFunction,Conductor*%
D28*
G36*
X38484248Y-65136858D02*
G01*
X38470105Y-65151000D01*
X38484248Y-65165143D01*
X38304643Y-65344748D01*
X38290500Y-65330605D01*
X38276358Y-65344748D01*
X38096753Y-65165143D01*
X38110895Y-65151000D01*
X38096753Y-65136858D01*
X38276358Y-64957253D01*
X38290500Y-64971395D01*
X38304643Y-64957253D01*
X38484248Y-65136858D01*
G37*
%TD.AperFunction*%
D27*
X38507748Y-62850858D02*
X38493605Y-62865000D01*
X38507748Y-62879143D01*
X38328143Y-63058748D01*
X38314000Y-63044605D01*
X38299858Y-63058748D01*
X38120253Y-62879143D01*
X38134395Y-62865000D01*
X38120253Y-62850858D01*
X38299858Y-62671253D01*
X38314000Y-62685395D01*
X38328143Y-62671253D01*
X38507748Y-62850858D01*
%TA.AperFunction,Conductor*%
D28*
G36*
X38507748Y-62850858D02*
G01*
X38493605Y-62865000D01*
X38507748Y-62879143D01*
X38328143Y-63058748D01*
X38314000Y-63044605D01*
X38299858Y-63058748D01*
X38120253Y-62879143D01*
X38134395Y-62865000D01*
X38120253Y-62850858D01*
X38299858Y-62671253D01*
X38314000Y-62685395D01*
X38328143Y-62671253D01*
X38507748Y-62850858D01*
G37*
%TD.AperFunction*%
D27*
X28346500Y-7288165D02*
X28346500Y-7570835D01*
X28401647Y-7848074D01*
X28509820Y-8109227D01*
X28666863Y-8344259D01*
X28866741Y-8544137D01*
X29101773Y-8701180D01*
X29362926Y-8809353D01*
X29640165Y-8864500D01*
X29922835Y-8864500D01*
X30200074Y-8809353D01*
X30461227Y-8701180D01*
X30696259Y-8544137D01*
X30896137Y-8344259D01*
X31007016Y-8178316D01*
X31261582Y-8432882D01*
X31113320Y-8654773D01*
X31005147Y-8915926D01*
X30950000Y-9193165D01*
X30950000Y-9475835D01*
X31005147Y-9753074D01*
X31044720Y-9848612D01*
X30896137Y-9626241D01*
X30696259Y-9426363D01*
X30461227Y-9269320D01*
X30200074Y-9161147D01*
X29922835Y-9106000D01*
X29640165Y-9106000D01*
X29362926Y-9161147D01*
X29101773Y-9269320D01*
X28866741Y-9426363D01*
X28666863Y-9626241D01*
X28509820Y-9861273D01*
X28401647Y-10122426D01*
X28346500Y-10399665D01*
X28346500Y-10682335D01*
X28401647Y-10959574D01*
X28509820Y-11220727D01*
X28666863Y-11455759D01*
X28866741Y-11655637D01*
X29101773Y-11812680D01*
X29362926Y-11920853D01*
X29640165Y-11976000D01*
X29922835Y-11976000D01*
X30200074Y-11920853D01*
X30461227Y-11812680D01*
X30696259Y-11655637D01*
X30896137Y-11455759D01*
X30946854Y-11379856D01*
X30941647Y-11392426D01*
X30886500Y-11669665D01*
X30886500Y-11952335D01*
X30941647Y-12229574D01*
X31049820Y-12490727D01*
X31206863Y-12725759D01*
X31406741Y-12925637D01*
X31607369Y-13059692D01*
X31579986Y-13074329D01*
X31508403Y-13318298D01*
X32321500Y-14131395D01*
X33134597Y-13318298D01*
X33063014Y-13074329D01*
X33034159Y-13060676D01*
X33236259Y-12925637D01*
X33436137Y-12725759D01*
X33593180Y-12490727D01*
X33701353Y-12229574D01*
X33756500Y-11952335D01*
X33756500Y-11669665D01*
X33701353Y-11392426D01*
X33593180Y-11131273D01*
X33436137Y-10896241D01*
X33236259Y-10696363D01*
X33083009Y-10593965D01*
X33299759Y-10449137D01*
X33499637Y-10249259D01*
X33656680Y-10014227D01*
X33764853Y-9753074D01*
X33779515Y-9679362D01*
X33781630Y-9681477D01*
X33897903Y-9565204D01*
X33969486Y-9809171D01*
X34224996Y-9930071D01*
X34499184Y-9998800D01*
X34781512Y-10012717D01*
X34947286Y-9988155D01*
X34689773Y-10094820D01*
X34454741Y-10251863D01*
X34254863Y-10451741D01*
X34097820Y-10686773D01*
X33989647Y-10947926D01*
X33934500Y-11225165D01*
X33934500Y-11507835D01*
X33989647Y-11785074D01*
X34097820Y-12046227D01*
X34254863Y-12281259D01*
X34454741Y-12481137D01*
X34689773Y-12638180D01*
X34950926Y-12746353D01*
X35228165Y-12801500D01*
X35510835Y-12801500D01*
X35788074Y-12746353D01*
X36049227Y-12638180D01*
X36284259Y-12481137D01*
X36484137Y-12281259D01*
X36641180Y-12046227D01*
X36749353Y-11785074D01*
X36804500Y-11507835D01*
X36804500Y-11225165D01*
X36749353Y-10947926D01*
X36641180Y-10686773D01*
X36484137Y-10451741D01*
X36284259Y-10251863D01*
X36049227Y-10094820D01*
X35788074Y-9986647D01*
X35510835Y-9931500D01*
X35228165Y-9931500D01*
X35102473Y-9956502D01*
X35327292Y-9876103D01*
X35452514Y-9809171D01*
X35524097Y-9565202D01*
X34711000Y-8752105D01*
X34696858Y-8766248D01*
X34517253Y-8586643D01*
X34531395Y-8572500D01*
X34517253Y-8558358D01*
X34696858Y-8378753D01*
X34711000Y-8392895D01*
X34725143Y-8378753D01*
X34904748Y-8558358D01*
X34890605Y-8572500D01*
X35703702Y-9385597D01*
X35947671Y-9314014D01*
X35961324Y-9285159D01*
X36096363Y-9487259D01*
X36296241Y-9687137D01*
X36531273Y-9844180D01*
X36792426Y-9952353D01*
X37069665Y-10007500D01*
X37352335Y-10007500D01*
X37629574Y-9952353D01*
X37890727Y-9844180D01*
X38038501Y-9745441D01*
X38038500Y-30972200D01*
X36553572Y-32457129D01*
X36553572Y-31185000D01*
X36541312Y-31060518D01*
X36505002Y-30940820D01*
X36446037Y-30830506D01*
X36366685Y-30733815D01*
X36269994Y-30654463D01*
X36159680Y-30595498D01*
X36039982Y-30559188D01*
X35915500Y-30546928D01*
X34315500Y-30546928D01*
X34191018Y-30559188D01*
X34071320Y-30595498D01*
X33961006Y-30654463D01*
X33864315Y-30733815D01*
X33784963Y-30830506D01*
X33725998Y-30940820D01*
X33689688Y-31060518D01*
X33687919Y-31078483D01*
X33595107Y-30965392D01*
X33376600Y-30786068D01*
X33127307Y-30652818D01*
X32856808Y-30570764D01*
X32575500Y-30543057D01*
X32294191Y-30570764D01*
X32023692Y-30652818D01*
X31774399Y-30786068D01*
X31555892Y-30965393D01*
X31376568Y-31183900D01*
X31308235Y-31311742D01*
X31158101Y-31082161D01*
X30960395Y-30880500D01*
X30727146Y-30721285D01*
X30467318Y-30610633D01*
X30384539Y-30593096D01*
X30162500Y-30715085D01*
X30162500Y-32258000D01*
X30182500Y-32258000D01*
X30182500Y-32512000D01*
X30162500Y-32512000D01*
X30162500Y-34054915D01*
X30384539Y-34176904D01*
X30467318Y-34159367D01*
X30727146Y-34048715D01*
X30960395Y-33889500D01*
X31158101Y-33687839D01*
X31308235Y-33458259D01*
X31376568Y-33586101D01*
X31555893Y-33804608D01*
X31687546Y-33912653D01*
X31121386Y-34478812D01*
X30938835Y-34442500D01*
X30656165Y-34442500D01*
X30378926Y-34497647D01*
X30117773Y-34605820D01*
X29882741Y-34762863D01*
X29682863Y-34962741D01*
X29525820Y-35197773D01*
X29417647Y-35458926D01*
X29362500Y-35736165D01*
X29362500Y-36018835D01*
X29417647Y-36296074D01*
X29525820Y-36557227D01*
X29682863Y-36792259D01*
X29882741Y-36992137D01*
X30117773Y-37149180D01*
X30378926Y-37257353D01*
X30656165Y-37312500D01*
X30938835Y-37312500D01*
X31216074Y-37257353D01*
X31477227Y-37149180D01*
X31712259Y-36992137D01*
X31912137Y-36792259D01*
X32069180Y-36557227D01*
X32177353Y-36296074D01*
X32232500Y-36018835D01*
X32232500Y-35736165D01*
X32196188Y-35553614D01*
X33086503Y-34663299D01*
X33115501Y-34639501D01*
X33210474Y-34523776D01*
X33281046Y-34391747D01*
X33324503Y-34248486D01*
X33335500Y-34136833D01*
X33335500Y-34136825D01*
X33339176Y-34099500D01*
X33335500Y-34062175D01*
X33335500Y-34005901D01*
X33376601Y-33983932D01*
X33595108Y-33804608D01*
X33687919Y-33691518D01*
X33689688Y-33709482D01*
X33725998Y-33829180D01*
X33784963Y-33939494D01*
X33864315Y-34036185D01*
X33961006Y-34115537D01*
X34071320Y-34174502D01*
X34191018Y-34210812D01*
X34315500Y-34223072D01*
X34355501Y-34223072D01*
X34355501Y-34465309D01*
X34240835Y-34442500D01*
X33958165Y-34442500D01*
X33680926Y-34497647D01*
X33419773Y-34605820D01*
X33184741Y-34762863D01*
X32984863Y-34962741D01*
X32827820Y-35197773D01*
X32719647Y-35458926D01*
X32664500Y-35736165D01*
X32664500Y-36018835D01*
X32719647Y-36296074D01*
X32827820Y-36557227D01*
X32863329Y-36610369D01*
X29188058Y-40285640D01*
X29189717Y-40251988D01*
X29148287Y-39972370D01*
X29053103Y-39706208D01*
X28986171Y-39580986D01*
X28742202Y-39509403D01*
X27929105Y-40322500D01*
X27943248Y-40336643D01*
X27763643Y-40516248D01*
X27749500Y-40502105D01*
X26936403Y-41315202D01*
X27007986Y-41559171D01*
X27263496Y-41680071D01*
X27537684Y-41748800D01*
X27716104Y-41757595D01*
X25025387Y-44448312D01*
X24842835Y-44412000D01*
X24560165Y-44412000D01*
X24282926Y-44467147D01*
X24021773Y-44575320D01*
X23786741Y-44732363D01*
X23586863Y-44932241D01*
X23429820Y-45167273D01*
X23321647Y-45428426D01*
X23266500Y-45705665D01*
X23266500Y-45988335D01*
X23321647Y-46265574D01*
X23429820Y-46526727D01*
X23586863Y-46761759D01*
X23786741Y-46961637D01*
X24021773Y-47118680D01*
X24055890Y-47132812D01*
X23977241Y-47185363D01*
X23777363Y-47385241D01*
X23620320Y-47620273D01*
X23512147Y-47881426D01*
X23457000Y-48158665D01*
X23457000Y-48441335D01*
X23512147Y-48718574D01*
X23620320Y-48979727D01*
X23777363Y-49214759D01*
X23977241Y-49414637D01*
X24179827Y-49550000D01*
X23977241Y-49685363D01*
X23777363Y-49885241D01*
X23620320Y-50120273D01*
X23512147Y-50381426D01*
X23457000Y-50658665D01*
X23457000Y-50941335D01*
X23512147Y-51218574D01*
X23620320Y-51479727D01*
X23777363Y-51714759D01*
X23977241Y-51914637D01*
X24212273Y-52071680D01*
X24473426Y-52179853D01*
X24750665Y-52235000D01*
X25033335Y-52235000D01*
X25310574Y-52179853D01*
X25571727Y-52071680D01*
X25806759Y-51914637D01*
X26006637Y-51714759D01*
X26163680Y-51479727D01*
X26271853Y-51218574D01*
X26327000Y-50941335D01*
X26327000Y-50686676D01*
X26369647Y-50901074D01*
X26477820Y-51162227D01*
X26634863Y-51397259D01*
X26834741Y-51597137D01*
X27069773Y-51754180D01*
X27330926Y-51862353D01*
X27608165Y-51917500D01*
X27890835Y-51917500D01*
X28168074Y-51862353D01*
X28429227Y-51754180D01*
X28664259Y-51597137D01*
X28864137Y-51397259D01*
X29021180Y-51162227D01*
X29129353Y-50901074D01*
X29184500Y-50623835D01*
X29184500Y-50341165D01*
X29129353Y-50063926D01*
X29021180Y-49802773D01*
X28864137Y-49567741D01*
X28664259Y-49367863D01*
X28429227Y-49210820D01*
X28168074Y-49102647D01*
X27890835Y-49047500D01*
X27608165Y-49047500D01*
X27330926Y-49102647D01*
X27069773Y-49210820D01*
X26834741Y-49367863D01*
X26634863Y-49567741D01*
X26477820Y-49802773D01*
X26369647Y-50063926D01*
X26314500Y-50341165D01*
X26314500Y-50595824D01*
X26271853Y-50381426D01*
X26163680Y-50120273D01*
X26006637Y-49885241D01*
X25806759Y-49685363D01*
X25604173Y-49550000D01*
X25806759Y-49414637D01*
X26006637Y-49214759D01*
X26163680Y-48979727D01*
X26271853Y-48718574D01*
X26327000Y-48441335D01*
X26327000Y-48158665D01*
X26271853Y-47881426D01*
X26163680Y-47620273D01*
X26006637Y-47385241D01*
X25806759Y-47185363D01*
X25571727Y-47028320D01*
X25537610Y-47014188D01*
X25616259Y-46961637D01*
X25816137Y-46761759D01*
X25973180Y-46526727D01*
X26081353Y-46265574D01*
X26136500Y-45988335D01*
X26136500Y-45705665D01*
X26100188Y-45523113D01*
X31676013Y-39947289D01*
X31676013Y-44898644D01*
X31477227Y-44765820D01*
X31216074Y-44657647D01*
X30938835Y-44602500D01*
X30656165Y-44602500D01*
X30378926Y-44657647D01*
X30117773Y-44765820D01*
X29882741Y-44922863D01*
X29682863Y-45122741D01*
X29525820Y-45357773D01*
X29417647Y-45618926D01*
X29362500Y-45896165D01*
X29362500Y-46178835D01*
X29417647Y-46456074D01*
X29525820Y-46717227D01*
X29682863Y-46952259D01*
X29882741Y-47152137D01*
X29956939Y-47201715D01*
X29946241Y-47208863D01*
X29746363Y-47408741D01*
X29589320Y-47643773D01*
X29481147Y-47904926D01*
X29426000Y-48182165D01*
X29426000Y-48464835D01*
X29481147Y-48742074D01*
X29589320Y-49003227D01*
X29746363Y-49238259D01*
X29946241Y-49438137D01*
X30181273Y-49595180D01*
X30442426Y-49703353D01*
X30719665Y-49758500D01*
X31002335Y-49758500D01*
X31279574Y-49703353D01*
X31540727Y-49595180D01*
X31676013Y-49504785D01*
X31676012Y-55059209D01*
X29704305Y-53087502D01*
X29680502Y-53058498D01*
X29564777Y-52963525D01*
X29432748Y-52892953D01*
X29289487Y-52849496D01*
X29177834Y-52838499D01*
X29177823Y-52838499D01*
X29140501Y-52834823D01*
X29103179Y-52838499D01*
X27157821Y-52838499D01*
X27120498Y-52834823D01*
X27083175Y-52838499D01*
X27083166Y-52838499D01*
X26971513Y-52849496D01*
X26828252Y-52892953D01*
X26696223Y-52963525D01*
X26580498Y-53058498D01*
X26556695Y-53087502D01*
X26212266Y-53431931D01*
X25994489Y-53341725D01*
X25726911Y-53288500D01*
X25454089Y-53288500D01*
X25186511Y-53341725D01*
X24934457Y-53446129D01*
X24707614Y-53597701D01*
X24514701Y-53790614D01*
X24363129Y-54017457D01*
X24320500Y-54120373D01*
X24277871Y-54017457D01*
X24126299Y-53790614D01*
X23933386Y-53597701D01*
X23706543Y-53446129D01*
X23454489Y-53341725D01*
X23186911Y-53288500D01*
X22914089Y-53288500D01*
X22646511Y-53341725D01*
X22394457Y-53446129D01*
X22285488Y-53518940D01*
X22285488Y-42214810D01*
X22289164Y-42177487D01*
X22285488Y-42140164D01*
X22285488Y-42140155D01*
X22274491Y-42028502D01*
X22256264Y-41968414D01*
X22303000Y-41733456D01*
X22303000Y-41466544D01*
X22250928Y-41204761D01*
X22148785Y-40958167D01*
X22000497Y-40736238D01*
X21946831Y-40682572D01*
X22236391Y-40393012D01*
X26309283Y-40393012D01*
X26350713Y-40672630D01*
X26445897Y-40938792D01*
X26512829Y-41064014D01*
X26756798Y-41135597D01*
X27569895Y-40322500D01*
X27555753Y-40308358D01*
X27735358Y-40128753D01*
X27749500Y-40142895D01*
X28562597Y-39329798D01*
X28532755Y-39228092D01*
X28604477Y-39156370D01*
X28488204Y-39040097D01*
X28732171Y-38968514D01*
X28853071Y-38713004D01*
X28921800Y-38438816D01*
X28935717Y-38156488D01*
X28894287Y-37876870D01*
X28799103Y-37610708D01*
X28732171Y-37485486D01*
X28488202Y-37413903D01*
X27675105Y-38227000D01*
X27689248Y-38241143D01*
X27509643Y-38420748D01*
X27495500Y-38406605D01*
X26682403Y-39219702D01*
X26712245Y-39321408D01*
X26640523Y-39393130D01*
X26756796Y-39509403D01*
X26512829Y-39580986D01*
X26391929Y-39836496D01*
X26323200Y-40110684D01*
X26309283Y-40393012D01*
X22236391Y-40393012D01*
X22504004Y-40125400D01*
X22533002Y-40101602D01*
X22589692Y-40032525D01*
X22627975Y-39985878D01*
X22698547Y-39853848D01*
X22702455Y-39840964D01*
X22742004Y-39710587D01*
X22753001Y-39598934D01*
X22753001Y-39598924D01*
X22756677Y-39561601D01*
X22753001Y-39524278D01*
X22753001Y-38297512D01*
X26055283Y-38297512D01*
X26096713Y-38577130D01*
X26191897Y-38843292D01*
X26258829Y-38968514D01*
X26502798Y-39040097D01*
X27315895Y-38227000D01*
X26502798Y-37413903D01*
X26258829Y-37485486D01*
X26137929Y-37740996D01*
X26069200Y-38015184D01*
X26055283Y-38297512D01*
X22753001Y-38297512D01*
X22753001Y-34813302D01*
X23302812Y-35363114D01*
X23266500Y-35545665D01*
X23266500Y-35828335D01*
X23321647Y-36105574D01*
X23429820Y-36366727D01*
X23586863Y-36601759D01*
X23786741Y-36801637D01*
X24021773Y-36958680D01*
X24282926Y-37066853D01*
X24560165Y-37122000D01*
X24842835Y-37122000D01*
X25120074Y-37066853D01*
X25381227Y-36958680D01*
X25616259Y-36801637D01*
X25816137Y-36601759D01*
X25973180Y-36366727D01*
X26081353Y-36105574D01*
X26094522Y-36039371D01*
X26115647Y-36145574D01*
X26223820Y-36406727D01*
X26380863Y-36641759D01*
X26580741Y-36841637D01*
X26781369Y-36975692D01*
X26753986Y-36990329D01*
X26682403Y-37234298D01*
X27495500Y-38047395D01*
X28308597Y-37234298D01*
X28237014Y-36990329D01*
X28208159Y-36976676D01*
X28410259Y-36841637D01*
X28610137Y-36641759D01*
X28767180Y-36406727D01*
X28875353Y-36145574D01*
X28930500Y-35868335D01*
X28930500Y-35585665D01*
X28875353Y-35308426D01*
X28767180Y-35047273D01*
X28610137Y-34812241D01*
X28410259Y-34612363D01*
X28175227Y-34455320D01*
X27914074Y-34347147D01*
X27636835Y-34292000D01*
X27354165Y-34292000D01*
X27076926Y-34347147D01*
X26815773Y-34455320D01*
X26580741Y-34612363D01*
X26380863Y-34812241D01*
X26223820Y-35047273D01*
X26115647Y-35308426D01*
X26102478Y-35374629D01*
X26081353Y-35268426D01*
X25973180Y-35007273D01*
X25816137Y-34772241D01*
X25616259Y-34572363D01*
X25381227Y-34415320D01*
X25120074Y-34307147D01*
X24842835Y-34252000D01*
X24560165Y-34252000D01*
X24377614Y-34288312D01*
X23635670Y-33546368D01*
X23682765Y-33458259D01*
X23832899Y-33687839D01*
X24030605Y-33889500D01*
X24263854Y-34048715D01*
X24523682Y-34159367D01*
X24606461Y-34176904D01*
X24828500Y-34054915D01*
X24828500Y-32512000D01*
X24808500Y-32512000D01*
X24808500Y-32258000D01*
X24828500Y-32258000D01*
X24828500Y-30715085D01*
X25082500Y-30715085D01*
X25082500Y-32258000D01*
X25102500Y-32258000D01*
X25102500Y-32512000D01*
X25082500Y-32512000D01*
X25082500Y-34054915D01*
X25304539Y-34176904D01*
X25387318Y-34159367D01*
X25647146Y-34048715D01*
X25880395Y-33889500D01*
X26078101Y-33687839D01*
X26228235Y-33458259D01*
X26296568Y-33586101D01*
X26475893Y-33804608D01*
X26694400Y-33983932D01*
X26943693Y-34117182D01*
X27214192Y-34199236D01*
X27495500Y-34226943D01*
X27776809Y-34199236D01*
X28047308Y-34117182D01*
X28296601Y-33983932D01*
X28515108Y-33804608D01*
X28694432Y-33586101D01*
X28762765Y-33458259D01*
X28912899Y-33687839D01*
X29110605Y-33889500D01*
X29343854Y-34048715D01*
X29603682Y-34159367D01*
X29686461Y-34176904D01*
X29908500Y-34054915D01*
X29908500Y-32512000D01*
X29888500Y-32512000D01*
X29888500Y-32258000D01*
X29908500Y-32258000D01*
X29908500Y-30715085D01*
X29686461Y-30593096D01*
X29603682Y-30610633D01*
X29343854Y-30721285D01*
X29110605Y-30880500D01*
X28912899Y-31082161D01*
X28762765Y-31311741D01*
X28694432Y-31183899D01*
X28515107Y-30965392D01*
X28296600Y-30786068D01*
X28047307Y-30652818D01*
X27776808Y-30570764D01*
X27495500Y-30543057D01*
X27214191Y-30570764D01*
X26943692Y-30652818D01*
X26694399Y-30786068D01*
X26475892Y-30965393D01*
X26296568Y-31183900D01*
X26228235Y-31311742D01*
X26078101Y-31082161D01*
X25880395Y-30880500D01*
X25647146Y-30721285D01*
X25387318Y-30610633D01*
X25304539Y-30593096D01*
X25082500Y-30715085D01*
X24828500Y-30715085D01*
X24606461Y-30593096D01*
X24523682Y-30610633D01*
X24263854Y-30721285D01*
X24030605Y-30880500D01*
X23832899Y-31082161D01*
X23682765Y-31311741D01*
X23614432Y-31183899D01*
X23435107Y-30965392D01*
X23216600Y-30786068D01*
X23060459Y-30702609D01*
X24018155Y-29744914D01*
X24084238Y-29810997D01*
X24306167Y-29959285D01*
X24552761Y-30061428D01*
X24814544Y-30113500D01*
X25081456Y-30113500D01*
X25343239Y-30061428D01*
X25589833Y-29959285D01*
X25811762Y-29810997D01*
X26000497Y-29622262D01*
X26069828Y-29518500D01*
X26366172Y-29518500D01*
X26435503Y-29622262D01*
X26624238Y-29810997D01*
X26846167Y-29959285D01*
X27092761Y-30061428D01*
X27354544Y-30113500D01*
X27621456Y-30113500D01*
X27883239Y-30061428D01*
X28129833Y-29959285D01*
X28351762Y-29810997D01*
X28540497Y-29622262D01*
X28688785Y-29400333D01*
X28758000Y-29233234D01*
X28827215Y-29400333D01*
X28975503Y-29622262D01*
X29164238Y-29810997D01*
X29386167Y-29959285D01*
X29632761Y-30061428D01*
X29894544Y-30113500D01*
X30161456Y-30113500D01*
X30423239Y-30061428D01*
X30669833Y-29959285D01*
X30891762Y-29810997D01*
X31080497Y-29622262D01*
X31228785Y-29400333D01*
X31330928Y-29153739D01*
X31383000Y-28891956D01*
X31383000Y-28625044D01*
X31330928Y-28363261D01*
X31228785Y-28116667D01*
X31080497Y-27894738D01*
X30891762Y-27706003D01*
X30669833Y-27557715D01*
X30423239Y-27455572D01*
X30161456Y-27403500D01*
X29894544Y-27403500D01*
X29632761Y-27455572D01*
X29386167Y-27557715D01*
X29164238Y-27706003D01*
X28975503Y-27894738D01*
X28827215Y-28116667D01*
X28758000Y-28283766D01*
X28688785Y-28116667D01*
X28540497Y-27894738D01*
X28351762Y-27706003D01*
X28129833Y-27557715D01*
X27883239Y-27455572D01*
X27621456Y-27403500D01*
X27354544Y-27403500D01*
X27092761Y-27455572D01*
X26846167Y-27557715D01*
X26624238Y-27706003D01*
X26435503Y-27894738D01*
X26366172Y-27998500D01*
X26069828Y-27998500D01*
X26000497Y-27894738D01*
X25934413Y-27828654D01*
X26591514Y-27171554D01*
X26620511Y-27147757D01*
X26715484Y-27032032D01*
X26786056Y-26900003D01*
X26829513Y-26756742D01*
X26840510Y-26645089D01*
X26840510Y-26645081D01*
X26844186Y-26607756D01*
X26840510Y-26570431D01*
X26840510Y-26442029D01*
X26943693Y-26497182D01*
X27214192Y-26579236D01*
X27495500Y-26606943D01*
X27776809Y-26579236D01*
X28047308Y-26497182D01*
X28296601Y-26363932D01*
X28515108Y-26184608D01*
X28694432Y-25966101D01*
X28762765Y-25838259D01*
X28912899Y-26067839D01*
X29110605Y-26269500D01*
X29343854Y-26428715D01*
X29603682Y-26539367D01*
X29686461Y-26556904D01*
X29908500Y-26434915D01*
X29908500Y-24892000D01*
X29888500Y-24892000D01*
X29888500Y-24638000D01*
X29908500Y-24638000D01*
X29908500Y-24618000D01*
X30162500Y-24618000D01*
X30162500Y-24638000D01*
X30182500Y-24638000D01*
X30182500Y-24892000D01*
X30162500Y-24892000D01*
X30162500Y-26434915D01*
X30384539Y-26556904D01*
X30467318Y-26539367D01*
X30727146Y-26428715D01*
X30960395Y-26269500D01*
X31158101Y-26067839D01*
X31308235Y-25838259D01*
X31376568Y-25966101D01*
X31555893Y-26184608D01*
X31774400Y-26363932D01*
X32023693Y-26497182D01*
X32294192Y-26579236D01*
X32575500Y-26606943D01*
X32856809Y-26579236D01*
X33127308Y-26497182D01*
X33376601Y-26363932D01*
X33595108Y-26184608D01*
X33774432Y-25966101D01*
X33845500Y-25833142D01*
X33916568Y-25966101D01*
X34095893Y-26184608D01*
X34314400Y-26363932D01*
X34563693Y-26497182D01*
X34834192Y-26579236D01*
X35115500Y-26606943D01*
X35396809Y-26579236D01*
X35667308Y-26497182D01*
X35916601Y-26363932D01*
X36135108Y-26184608D01*
X36314432Y-25966101D01*
X36447682Y-25716808D01*
X36529736Y-25446309D01*
X36550500Y-25235491D01*
X36550500Y-24294508D01*
X36529736Y-24083691D01*
X36447682Y-23813192D01*
X36314432Y-23563899D01*
X36135107Y-23345392D01*
X35916600Y-23166068D01*
X35667307Y-23032818D01*
X35432200Y-22961500D01*
X35510835Y-22961500D01*
X35788074Y-22906353D01*
X36049227Y-22798180D01*
X36284259Y-22641137D01*
X36484137Y-22441259D01*
X36641180Y-22206227D01*
X36749353Y-21945074D01*
X36804500Y-21667835D01*
X36804500Y-21385165D01*
X36749353Y-21107926D01*
X36641180Y-20846773D01*
X36484137Y-20611741D01*
X36284259Y-20411863D01*
X36049227Y-20254820D01*
X35788074Y-20146647D01*
X35510835Y-20091500D01*
X35228165Y-20091500D01*
X34950926Y-20146647D01*
X34689773Y-20254820D01*
X34454741Y-20411863D01*
X34254863Y-20611741D01*
X34097820Y-20846773D01*
X33989647Y-21107926D01*
X33934500Y-21385165D01*
X33934500Y-21667835D01*
X33989647Y-21945074D01*
X34097820Y-22206227D01*
X34254863Y-22441259D01*
X34454741Y-22641137D01*
X34689773Y-22798180D01*
X34950926Y-22906353D01*
X35061593Y-22928366D01*
X34834191Y-22950764D01*
X34563692Y-23032818D01*
X34494893Y-23069592D01*
X34154294Y-22728993D01*
X34130491Y-22699989D01*
X34014766Y-22605016D01*
X33882737Y-22534444D01*
X33739476Y-22490987D01*
X33627823Y-22479990D01*
X33627812Y-22479990D01*
X33590490Y-22476314D01*
X33553168Y-22479990D01*
X33429857Y-22479990D01*
X33453977Y-22455870D01*
X33337704Y-22339597D01*
X33581671Y-22268014D01*
X33702571Y-22012504D01*
X33771300Y-21738316D01*
X33785217Y-21455988D01*
X33743787Y-21176370D01*
X33648603Y-20910208D01*
X33581671Y-20784986D01*
X33337702Y-20713403D01*
X32524605Y-21526500D01*
X32538748Y-21540643D01*
X32359143Y-21720248D01*
X32345000Y-21706105D01*
X32330858Y-21720248D01*
X32151253Y-21540643D01*
X32165395Y-21526500D01*
X31352298Y-20713403D01*
X31108329Y-20784986D01*
X31094676Y-20813841D01*
X30959637Y-20611741D01*
X30759759Y-20411863D01*
X30685561Y-20362285D01*
X30696259Y-20355137D01*
X30818194Y-20233202D01*
X31468403Y-20233202D01*
X31539986Y-20477171D01*
X31547478Y-20480716D01*
X31531903Y-20533798D01*
X32345000Y-21346895D01*
X33158097Y-20533798D01*
X33086514Y-20289829D01*
X33079022Y-20286284D01*
X33094597Y-20233202D01*
X32281500Y-19420105D01*
X31468403Y-20233202D01*
X30818194Y-20233202D01*
X30896137Y-20155259D01*
X31030192Y-19954631D01*
X31044829Y-19982014D01*
X31288798Y-20053597D01*
X32101895Y-19240500D01*
X32461105Y-19240500D01*
X33274202Y-20053597D01*
X33518171Y-19982014D01*
X33639071Y-19726504D01*
X33707800Y-19452316D01*
X33721717Y-19169988D01*
X33680287Y-18890370D01*
X33585103Y-18624208D01*
X33518171Y-18498986D01*
X33274202Y-18427403D01*
X32461105Y-19240500D01*
X32101895Y-19240500D01*
X31288798Y-18427403D01*
X31044829Y-18498986D01*
X31031176Y-18527841D01*
X30896137Y-18325741D01*
X30696259Y-18125863D01*
X30653811Y-18097500D01*
X30696259Y-18069137D01*
X30818194Y-17947202D01*
X31468403Y-17947202D01*
X31512502Y-18097500D01*
X31468403Y-18247798D01*
X32281500Y-19060895D01*
X33094597Y-18247798D01*
X33050498Y-18097500D01*
X33094597Y-17947202D01*
X32281500Y-17134105D01*
X31468403Y-17947202D01*
X30818194Y-17947202D01*
X30896137Y-17869259D01*
X31030192Y-17668631D01*
X31044829Y-17696014D01*
X31288798Y-17767597D01*
X32101895Y-16954500D01*
X32461105Y-16954500D01*
X33274202Y-17767597D01*
X33518171Y-17696014D01*
X33639071Y-17440504D01*
X33707800Y-17166316D01*
X33721717Y-16883988D01*
X33680287Y-16604370D01*
X33585103Y-16338208D01*
X33518171Y-16212986D01*
X33274202Y-16141403D01*
X32461105Y-16954500D01*
X32101895Y-16954500D01*
X31288798Y-16141403D01*
X31044829Y-16212986D01*
X31031176Y-16241841D01*
X30896137Y-16039741D01*
X30818194Y-15961798D01*
X31468403Y-15961798D01*
X32281500Y-16774895D01*
X33094597Y-15961798D01*
X33023014Y-15717829D01*
X32862079Y-15641679D01*
X32937792Y-15614603D01*
X33063014Y-15547671D01*
X33134597Y-15303702D01*
X32321500Y-14490605D01*
X31508403Y-15303702D01*
X31579986Y-15547671D01*
X31740921Y-15623821D01*
X31665208Y-15650897D01*
X31539986Y-15717829D01*
X31468403Y-15961798D01*
X30818194Y-15961798D01*
X30696259Y-15839863D01*
X30461227Y-15682820D01*
X30200074Y-15574647D01*
X29922835Y-15519500D01*
X29640165Y-15519500D01*
X29362926Y-15574647D01*
X29101773Y-15682820D01*
X28866741Y-15839863D01*
X28666863Y-16039741D01*
X28509820Y-16274773D01*
X28401647Y-16535926D01*
X28346500Y-16813165D01*
X28346500Y-17095835D01*
X28401647Y-17373074D01*
X28509820Y-17634227D01*
X28666863Y-17869259D01*
X28866741Y-18069137D01*
X28909189Y-18097500D01*
X28866741Y-18125863D01*
X28666863Y-18325741D01*
X28509820Y-18560773D01*
X28401647Y-18821926D01*
X28346500Y-19099165D01*
X28346500Y-19381835D01*
X28401647Y-19659074D01*
X28509820Y-19920227D01*
X28666863Y-20155259D01*
X28866741Y-20355137D01*
X28940939Y-20404715D01*
X28930241Y-20411863D01*
X28730363Y-20611741D01*
X28573320Y-20846773D01*
X28465147Y-21107926D01*
X28410000Y-21385165D01*
X28410000Y-21667835D01*
X28465147Y-21945074D01*
X28573320Y-22206227D01*
X28730363Y-22441259D01*
X28769094Y-22479990D01*
X27832906Y-22479990D01*
X27911637Y-22401259D01*
X28068680Y-22166227D01*
X28176853Y-21905074D01*
X28232000Y-21627835D01*
X28232000Y-21345165D01*
X28176853Y-21067926D01*
X28068680Y-20806773D01*
X27911637Y-20571741D01*
X27711759Y-20371863D01*
X27511131Y-20237808D01*
X27538514Y-20223171D01*
X27610097Y-19979202D01*
X26797000Y-19166105D01*
X25983903Y-19979202D01*
X26055486Y-20223171D01*
X26084341Y-20236824D01*
X25882241Y-20371863D01*
X25682363Y-20571741D01*
X25525320Y-20806773D01*
X25417147Y-21067926D01*
X25362000Y-21345165D01*
X25362000Y-21627835D01*
X25417147Y-21905074D01*
X25525320Y-22166227D01*
X25682363Y-22401259D01*
X25882241Y-22601137D01*
X26117273Y-22758180D01*
X26343011Y-22851684D01*
X25906009Y-23288685D01*
X25756600Y-23166068D01*
X25507307Y-23032818D01*
X25236808Y-22950764D01*
X24955500Y-22923057D01*
X24674191Y-22950764D01*
X24403692Y-23032818D01*
X24154399Y-23166068D01*
X23935892Y-23345393D01*
X23756568Y-23563900D01*
X23685500Y-23696858D01*
X23614432Y-23563899D01*
X23435107Y-23345392D01*
X23216600Y-23166068D01*
X23175500Y-23144100D01*
X23175500Y-21799998D01*
X23222185Y-21761685D01*
X23301537Y-21664994D01*
X23360502Y-21554680D01*
X23396812Y-21434982D01*
X23409072Y-21310500D01*
X23409072Y-19710500D01*
X23396812Y-19586018D01*
X23360502Y-19466320D01*
X23301537Y-19356006D01*
X23222185Y-19259315D01*
X23125494Y-19179963D01*
X23015180Y-19120998D01*
X22919057Y-19091839D01*
X22953884Y-19057012D01*
X25356783Y-19057012D01*
X25398213Y-19336630D01*
X25493397Y-19602792D01*
X25560329Y-19728014D01*
X25804298Y-19799597D01*
X26617395Y-18986500D01*
X26976605Y-18986500D01*
X27789702Y-19799597D01*
X28033671Y-19728014D01*
X28154571Y-19472504D01*
X28223300Y-19198316D01*
X28237217Y-18915988D01*
X28195787Y-18636370D01*
X28100603Y-18370208D01*
X28033671Y-18244986D01*
X27789702Y-18173403D01*
X26976605Y-18986500D01*
X26617395Y-18986500D01*
X25804298Y-18173403D01*
X25560329Y-18244986D01*
X25439429Y-18500496D01*
X25370700Y-18774684D01*
X25356783Y-19057012D01*
X22953884Y-19057012D01*
X23085637Y-18925259D01*
X23242680Y-18690227D01*
X23350853Y-18429074D01*
X23406000Y-18151835D01*
X23406000Y-17993798D01*
X25983903Y-17993798D01*
X26797000Y-18806895D01*
X27610097Y-17993798D01*
X27538514Y-17749829D01*
X27283004Y-17628929D01*
X27008816Y-17560200D01*
X26726488Y-17546283D01*
X26446870Y-17587713D01*
X26180708Y-17682897D01*
X26055486Y-17749829D01*
X25983903Y-17993798D01*
X23406000Y-17993798D01*
X23406000Y-17869165D01*
X23350853Y-17591926D01*
X23242680Y-17330773D01*
X23085637Y-17095741D01*
X22885759Y-16895863D01*
X22650727Y-16738820D01*
X22389574Y-16630647D01*
X22112335Y-16575500D01*
X21829665Y-16575500D01*
X21651500Y-16610940D01*
X21651500Y-13638165D01*
X28346500Y-13638165D01*
X28346500Y-13920835D01*
X28401647Y-14198074D01*
X28509820Y-14459227D01*
X28666863Y-14694259D01*
X28866741Y-14894137D01*
X29101773Y-15051180D01*
X29362926Y-15159353D01*
X29640165Y-15214500D01*
X29922835Y-15214500D01*
X30200074Y-15159353D01*
X30461227Y-15051180D01*
X30696259Y-14894137D01*
X30896137Y-14694259D01*
X30921907Y-14655691D01*
X30922713Y-14661130D01*
X31017897Y-14927292D01*
X31084829Y-15052514D01*
X31328798Y-15124097D01*
X32141895Y-14311000D01*
X32501105Y-14311000D01*
X33314202Y-15124097D01*
X33558171Y-15052514D01*
X33679071Y-14797004D01*
X33747800Y-14522816D01*
X33761717Y-14240488D01*
X33720287Y-13960870D01*
X33625103Y-13694708D01*
X33558171Y-13569486D01*
X33314202Y-13497903D01*
X32501105Y-14311000D01*
X32141895Y-14311000D01*
X31328798Y-13497903D01*
X31196331Y-13536770D01*
X31161353Y-13360926D01*
X31053180Y-13099773D01*
X30896137Y-12864741D01*
X30696259Y-12664863D01*
X30461227Y-12507820D01*
X30200074Y-12399647D01*
X29922835Y-12344500D01*
X29640165Y-12344500D01*
X29362926Y-12399647D01*
X29101773Y-12507820D01*
X28866741Y-12664863D01*
X28666863Y-12864741D01*
X28509820Y-13099773D01*
X28401647Y-13360926D01*
X28346500Y-13638165D01*
X21651500Y-13638165D01*
X21651500Y-7680801D01*
X22267803Y-7064499D01*
X28390991Y-7064499D01*
X28346500Y-7288165D01*
%TA.AperFunction,Conductor*%
D28*
G36*
X28346500Y-7288165D02*
G01*
X28346500Y-7570835D01*
X28401647Y-7848074D01*
X28509820Y-8109227D01*
X28666863Y-8344259D01*
X28866741Y-8544137D01*
X29101773Y-8701180D01*
X29362926Y-8809353D01*
X29640165Y-8864500D01*
X29922835Y-8864500D01*
X30200074Y-8809353D01*
X30461227Y-8701180D01*
X30696259Y-8544137D01*
X30896137Y-8344259D01*
X31007016Y-8178316D01*
X31261582Y-8432882D01*
X31113320Y-8654773D01*
X31005147Y-8915926D01*
X30950000Y-9193165D01*
X30950000Y-9475835D01*
X31005147Y-9753074D01*
X31044720Y-9848612D01*
X30896137Y-9626241D01*
X30696259Y-9426363D01*
X30461227Y-9269320D01*
X30200074Y-9161147D01*
X29922835Y-9106000D01*
X29640165Y-9106000D01*
X29362926Y-9161147D01*
X29101773Y-9269320D01*
X28866741Y-9426363D01*
X28666863Y-9626241D01*
X28509820Y-9861273D01*
X28401647Y-10122426D01*
X28346500Y-10399665D01*
X28346500Y-10682335D01*
X28401647Y-10959574D01*
X28509820Y-11220727D01*
X28666863Y-11455759D01*
X28866741Y-11655637D01*
X29101773Y-11812680D01*
X29362926Y-11920853D01*
X29640165Y-11976000D01*
X29922835Y-11976000D01*
X30200074Y-11920853D01*
X30461227Y-11812680D01*
X30696259Y-11655637D01*
X30896137Y-11455759D01*
X30946854Y-11379856D01*
X30941647Y-11392426D01*
X30886500Y-11669665D01*
X30886500Y-11952335D01*
X30941647Y-12229574D01*
X31049820Y-12490727D01*
X31206863Y-12725759D01*
X31406741Y-12925637D01*
X31607369Y-13059692D01*
X31579986Y-13074329D01*
X31508403Y-13318298D01*
X32321500Y-14131395D01*
X33134597Y-13318298D01*
X33063014Y-13074329D01*
X33034159Y-13060676D01*
X33236259Y-12925637D01*
X33436137Y-12725759D01*
X33593180Y-12490727D01*
X33701353Y-12229574D01*
X33756500Y-11952335D01*
X33756500Y-11669665D01*
X33701353Y-11392426D01*
X33593180Y-11131273D01*
X33436137Y-10896241D01*
X33236259Y-10696363D01*
X33083009Y-10593965D01*
X33299759Y-10449137D01*
X33499637Y-10249259D01*
X33656680Y-10014227D01*
X33764853Y-9753074D01*
X33779515Y-9679362D01*
X33781630Y-9681477D01*
X33897903Y-9565204D01*
X33969486Y-9809171D01*
X34224996Y-9930071D01*
X34499184Y-9998800D01*
X34781512Y-10012717D01*
X34947286Y-9988155D01*
X34689773Y-10094820D01*
X34454741Y-10251863D01*
X34254863Y-10451741D01*
X34097820Y-10686773D01*
X33989647Y-10947926D01*
X33934500Y-11225165D01*
X33934500Y-11507835D01*
X33989647Y-11785074D01*
X34097820Y-12046227D01*
X34254863Y-12281259D01*
X34454741Y-12481137D01*
X34689773Y-12638180D01*
X34950926Y-12746353D01*
X35228165Y-12801500D01*
X35510835Y-12801500D01*
X35788074Y-12746353D01*
X36049227Y-12638180D01*
X36284259Y-12481137D01*
X36484137Y-12281259D01*
X36641180Y-12046227D01*
X36749353Y-11785074D01*
X36804500Y-11507835D01*
X36804500Y-11225165D01*
X36749353Y-10947926D01*
X36641180Y-10686773D01*
X36484137Y-10451741D01*
X36284259Y-10251863D01*
X36049227Y-10094820D01*
X35788074Y-9986647D01*
X35510835Y-9931500D01*
X35228165Y-9931500D01*
X35102473Y-9956502D01*
X35327292Y-9876103D01*
X35452514Y-9809171D01*
X35524097Y-9565202D01*
X34711000Y-8752105D01*
X34696858Y-8766248D01*
X34517253Y-8586643D01*
X34531395Y-8572500D01*
X34517253Y-8558358D01*
X34696858Y-8378753D01*
X34711000Y-8392895D01*
X34725143Y-8378753D01*
X34904748Y-8558358D01*
X34890605Y-8572500D01*
X35703702Y-9385597D01*
X35947671Y-9314014D01*
X35961324Y-9285159D01*
X36096363Y-9487259D01*
X36296241Y-9687137D01*
X36531273Y-9844180D01*
X36792426Y-9952353D01*
X37069665Y-10007500D01*
X37352335Y-10007500D01*
X37629574Y-9952353D01*
X37890727Y-9844180D01*
X38038501Y-9745441D01*
X38038500Y-30972200D01*
X36553572Y-32457129D01*
X36553572Y-31185000D01*
X36541312Y-31060518D01*
X36505002Y-30940820D01*
X36446037Y-30830506D01*
X36366685Y-30733815D01*
X36269994Y-30654463D01*
X36159680Y-30595498D01*
X36039982Y-30559188D01*
X35915500Y-30546928D01*
X34315500Y-30546928D01*
X34191018Y-30559188D01*
X34071320Y-30595498D01*
X33961006Y-30654463D01*
X33864315Y-30733815D01*
X33784963Y-30830506D01*
X33725998Y-30940820D01*
X33689688Y-31060518D01*
X33687919Y-31078483D01*
X33595107Y-30965392D01*
X33376600Y-30786068D01*
X33127307Y-30652818D01*
X32856808Y-30570764D01*
X32575500Y-30543057D01*
X32294191Y-30570764D01*
X32023692Y-30652818D01*
X31774399Y-30786068D01*
X31555892Y-30965393D01*
X31376568Y-31183900D01*
X31308235Y-31311742D01*
X31158101Y-31082161D01*
X30960395Y-30880500D01*
X30727146Y-30721285D01*
X30467318Y-30610633D01*
X30384539Y-30593096D01*
X30162500Y-30715085D01*
X30162500Y-32258000D01*
X30182500Y-32258000D01*
X30182500Y-32512000D01*
X30162500Y-32512000D01*
X30162500Y-34054915D01*
X30384539Y-34176904D01*
X30467318Y-34159367D01*
X30727146Y-34048715D01*
X30960395Y-33889500D01*
X31158101Y-33687839D01*
X31308235Y-33458259D01*
X31376568Y-33586101D01*
X31555893Y-33804608D01*
X31687546Y-33912653D01*
X31121386Y-34478812D01*
X30938835Y-34442500D01*
X30656165Y-34442500D01*
X30378926Y-34497647D01*
X30117773Y-34605820D01*
X29882741Y-34762863D01*
X29682863Y-34962741D01*
X29525820Y-35197773D01*
X29417647Y-35458926D01*
X29362500Y-35736165D01*
X29362500Y-36018835D01*
X29417647Y-36296074D01*
X29525820Y-36557227D01*
X29682863Y-36792259D01*
X29882741Y-36992137D01*
X30117773Y-37149180D01*
X30378926Y-37257353D01*
X30656165Y-37312500D01*
X30938835Y-37312500D01*
X31216074Y-37257353D01*
X31477227Y-37149180D01*
X31712259Y-36992137D01*
X31912137Y-36792259D01*
X32069180Y-36557227D01*
X32177353Y-36296074D01*
X32232500Y-36018835D01*
X32232500Y-35736165D01*
X32196188Y-35553614D01*
X33086503Y-34663299D01*
X33115501Y-34639501D01*
X33210474Y-34523776D01*
X33281046Y-34391747D01*
X33324503Y-34248486D01*
X33335500Y-34136833D01*
X33335500Y-34136825D01*
X33339176Y-34099500D01*
X33335500Y-34062175D01*
X33335500Y-34005901D01*
X33376601Y-33983932D01*
X33595108Y-33804608D01*
X33687919Y-33691518D01*
X33689688Y-33709482D01*
X33725998Y-33829180D01*
X33784963Y-33939494D01*
X33864315Y-34036185D01*
X33961006Y-34115537D01*
X34071320Y-34174502D01*
X34191018Y-34210812D01*
X34315500Y-34223072D01*
X34355501Y-34223072D01*
X34355501Y-34465309D01*
X34240835Y-34442500D01*
X33958165Y-34442500D01*
X33680926Y-34497647D01*
X33419773Y-34605820D01*
X33184741Y-34762863D01*
X32984863Y-34962741D01*
X32827820Y-35197773D01*
X32719647Y-35458926D01*
X32664500Y-35736165D01*
X32664500Y-36018835D01*
X32719647Y-36296074D01*
X32827820Y-36557227D01*
X32863329Y-36610369D01*
X29188058Y-40285640D01*
X29189717Y-40251988D01*
X29148287Y-39972370D01*
X29053103Y-39706208D01*
X28986171Y-39580986D01*
X28742202Y-39509403D01*
X27929105Y-40322500D01*
X27943248Y-40336643D01*
X27763643Y-40516248D01*
X27749500Y-40502105D01*
X26936403Y-41315202D01*
X27007986Y-41559171D01*
X27263496Y-41680071D01*
X27537684Y-41748800D01*
X27716104Y-41757595D01*
X25025387Y-44448312D01*
X24842835Y-44412000D01*
X24560165Y-44412000D01*
X24282926Y-44467147D01*
X24021773Y-44575320D01*
X23786741Y-44732363D01*
X23586863Y-44932241D01*
X23429820Y-45167273D01*
X23321647Y-45428426D01*
X23266500Y-45705665D01*
X23266500Y-45988335D01*
X23321647Y-46265574D01*
X23429820Y-46526727D01*
X23586863Y-46761759D01*
X23786741Y-46961637D01*
X24021773Y-47118680D01*
X24055890Y-47132812D01*
X23977241Y-47185363D01*
X23777363Y-47385241D01*
X23620320Y-47620273D01*
X23512147Y-47881426D01*
X23457000Y-48158665D01*
X23457000Y-48441335D01*
X23512147Y-48718574D01*
X23620320Y-48979727D01*
X23777363Y-49214759D01*
X23977241Y-49414637D01*
X24179827Y-49550000D01*
X23977241Y-49685363D01*
X23777363Y-49885241D01*
X23620320Y-50120273D01*
X23512147Y-50381426D01*
X23457000Y-50658665D01*
X23457000Y-50941335D01*
X23512147Y-51218574D01*
X23620320Y-51479727D01*
X23777363Y-51714759D01*
X23977241Y-51914637D01*
X24212273Y-52071680D01*
X24473426Y-52179853D01*
X24750665Y-52235000D01*
X25033335Y-52235000D01*
X25310574Y-52179853D01*
X25571727Y-52071680D01*
X25806759Y-51914637D01*
X26006637Y-51714759D01*
X26163680Y-51479727D01*
X26271853Y-51218574D01*
X26327000Y-50941335D01*
X26327000Y-50686676D01*
X26369647Y-50901074D01*
X26477820Y-51162227D01*
X26634863Y-51397259D01*
X26834741Y-51597137D01*
X27069773Y-51754180D01*
X27330926Y-51862353D01*
X27608165Y-51917500D01*
X27890835Y-51917500D01*
X28168074Y-51862353D01*
X28429227Y-51754180D01*
X28664259Y-51597137D01*
X28864137Y-51397259D01*
X29021180Y-51162227D01*
X29129353Y-50901074D01*
X29184500Y-50623835D01*
X29184500Y-50341165D01*
X29129353Y-50063926D01*
X29021180Y-49802773D01*
X28864137Y-49567741D01*
X28664259Y-49367863D01*
X28429227Y-49210820D01*
X28168074Y-49102647D01*
X27890835Y-49047500D01*
X27608165Y-49047500D01*
X27330926Y-49102647D01*
X27069773Y-49210820D01*
X26834741Y-49367863D01*
X26634863Y-49567741D01*
X26477820Y-49802773D01*
X26369647Y-50063926D01*
X26314500Y-50341165D01*
X26314500Y-50595824D01*
X26271853Y-50381426D01*
X26163680Y-50120273D01*
X26006637Y-49885241D01*
X25806759Y-49685363D01*
X25604173Y-49550000D01*
X25806759Y-49414637D01*
X26006637Y-49214759D01*
X26163680Y-48979727D01*
X26271853Y-48718574D01*
X26327000Y-48441335D01*
X26327000Y-48158665D01*
X26271853Y-47881426D01*
X26163680Y-47620273D01*
X26006637Y-47385241D01*
X25806759Y-47185363D01*
X25571727Y-47028320D01*
X25537610Y-47014188D01*
X25616259Y-46961637D01*
X25816137Y-46761759D01*
X25973180Y-46526727D01*
X26081353Y-46265574D01*
X26136500Y-45988335D01*
X26136500Y-45705665D01*
X26100188Y-45523113D01*
X31676013Y-39947289D01*
X31676013Y-44898644D01*
X31477227Y-44765820D01*
X31216074Y-44657647D01*
X30938835Y-44602500D01*
X30656165Y-44602500D01*
X30378926Y-44657647D01*
X30117773Y-44765820D01*
X29882741Y-44922863D01*
X29682863Y-45122741D01*
X29525820Y-45357773D01*
X29417647Y-45618926D01*
X29362500Y-45896165D01*
X29362500Y-46178835D01*
X29417647Y-46456074D01*
X29525820Y-46717227D01*
X29682863Y-46952259D01*
X29882741Y-47152137D01*
X29956939Y-47201715D01*
X29946241Y-47208863D01*
X29746363Y-47408741D01*
X29589320Y-47643773D01*
X29481147Y-47904926D01*
X29426000Y-48182165D01*
X29426000Y-48464835D01*
X29481147Y-48742074D01*
X29589320Y-49003227D01*
X29746363Y-49238259D01*
X29946241Y-49438137D01*
X30181273Y-49595180D01*
X30442426Y-49703353D01*
X30719665Y-49758500D01*
X31002335Y-49758500D01*
X31279574Y-49703353D01*
X31540727Y-49595180D01*
X31676013Y-49504785D01*
X31676012Y-55059209D01*
X29704305Y-53087502D01*
X29680502Y-53058498D01*
X29564777Y-52963525D01*
X29432748Y-52892953D01*
X29289487Y-52849496D01*
X29177834Y-52838499D01*
X29177823Y-52838499D01*
X29140501Y-52834823D01*
X29103179Y-52838499D01*
X27157821Y-52838499D01*
X27120498Y-52834823D01*
X27083175Y-52838499D01*
X27083166Y-52838499D01*
X26971513Y-52849496D01*
X26828252Y-52892953D01*
X26696223Y-52963525D01*
X26580498Y-53058498D01*
X26556695Y-53087502D01*
X26212266Y-53431931D01*
X25994489Y-53341725D01*
X25726911Y-53288500D01*
X25454089Y-53288500D01*
X25186511Y-53341725D01*
X24934457Y-53446129D01*
X24707614Y-53597701D01*
X24514701Y-53790614D01*
X24363129Y-54017457D01*
X24320500Y-54120373D01*
X24277871Y-54017457D01*
X24126299Y-53790614D01*
X23933386Y-53597701D01*
X23706543Y-53446129D01*
X23454489Y-53341725D01*
X23186911Y-53288500D01*
X22914089Y-53288500D01*
X22646511Y-53341725D01*
X22394457Y-53446129D01*
X22285488Y-53518940D01*
X22285488Y-42214810D01*
X22289164Y-42177487D01*
X22285488Y-42140164D01*
X22285488Y-42140155D01*
X22274491Y-42028502D01*
X22256264Y-41968414D01*
X22303000Y-41733456D01*
X22303000Y-41466544D01*
X22250928Y-41204761D01*
X22148785Y-40958167D01*
X22000497Y-40736238D01*
X21946831Y-40682572D01*
X22236391Y-40393012D01*
X26309283Y-40393012D01*
X26350713Y-40672630D01*
X26445897Y-40938792D01*
X26512829Y-41064014D01*
X26756798Y-41135597D01*
X27569895Y-40322500D01*
X27555753Y-40308358D01*
X27735358Y-40128753D01*
X27749500Y-40142895D01*
X28562597Y-39329798D01*
X28532755Y-39228092D01*
X28604477Y-39156370D01*
X28488204Y-39040097D01*
X28732171Y-38968514D01*
X28853071Y-38713004D01*
X28921800Y-38438816D01*
X28935717Y-38156488D01*
X28894287Y-37876870D01*
X28799103Y-37610708D01*
X28732171Y-37485486D01*
X28488202Y-37413903D01*
X27675105Y-38227000D01*
X27689248Y-38241143D01*
X27509643Y-38420748D01*
X27495500Y-38406605D01*
X26682403Y-39219702D01*
X26712245Y-39321408D01*
X26640523Y-39393130D01*
X26756796Y-39509403D01*
X26512829Y-39580986D01*
X26391929Y-39836496D01*
X26323200Y-40110684D01*
X26309283Y-40393012D01*
X22236391Y-40393012D01*
X22504004Y-40125400D01*
X22533002Y-40101602D01*
X22589692Y-40032525D01*
X22627975Y-39985878D01*
X22698547Y-39853848D01*
X22702455Y-39840964D01*
X22742004Y-39710587D01*
X22753001Y-39598934D01*
X22753001Y-39598924D01*
X22756677Y-39561601D01*
X22753001Y-39524278D01*
X22753001Y-38297512D01*
X26055283Y-38297512D01*
X26096713Y-38577130D01*
X26191897Y-38843292D01*
X26258829Y-38968514D01*
X26502798Y-39040097D01*
X27315895Y-38227000D01*
X26502798Y-37413903D01*
X26258829Y-37485486D01*
X26137929Y-37740996D01*
X26069200Y-38015184D01*
X26055283Y-38297512D01*
X22753001Y-38297512D01*
X22753001Y-34813302D01*
X23302812Y-35363114D01*
X23266500Y-35545665D01*
X23266500Y-35828335D01*
X23321647Y-36105574D01*
X23429820Y-36366727D01*
X23586863Y-36601759D01*
X23786741Y-36801637D01*
X24021773Y-36958680D01*
X24282926Y-37066853D01*
X24560165Y-37122000D01*
X24842835Y-37122000D01*
X25120074Y-37066853D01*
X25381227Y-36958680D01*
X25616259Y-36801637D01*
X25816137Y-36601759D01*
X25973180Y-36366727D01*
X26081353Y-36105574D01*
X26094522Y-36039371D01*
X26115647Y-36145574D01*
X26223820Y-36406727D01*
X26380863Y-36641759D01*
X26580741Y-36841637D01*
X26781369Y-36975692D01*
X26753986Y-36990329D01*
X26682403Y-37234298D01*
X27495500Y-38047395D01*
X28308597Y-37234298D01*
X28237014Y-36990329D01*
X28208159Y-36976676D01*
X28410259Y-36841637D01*
X28610137Y-36641759D01*
X28767180Y-36406727D01*
X28875353Y-36145574D01*
X28930500Y-35868335D01*
X28930500Y-35585665D01*
X28875353Y-35308426D01*
X28767180Y-35047273D01*
X28610137Y-34812241D01*
X28410259Y-34612363D01*
X28175227Y-34455320D01*
X27914074Y-34347147D01*
X27636835Y-34292000D01*
X27354165Y-34292000D01*
X27076926Y-34347147D01*
X26815773Y-34455320D01*
X26580741Y-34612363D01*
X26380863Y-34812241D01*
X26223820Y-35047273D01*
X26115647Y-35308426D01*
X26102478Y-35374629D01*
X26081353Y-35268426D01*
X25973180Y-35007273D01*
X25816137Y-34772241D01*
X25616259Y-34572363D01*
X25381227Y-34415320D01*
X25120074Y-34307147D01*
X24842835Y-34252000D01*
X24560165Y-34252000D01*
X24377614Y-34288312D01*
X23635670Y-33546368D01*
X23682765Y-33458259D01*
X23832899Y-33687839D01*
X24030605Y-33889500D01*
X24263854Y-34048715D01*
X24523682Y-34159367D01*
X24606461Y-34176904D01*
X24828500Y-34054915D01*
X24828500Y-32512000D01*
X24808500Y-32512000D01*
X24808500Y-32258000D01*
X24828500Y-32258000D01*
X24828500Y-30715085D01*
X25082500Y-30715085D01*
X25082500Y-32258000D01*
X25102500Y-32258000D01*
X25102500Y-32512000D01*
X25082500Y-32512000D01*
X25082500Y-34054915D01*
X25304539Y-34176904D01*
X25387318Y-34159367D01*
X25647146Y-34048715D01*
X25880395Y-33889500D01*
X26078101Y-33687839D01*
X26228235Y-33458259D01*
X26296568Y-33586101D01*
X26475893Y-33804608D01*
X26694400Y-33983932D01*
X26943693Y-34117182D01*
X27214192Y-34199236D01*
X27495500Y-34226943D01*
X27776809Y-34199236D01*
X28047308Y-34117182D01*
X28296601Y-33983932D01*
X28515108Y-33804608D01*
X28694432Y-33586101D01*
X28762765Y-33458259D01*
X28912899Y-33687839D01*
X29110605Y-33889500D01*
X29343854Y-34048715D01*
X29603682Y-34159367D01*
X29686461Y-34176904D01*
X29908500Y-34054915D01*
X29908500Y-32512000D01*
X29888500Y-32512000D01*
X29888500Y-32258000D01*
X29908500Y-32258000D01*
X29908500Y-30715085D01*
X29686461Y-30593096D01*
X29603682Y-30610633D01*
X29343854Y-30721285D01*
X29110605Y-30880500D01*
X28912899Y-31082161D01*
X28762765Y-31311741D01*
X28694432Y-31183899D01*
X28515107Y-30965392D01*
X28296600Y-30786068D01*
X28047307Y-30652818D01*
X27776808Y-30570764D01*
X27495500Y-30543057D01*
X27214191Y-30570764D01*
X26943692Y-30652818D01*
X26694399Y-30786068D01*
X26475892Y-30965393D01*
X26296568Y-31183900D01*
X26228235Y-31311742D01*
X26078101Y-31082161D01*
X25880395Y-30880500D01*
X25647146Y-30721285D01*
X25387318Y-30610633D01*
X25304539Y-30593096D01*
X25082500Y-30715085D01*
X24828500Y-30715085D01*
X24606461Y-30593096D01*
X24523682Y-30610633D01*
X24263854Y-30721285D01*
X24030605Y-30880500D01*
X23832899Y-31082161D01*
X23682765Y-31311741D01*
X23614432Y-31183899D01*
X23435107Y-30965392D01*
X23216600Y-30786068D01*
X23060459Y-30702609D01*
X24018155Y-29744914D01*
X24084238Y-29810997D01*
X24306167Y-29959285D01*
X24552761Y-30061428D01*
X24814544Y-30113500D01*
X25081456Y-30113500D01*
X25343239Y-30061428D01*
X25589833Y-29959285D01*
X25811762Y-29810997D01*
X26000497Y-29622262D01*
X26069828Y-29518500D01*
X26366172Y-29518500D01*
X26435503Y-29622262D01*
X26624238Y-29810997D01*
X26846167Y-29959285D01*
X27092761Y-30061428D01*
X27354544Y-30113500D01*
X27621456Y-30113500D01*
X27883239Y-30061428D01*
X28129833Y-29959285D01*
X28351762Y-29810997D01*
X28540497Y-29622262D01*
X28688785Y-29400333D01*
X28758000Y-29233234D01*
X28827215Y-29400333D01*
X28975503Y-29622262D01*
X29164238Y-29810997D01*
X29386167Y-29959285D01*
X29632761Y-30061428D01*
X29894544Y-30113500D01*
X30161456Y-30113500D01*
X30423239Y-30061428D01*
X30669833Y-29959285D01*
X30891762Y-29810997D01*
X31080497Y-29622262D01*
X31228785Y-29400333D01*
X31330928Y-29153739D01*
X31383000Y-28891956D01*
X31383000Y-28625044D01*
X31330928Y-28363261D01*
X31228785Y-28116667D01*
X31080497Y-27894738D01*
X30891762Y-27706003D01*
X30669833Y-27557715D01*
X30423239Y-27455572D01*
X30161456Y-27403500D01*
X29894544Y-27403500D01*
X29632761Y-27455572D01*
X29386167Y-27557715D01*
X29164238Y-27706003D01*
X28975503Y-27894738D01*
X28827215Y-28116667D01*
X28758000Y-28283766D01*
X28688785Y-28116667D01*
X28540497Y-27894738D01*
X28351762Y-27706003D01*
X28129833Y-27557715D01*
X27883239Y-27455572D01*
X27621456Y-27403500D01*
X27354544Y-27403500D01*
X27092761Y-27455572D01*
X26846167Y-27557715D01*
X26624238Y-27706003D01*
X26435503Y-27894738D01*
X26366172Y-27998500D01*
X26069828Y-27998500D01*
X26000497Y-27894738D01*
X25934413Y-27828654D01*
X26591514Y-27171554D01*
X26620511Y-27147757D01*
X26715484Y-27032032D01*
X26786056Y-26900003D01*
X26829513Y-26756742D01*
X26840510Y-26645089D01*
X26840510Y-26645081D01*
X26844186Y-26607756D01*
X26840510Y-26570431D01*
X26840510Y-26442029D01*
X26943693Y-26497182D01*
X27214192Y-26579236D01*
X27495500Y-26606943D01*
X27776809Y-26579236D01*
X28047308Y-26497182D01*
X28296601Y-26363932D01*
X28515108Y-26184608D01*
X28694432Y-25966101D01*
X28762765Y-25838259D01*
X28912899Y-26067839D01*
X29110605Y-26269500D01*
X29343854Y-26428715D01*
X29603682Y-26539367D01*
X29686461Y-26556904D01*
X29908500Y-26434915D01*
X29908500Y-24892000D01*
X29888500Y-24892000D01*
X29888500Y-24638000D01*
X29908500Y-24638000D01*
X29908500Y-24618000D01*
X30162500Y-24618000D01*
X30162500Y-24638000D01*
X30182500Y-24638000D01*
X30182500Y-24892000D01*
X30162500Y-24892000D01*
X30162500Y-26434915D01*
X30384539Y-26556904D01*
X30467318Y-26539367D01*
X30727146Y-26428715D01*
X30960395Y-26269500D01*
X31158101Y-26067839D01*
X31308235Y-25838259D01*
X31376568Y-25966101D01*
X31555893Y-26184608D01*
X31774400Y-26363932D01*
X32023693Y-26497182D01*
X32294192Y-26579236D01*
X32575500Y-26606943D01*
X32856809Y-26579236D01*
X33127308Y-26497182D01*
X33376601Y-26363932D01*
X33595108Y-26184608D01*
X33774432Y-25966101D01*
X33845500Y-25833142D01*
X33916568Y-25966101D01*
X34095893Y-26184608D01*
X34314400Y-26363932D01*
X34563693Y-26497182D01*
X34834192Y-26579236D01*
X35115500Y-26606943D01*
X35396809Y-26579236D01*
X35667308Y-26497182D01*
X35916601Y-26363932D01*
X36135108Y-26184608D01*
X36314432Y-25966101D01*
X36447682Y-25716808D01*
X36529736Y-25446309D01*
X36550500Y-25235491D01*
X36550500Y-24294508D01*
X36529736Y-24083691D01*
X36447682Y-23813192D01*
X36314432Y-23563899D01*
X36135107Y-23345392D01*
X35916600Y-23166068D01*
X35667307Y-23032818D01*
X35432200Y-22961500D01*
X35510835Y-22961500D01*
X35788074Y-22906353D01*
X36049227Y-22798180D01*
X36284259Y-22641137D01*
X36484137Y-22441259D01*
X36641180Y-22206227D01*
X36749353Y-21945074D01*
X36804500Y-21667835D01*
X36804500Y-21385165D01*
X36749353Y-21107926D01*
X36641180Y-20846773D01*
X36484137Y-20611741D01*
X36284259Y-20411863D01*
X36049227Y-20254820D01*
X35788074Y-20146647D01*
X35510835Y-20091500D01*
X35228165Y-20091500D01*
X34950926Y-20146647D01*
X34689773Y-20254820D01*
X34454741Y-20411863D01*
X34254863Y-20611741D01*
X34097820Y-20846773D01*
X33989647Y-21107926D01*
X33934500Y-21385165D01*
X33934500Y-21667835D01*
X33989647Y-21945074D01*
X34097820Y-22206227D01*
X34254863Y-22441259D01*
X34454741Y-22641137D01*
X34689773Y-22798180D01*
X34950926Y-22906353D01*
X35061593Y-22928366D01*
X34834191Y-22950764D01*
X34563692Y-23032818D01*
X34494893Y-23069592D01*
X34154294Y-22728993D01*
X34130491Y-22699989D01*
X34014766Y-22605016D01*
X33882737Y-22534444D01*
X33739476Y-22490987D01*
X33627823Y-22479990D01*
X33627812Y-22479990D01*
X33590490Y-22476314D01*
X33553168Y-22479990D01*
X33429857Y-22479990D01*
X33453977Y-22455870D01*
X33337704Y-22339597D01*
X33581671Y-22268014D01*
X33702571Y-22012504D01*
X33771300Y-21738316D01*
X33785217Y-21455988D01*
X33743787Y-21176370D01*
X33648603Y-20910208D01*
X33581671Y-20784986D01*
X33337702Y-20713403D01*
X32524605Y-21526500D01*
X32538748Y-21540643D01*
X32359143Y-21720248D01*
X32345000Y-21706105D01*
X32330858Y-21720248D01*
X32151253Y-21540643D01*
X32165395Y-21526500D01*
X31352298Y-20713403D01*
X31108329Y-20784986D01*
X31094676Y-20813841D01*
X30959637Y-20611741D01*
X30759759Y-20411863D01*
X30685561Y-20362285D01*
X30696259Y-20355137D01*
X30818194Y-20233202D01*
X31468403Y-20233202D01*
X31539986Y-20477171D01*
X31547478Y-20480716D01*
X31531903Y-20533798D01*
X32345000Y-21346895D01*
X33158097Y-20533798D01*
X33086514Y-20289829D01*
X33079022Y-20286284D01*
X33094597Y-20233202D01*
X32281500Y-19420105D01*
X31468403Y-20233202D01*
X30818194Y-20233202D01*
X30896137Y-20155259D01*
X31030192Y-19954631D01*
X31044829Y-19982014D01*
X31288798Y-20053597D01*
X32101895Y-19240500D01*
X32461105Y-19240500D01*
X33274202Y-20053597D01*
X33518171Y-19982014D01*
X33639071Y-19726504D01*
X33707800Y-19452316D01*
X33721717Y-19169988D01*
X33680287Y-18890370D01*
X33585103Y-18624208D01*
X33518171Y-18498986D01*
X33274202Y-18427403D01*
X32461105Y-19240500D01*
X32101895Y-19240500D01*
X31288798Y-18427403D01*
X31044829Y-18498986D01*
X31031176Y-18527841D01*
X30896137Y-18325741D01*
X30696259Y-18125863D01*
X30653811Y-18097500D01*
X30696259Y-18069137D01*
X30818194Y-17947202D01*
X31468403Y-17947202D01*
X31512502Y-18097500D01*
X31468403Y-18247798D01*
X32281500Y-19060895D01*
X33094597Y-18247798D01*
X33050498Y-18097500D01*
X33094597Y-17947202D01*
X32281500Y-17134105D01*
X31468403Y-17947202D01*
X30818194Y-17947202D01*
X30896137Y-17869259D01*
X31030192Y-17668631D01*
X31044829Y-17696014D01*
X31288798Y-17767597D01*
X32101895Y-16954500D01*
X32461105Y-16954500D01*
X33274202Y-17767597D01*
X33518171Y-17696014D01*
X33639071Y-17440504D01*
X33707800Y-17166316D01*
X33721717Y-16883988D01*
X33680287Y-16604370D01*
X33585103Y-16338208D01*
X33518171Y-16212986D01*
X33274202Y-16141403D01*
X32461105Y-16954500D01*
X32101895Y-16954500D01*
X31288798Y-16141403D01*
X31044829Y-16212986D01*
X31031176Y-16241841D01*
X30896137Y-16039741D01*
X30818194Y-15961798D01*
X31468403Y-15961798D01*
X32281500Y-16774895D01*
X33094597Y-15961798D01*
X33023014Y-15717829D01*
X32862079Y-15641679D01*
X32937792Y-15614603D01*
X33063014Y-15547671D01*
X33134597Y-15303702D01*
X32321500Y-14490605D01*
X31508403Y-15303702D01*
X31579986Y-15547671D01*
X31740921Y-15623821D01*
X31665208Y-15650897D01*
X31539986Y-15717829D01*
X31468403Y-15961798D01*
X30818194Y-15961798D01*
X30696259Y-15839863D01*
X30461227Y-15682820D01*
X30200074Y-15574647D01*
X29922835Y-15519500D01*
X29640165Y-15519500D01*
X29362926Y-15574647D01*
X29101773Y-15682820D01*
X28866741Y-15839863D01*
X28666863Y-16039741D01*
X28509820Y-16274773D01*
X28401647Y-16535926D01*
X28346500Y-16813165D01*
X28346500Y-17095835D01*
X28401647Y-17373074D01*
X28509820Y-17634227D01*
X28666863Y-17869259D01*
X28866741Y-18069137D01*
X28909189Y-18097500D01*
X28866741Y-18125863D01*
X28666863Y-18325741D01*
X28509820Y-18560773D01*
X28401647Y-18821926D01*
X28346500Y-19099165D01*
X28346500Y-19381835D01*
X28401647Y-19659074D01*
X28509820Y-19920227D01*
X28666863Y-20155259D01*
X28866741Y-20355137D01*
X28940939Y-20404715D01*
X28930241Y-20411863D01*
X28730363Y-20611741D01*
X28573320Y-20846773D01*
X28465147Y-21107926D01*
X28410000Y-21385165D01*
X28410000Y-21667835D01*
X28465147Y-21945074D01*
X28573320Y-22206227D01*
X28730363Y-22441259D01*
X28769094Y-22479990D01*
X27832906Y-22479990D01*
X27911637Y-22401259D01*
X28068680Y-22166227D01*
X28176853Y-21905074D01*
X28232000Y-21627835D01*
X28232000Y-21345165D01*
X28176853Y-21067926D01*
X28068680Y-20806773D01*
X27911637Y-20571741D01*
X27711759Y-20371863D01*
X27511131Y-20237808D01*
X27538514Y-20223171D01*
X27610097Y-19979202D01*
X26797000Y-19166105D01*
X25983903Y-19979202D01*
X26055486Y-20223171D01*
X26084341Y-20236824D01*
X25882241Y-20371863D01*
X25682363Y-20571741D01*
X25525320Y-20806773D01*
X25417147Y-21067926D01*
X25362000Y-21345165D01*
X25362000Y-21627835D01*
X25417147Y-21905074D01*
X25525320Y-22166227D01*
X25682363Y-22401259D01*
X25882241Y-22601137D01*
X26117273Y-22758180D01*
X26343011Y-22851684D01*
X25906009Y-23288685D01*
X25756600Y-23166068D01*
X25507307Y-23032818D01*
X25236808Y-22950764D01*
X24955500Y-22923057D01*
X24674191Y-22950764D01*
X24403692Y-23032818D01*
X24154399Y-23166068D01*
X23935892Y-23345393D01*
X23756568Y-23563900D01*
X23685500Y-23696858D01*
X23614432Y-23563899D01*
X23435107Y-23345392D01*
X23216600Y-23166068D01*
X23175500Y-23144100D01*
X23175500Y-21799998D01*
X23222185Y-21761685D01*
X23301537Y-21664994D01*
X23360502Y-21554680D01*
X23396812Y-21434982D01*
X23409072Y-21310500D01*
X23409072Y-19710500D01*
X23396812Y-19586018D01*
X23360502Y-19466320D01*
X23301537Y-19356006D01*
X23222185Y-19259315D01*
X23125494Y-19179963D01*
X23015180Y-19120998D01*
X22919057Y-19091839D01*
X22953884Y-19057012D01*
X25356783Y-19057012D01*
X25398213Y-19336630D01*
X25493397Y-19602792D01*
X25560329Y-19728014D01*
X25804298Y-19799597D01*
X26617395Y-18986500D01*
X26976605Y-18986500D01*
X27789702Y-19799597D01*
X28033671Y-19728014D01*
X28154571Y-19472504D01*
X28223300Y-19198316D01*
X28237217Y-18915988D01*
X28195787Y-18636370D01*
X28100603Y-18370208D01*
X28033671Y-18244986D01*
X27789702Y-18173403D01*
X26976605Y-18986500D01*
X26617395Y-18986500D01*
X25804298Y-18173403D01*
X25560329Y-18244986D01*
X25439429Y-18500496D01*
X25370700Y-18774684D01*
X25356783Y-19057012D01*
X22953884Y-19057012D01*
X23085637Y-18925259D01*
X23242680Y-18690227D01*
X23350853Y-18429074D01*
X23406000Y-18151835D01*
X23406000Y-17993798D01*
X25983903Y-17993798D01*
X26797000Y-18806895D01*
X27610097Y-17993798D01*
X27538514Y-17749829D01*
X27283004Y-17628929D01*
X27008816Y-17560200D01*
X26726488Y-17546283D01*
X26446870Y-17587713D01*
X26180708Y-17682897D01*
X26055486Y-17749829D01*
X25983903Y-17993798D01*
X23406000Y-17993798D01*
X23406000Y-17869165D01*
X23350853Y-17591926D01*
X23242680Y-17330773D01*
X23085637Y-17095741D01*
X22885759Y-16895863D01*
X22650727Y-16738820D01*
X22389574Y-16630647D01*
X22112335Y-16575500D01*
X21829665Y-16575500D01*
X21651500Y-16610940D01*
X21651500Y-13638165D01*
X28346500Y-13638165D01*
X28346500Y-13920835D01*
X28401647Y-14198074D01*
X28509820Y-14459227D01*
X28666863Y-14694259D01*
X28866741Y-14894137D01*
X29101773Y-15051180D01*
X29362926Y-15159353D01*
X29640165Y-15214500D01*
X29922835Y-15214500D01*
X30200074Y-15159353D01*
X30461227Y-15051180D01*
X30696259Y-14894137D01*
X30896137Y-14694259D01*
X30921907Y-14655691D01*
X30922713Y-14661130D01*
X31017897Y-14927292D01*
X31084829Y-15052514D01*
X31328798Y-15124097D01*
X32141895Y-14311000D01*
X32501105Y-14311000D01*
X33314202Y-15124097D01*
X33558171Y-15052514D01*
X33679071Y-14797004D01*
X33747800Y-14522816D01*
X33761717Y-14240488D01*
X33720287Y-13960870D01*
X33625103Y-13694708D01*
X33558171Y-13569486D01*
X33314202Y-13497903D01*
X32501105Y-14311000D01*
X32141895Y-14311000D01*
X31328798Y-13497903D01*
X31196331Y-13536770D01*
X31161353Y-13360926D01*
X31053180Y-13099773D01*
X30896137Y-12864741D01*
X30696259Y-12664863D01*
X30461227Y-12507820D01*
X30200074Y-12399647D01*
X29922835Y-12344500D01*
X29640165Y-12344500D01*
X29362926Y-12399647D01*
X29101773Y-12507820D01*
X28866741Y-12664863D01*
X28666863Y-12864741D01*
X28509820Y-13099773D01*
X28401647Y-13360926D01*
X28346500Y-13638165D01*
X21651500Y-13638165D01*
X21651500Y-7680801D01*
X22267803Y-7064499D01*
X28390991Y-7064499D01*
X28346500Y-7288165D01*
G37*
%TD.AperFunction*%
D27*
X32578748Y-6820358D02*
X32564605Y-6834500D01*
X32578748Y-6848643D01*
X32399143Y-7028248D01*
X32385000Y-7014105D01*
X32370858Y-7028248D01*
X32191253Y-6848643D01*
X32205395Y-6834500D01*
X32191253Y-6820358D01*
X32370858Y-6640753D01*
X32385000Y-6654895D01*
X32399143Y-6640753D01*
X32578748Y-6820358D01*
%TA.AperFunction,Conductor*%
D28*
G36*
X32578748Y-6820358D02*
G01*
X32564605Y-6834500D01*
X32578748Y-6848643D01*
X32399143Y-7028248D01*
X32385000Y-7014105D01*
X32370858Y-7028248D01*
X32191253Y-6848643D01*
X32205395Y-6834500D01*
X32191253Y-6820358D01*
X32370858Y-6640753D01*
X32385000Y-6654895D01*
X32399143Y-6640753D01*
X32578748Y-6820358D01*
G37*
%TD.AperFunction*%
%TD*%
M02*
