M48
; DRILL file {KiCad (5.1.9)-1} date 09/21/21 18:31:52
; FORMAT={-:-/ absolute / inch / decimal}
; #@! TF.CreationDate,2021-09-21T18:31:52+01:00
; #@! TF.GenerationSoftware,Kicad,Pcbnew,(5.1.9)-1
; #@! TF.FileFunction,Plated,1,2,PTH
FMAT,2
INCH
T1C0.0157
T2C0.0315
T3C0.0400
T4C0.0433
T5C0.1063
%
G90
G05
T1
X1.0562Y-3.12
X1.1809Y-2.1841
X1.205Y-2.5225
X1.2425Y-3.7525
X1.255Y-2.6
X1.3008Y-2.4936
X1.315Y-3.755
X1.345Y-1.6225
X1.3982Y-4.7111
X1.4475Y-3.3975
X1.4825Y-3.375
T2
X0.7725Y-0.2925
X0.7725Y-0.415
X0.7725Y-0.5425
X0.78Y-1.7925
X0.78Y-2.1925
X0.7825Y-0.975
X0.7825Y-1.275
X0.7925Y-2.3625
X0.7925Y-2.7625
X0.7925Y-2.9025
X0.7925Y-3.2025
X0.8175Y-5.47
X0.8241Y-4.6075
X0.8247Y-1.4378
X0.8247Y-1.5378
X0.8247Y-1.6378
X0.8278Y-3.0503
X0.865Y-0.7091
X0.865Y-0.8075
X0.8825Y-0.975
X0.8825Y-1.275
X0.8925Y-2.9025
X0.8925Y-3.2025
X0.9075Y-2.1525
X0.9159Y-5.47
X0.92Y-2.3625
X0.92Y-2.7625
X0.9225Y-4.6075
X0.9278Y-3.0503
X0.9475Y-6.325
X0.9591Y-2.2775
X0.9725Y-1.405
X0.9725Y-1.805
X0.98Y-1.9016
X0.98Y-2.0
X0.9822Y-1.1322
X0.9825Y-0.975
X0.9825Y-1.275
X0.9925Y-2.9025
X0.9925Y-3.2025
X1.0075Y-2.1525
X1.0278Y-3.0503
X1.0425Y-2.3625
X1.0425Y-2.7625
X1.055Y-0.7475
X1.055Y-0.8459
X1.0575Y-2.2775
X1.0822Y-1.1322
X1.0825Y-0.975
X1.0825Y-1.275
X1.0825Y-1.4066
X1.0825Y-1.505
X1.0925Y-1.5875
X1.0925Y-1.9875
X1.0925Y-2.9025
X1.0925Y-3.2025
X1.1Y-4.5925
X1.1025Y-5.4625
X1.105Y-3.74
X1.1075Y-2.1525
X1.1725Y-0.2925
X1.1725Y-0.415
X1.1725Y-0.5425
X1.1725Y-0.6675
X1.1725Y-0.7575
X1.175Y-0.8475
X1.1775Y-2.3925
X1.1775Y-2.7925
X1.1822Y-1.1322
X1.1825Y-0.975
X1.1825Y-1.275
X1.1925Y-2.9025
X1.1925Y-3.2025
X1.2125Y-1.4125
X1.2125Y-1.8125
X1.215Y-1.9025
X1.215Y-2.3025
X1.2303Y-3.0503
X1.2709Y-0.6675
X1.2709Y-0.7575
X1.2725Y-0.465
X1.2725Y-0.5634
X1.2734Y-0.8475
X1.275Y-0.2691
X1.275Y-0.3675
X1.2825Y-0.975
X1.2825Y-1.275
X1.2925Y-2.9025
X1.2925Y-3.2025
X1.3025Y-2.3925
X1.3025Y-2.7925
X1.3303Y-3.0503
X1.3425Y-1.4125
X1.3425Y-1.8125
X1.3425Y-1.9025
X1.3425Y-2.3025
X1.3475Y-6.325
X1.3666Y-0.3375
X1.3825Y-0.975
X1.3825Y-1.275
X1.3925Y-0.4475
X1.3925Y-0.8475
X1.3925Y-2.9025
X1.3925Y-3.2025
X1.4091Y-2.565
X1.4091Y-2.6525
X1.4091Y-2.74
X1.41Y-2.475
X1.4303Y-3.0503
X1.465Y-0.3375
X1.5Y-4.5925
X1.5025Y-5.4625
X1.505Y-3.74
X1.5075Y-2.565
X1.5075Y-2.6525
X1.5075Y-2.74
X1.5084Y-2.475
T3
X0.9425Y-3.4375
X0.9425Y-3.5375
X1.0425Y-3.4375
X1.0425Y-3.5375
X1.1425Y-3.4375
X1.1425Y-3.5375
X1.2425Y-3.4375
X1.2425Y-3.5375
X1.3425Y-3.4375
X1.3425Y-3.5375
T4
X1.4725Y-1.425
X1.4725Y-1.825
X1.475Y-1.9475
X1.475Y-2.3475
T5
X0.8905Y-4.1822
X0.8905Y-5.0497
X0.8905Y-5.9147
X0.8905Y-6.7822
X1.0441Y-4.4145
X1.0441Y-5.282
X1.0441Y-6.147
X1.0441Y-7.0145
X1.1622Y-3.9105
X1.1622Y-4.778
X1.1622Y-5.643
X1.1622Y-6.5105
X1.3291Y-4.3491
X1.3291Y-5.2166
X1.3291Y-6.0816
X1.3291Y-6.9491
X1.3945Y-4.0641
X1.3945Y-4.9316
X1.3945Y-5.7966
X1.3945Y-6.6641
T0
M30
