%TF.GenerationSoftware,KiCad,Pcbnew,(5.1.9)-1*%
%TF.CreationDate,2021-09-21T18:31:50+01:00*%
%TF.ProjectId,Kosmo Noise,4b6f736d-6f20-44e6-9f69-73652e6b6963,rev?*%
%TF.SameCoordinates,Original*%
%TF.FileFunction,Other,User*%
%FSLAX46Y46*%
G04 Gerber Fmt 4.6, Leading zero omitted, Abs format (unit mm)*
G04 Created by KiCad (PCBNEW (5.1.9)-1) date 2021-09-21 18:31:50*
%MOMM*%
%LPD*%
G01*
G04 APERTURE LIST*
%ADD10C,0.050000*%
G04 APERTURE END LIST*
D10*
%TO.C,C1*%
X34764000Y-63915000D02*
X34764000Y-61815000D01*
X34764000Y-61815000D02*
X39364000Y-61815000D01*
X39364000Y-61815000D02*
X39364000Y-63915000D01*
X39364000Y-63915000D02*
X34764000Y-63915000D01*
%TO.C,c1*%
X25371000Y-19260500D02*
G75*
G03*
X25371000Y-19260500I-3400000J0D01*
G01*
%TO.C,C2*%
X23310500Y-56798500D02*
X27910500Y-56798500D01*
X23310500Y-58898500D02*
X23310500Y-56798500D01*
X27910500Y-58898500D02*
X23310500Y-58898500D01*
X27910500Y-56798500D02*
X27910500Y-58898500D01*
%TO.C,C3*%
X28795000Y-22576500D02*
X28795000Y-20476500D01*
X28795000Y-20476500D02*
X33395000Y-20476500D01*
X33395000Y-20476500D02*
X33395000Y-22576500D01*
X33395000Y-22576500D02*
X28795000Y-22576500D01*
%TO.C,C4*%
X25942000Y-47250000D02*
X25942000Y-51850000D01*
X23842000Y-47250000D02*
X25942000Y-47250000D01*
X23842000Y-51850000D02*
X23842000Y-47250000D01*
X25942000Y-51850000D02*
X23842000Y-51850000D01*
%TO.C,C5*%
X33331500Y-20290500D02*
X28731500Y-20290500D01*
X33331500Y-18190500D02*
X33331500Y-20290500D01*
X28731500Y-18190500D02*
X33331500Y-18190500D01*
X28731500Y-20290500D02*
X28731500Y-18190500D01*
%TO.C,C6*%
X33331500Y-18004500D02*
X28731500Y-18004500D01*
X33331500Y-15904500D02*
X33331500Y-18004500D01*
X28731500Y-15904500D02*
X33331500Y-15904500D01*
X28731500Y-18004500D02*
X28731500Y-15904500D01*
%TO.C,C7*%
X31271500Y-10761000D02*
X33371500Y-10761000D01*
X33371500Y-10761000D02*
X33371500Y-15361000D01*
X33371500Y-15361000D02*
X31271500Y-15361000D01*
X31271500Y-15361000D02*
X31271500Y-10761000D01*
%TO.C,C8*%
X33661000Y-7522500D02*
X38261000Y-7522500D01*
X33661000Y-9622500D02*
X33661000Y-7522500D01*
X38261000Y-9622500D02*
X33661000Y-9622500D01*
X38261000Y-7522500D02*
X38261000Y-9622500D01*
%TO.C,C9*%
X33435000Y-10384500D02*
X31335000Y-10384500D01*
X31335000Y-10384500D02*
X31335000Y-5784500D01*
X31335000Y-5784500D02*
X33435000Y-5784500D01*
X33435000Y-5784500D02*
X33435000Y-10384500D01*
%TO.C,C10*%
X39340500Y-64101000D02*
X39340500Y-66201000D01*
X39340500Y-66201000D02*
X34740500Y-66201000D01*
X34740500Y-66201000D02*
X34740500Y-64101000D01*
X34740500Y-64101000D02*
X39340500Y-64101000D01*
%TO.C,C17*%
X25414500Y-138938000D02*
G75*
G03*
X25414500Y-138938000I-3400000J0D01*
G01*
%TO.C,C18*%
X25581500Y-117030500D02*
G75*
G03*
X25581500Y-117030500I-3400000J0D01*
G01*
%TO.C,C21*%
X28545500Y-34677000D02*
X28545500Y-39277000D01*
X26445500Y-34677000D02*
X28545500Y-34677000D01*
X26445500Y-39277000D02*
X26445500Y-34677000D01*
X28545500Y-39277000D02*
X26445500Y-39277000D01*
%TO.C,C22*%
X25747000Y-22536500D02*
X25747000Y-17936500D01*
X27847000Y-22536500D02*
X25747000Y-22536500D01*
X27847000Y-17936500D02*
X27847000Y-22536500D01*
X25747000Y-17936500D02*
X27847000Y-17936500D01*
%TO.C,C23*%
X39340500Y-68546000D02*
X39340500Y-70646000D01*
X39340500Y-70646000D02*
X34740500Y-70646000D01*
X34740500Y-70646000D02*
X34740500Y-68546000D01*
X34740500Y-68546000D02*
X39340500Y-68546000D01*
%TO.C,C24*%
X39340500Y-66323500D02*
X39340500Y-68423500D01*
X39340500Y-68423500D02*
X34740500Y-68423500D01*
X34740500Y-68423500D02*
X34740500Y-66323500D01*
X34740500Y-66323500D02*
X39340500Y-66323500D01*
%TO.C,D1*%
X35801500Y-34845000D02*
X39001500Y-34845000D01*
X39001500Y-34845000D02*
X39001500Y-47705000D01*
X39001500Y-47705000D02*
X35801500Y-47705000D01*
X35801500Y-47705000D02*
X35801500Y-34845000D01*
%TO.C,D2*%
X39065000Y-48116500D02*
X39065000Y-60976500D01*
X35865000Y-48116500D02*
X39065000Y-48116500D01*
X35865000Y-60976500D02*
X35865000Y-48116500D01*
X39065000Y-60976500D02*
X35865000Y-60976500D01*
%TO.C,J6*%
X18589500Y-83902500D02*
X18589500Y-93262500D01*
X39449500Y-83902500D02*
X18589500Y-83902500D01*
X39449500Y-93262500D02*
X39449500Y-83902500D01*
X18589500Y-93262500D02*
X39449500Y-93262500D01*
%TO.C,Q1*%
X29140500Y-51943500D02*
X22040500Y-51943500D01*
X29140500Y-51943500D02*
X29140500Y-56683500D01*
X22040500Y-56683500D02*
X22040500Y-51943500D01*
X22040500Y-56683500D02*
X29140500Y-56683500D01*
%TO.C,R1*%
X32599500Y-47273500D02*
X35599500Y-47273500D01*
X35599500Y-47273500D02*
X35599500Y-59533500D01*
X35599500Y-59533500D02*
X32599500Y-59533500D01*
X32599500Y-59533500D02*
X32599500Y-47273500D01*
%TO.C,R2*%
X32361000Y-47273500D02*
X32361000Y-59533500D01*
X29361000Y-47273500D02*
X32361000Y-47273500D01*
X29361000Y-59533500D02*
X29361000Y-47273500D01*
X32361000Y-59533500D02*
X29361000Y-59533500D01*
%TO.C,R3*%
X34583500Y-59719500D02*
X34583500Y-71979500D01*
X31583500Y-59719500D02*
X34583500Y-59719500D01*
X31583500Y-71979500D02*
X31583500Y-59719500D01*
X34583500Y-71979500D02*
X31583500Y-71979500D01*
%TO.C,R4*%
X31408500Y-71979500D02*
X28408500Y-71979500D01*
X28408500Y-71979500D02*
X28408500Y-59719500D01*
X28408500Y-59719500D02*
X31408500Y-59719500D01*
X31408500Y-59719500D02*
X31408500Y-71979500D01*
%TO.C,R5*%
X18571500Y-12279500D02*
X30831500Y-12279500D01*
X18571500Y-15279500D02*
X18571500Y-12279500D01*
X30831500Y-15279500D02*
X18571500Y-15279500D01*
X30831500Y-12279500D02*
X30831500Y-15279500D01*
%TO.C,R6*%
X21312000Y-56739500D02*
X18312000Y-56739500D01*
X18312000Y-56739500D02*
X18312000Y-44479500D01*
X18312000Y-44479500D02*
X21312000Y-44479500D01*
X21312000Y-44479500D02*
X21312000Y-56739500D01*
%TO.C,R7*%
X18571500Y-9041000D02*
X30831500Y-9041000D01*
X18571500Y-12041000D02*
X18571500Y-9041000D01*
X30831500Y-12041000D02*
X18571500Y-12041000D01*
X30831500Y-9041000D02*
X30831500Y-12041000D01*
%TO.C,R8*%
X26249500Y-51532500D02*
X26249500Y-39272500D01*
X29249500Y-51532500D02*
X26249500Y-51532500D01*
X29249500Y-39272500D02*
X29249500Y-51532500D01*
X26249500Y-39272500D02*
X29249500Y-39272500D01*
%TO.C,R9*%
X29297500Y-34827500D02*
X32297500Y-34827500D01*
X32297500Y-34827500D02*
X32297500Y-47087500D01*
X32297500Y-47087500D02*
X29297500Y-47087500D01*
X29297500Y-47087500D02*
X29297500Y-34827500D01*
%TO.C,R10*%
X30831500Y-5929500D02*
X30831500Y-8929500D01*
X30831500Y-8929500D02*
X18571500Y-8929500D01*
X18571500Y-8929500D02*
X18571500Y-5929500D01*
X18571500Y-5929500D02*
X30831500Y-5929500D01*
%TO.C,R11*%
X32599500Y-47087500D02*
X32599500Y-34827500D01*
X35599500Y-47087500D02*
X32599500Y-47087500D01*
X35599500Y-34827500D02*
X35599500Y-47087500D01*
X32599500Y-34827500D02*
X35599500Y-34827500D01*
%TO.C,R12*%
X23201500Y-34637000D02*
X26201500Y-34637000D01*
X26201500Y-34637000D02*
X26201500Y-46897000D01*
X26201500Y-46897000D02*
X23201500Y-46897000D01*
X23201500Y-46897000D02*
X23201500Y-34637000D01*
%TO.C,R13*%
X36869500Y-10316500D02*
X36869500Y-22576500D01*
X33869500Y-10316500D02*
X36869500Y-10316500D01*
X33869500Y-22576500D02*
X33869500Y-10316500D01*
X36869500Y-22576500D02*
X33869500Y-22576500D01*
%TO.C,R14*%
X21629500Y-71217500D02*
X18629500Y-71217500D01*
X18629500Y-71217500D02*
X18629500Y-58957500D01*
X18629500Y-58957500D02*
X21629500Y-58957500D01*
X21629500Y-58957500D02*
X21629500Y-71217500D01*
%TO.C,R15*%
X27979500Y-58957500D02*
X27979500Y-71217500D01*
X24979500Y-58957500D02*
X27979500Y-58957500D01*
X24979500Y-71217500D02*
X24979500Y-58957500D01*
X27979500Y-71217500D02*
X24979500Y-71217500D01*
%TO.C,R16*%
X24868000Y-71217500D02*
X21868000Y-71217500D01*
X21868000Y-71217500D02*
X21868000Y-58957500D01*
X21868000Y-58957500D02*
X24868000Y-58957500D01*
X24868000Y-58957500D02*
X24868000Y-71217500D01*
%TO.C,R22*%
X26953500Y-140247500D02*
X26953500Y-137247500D01*
X26953500Y-137247500D02*
X39213500Y-137247500D01*
X39213500Y-137247500D02*
X39213500Y-140247500D01*
X39213500Y-140247500D02*
X26953500Y-140247500D01*
%TO.C,R23*%
X39277000Y-96496000D02*
X27017000Y-96496000D01*
X39277000Y-93496000D02*
X39277000Y-96496000D01*
X27017000Y-93496000D02*
X39277000Y-93496000D01*
X27017000Y-96496000D02*
X27017000Y-93496000D01*
%TO.C,R24*%
X35276500Y-162155000D02*
X23016500Y-162155000D01*
X35276500Y-159155000D02*
X35276500Y-162155000D01*
X23016500Y-159155000D02*
X35276500Y-159155000D01*
X23016500Y-162155000D02*
X23016500Y-159155000D01*
%TO.C,R26*%
X26890000Y-118149500D02*
X26890000Y-115149500D01*
X26890000Y-115149500D02*
X39150000Y-115149500D01*
X39150000Y-115149500D02*
X39150000Y-118149500D01*
X39150000Y-118149500D02*
X26890000Y-118149500D01*
%TO.C,U1*%
X36969500Y-82893500D02*
X18519500Y-82893500D01*
X18519500Y-82893500D02*
X18519500Y-72193500D01*
X18519500Y-72193500D02*
X36969500Y-72193500D01*
X36969500Y-72193500D02*
X36969500Y-82893500D01*
%TO.C,U2*%
X36715500Y-23235000D02*
X36715500Y-33935000D01*
X18265500Y-23235000D02*
X36715500Y-23235000D01*
X18265500Y-33935000D02*
X18265500Y-23235000D01*
X36715500Y-33935000D02*
X18265500Y-33935000D01*
%TD*%
M02*
