%TF.GenerationSoftware,KiCad,Pcbnew,(5.1.9)-1*%
%TF.CreationDate,2021-09-21T18:31:50+01:00*%
%TF.ProjectId,Kosmo Noise,4b6f736d-6f20-44e6-9f69-73652e6b6963,rev?*%
%TF.SameCoordinates,Original*%
%TF.FileFunction,Legend,Top*%
%TF.FilePolarity,Positive*%
%FSLAX46Y46*%
G04 Gerber Fmt 4.6, Leading zero omitted, Abs format (unit mm)*
G04 Created by KiCad (PCBNEW (5.1.9)-1) date 2021-09-21 18:31:50*
%MOMM*%
%LPD*%
G01*
G04 APERTURE LIST*
%ADD10C,0.120000*%
%ADD11C,0.150000*%
G04 APERTURE END LIST*
D10*
%TO.C,J2*%
X34369500Y-113577500D02*
X21119500Y-113577500D01*
X36869500Y-97827500D02*
X36869500Y-111527500D01*
X36869500Y-111527500D02*
X36869500Y-111577500D01*
X21119500Y-97827500D02*
X36869500Y-97827500D01*
X21119500Y-113577500D02*
X21119500Y-97827500D01*
X36869500Y-111577500D02*
X34369500Y-113577500D01*
%TO.C,J1*%
X34369500Y-157583000D02*
X21119500Y-157583000D01*
X36869500Y-141833000D02*
X36869500Y-155533000D01*
X36869500Y-155533000D02*
X36869500Y-155583000D01*
X21119500Y-141833000D02*
X36869500Y-141833000D01*
X21119500Y-157583000D02*
X21119500Y-141833000D01*
X36869500Y-155583000D02*
X34369500Y-157583000D01*
%TO.C,J3*%
X36869500Y-177617500D02*
X34369500Y-179617500D01*
X21119500Y-179617500D02*
X21119500Y-163867500D01*
X21119500Y-163867500D02*
X36869500Y-163867500D01*
X36869500Y-177567500D02*
X36869500Y-177617500D01*
X36869500Y-163867500D02*
X36869500Y-177567500D01*
X34369500Y-179617500D02*
X21119500Y-179617500D01*
%TO.C,J5*%
X36869500Y-133612000D02*
X34369500Y-135612000D01*
X21119500Y-135612000D02*
X21119500Y-119862000D01*
X21119500Y-119862000D02*
X36869500Y-119862000D01*
X36869500Y-133562000D02*
X36869500Y-133612000D01*
X36869500Y-119862000D02*
X36869500Y-133562000D01*
X34369500Y-135612000D02*
X21119500Y-135612000D01*
%TO.C,RV1*%
X18418000Y-34175000D02*
X23488000Y-34175000D01*
X18418000Y-43945000D02*
X23488000Y-43945000D01*
X23488000Y-43945000D02*
X23488000Y-34175000D01*
X18418000Y-43945000D02*
X18418000Y-34175000D01*
%TO.C,RV2*%
X22603000Y-26228500D02*
X32373000Y-26228500D01*
X22603000Y-31298500D02*
X32373000Y-31298500D01*
X22603000Y-26228500D02*
X22603000Y-31298500D01*
X32373000Y-26228500D02*
X32373000Y-31298500D01*
%TO.C,RV3*%
X28904500Y-80007000D02*
X28904500Y-74937000D01*
X38674500Y-80007000D02*
X38674500Y-74937000D01*
X38674500Y-74937000D02*
X28904500Y-74937000D01*
X38674500Y-80007000D02*
X28904500Y-80007000D01*
%TO.C,RV4*%
X28451000Y-80007000D02*
X18681000Y-80007000D01*
X28451000Y-74937000D02*
X18681000Y-74937000D01*
X28451000Y-80007000D02*
X28451000Y-74937000D01*
X18681000Y-80007000D02*
X18681000Y-74937000D01*
%TO.C,J2*%
D11*
X28769500Y-95816785D02*
X28769500Y-96352500D01*
X28733785Y-96459642D01*
X28662357Y-96531071D01*
X28555214Y-96566785D01*
X28483785Y-96566785D01*
X29090928Y-95888214D02*
X29126642Y-95852500D01*
X29198071Y-95816785D01*
X29376642Y-95816785D01*
X29448071Y-95852500D01*
X29483785Y-95888214D01*
X29519500Y-95959642D01*
X29519500Y-96031071D01*
X29483785Y-96138214D01*
X29055214Y-96566785D01*
X29519500Y-96566785D01*
%TO.C,J1*%
X28769500Y-139822285D02*
X28769500Y-140358000D01*
X28733785Y-140465142D01*
X28662357Y-140536571D01*
X28555214Y-140572285D01*
X28483785Y-140572285D01*
X29519500Y-140572285D02*
X29090928Y-140572285D01*
X29305214Y-140572285D02*
X29305214Y-139822285D01*
X29233785Y-139929428D01*
X29162357Y-140000857D01*
X29090928Y-140036571D01*
%TO.C,J3*%
X28769500Y-161856785D02*
X28769500Y-162392500D01*
X28733785Y-162499642D01*
X28662357Y-162571071D01*
X28555214Y-162606785D01*
X28483785Y-162606785D01*
X29055214Y-161856785D02*
X29519500Y-161856785D01*
X29269500Y-162142500D01*
X29376642Y-162142500D01*
X29448071Y-162178214D01*
X29483785Y-162213928D01*
X29519500Y-162285357D01*
X29519500Y-162463928D01*
X29483785Y-162535357D01*
X29448071Y-162571071D01*
X29376642Y-162606785D01*
X29162357Y-162606785D01*
X29090928Y-162571071D01*
X29055214Y-162535357D01*
%TO.C,J5*%
X28769500Y-117851285D02*
X28769500Y-118387000D01*
X28733785Y-118494142D01*
X28662357Y-118565571D01*
X28555214Y-118601285D01*
X28483785Y-118601285D01*
X29483785Y-117851285D02*
X29126642Y-117851285D01*
X29090928Y-118208428D01*
X29126642Y-118172714D01*
X29198071Y-118137000D01*
X29376642Y-118137000D01*
X29448071Y-118172714D01*
X29483785Y-118208428D01*
X29519500Y-118279857D01*
X29519500Y-118458428D01*
X29483785Y-118529857D01*
X29448071Y-118565571D01*
X29376642Y-118601285D01*
X29198071Y-118601285D01*
X29126642Y-118565571D01*
X29090928Y-118529857D01*
%TO.C,RV1*%
X17627285Y-39506428D02*
X17270142Y-39756428D01*
X17627285Y-39935000D02*
X16877285Y-39935000D01*
X16877285Y-39649285D01*
X16913000Y-39577857D01*
X16948714Y-39542142D01*
X17020142Y-39506428D01*
X17127285Y-39506428D01*
X17198714Y-39542142D01*
X17234428Y-39577857D01*
X17270142Y-39649285D01*
X17270142Y-39935000D01*
X16877285Y-39292142D02*
X17627285Y-39042142D01*
X16877285Y-38792142D01*
X17627285Y-38149285D02*
X17627285Y-38577857D01*
X17627285Y-38363571D02*
X16877285Y-38363571D01*
X16984428Y-38435000D01*
X17055857Y-38506428D01*
X17091571Y-38577857D01*
%TO.C,RV2*%
X27811071Y-27580785D02*
X27561071Y-27223642D01*
X27382500Y-27580785D02*
X27382500Y-26830785D01*
X27668214Y-26830785D01*
X27739642Y-26866500D01*
X27775357Y-26902214D01*
X27811071Y-26973642D01*
X27811071Y-27080785D01*
X27775357Y-27152214D01*
X27739642Y-27187928D01*
X27668214Y-27223642D01*
X27382500Y-27223642D01*
X28025357Y-26830785D02*
X28275357Y-27580785D01*
X28525357Y-26830785D01*
X28739642Y-26902214D02*
X28775357Y-26866500D01*
X28846785Y-26830785D01*
X29025357Y-26830785D01*
X29096785Y-26866500D01*
X29132500Y-26902214D01*
X29168214Y-26973642D01*
X29168214Y-27045071D01*
X29132500Y-27152214D01*
X28703928Y-27580785D01*
X29168214Y-27580785D01*
%TO.C,RV3*%
X33526071Y-79460285D02*
X33276071Y-79103142D01*
X33097500Y-79460285D02*
X33097500Y-78710285D01*
X33383214Y-78710285D01*
X33454642Y-78746000D01*
X33490357Y-78781714D01*
X33526071Y-78853142D01*
X33526071Y-78960285D01*
X33490357Y-79031714D01*
X33454642Y-79067428D01*
X33383214Y-79103142D01*
X33097500Y-79103142D01*
X33740357Y-78710285D02*
X33990357Y-79460285D01*
X34240357Y-78710285D01*
X34418928Y-78710285D02*
X34883214Y-78710285D01*
X34633214Y-78996000D01*
X34740357Y-78996000D01*
X34811785Y-79031714D01*
X34847500Y-79067428D01*
X34883214Y-79138857D01*
X34883214Y-79317428D01*
X34847500Y-79388857D01*
X34811785Y-79424571D01*
X34740357Y-79460285D01*
X34526071Y-79460285D01*
X34454642Y-79424571D01*
X34418928Y-79388857D01*
%TO.C,RV4*%
X23175571Y-79333285D02*
X22925571Y-78976142D01*
X22747000Y-79333285D02*
X22747000Y-78583285D01*
X23032714Y-78583285D01*
X23104142Y-78619000D01*
X23139857Y-78654714D01*
X23175571Y-78726142D01*
X23175571Y-78833285D01*
X23139857Y-78904714D01*
X23104142Y-78940428D01*
X23032714Y-78976142D01*
X22747000Y-78976142D01*
X23389857Y-78583285D02*
X23639857Y-79333285D01*
X23889857Y-78583285D01*
X24461285Y-78833285D02*
X24461285Y-79333285D01*
X24282714Y-78547571D02*
X24104142Y-79083285D01*
X24568428Y-79083285D01*
%TD*%
M02*
