%TF.GenerationSoftware,KiCad,Pcbnew,(5.1.9)-1*%
%TF.CreationDate,2021-09-21T19:29:37+01:00*%
%TF.ProjectId,Noise Faceplate,4e6f6973-6520-4466-9163-65706c617465,rev?*%
%TF.SameCoordinates,Original*%
%TF.FileFunction,Copper,L2,Bot*%
%TF.FilePolarity,Positive*%
%FSLAX46Y46*%
G04 Gerber Fmt 4.6, Leading zero omitted, Abs format (unit mm)*
G04 Created by KiCad (PCBNEW (5.1.9)-1) date 2021-09-21 19:29:37*
%MOMM*%
%LPD*%
G01*
G04 APERTURE LIST*
%TA.AperFunction,ComponentPad*%
%ADD10C,14.000000*%
%TD*%
%TA.AperFunction,ComponentPad*%
%ADD11O,6.800000X4.000000*%
%TD*%
%TA.AperFunction,Conductor*%
%ADD12C,0.254000*%
%TD*%
%TA.AperFunction,Conductor*%
%ADD13C,0.100000*%
%TD*%
G04 APERTURE END LIST*
D10*
%TO.P,H1,1*%
%TO.N,GND*%
X33909000Y-115760500D03*
%TD*%
D11*
%TO.P,H3,1*%
%TO.N,GND*%
X25784000Y-6858000D03*
%TD*%
D10*
%TO.P,H4,1*%
%TO.N,GND*%
X33909000Y-137795000D03*
%TD*%
D11*
%TO.P,H6,1*%
%TO.N,GND*%
X42103500Y-6794500D03*
%TD*%
D10*
%TO.P,H7,1*%
%TO.N,GND*%
X33909000Y-181800500D03*
%TD*%
D11*
%TO.P,H9,1*%
%TO.N,GND*%
X42103500Y-200850500D03*
%TD*%
D10*
%TO.P,H10,1*%
%TO.N,GND*%
X33909000Y-159766000D03*
%TD*%
D11*
%TO.P,H12,1*%
%TO.N,GND*%
X25717500Y-200723500D03*
%TD*%
D12*
%TO.N,GND*%
X39133975Y-4674135D02*
X38750470Y-5021076D01*
X38442019Y-5436169D01*
X38220475Y-5903462D01*
X38123833Y-6257338D01*
X38230509Y-6667500D01*
X41976500Y-6667500D01*
X41976500Y-6647500D01*
X42230500Y-6647500D01*
X42230500Y-6667500D01*
X42250500Y-6667500D01*
X42250500Y-6921500D01*
X42230500Y-6921500D01*
X42230500Y-9429500D01*
X43630500Y-9429500D01*
X44142123Y-9354093D01*
X44629204Y-9180322D01*
X45073025Y-8914865D01*
X45456530Y-8567924D01*
X45675001Y-8273920D01*
X45675000Y-199371079D01*
X45456530Y-199077076D01*
X45073025Y-198730135D01*
X44629204Y-198464678D01*
X44142123Y-198290907D01*
X43630500Y-198215500D01*
X42230500Y-198215500D01*
X42230500Y-200723500D01*
X42250500Y-200723500D01*
X42250500Y-200977500D01*
X42230500Y-200977500D01*
X42230500Y-200997500D01*
X41976500Y-200997500D01*
X41976500Y-200977500D01*
X38230509Y-200977500D01*
X38123833Y-201387662D01*
X38220475Y-201741538D01*
X38442019Y-202208831D01*
X38750470Y-202623924D01*
X39133975Y-202970865D01*
X39290525Y-203064500D01*
X28318142Y-203064500D01*
X28687025Y-202843865D01*
X29070530Y-202496924D01*
X29378981Y-202081831D01*
X29600525Y-201614538D01*
X29697167Y-201260662D01*
X29590491Y-200850500D01*
X25844500Y-200850500D01*
X25844500Y-200870500D01*
X25590500Y-200870500D01*
X25590500Y-200850500D01*
X25570500Y-200850500D01*
X25570500Y-200596500D01*
X25590500Y-200596500D01*
X25590500Y-198088500D01*
X25844500Y-198088500D01*
X25844500Y-200596500D01*
X29590491Y-200596500D01*
X29664136Y-200313338D01*
X38123833Y-200313338D01*
X38230509Y-200723500D01*
X41976500Y-200723500D01*
X41976500Y-198215500D01*
X40576500Y-198215500D01*
X40064877Y-198290907D01*
X39577796Y-198464678D01*
X39133975Y-198730135D01*
X38750470Y-199077076D01*
X38442019Y-199492169D01*
X38220475Y-199959462D01*
X38123833Y-200313338D01*
X29664136Y-200313338D01*
X29697167Y-200186338D01*
X29600525Y-199832462D01*
X29378981Y-199365169D01*
X29070530Y-198950076D01*
X28687025Y-198603135D01*
X28243204Y-198337678D01*
X27756123Y-198163907D01*
X27244500Y-198088500D01*
X25844500Y-198088500D01*
X25590500Y-198088500D01*
X24190500Y-198088500D01*
X23678877Y-198163907D01*
X23191796Y-198337678D01*
X22747975Y-198603135D01*
X22364470Y-198950076D01*
X22145000Y-199245424D01*
X22145000Y-187202174D01*
X28686932Y-187202174D01*
X29502908Y-188081030D01*
X30812840Y-188819937D01*
X32241756Y-189289091D01*
X33734743Y-189470463D01*
X35234428Y-189357083D01*
X36683176Y-188953307D01*
X38025314Y-188274653D01*
X38315092Y-188081030D01*
X39131068Y-187202174D01*
X33909000Y-181980105D01*
X28686932Y-187202174D01*
X22145000Y-187202174D01*
X22145000Y-181626243D01*
X26239037Y-181626243D01*
X26352417Y-183125928D01*
X26756193Y-184574676D01*
X27434847Y-185916814D01*
X27628470Y-186206592D01*
X28507326Y-187022568D01*
X33729395Y-181800500D01*
X34088605Y-181800500D01*
X39310674Y-187022568D01*
X40189530Y-186206592D01*
X40928437Y-184896660D01*
X41397591Y-183467744D01*
X41578963Y-181974757D01*
X41465583Y-180475072D01*
X41061807Y-179026324D01*
X40383153Y-177684186D01*
X40189530Y-177394408D01*
X39310674Y-176578432D01*
X34088605Y-181800500D01*
X33729395Y-181800500D01*
X28507326Y-176578432D01*
X27628470Y-177394408D01*
X26889563Y-178704340D01*
X26420409Y-180133256D01*
X26239037Y-181626243D01*
X22145000Y-181626243D01*
X22145000Y-176398826D01*
X28686932Y-176398826D01*
X33909000Y-181620895D01*
X39131068Y-176398826D01*
X38315092Y-175519970D01*
X37005160Y-174781063D01*
X35576244Y-174311909D01*
X34083257Y-174130537D01*
X32583572Y-174243917D01*
X31134824Y-174647693D01*
X29792686Y-175326347D01*
X29502908Y-175519970D01*
X28686932Y-176398826D01*
X22145000Y-176398826D01*
X22145000Y-165167674D01*
X28686932Y-165167674D01*
X29502908Y-166046530D01*
X30812840Y-166785437D01*
X32241756Y-167254591D01*
X33734743Y-167435963D01*
X35234428Y-167322583D01*
X36683176Y-166918807D01*
X38025314Y-166240153D01*
X38315092Y-166046530D01*
X39131068Y-165167674D01*
X33909000Y-159945605D01*
X28686932Y-165167674D01*
X22145000Y-165167674D01*
X22145000Y-159591743D01*
X26239037Y-159591743D01*
X26352417Y-161091428D01*
X26756193Y-162540176D01*
X27434847Y-163882314D01*
X27628470Y-164172092D01*
X28507326Y-164988068D01*
X33729395Y-159766000D01*
X34088605Y-159766000D01*
X39310674Y-164988068D01*
X40189530Y-164172092D01*
X40928437Y-162862160D01*
X41397591Y-161433244D01*
X41578963Y-159940257D01*
X41465583Y-158440572D01*
X41061807Y-156991824D01*
X40383153Y-155649686D01*
X40189530Y-155359908D01*
X39310674Y-154543932D01*
X34088605Y-159766000D01*
X33729395Y-159766000D01*
X28507326Y-154543932D01*
X27628470Y-155359908D01*
X26889563Y-156669840D01*
X26420409Y-158098756D01*
X26239037Y-159591743D01*
X22145000Y-159591743D01*
X22145000Y-154364326D01*
X28686932Y-154364326D01*
X33909000Y-159586395D01*
X39131068Y-154364326D01*
X38315092Y-153485470D01*
X37005160Y-152746563D01*
X35576244Y-152277409D01*
X34083257Y-152096037D01*
X32583572Y-152209417D01*
X31134824Y-152613193D01*
X29792686Y-153291847D01*
X29502908Y-153485470D01*
X28686932Y-154364326D01*
X22145000Y-154364326D01*
X22145000Y-143196674D01*
X28686932Y-143196674D01*
X29502908Y-144075530D01*
X30812840Y-144814437D01*
X32241756Y-145283591D01*
X33734743Y-145464963D01*
X35234428Y-145351583D01*
X36683176Y-144947807D01*
X38025314Y-144269153D01*
X38315092Y-144075530D01*
X39131068Y-143196674D01*
X33909000Y-137974605D01*
X28686932Y-143196674D01*
X22145000Y-143196674D01*
X22145000Y-137620743D01*
X26239037Y-137620743D01*
X26352417Y-139120428D01*
X26756193Y-140569176D01*
X27434847Y-141911314D01*
X27628470Y-142201092D01*
X28507326Y-143017068D01*
X33729395Y-137795000D01*
X34088605Y-137795000D01*
X39310674Y-143017068D01*
X40189530Y-142201092D01*
X40928437Y-140891160D01*
X41397591Y-139462244D01*
X41578963Y-137969257D01*
X41465583Y-136469572D01*
X41061807Y-135020824D01*
X40383153Y-133678686D01*
X40189530Y-133388908D01*
X39310674Y-132572932D01*
X34088605Y-137795000D01*
X33729395Y-137795000D01*
X28507326Y-132572932D01*
X27628470Y-133388908D01*
X26889563Y-134698840D01*
X26420409Y-136127756D01*
X26239037Y-137620743D01*
X22145000Y-137620743D01*
X22145000Y-132393326D01*
X28686932Y-132393326D01*
X33909000Y-137615395D01*
X39131068Y-132393326D01*
X38315092Y-131514470D01*
X37005160Y-130775563D01*
X35576244Y-130306409D01*
X34083257Y-130125037D01*
X32583572Y-130238417D01*
X31134824Y-130642193D01*
X29792686Y-131320847D01*
X29502908Y-131514470D01*
X28686932Y-132393326D01*
X22145000Y-132393326D01*
X22145000Y-121162174D01*
X28686932Y-121162174D01*
X29502908Y-122041030D01*
X30812840Y-122779937D01*
X32241756Y-123249091D01*
X33734743Y-123430463D01*
X35234428Y-123317083D01*
X36683176Y-122913307D01*
X38025314Y-122234653D01*
X38315092Y-122041030D01*
X39131068Y-121162174D01*
X33909000Y-115940105D01*
X28686932Y-121162174D01*
X22145000Y-121162174D01*
X22145000Y-115586243D01*
X26239037Y-115586243D01*
X26352417Y-117085928D01*
X26756193Y-118534676D01*
X27434847Y-119876814D01*
X27628470Y-120166592D01*
X28507326Y-120982568D01*
X33729395Y-115760500D01*
X34088605Y-115760500D01*
X39310674Y-120982568D01*
X40189530Y-120166592D01*
X40928437Y-118856660D01*
X41397591Y-117427744D01*
X41578963Y-115934757D01*
X41465583Y-114435072D01*
X41061807Y-112986324D01*
X40383153Y-111644186D01*
X40189530Y-111354408D01*
X39310674Y-110538432D01*
X34088605Y-115760500D01*
X33729395Y-115760500D01*
X28507326Y-110538432D01*
X27628470Y-111354408D01*
X26889563Y-112664340D01*
X26420409Y-114093256D01*
X26239037Y-115586243D01*
X22145000Y-115586243D01*
X22145000Y-110358826D01*
X28686932Y-110358826D01*
X33909000Y-115580895D01*
X39131068Y-110358826D01*
X38315092Y-109479970D01*
X37005160Y-108741063D01*
X35576244Y-108271909D01*
X34083257Y-108090537D01*
X32583572Y-108203917D01*
X31134824Y-108607693D01*
X29792686Y-109286347D01*
X29502908Y-109479970D01*
X28686932Y-110358826D01*
X22145000Y-110358826D01*
X22145000Y-86047344D01*
X23134000Y-86047344D01*
X23134000Y-86418656D01*
X23206439Y-86782834D01*
X23348534Y-87125882D01*
X23554825Y-87434618D01*
X23817382Y-87697175D01*
X24126118Y-87903466D01*
X24469166Y-88045561D01*
X24833344Y-88118000D01*
X25204656Y-88118000D01*
X25568834Y-88045561D01*
X25911882Y-87903466D01*
X26220618Y-87697175D01*
X26483175Y-87434618D01*
X26689466Y-87125882D01*
X26831561Y-86782834D01*
X26904000Y-86418656D01*
X26904000Y-86047344D01*
X26891370Y-85983844D01*
X33294000Y-85983844D01*
X33294000Y-86355156D01*
X33366439Y-86719334D01*
X33508534Y-87062382D01*
X33714825Y-87371118D01*
X33977382Y-87633675D01*
X34286118Y-87839966D01*
X34629166Y-87982061D01*
X34993344Y-88054500D01*
X35364656Y-88054500D01*
X35728834Y-87982061D01*
X36071882Y-87839966D01*
X36380618Y-87633675D01*
X36643175Y-87371118D01*
X36849466Y-87062382D01*
X36991561Y-86719334D01*
X37064000Y-86355156D01*
X37064000Y-85983844D01*
X36991561Y-85619666D01*
X36849466Y-85276618D01*
X36643175Y-84967882D01*
X36380618Y-84705325D01*
X36071882Y-84499034D01*
X35728834Y-84356939D01*
X35364656Y-84284500D01*
X34993344Y-84284500D01*
X34629166Y-84356939D01*
X34286118Y-84499034D01*
X33977382Y-84705325D01*
X33714825Y-84967882D01*
X33508534Y-85276618D01*
X33366439Y-85619666D01*
X33294000Y-85983844D01*
X26891370Y-85983844D01*
X26831561Y-85683166D01*
X26689466Y-85340118D01*
X26483175Y-85031382D01*
X26220618Y-84768825D01*
X25911882Y-84562534D01*
X25568834Y-84420439D01*
X25204656Y-84348000D01*
X24833344Y-84348000D01*
X24469166Y-84420439D01*
X24126118Y-84562534D01*
X23817382Y-84768825D01*
X23554825Y-85031382D01*
X23348534Y-85340118D01*
X23206439Y-85683166D01*
X23134000Y-86047344D01*
X22145000Y-86047344D01*
X22145000Y-45216844D01*
X25102500Y-45216844D01*
X25102500Y-45588156D01*
X25174939Y-45952334D01*
X25317034Y-46295382D01*
X25523325Y-46604118D01*
X25785882Y-46866675D01*
X26094618Y-47072966D01*
X26437666Y-47215061D01*
X26801844Y-47287500D01*
X27173156Y-47287500D01*
X27537334Y-47215061D01*
X27880382Y-47072966D01*
X28189118Y-46866675D01*
X28451675Y-46604118D01*
X28657966Y-46295382D01*
X28800061Y-45952334D01*
X28872500Y-45588156D01*
X28872500Y-45216844D01*
X28800061Y-44852666D01*
X28657966Y-44509618D01*
X28451675Y-44200882D01*
X28189118Y-43938325D01*
X27880382Y-43732034D01*
X27537334Y-43589939D01*
X27173156Y-43517500D01*
X26801844Y-43517500D01*
X26437666Y-43589939D01*
X26094618Y-43732034D01*
X25785882Y-43938325D01*
X25523325Y-44200882D01*
X25317034Y-44509618D01*
X25174939Y-44852666D01*
X25102500Y-45216844D01*
X22145000Y-45216844D01*
X22145000Y-39565344D01*
X33992500Y-39565344D01*
X33992500Y-39936656D01*
X34064939Y-40300834D01*
X34207034Y-40643882D01*
X34413325Y-40952618D01*
X34675882Y-41215175D01*
X34984618Y-41421466D01*
X35327666Y-41563561D01*
X35691844Y-41636000D01*
X36063156Y-41636000D01*
X36427334Y-41563561D01*
X36770382Y-41421466D01*
X37079118Y-41215175D01*
X37341675Y-40952618D01*
X37547966Y-40643882D01*
X37690061Y-40300834D01*
X37762500Y-39936656D01*
X37762500Y-39565344D01*
X37690061Y-39201166D01*
X37547966Y-38858118D01*
X37341675Y-38549382D01*
X37079118Y-38286825D01*
X36770382Y-38080534D01*
X36427334Y-37938439D01*
X36063156Y-37866000D01*
X35691844Y-37866000D01*
X35327666Y-37938439D01*
X34984618Y-38080534D01*
X34675882Y-38286825D01*
X34413325Y-38549382D01*
X34207034Y-38858118D01*
X34064939Y-39201166D01*
X33992500Y-39565344D01*
X22145000Y-39565344D01*
X22145000Y-8246584D01*
X22430970Y-8631424D01*
X22814475Y-8978365D01*
X23258296Y-9243822D01*
X23745377Y-9417593D01*
X24257000Y-9493000D01*
X25657000Y-9493000D01*
X25657000Y-6985000D01*
X25911000Y-6985000D01*
X25911000Y-9493000D01*
X27311000Y-9493000D01*
X27822623Y-9417593D01*
X28309704Y-9243822D01*
X28753525Y-8978365D01*
X29137030Y-8631424D01*
X29445481Y-8216331D01*
X29667025Y-7749038D01*
X29763667Y-7395162D01*
X29747152Y-7331662D01*
X38123833Y-7331662D01*
X38220475Y-7685538D01*
X38442019Y-8152831D01*
X38750470Y-8567924D01*
X39133975Y-8914865D01*
X39577796Y-9180322D01*
X40064877Y-9354093D01*
X40576500Y-9429500D01*
X41976500Y-9429500D01*
X41976500Y-6921500D01*
X38230509Y-6921500D01*
X38123833Y-7331662D01*
X29747152Y-7331662D01*
X29656991Y-6985000D01*
X25911000Y-6985000D01*
X25657000Y-6985000D01*
X25637000Y-6985000D01*
X25637000Y-6731000D01*
X25657000Y-6731000D01*
X25657000Y-6711000D01*
X25911000Y-6711000D01*
X25911000Y-6731000D01*
X29656991Y-6731000D01*
X29763667Y-6320838D01*
X29667025Y-5966962D01*
X29445481Y-5499669D01*
X29137030Y-5084576D01*
X28753525Y-4737635D01*
X28413901Y-4534500D01*
X39367433Y-4534500D01*
X39133975Y-4674135D01*
%TA.AperFunction,Conductor*%
D13*
G36*
X39133975Y-4674135D02*
G01*
X38750470Y-5021076D01*
X38442019Y-5436169D01*
X38220475Y-5903462D01*
X38123833Y-6257338D01*
X38230509Y-6667500D01*
X41976500Y-6667500D01*
X41976500Y-6647500D01*
X42230500Y-6647500D01*
X42230500Y-6667500D01*
X42250500Y-6667500D01*
X42250500Y-6921500D01*
X42230500Y-6921500D01*
X42230500Y-9429500D01*
X43630500Y-9429500D01*
X44142123Y-9354093D01*
X44629204Y-9180322D01*
X45073025Y-8914865D01*
X45456530Y-8567924D01*
X45675001Y-8273920D01*
X45675000Y-199371079D01*
X45456530Y-199077076D01*
X45073025Y-198730135D01*
X44629204Y-198464678D01*
X44142123Y-198290907D01*
X43630500Y-198215500D01*
X42230500Y-198215500D01*
X42230500Y-200723500D01*
X42250500Y-200723500D01*
X42250500Y-200977500D01*
X42230500Y-200977500D01*
X42230500Y-200997500D01*
X41976500Y-200997500D01*
X41976500Y-200977500D01*
X38230509Y-200977500D01*
X38123833Y-201387662D01*
X38220475Y-201741538D01*
X38442019Y-202208831D01*
X38750470Y-202623924D01*
X39133975Y-202970865D01*
X39290525Y-203064500D01*
X28318142Y-203064500D01*
X28687025Y-202843865D01*
X29070530Y-202496924D01*
X29378981Y-202081831D01*
X29600525Y-201614538D01*
X29697167Y-201260662D01*
X29590491Y-200850500D01*
X25844500Y-200850500D01*
X25844500Y-200870500D01*
X25590500Y-200870500D01*
X25590500Y-200850500D01*
X25570500Y-200850500D01*
X25570500Y-200596500D01*
X25590500Y-200596500D01*
X25590500Y-198088500D01*
X25844500Y-198088500D01*
X25844500Y-200596500D01*
X29590491Y-200596500D01*
X29664136Y-200313338D01*
X38123833Y-200313338D01*
X38230509Y-200723500D01*
X41976500Y-200723500D01*
X41976500Y-198215500D01*
X40576500Y-198215500D01*
X40064877Y-198290907D01*
X39577796Y-198464678D01*
X39133975Y-198730135D01*
X38750470Y-199077076D01*
X38442019Y-199492169D01*
X38220475Y-199959462D01*
X38123833Y-200313338D01*
X29664136Y-200313338D01*
X29697167Y-200186338D01*
X29600525Y-199832462D01*
X29378981Y-199365169D01*
X29070530Y-198950076D01*
X28687025Y-198603135D01*
X28243204Y-198337678D01*
X27756123Y-198163907D01*
X27244500Y-198088500D01*
X25844500Y-198088500D01*
X25590500Y-198088500D01*
X24190500Y-198088500D01*
X23678877Y-198163907D01*
X23191796Y-198337678D01*
X22747975Y-198603135D01*
X22364470Y-198950076D01*
X22145000Y-199245424D01*
X22145000Y-187202174D01*
X28686932Y-187202174D01*
X29502908Y-188081030D01*
X30812840Y-188819937D01*
X32241756Y-189289091D01*
X33734743Y-189470463D01*
X35234428Y-189357083D01*
X36683176Y-188953307D01*
X38025314Y-188274653D01*
X38315092Y-188081030D01*
X39131068Y-187202174D01*
X33909000Y-181980105D01*
X28686932Y-187202174D01*
X22145000Y-187202174D01*
X22145000Y-181626243D01*
X26239037Y-181626243D01*
X26352417Y-183125928D01*
X26756193Y-184574676D01*
X27434847Y-185916814D01*
X27628470Y-186206592D01*
X28507326Y-187022568D01*
X33729395Y-181800500D01*
X34088605Y-181800500D01*
X39310674Y-187022568D01*
X40189530Y-186206592D01*
X40928437Y-184896660D01*
X41397591Y-183467744D01*
X41578963Y-181974757D01*
X41465583Y-180475072D01*
X41061807Y-179026324D01*
X40383153Y-177684186D01*
X40189530Y-177394408D01*
X39310674Y-176578432D01*
X34088605Y-181800500D01*
X33729395Y-181800500D01*
X28507326Y-176578432D01*
X27628470Y-177394408D01*
X26889563Y-178704340D01*
X26420409Y-180133256D01*
X26239037Y-181626243D01*
X22145000Y-181626243D01*
X22145000Y-176398826D01*
X28686932Y-176398826D01*
X33909000Y-181620895D01*
X39131068Y-176398826D01*
X38315092Y-175519970D01*
X37005160Y-174781063D01*
X35576244Y-174311909D01*
X34083257Y-174130537D01*
X32583572Y-174243917D01*
X31134824Y-174647693D01*
X29792686Y-175326347D01*
X29502908Y-175519970D01*
X28686932Y-176398826D01*
X22145000Y-176398826D01*
X22145000Y-165167674D01*
X28686932Y-165167674D01*
X29502908Y-166046530D01*
X30812840Y-166785437D01*
X32241756Y-167254591D01*
X33734743Y-167435963D01*
X35234428Y-167322583D01*
X36683176Y-166918807D01*
X38025314Y-166240153D01*
X38315092Y-166046530D01*
X39131068Y-165167674D01*
X33909000Y-159945605D01*
X28686932Y-165167674D01*
X22145000Y-165167674D01*
X22145000Y-159591743D01*
X26239037Y-159591743D01*
X26352417Y-161091428D01*
X26756193Y-162540176D01*
X27434847Y-163882314D01*
X27628470Y-164172092D01*
X28507326Y-164988068D01*
X33729395Y-159766000D01*
X34088605Y-159766000D01*
X39310674Y-164988068D01*
X40189530Y-164172092D01*
X40928437Y-162862160D01*
X41397591Y-161433244D01*
X41578963Y-159940257D01*
X41465583Y-158440572D01*
X41061807Y-156991824D01*
X40383153Y-155649686D01*
X40189530Y-155359908D01*
X39310674Y-154543932D01*
X34088605Y-159766000D01*
X33729395Y-159766000D01*
X28507326Y-154543932D01*
X27628470Y-155359908D01*
X26889563Y-156669840D01*
X26420409Y-158098756D01*
X26239037Y-159591743D01*
X22145000Y-159591743D01*
X22145000Y-154364326D01*
X28686932Y-154364326D01*
X33909000Y-159586395D01*
X39131068Y-154364326D01*
X38315092Y-153485470D01*
X37005160Y-152746563D01*
X35576244Y-152277409D01*
X34083257Y-152096037D01*
X32583572Y-152209417D01*
X31134824Y-152613193D01*
X29792686Y-153291847D01*
X29502908Y-153485470D01*
X28686932Y-154364326D01*
X22145000Y-154364326D01*
X22145000Y-143196674D01*
X28686932Y-143196674D01*
X29502908Y-144075530D01*
X30812840Y-144814437D01*
X32241756Y-145283591D01*
X33734743Y-145464963D01*
X35234428Y-145351583D01*
X36683176Y-144947807D01*
X38025314Y-144269153D01*
X38315092Y-144075530D01*
X39131068Y-143196674D01*
X33909000Y-137974605D01*
X28686932Y-143196674D01*
X22145000Y-143196674D01*
X22145000Y-137620743D01*
X26239037Y-137620743D01*
X26352417Y-139120428D01*
X26756193Y-140569176D01*
X27434847Y-141911314D01*
X27628470Y-142201092D01*
X28507326Y-143017068D01*
X33729395Y-137795000D01*
X34088605Y-137795000D01*
X39310674Y-143017068D01*
X40189530Y-142201092D01*
X40928437Y-140891160D01*
X41397591Y-139462244D01*
X41578963Y-137969257D01*
X41465583Y-136469572D01*
X41061807Y-135020824D01*
X40383153Y-133678686D01*
X40189530Y-133388908D01*
X39310674Y-132572932D01*
X34088605Y-137795000D01*
X33729395Y-137795000D01*
X28507326Y-132572932D01*
X27628470Y-133388908D01*
X26889563Y-134698840D01*
X26420409Y-136127756D01*
X26239037Y-137620743D01*
X22145000Y-137620743D01*
X22145000Y-132393326D01*
X28686932Y-132393326D01*
X33909000Y-137615395D01*
X39131068Y-132393326D01*
X38315092Y-131514470D01*
X37005160Y-130775563D01*
X35576244Y-130306409D01*
X34083257Y-130125037D01*
X32583572Y-130238417D01*
X31134824Y-130642193D01*
X29792686Y-131320847D01*
X29502908Y-131514470D01*
X28686932Y-132393326D01*
X22145000Y-132393326D01*
X22145000Y-121162174D01*
X28686932Y-121162174D01*
X29502908Y-122041030D01*
X30812840Y-122779937D01*
X32241756Y-123249091D01*
X33734743Y-123430463D01*
X35234428Y-123317083D01*
X36683176Y-122913307D01*
X38025314Y-122234653D01*
X38315092Y-122041030D01*
X39131068Y-121162174D01*
X33909000Y-115940105D01*
X28686932Y-121162174D01*
X22145000Y-121162174D01*
X22145000Y-115586243D01*
X26239037Y-115586243D01*
X26352417Y-117085928D01*
X26756193Y-118534676D01*
X27434847Y-119876814D01*
X27628470Y-120166592D01*
X28507326Y-120982568D01*
X33729395Y-115760500D01*
X34088605Y-115760500D01*
X39310674Y-120982568D01*
X40189530Y-120166592D01*
X40928437Y-118856660D01*
X41397591Y-117427744D01*
X41578963Y-115934757D01*
X41465583Y-114435072D01*
X41061807Y-112986324D01*
X40383153Y-111644186D01*
X40189530Y-111354408D01*
X39310674Y-110538432D01*
X34088605Y-115760500D01*
X33729395Y-115760500D01*
X28507326Y-110538432D01*
X27628470Y-111354408D01*
X26889563Y-112664340D01*
X26420409Y-114093256D01*
X26239037Y-115586243D01*
X22145000Y-115586243D01*
X22145000Y-110358826D01*
X28686932Y-110358826D01*
X33909000Y-115580895D01*
X39131068Y-110358826D01*
X38315092Y-109479970D01*
X37005160Y-108741063D01*
X35576244Y-108271909D01*
X34083257Y-108090537D01*
X32583572Y-108203917D01*
X31134824Y-108607693D01*
X29792686Y-109286347D01*
X29502908Y-109479970D01*
X28686932Y-110358826D01*
X22145000Y-110358826D01*
X22145000Y-86047344D01*
X23134000Y-86047344D01*
X23134000Y-86418656D01*
X23206439Y-86782834D01*
X23348534Y-87125882D01*
X23554825Y-87434618D01*
X23817382Y-87697175D01*
X24126118Y-87903466D01*
X24469166Y-88045561D01*
X24833344Y-88118000D01*
X25204656Y-88118000D01*
X25568834Y-88045561D01*
X25911882Y-87903466D01*
X26220618Y-87697175D01*
X26483175Y-87434618D01*
X26689466Y-87125882D01*
X26831561Y-86782834D01*
X26904000Y-86418656D01*
X26904000Y-86047344D01*
X26891370Y-85983844D01*
X33294000Y-85983844D01*
X33294000Y-86355156D01*
X33366439Y-86719334D01*
X33508534Y-87062382D01*
X33714825Y-87371118D01*
X33977382Y-87633675D01*
X34286118Y-87839966D01*
X34629166Y-87982061D01*
X34993344Y-88054500D01*
X35364656Y-88054500D01*
X35728834Y-87982061D01*
X36071882Y-87839966D01*
X36380618Y-87633675D01*
X36643175Y-87371118D01*
X36849466Y-87062382D01*
X36991561Y-86719334D01*
X37064000Y-86355156D01*
X37064000Y-85983844D01*
X36991561Y-85619666D01*
X36849466Y-85276618D01*
X36643175Y-84967882D01*
X36380618Y-84705325D01*
X36071882Y-84499034D01*
X35728834Y-84356939D01*
X35364656Y-84284500D01*
X34993344Y-84284500D01*
X34629166Y-84356939D01*
X34286118Y-84499034D01*
X33977382Y-84705325D01*
X33714825Y-84967882D01*
X33508534Y-85276618D01*
X33366439Y-85619666D01*
X33294000Y-85983844D01*
X26891370Y-85983844D01*
X26831561Y-85683166D01*
X26689466Y-85340118D01*
X26483175Y-85031382D01*
X26220618Y-84768825D01*
X25911882Y-84562534D01*
X25568834Y-84420439D01*
X25204656Y-84348000D01*
X24833344Y-84348000D01*
X24469166Y-84420439D01*
X24126118Y-84562534D01*
X23817382Y-84768825D01*
X23554825Y-85031382D01*
X23348534Y-85340118D01*
X23206439Y-85683166D01*
X23134000Y-86047344D01*
X22145000Y-86047344D01*
X22145000Y-45216844D01*
X25102500Y-45216844D01*
X25102500Y-45588156D01*
X25174939Y-45952334D01*
X25317034Y-46295382D01*
X25523325Y-46604118D01*
X25785882Y-46866675D01*
X26094618Y-47072966D01*
X26437666Y-47215061D01*
X26801844Y-47287500D01*
X27173156Y-47287500D01*
X27537334Y-47215061D01*
X27880382Y-47072966D01*
X28189118Y-46866675D01*
X28451675Y-46604118D01*
X28657966Y-46295382D01*
X28800061Y-45952334D01*
X28872500Y-45588156D01*
X28872500Y-45216844D01*
X28800061Y-44852666D01*
X28657966Y-44509618D01*
X28451675Y-44200882D01*
X28189118Y-43938325D01*
X27880382Y-43732034D01*
X27537334Y-43589939D01*
X27173156Y-43517500D01*
X26801844Y-43517500D01*
X26437666Y-43589939D01*
X26094618Y-43732034D01*
X25785882Y-43938325D01*
X25523325Y-44200882D01*
X25317034Y-44509618D01*
X25174939Y-44852666D01*
X25102500Y-45216844D01*
X22145000Y-45216844D01*
X22145000Y-39565344D01*
X33992500Y-39565344D01*
X33992500Y-39936656D01*
X34064939Y-40300834D01*
X34207034Y-40643882D01*
X34413325Y-40952618D01*
X34675882Y-41215175D01*
X34984618Y-41421466D01*
X35327666Y-41563561D01*
X35691844Y-41636000D01*
X36063156Y-41636000D01*
X36427334Y-41563561D01*
X36770382Y-41421466D01*
X37079118Y-41215175D01*
X37341675Y-40952618D01*
X37547966Y-40643882D01*
X37690061Y-40300834D01*
X37762500Y-39936656D01*
X37762500Y-39565344D01*
X37690061Y-39201166D01*
X37547966Y-38858118D01*
X37341675Y-38549382D01*
X37079118Y-38286825D01*
X36770382Y-38080534D01*
X36427334Y-37938439D01*
X36063156Y-37866000D01*
X35691844Y-37866000D01*
X35327666Y-37938439D01*
X34984618Y-38080534D01*
X34675882Y-38286825D01*
X34413325Y-38549382D01*
X34207034Y-38858118D01*
X34064939Y-39201166D01*
X33992500Y-39565344D01*
X22145000Y-39565344D01*
X22145000Y-8246584D01*
X22430970Y-8631424D01*
X22814475Y-8978365D01*
X23258296Y-9243822D01*
X23745377Y-9417593D01*
X24257000Y-9493000D01*
X25657000Y-9493000D01*
X25657000Y-6985000D01*
X25911000Y-6985000D01*
X25911000Y-9493000D01*
X27311000Y-9493000D01*
X27822623Y-9417593D01*
X28309704Y-9243822D01*
X28753525Y-8978365D01*
X29137030Y-8631424D01*
X29445481Y-8216331D01*
X29667025Y-7749038D01*
X29763667Y-7395162D01*
X29747152Y-7331662D01*
X38123833Y-7331662D01*
X38220475Y-7685538D01*
X38442019Y-8152831D01*
X38750470Y-8567924D01*
X39133975Y-8914865D01*
X39577796Y-9180322D01*
X40064877Y-9354093D01*
X40576500Y-9429500D01*
X41976500Y-9429500D01*
X41976500Y-6921500D01*
X38230509Y-6921500D01*
X38123833Y-7331662D01*
X29747152Y-7331662D01*
X29656991Y-6985000D01*
X25911000Y-6985000D01*
X25657000Y-6985000D01*
X25637000Y-6985000D01*
X25637000Y-6731000D01*
X25657000Y-6731000D01*
X25657000Y-6711000D01*
X25911000Y-6711000D01*
X25911000Y-6731000D01*
X29656991Y-6731000D01*
X29763667Y-6320838D01*
X29667025Y-5966962D01*
X29445481Y-5499669D01*
X29137030Y-5084576D01*
X28753525Y-4737635D01*
X28413901Y-4534500D01*
X39367433Y-4534500D01*
X39133975Y-4674135D01*
G37*
%TD.AperFunction*%
%TD*%
M02*
