%TF.GenerationSoftware,KiCad,Pcbnew,(5.1.9)-1*%
%TF.CreationDate,2021-09-21T19:29:37+01:00*%
%TF.ProjectId,Noise Faceplate,4e6f6973-6520-4466-9163-65706c617465,rev?*%
%TF.SameCoordinates,Original*%
%TF.FileFunction,Legend,Top*%
%TF.FilePolarity,Positive*%
%FSLAX46Y46*%
G04 Gerber Fmt 4.6, Leading zero omitted, Abs format (unit mm)*
G04 Created by KiCad (PCBNEW (5.1.9)-1) date 2021-09-21 19:29:37*
%MOMM*%
%LPD*%
G01*
G04 APERTURE LIST*
%ADD10C,0.500000*%
%ADD11C,0.625000*%
G04 APERTURE END LIST*
D10*
X26749285Y-103609023D02*
X27606428Y-107609023D01*
X28292142Y-104751880D01*
X28977857Y-107609023D01*
X29835000Y-103609023D01*
X31206428Y-107609023D02*
X31206428Y-103609023D01*
X31206428Y-105513785D02*
X33263571Y-105513785D01*
X33263571Y-107609023D02*
X33263571Y-103609023D01*
X34977857Y-107609023D02*
X34977857Y-103609023D01*
X36177857Y-103609023D02*
X38235000Y-103609023D01*
X37206428Y-107609023D02*
X37206428Y-103609023D01*
X39435000Y-105513785D02*
X40635000Y-105513785D01*
X41149285Y-107609023D02*
X39435000Y-107609023D01*
X39435000Y-103609023D01*
X41149285Y-103609023D01*
D11*
X29523280Y-14028321D02*
X28023280Y-11647369D01*
X26951851Y-14028321D02*
X26951851Y-9028321D01*
X28666137Y-9028321D01*
X29094708Y-9266417D01*
X29308994Y-9504512D01*
X29523280Y-9980702D01*
X29523280Y-10694988D01*
X29308994Y-11171178D01*
X29094708Y-11409274D01*
X28666137Y-11647369D01*
X26951851Y-11647369D01*
X31237565Y-12599750D02*
X33380423Y-12599750D01*
X30808994Y-14028321D02*
X32308994Y-9028321D01*
X33808994Y-14028321D01*
X35308994Y-14028321D02*
X35308994Y-9028321D01*
X37451851Y-14028321D02*
X37451851Y-9028321D01*
X40023280Y-14028321D01*
X40023280Y-9028321D01*
D10*
X26258357Y-169545523D02*
X27458357Y-173545523D01*
X28658357Y-169545523D01*
X29858357Y-173545523D02*
X29858357Y-169545523D01*
X32258357Y-169545523D02*
X32944071Y-169545523D01*
X33286928Y-169736000D01*
X33629785Y-170116952D01*
X33801214Y-170878857D01*
X33801214Y-172212190D01*
X33629785Y-172974095D01*
X33286928Y-173355047D01*
X32944071Y-173545523D01*
X32258357Y-173545523D01*
X31915500Y-173355047D01*
X31572642Y-172974095D01*
X31401214Y-172212190D01*
X31401214Y-170878857D01*
X31572642Y-170116952D01*
X31915500Y-169736000D01*
X32258357Y-169545523D01*
X37058357Y-173545523D02*
X35344071Y-173545523D01*
X35344071Y-169545523D01*
X38258357Y-171450285D02*
X39458357Y-171450285D01*
X39972642Y-173545523D02*
X38258357Y-173545523D01*
X38258357Y-169545523D01*
X39972642Y-169545523D01*
X41001214Y-169545523D02*
X43058357Y-169545523D01*
X42029785Y-173545523D02*
X42029785Y-169545523D01*
X31072401Y-151064751D02*
X29872401Y-149159989D01*
X29015258Y-151064751D02*
X29015258Y-147064751D01*
X30386687Y-147064751D01*
X30729544Y-147255228D01*
X30900973Y-147445704D01*
X31072401Y-147826656D01*
X31072401Y-148398085D01*
X30900973Y-148779037D01*
X30729544Y-148969513D01*
X30386687Y-149159989D01*
X29015258Y-149159989D01*
X32615258Y-148969513D02*
X33815258Y-148969513D01*
X34329544Y-151064751D02*
X32615258Y-151064751D01*
X32615258Y-147064751D01*
X34329544Y-147064751D01*
X35872401Y-151064751D02*
X35872401Y-147064751D01*
X36729544Y-147064751D01*
X37243830Y-147255228D01*
X37586687Y-147636180D01*
X37758116Y-148017132D01*
X37929544Y-148779037D01*
X37929544Y-149350466D01*
X37758116Y-150112370D01*
X37586687Y-150493323D01*
X37243830Y-150874275D01*
X36729544Y-151064751D01*
X35872401Y-151064751D01*
X28851442Y-129064751D02*
X28851442Y-125064751D01*
X30222871Y-125064751D01*
X30565728Y-125255228D01*
X30737157Y-125445704D01*
X30908585Y-125826656D01*
X30908585Y-126398085D01*
X30737157Y-126779037D01*
X30565728Y-126969513D01*
X30222871Y-127159989D01*
X28851442Y-127159989D01*
X32451442Y-129064751D02*
X32451442Y-125064751D01*
X34165728Y-129064751D02*
X34165728Y-125064751D01*
X36222871Y-129064751D01*
X36222871Y-125064751D01*
X37937157Y-129064751D02*
X37937157Y-125064751D01*
X39994300Y-129064751D02*
X38451442Y-126779037D01*
X39994300Y-125064751D02*
X37937157Y-127350466D01*
M02*
