%TF.GenerationSoftware,KiCad,Pcbnew,(5.1.9)-1*%
%TF.CreationDate,2021-09-21T19:29:37+01:00*%
%TF.ProjectId,Noise Faceplate,4e6f6973-6520-4466-9163-65706c617465,rev?*%
%TF.SameCoordinates,Original*%
%TF.FileFunction,Other,Fab,Top*%
%FSLAX46Y46*%
G04 Gerber Fmt 4.6, Leading zero omitted, Abs format (unit mm)*
G04 Created by KiCad (PCBNEW (5.1.9)-1) date 2021-09-21 19:29:37*
%MOMM*%
%LPD*%
G01*
G04 APERTURE LIST*
%ADD10C,0.150000*%
G04 APERTURE END LIST*
%TO.C,H1*%
D10*
X30718523Y-126212880D02*
X30718523Y-126927166D01*
X30670904Y-127070023D01*
X30575666Y-127165261D01*
X30432809Y-127212880D01*
X30337571Y-127212880D01*
X31623285Y-127212880D02*
X31623285Y-126689071D01*
X31575666Y-126593833D01*
X31480428Y-126546214D01*
X31289952Y-126546214D01*
X31194714Y-126593833D01*
X31623285Y-127165261D02*
X31528047Y-127212880D01*
X31289952Y-127212880D01*
X31194714Y-127165261D01*
X31147095Y-127070023D01*
X31147095Y-126974785D01*
X31194714Y-126879547D01*
X31289952Y-126831928D01*
X31528047Y-126831928D01*
X31623285Y-126784309D01*
X32528047Y-127165261D02*
X32432809Y-127212880D01*
X32242333Y-127212880D01*
X32147095Y-127165261D01*
X32099476Y-127117642D01*
X32051857Y-127022404D01*
X32051857Y-126736690D01*
X32099476Y-126641452D01*
X32147095Y-126593833D01*
X32242333Y-126546214D01*
X32432809Y-126546214D01*
X32528047Y-126593833D01*
X32956619Y-127212880D02*
X32956619Y-126212880D01*
X33051857Y-126831928D02*
X33337571Y-127212880D01*
X33337571Y-126546214D02*
X32956619Y-126927166D01*
X33528047Y-127308119D02*
X34289952Y-127308119D01*
X34528047Y-127212880D02*
X34528047Y-126212880D01*
X34528047Y-126689071D02*
X35099476Y-126689071D01*
X35099476Y-127212880D02*
X35099476Y-126212880D01*
X35718523Y-127212880D02*
X35623285Y-127165261D01*
X35575666Y-127117642D01*
X35528047Y-127022404D01*
X35528047Y-126736690D01*
X35575666Y-126641452D01*
X35623285Y-126593833D01*
X35718523Y-126546214D01*
X35861380Y-126546214D01*
X35956619Y-126593833D01*
X36004238Y-126641452D01*
X36051857Y-126736690D01*
X36051857Y-127022404D01*
X36004238Y-127117642D01*
X35956619Y-127165261D01*
X35861380Y-127212880D01*
X35718523Y-127212880D01*
X36623285Y-127212880D02*
X36528047Y-127165261D01*
X36480428Y-127070023D01*
X36480428Y-126212880D01*
X37385190Y-127165261D02*
X37289952Y-127212880D01*
X37099476Y-127212880D01*
X37004238Y-127165261D01*
X36956619Y-127070023D01*
X36956619Y-126689071D01*
X37004238Y-126593833D01*
X37099476Y-126546214D01*
X37289952Y-126546214D01*
X37385190Y-126593833D01*
X37432809Y-126689071D01*
X37432809Y-126784309D01*
X36956619Y-126879547D01*
X33447095Y-116212880D02*
X33447095Y-115212880D01*
X33447095Y-115689071D02*
X34018523Y-115689071D01*
X34018523Y-116212880D02*
X34018523Y-115212880D01*
X35018523Y-116212880D02*
X34447095Y-116212880D01*
X34732809Y-116212880D02*
X34732809Y-115212880D01*
X34637571Y-115355738D01*
X34542333Y-115450976D01*
X34447095Y-115498595D01*
%TO.C,H2*%
X30226619Y-89121880D02*
X30798047Y-89121880D01*
X30512333Y-90121880D02*
X30512333Y-89121880D01*
X31131380Y-90121880D02*
X31131380Y-89455214D01*
X31131380Y-89645690D02*
X31179000Y-89550452D01*
X31226619Y-89502833D01*
X31321857Y-89455214D01*
X31417095Y-89455214D01*
X31750428Y-90121880D02*
X31750428Y-89455214D01*
X31750428Y-89121880D02*
X31702809Y-89169500D01*
X31750428Y-89217119D01*
X31798047Y-89169500D01*
X31750428Y-89121880D01*
X31750428Y-89217119D01*
X32226619Y-90121880D02*
X32226619Y-89455214D01*
X32226619Y-89550452D02*
X32274238Y-89502833D01*
X32369476Y-89455214D01*
X32512333Y-89455214D01*
X32607571Y-89502833D01*
X32655190Y-89598071D01*
X32655190Y-90121880D01*
X32655190Y-89598071D02*
X32702809Y-89502833D01*
X32798047Y-89455214D01*
X32940904Y-89455214D01*
X33036142Y-89502833D01*
X33083761Y-89598071D01*
X33083761Y-90121880D01*
X33559952Y-90121880D02*
X33559952Y-89455214D01*
X33559952Y-89550452D02*
X33607571Y-89502833D01*
X33702809Y-89455214D01*
X33845666Y-89455214D01*
X33940904Y-89502833D01*
X33988523Y-89598071D01*
X33988523Y-90121880D01*
X33988523Y-89598071D02*
X34036142Y-89502833D01*
X34131380Y-89455214D01*
X34274238Y-89455214D01*
X34369476Y-89502833D01*
X34417095Y-89598071D01*
X34417095Y-90121880D01*
X35274238Y-90074261D02*
X35179000Y-90121880D01*
X34988523Y-90121880D01*
X34893285Y-90074261D01*
X34845666Y-89979023D01*
X34845666Y-89598071D01*
X34893285Y-89502833D01*
X34988523Y-89455214D01*
X35179000Y-89455214D01*
X35274238Y-89502833D01*
X35321857Y-89598071D01*
X35321857Y-89693309D01*
X34845666Y-89788547D01*
X35750428Y-90121880D02*
X35750428Y-89455214D01*
X35750428Y-89645690D02*
X35798047Y-89550452D01*
X35845666Y-89502833D01*
X35940904Y-89455214D01*
X36036142Y-89455214D01*
X36131380Y-90217119D02*
X36893285Y-90217119D01*
X37131380Y-90121880D02*
X37131380Y-89121880D01*
X37131380Y-89598071D02*
X37702809Y-89598071D01*
X37702809Y-90121880D02*
X37702809Y-89121880D01*
X38321857Y-90121880D02*
X38226619Y-90074261D01*
X38179000Y-90026642D01*
X38131380Y-89931404D01*
X38131380Y-89645690D01*
X38179000Y-89550452D01*
X38226619Y-89502833D01*
X38321857Y-89455214D01*
X38464714Y-89455214D01*
X38559952Y-89502833D01*
X38607571Y-89550452D01*
X38655190Y-89645690D01*
X38655190Y-89931404D01*
X38607571Y-90026642D01*
X38559952Y-90074261D01*
X38464714Y-90121880D01*
X38321857Y-90121880D01*
X39226619Y-90121880D02*
X39131380Y-90074261D01*
X39083761Y-89979023D01*
X39083761Y-89121880D01*
X39988523Y-90074261D02*
X39893285Y-90121880D01*
X39702809Y-90121880D01*
X39607571Y-90074261D01*
X39559952Y-89979023D01*
X39559952Y-89598071D01*
X39607571Y-89502833D01*
X39702809Y-89455214D01*
X39893285Y-89455214D01*
X39988523Y-89502833D01*
X40036142Y-89598071D01*
X40036142Y-89693309D01*
X39559952Y-89788547D01*
X34717095Y-86621880D02*
X34717095Y-85621880D01*
X34717095Y-86098071D02*
X35288523Y-86098071D01*
X35288523Y-86621880D02*
X35288523Y-85621880D01*
X35717095Y-85717119D02*
X35764714Y-85669500D01*
X35859952Y-85621880D01*
X36098047Y-85621880D01*
X36193285Y-85669500D01*
X36240904Y-85717119D01*
X36288523Y-85812357D01*
X36288523Y-85907595D01*
X36240904Y-86050452D01*
X35669476Y-86621880D01*
X36288523Y-86621880D01*
%TO.C,H3*%
X17593523Y-11510380D02*
X17593523Y-10510380D01*
X17926857Y-11224666D01*
X18260190Y-10510380D01*
X18260190Y-11510380D01*
X18879238Y-11510380D02*
X18784000Y-11462761D01*
X18736380Y-11415142D01*
X18688761Y-11319904D01*
X18688761Y-11034190D01*
X18736380Y-10938952D01*
X18784000Y-10891333D01*
X18879238Y-10843714D01*
X19022095Y-10843714D01*
X19117333Y-10891333D01*
X19164952Y-10938952D01*
X19212571Y-11034190D01*
X19212571Y-11319904D01*
X19164952Y-11415142D01*
X19117333Y-11462761D01*
X19022095Y-11510380D01*
X18879238Y-11510380D01*
X20069714Y-10843714D02*
X20069714Y-11510380D01*
X19641142Y-10843714D02*
X19641142Y-11367523D01*
X19688761Y-11462761D01*
X19784000Y-11510380D01*
X19926857Y-11510380D01*
X20022095Y-11462761D01*
X20069714Y-11415142D01*
X20545904Y-10843714D02*
X20545904Y-11510380D01*
X20545904Y-10938952D02*
X20593523Y-10891333D01*
X20688761Y-10843714D01*
X20831619Y-10843714D01*
X20926857Y-10891333D01*
X20974476Y-10986571D01*
X20974476Y-11510380D01*
X21307809Y-10843714D02*
X21688761Y-10843714D01*
X21450666Y-10510380D02*
X21450666Y-11367523D01*
X21498285Y-11462761D01*
X21593523Y-11510380D01*
X21688761Y-11510380D01*
X22022095Y-11510380D02*
X22022095Y-10843714D01*
X22022095Y-10510380D02*
X21974476Y-10558000D01*
X22022095Y-10605619D01*
X22069714Y-10558000D01*
X22022095Y-10510380D01*
X22022095Y-10605619D01*
X22498285Y-10843714D02*
X22498285Y-11510380D01*
X22498285Y-10938952D02*
X22545904Y-10891333D01*
X22641142Y-10843714D01*
X22784000Y-10843714D01*
X22879238Y-10891333D01*
X22926857Y-10986571D01*
X22926857Y-11510380D01*
X23831619Y-10843714D02*
X23831619Y-11653238D01*
X23784000Y-11748476D01*
X23736380Y-11796095D01*
X23641142Y-11843714D01*
X23498285Y-11843714D01*
X23403047Y-11796095D01*
X23831619Y-11462761D02*
X23736380Y-11510380D01*
X23545904Y-11510380D01*
X23450666Y-11462761D01*
X23403047Y-11415142D01*
X23355428Y-11319904D01*
X23355428Y-11034190D01*
X23403047Y-10938952D01*
X23450666Y-10891333D01*
X23545904Y-10843714D01*
X23736380Y-10843714D01*
X23831619Y-10891333D01*
X24069714Y-11605619D02*
X24831619Y-11605619D01*
X25069714Y-11510380D02*
X25069714Y-10510380D01*
X25069714Y-10986571D02*
X25641142Y-10986571D01*
X25641142Y-11510380D02*
X25641142Y-10510380D01*
X26260190Y-11510380D02*
X26164952Y-11462761D01*
X26117333Y-11415142D01*
X26069714Y-11319904D01*
X26069714Y-11034190D01*
X26117333Y-10938952D01*
X26164952Y-10891333D01*
X26260190Y-10843714D01*
X26403047Y-10843714D01*
X26498285Y-10891333D01*
X26545904Y-10938952D01*
X26593523Y-11034190D01*
X26593523Y-11319904D01*
X26545904Y-11415142D01*
X26498285Y-11462761D01*
X26403047Y-11510380D01*
X26260190Y-11510380D01*
X27164952Y-11510380D02*
X27069714Y-11462761D01*
X27022095Y-11367523D01*
X27022095Y-10510380D01*
X27926857Y-11462761D02*
X27831619Y-11510380D01*
X27641142Y-11510380D01*
X27545904Y-11462761D01*
X27498285Y-11367523D01*
X27498285Y-10986571D01*
X27545904Y-10891333D01*
X27641142Y-10843714D01*
X27831619Y-10843714D01*
X27926857Y-10891333D01*
X27974476Y-10986571D01*
X27974476Y-11081809D01*
X27498285Y-11177047D01*
X28164952Y-11605619D02*
X28926857Y-11605619D01*
X29117333Y-11462761D02*
X29260190Y-11510380D01*
X29498285Y-11510380D01*
X29593523Y-11462761D01*
X29641142Y-11415142D01*
X29688761Y-11319904D01*
X29688761Y-11224666D01*
X29641142Y-11129428D01*
X29593523Y-11081809D01*
X29498285Y-11034190D01*
X29307809Y-10986571D01*
X29212571Y-10938952D01*
X29164952Y-10891333D01*
X29117333Y-10796095D01*
X29117333Y-10700857D01*
X29164952Y-10605619D01*
X29212571Y-10558000D01*
X29307809Y-10510380D01*
X29545904Y-10510380D01*
X29688761Y-10558000D01*
X30260190Y-11510380D02*
X30164952Y-11462761D01*
X30117333Y-11367523D01*
X30117333Y-10510380D01*
X30784000Y-11510380D02*
X30688761Y-11462761D01*
X30641142Y-11415142D01*
X30593523Y-11319904D01*
X30593523Y-11034190D01*
X30641142Y-10938952D01*
X30688761Y-10891333D01*
X30784000Y-10843714D01*
X30926857Y-10843714D01*
X31022095Y-10891333D01*
X31069714Y-10938952D01*
X31117333Y-11034190D01*
X31117333Y-11319904D01*
X31069714Y-11415142D01*
X31022095Y-11462761D01*
X30926857Y-11510380D01*
X30784000Y-11510380D01*
X31403047Y-10843714D02*
X31784000Y-10843714D01*
X31545904Y-10510380D02*
X31545904Y-11367523D01*
X31593523Y-11462761D01*
X31688761Y-11510380D01*
X31784000Y-11510380D01*
X31974476Y-10843714D02*
X32355428Y-10843714D01*
X32117333Y-10510380D02*
X32117333Y-11367523D01*
X32164952Y-11462761D01*
X32260190Y-11510380D01*
X32355428Y-11510380D01*
X33069714Y-11462761D02*
X32974476Y-11510380D01*
X32784000Y-11510380D01*
X32688761Y-11462761D01*
X32641142Y-11367523D01*
X32641142Y-10986571D01*
X32688761Y-10891333D01*
X32784000Y-10843714D01*
X32974476Y-10843714D01*
X33069714Y-10891333D01*
X33117333Y-10986571D01*
X33117333Y-11081809D01*
X32641142Y-11177047D01*
X33974476Y-11510380D02*
X33974476Y-10510380D01*
X33974476Y-11462761D02*
X33879238Y-11510380D01*
X33688761Y-11510380D01*
X33593523Y-11462761D01*
X33545904Y-11415142D01*
X33498285Y-11319904D01*
X33498285Y-11034190D01*
X33545904Y-10938952D01*
X33593523Y-10891333D01*
X33688761Y-10843714D01*
X33879238Y-10843714D01*
X33974476Y-10891333D01*
X25322095Y-7310380D02*
X25322095Y-6310380D01*
X25322095Y-6786571D02*
X25893523Y-6786571D01*
X25893523Y-7310380D02*
X25893523Y-6310380D01*
X26274476Y-6310380D02*
X26893523Y-6310380D01*
X26560190Y-6691333D01*
X26703047Y-6691333D01*
X26798285Y-6738952D01*
X26845904Y-6786571D01*
X26893523Y-6881809D01*
X26893523Y-7119904D01*
X26845904Y-7215142D01*
X26798285Y-7262761D01*
X26703047Y-7310380D01*
X26417333Y-7310380D01*
X26322095Y-7262761D01*
X26274476Y-7215142D01*
%TO.C,H4*%
X30718523Y-148247380D02*
X30718523Y-148961666D01*
X30670904Y-149104523D01*
X30575666Y-149199761D01*
X30432809Y-149247380D01*
X30337571Y-149247380D01*
X31623285Y-149247380D02*
X31623285Y-148723571D01*
X31575666Y-148628333D01*
X31480428Y-148580714D01*
X31289952Y-148580714D01*
X31194714Y-148628333D01*
X31623285Y-149199761D02*
X31528047Y-149247380D01*
X31289952Y-149247380D01*
X31194714Y-149199761D01*
X31147095Y-149104523D01*
X31147095Y-149009285D01*
X31194714Y-148914047D01*
X31289952Y-148866428D01*
X31528047Y-148866428D01*
X31623285Y-148818809D01*
X32528047Y-149199761D02*
X32432809Y-149247380D01*
X32242333Y-149247380D01*
X32147095Y-149199761D01*
X32099476Y-149152142D01*
X32051857Y-149056904D01*
X32051857Y-148771190D01*
X32099476Y-148675952D01*
X32147095Y-148628333D01*
X32242333Y-148580714D01*
X32432809Y-148580714D01*
X32528047Y-148628333D01*
X32956619Y-149247380D02*
X32956619Y-148247380D01*
X33051857Y-148866428D02*
X33337571Y-149247380D01*
X33337571Y-148580714D02*
X32956619Y-148961666D01*
X33528047Y-149342619D02*
X34289952Y-149342619D01*
X34528047Y-149247380D02*
X34528047Y-148247380D01*
X34528047Y-148723571D02*
X35099476Y-148723571D01*
X35099476Y-149247380D02*
X35099476Y-148247380D01*
X35718523Y-149247380D02*
X35623285Y-149199761D01*
X35575666Y-149152142D01*
X35528047Y-149056904D01*
X35528047Y-148771190D01*
X35575666Y-148675952D01*
X35623285Y-148628333D01*
X35718523Y-148580714D01*
X35861380Y-148580714D01*
X35956619Y-148628333D01*
X36004238Y-148675952D01*
X36051857Y-148771190D01*
X36051857Y-149056904D01*
X36004238Y-149152142D01*
X35956619Y-149199761D01*
X35861380Y-149247380D01*
X35718523Y-149247380D01*
X36623285Y-149247380D02*
X36528047Y-149199761D01*
X36480428Y-149104523D01*
X36480428Y-148247380D01*
X37385190Y-149199761D02*
X37289952Y-149247380D01*
X37099476Y-149247380D01*
X37004238Y-149199761D01*
X36956619Y-149104523D01*
X36956619Y-148723571D01*
X37004238Y-148628333D01*
X37099476Y-148580714D01*
X37289952Y-148580714D01*
X37385190Y-148628333D01*
X37432809Y-148723571D01*
X37432809Y-148818809D01*
X36956619Y-148914047D01*
X33447095Y-138247380D02*
X33447095Y-137247380D01*
X33447095Y-137723571D02*
X34018523Y-137723571D01*
X34018523Y-138247380D02*
X34018523Y-137247380D01*
X34923285Y-137580714D02*
X34923285Y-138247380D01*
X34685190Y-137199761D02*
X34447095Y-137914047D01*
X35066142Y-137914047D01*
%TO.C,H5*%
X20066619Y-89185380D02*
X20638047Y-89185380D01*
X20352333Y-90185380D02*
X20352333Y-89185380D01*
X20971380Y-90185380D02*
X20971380Y-89518714D01*
X20971380Y-89709190D02*
X21019000Y-89613952D01*
X21066619Y-89566333D01*
X21161857Y-89518714D01*
X21257095Y-89518714D01*
X21590428Y-90185380D02*
X21590428Y-89518714D01*
X21590428Y-89185380D02*
X21542809Y-89233000D01*
X21590428Y-89280619D01*
X21638047Y-89233000D01*
X21590428Y-89185380D01*
X21590428Y-89280619D01*
X22066619Y-90185380D02*
X22066619Y-89518714D01*
X22066619Y-89613952D02*
X22114238Y-89566333D01*
X22209476Y-89518714D01*
X22352333Y-89518714D01*
X22447571Y-89566333D01*
X22495190Y-89661571D01*
X22495190Y-90185380D01*
X22495190Y-89661571D02*
X22542809Y-89566333D01*
X22638047Y-89518714D01*
X22780904Y-89518714D01*
X22876142Y-89566333D01*
X22923761Y-89661571D01*
X22923761Y-90185380D01*
X23399952Y-90185380D02*
X23399952Y-89518714D01*
X23399952Y-89613952D02*
X23447571Y-89566333D01*
X23542809Y-89518714D01*
X23685666Y-89518714D01*
X23780904Y-89566333D01*
X23828523Y-89661571D01*
X23828523Y-90185380D01*
X23828523Y-89661571D02*
X23876142Y-89566333D01*
X23971380Y-89518714D01*
X24114238Y-89518714D01*
X24209476Y-89566333D01*
X24257095Y-89661571D01*
X24257095Y-90185380D01*
X25114238Y-90137761D02*
X25019000Y-90185380D01*
X24828523Y-90185380D01*
X24733285Y-90137761D01*
X24685666Y-90042523D01*
X24685666Y-89661571D01*
X24733285Y-89566333D01*
X24828523Y-89518714D01*
X25019000Y-89518714D01*
X25114238Y-89566333D01*
X25161857Y-89661571D01*
X25161857Y-89756809D01*
X24685666Y-89852047D01*
X25590428Y-90185380D02*
X25590428Y-89518714D01*
X25590428Y-89709190D02*
X25638047Y-89613952D01*
X25685666Y-89566333D01*
X25780904Y-89518714D01*
X25876142Y-89518714D01*
X25971380Y-90280619D02*
X26733285Y-90280619D01*
X26971380Y-90185380D02*
X26971380Y-89185380D01*
X26971380Y-89661571D02*
X27542809Y-89661571D01*
X27542809Y-90185380D02*
X27542809Y-89185380D01*
X28161857Y-90185380D02*
X28066619Y-90137761D01*
X28019000Y-90090142D01*
X27971380Y-89994904D01*
X27971380Y-89709190D01*
X28019000Y-89613952D01*
X28066619Y-89566333D01*
X28161857Y-89518714D01*
X28304714Y-89518714D01*
X28399952Y-89566333D01*
X28447571Y-89613952D01*
X28495190Y-89709190D01*
X28495190Y-89994904D01*
X28447571Y-90090142D01*
X28399952Y-90137761D01*
X28304714Y-90185380D01*
X28161857Y-90185380D01*
X29066619Y-90185380D02*
X28971380Y-90137761D01*
X28923761Y-90042523D01*
X28923761Y-89185380D01*
X29828523Y-90137761D02*
X29733285Y-90185380D01*
X29542809Y-90185380D01*
X29447571Y-90137761D01*
X29399952Y-90042523D01*
X29399952Y-89661571D01*
X29447571Y-89566333D01*
X29542809Y-89518714D01*
X29733285Y-89518714D01*
X29828523Y-89566333D01*
X29876142Y-89661571D01*
X29876142Y-89756809D01*
X29399952Y-89852047D01*
X24557095Y-86685380D02*
X24557095Y-85685380D01*
X24557095Y-86161571D02*
X25128523Y-86161571D01*
X25128523Y-86685380D02*
X25128523Y-85685380D01*
X26080904Y-85685380D02*
X25604714Y-85685380D01*
X25557095Y-86161571D01*
X25604714Y-86113952D01*
X25699952Y-86066333D01*
X25938047Y-86066333D01*
X26033285Y-86113952D01*
X26080904Y-86161571D01*
X26128523Y-86256809D01*
X26128523Y-86494904D01*
X26080904Y-86590142D01*
X26033285Y-86637761D01*
X25938047Y-86685380D01*
X25699952Y-86685380D01*
X25604714Y-86637761D01*
X25557095Y-86590142D01*
%TO.C,H6*%
X33913023Y-11446880D02*
X33913023Y-10446880D01*
X34246357Y-11161166D01*
X34579690Y-10446880D01*
X34579690Y-11446880D01*
X35198738Y-11446880D02*
X35103500Y-11399261D01*
X35055880Y-11351642D01*
X35008261Y-11256404D01*
X35008261Y-10970690D01*
X35055880Y-10875452D01*
X35103500Y-10827833D01*
X35198738Y-10780214D01*
X35341595Y-10780214D01*
X35436833Y-10827833D01*
X35484452Y-10875452D01*
X35532071Y-10970690D01*
X35532071Y-11256404D01*
X35484452Y-11351642D01*
X35436833Y-11399261D01*
X35341595Y-11446880D01*
X35198738Y-11446880D01*
X36389214Y-10780214D02*
X36389214Y-11446880D01*
X35960642Y-10780214D02*
X35960642Y-11304023D01*
X36008261Y-11399261D01*
X36103500Y-11446880D01*
X36246357Y-11446880D01*
X36341595Y-11399261D01*
X36389214Y-11351642D01*
X36865404Y-10780214D02*
X36865404Y-11446880D01*
X36865404Y-10875452D02*
X36913023Y-10827833D01*
X37008261Y-10780214D01*
X37151119Y-10780214D01*
X37246357Y-10827833D01*
X37293976Y-10923071D01*
X37293976Y-11446880D01*
X37627309Y-10780214D02*
X38008261Y-10780214D01*
X37770166Y-10446880D02*
X37770166Y-11304023D01*
X37817785Y-11399261D01*
X37913023Y-11446880D01*
X38008261Y-11446880D01*
X38341595Y-11446880D02*
X38341595Y-10780214D01*
X38341595Y-10446880D02*
X38293976Y-10494500D01*
X38341595Y-10542119D01*
X38389214Y-10494500D01*
X38341595Y-10446880D01*
X38341595Y-10542119D01*
X38817785Y-10780214D02*
X38817785Y-11446880D01*
X38817785Y-10875452D02*
X38865404Y-10827833D01*
X38960642Y-10780214D01*
X39103500Y-10780214D01*
X39198738Y-10827833D01*
X39246357Y-10923071D01*
X39246357Y-11446880D01*
X40151119Y-10780214D02*
X40151119Y-11589738D01*
X40103500Y-11684976D01*
X40055880Y-11732595D01*
X39960642Y-11780214D01*
X39817785Y-11780214D01*
X39722547Y-11732595D01*
X40151119Y-11399261D02*
X40055880Y-11446880D01*
X39865404Y-11446880D01*
X39770166Y-11399261D01*
X39722547Y-11351642D01*
X39674928Y-11256404D01*
X39674928Y-10970690D01*
X39722547Y-10875452D01*
X39770166Y-10827833D01*
X39865404Y-10780214D01*
X40055880Y-10780214D01*
X40151119Y-10827833D01*
X40389214Y-11542119D02*
X41151119Y-11542119D01*
X41389214Y-11446880D02*
X41389214Y-10446880D01*
X41389214Y-10923071D02*
X41960642Y-10923071D01*
X41960642Y-11446880D02*
X41960642Y-10446880D01*
X42579690Y-11446880D02*
X42484452Y-11399261D01*
X42436833Y-11351642D01*
X42389214Y-11256404D01*
X42389214Y-10970690D01*
X42436833Y-10875452D01*
X42484452Y-10827833D01*
X42579690Y-10780214D01*
X42722547Y-10780214D01*
X42817785Y-10827833D01*
X42865404Y-10875452D01*
X42913023Y-10970690D01*
X42913023Y-11256404D01*
X42865404Y-11351642D01*
X42817785Y-11399261D01*
X42722547Y-11446880D01*
X42579690Y-11446880D01*
X43484452Y-11446880D02*
X43389214Y-11399261D01*
X43341595Y-11304023D01*
X43341595Y-10446880D01*
X44246357Y-11399261D02*
X44151119Y-11446880D01*
X43960642Y-11446880D01*
X43865404Y-11399261D01*
X43817785Y-11304023D01*
X43817785Y-10923071D01*
X43865404Y-10827833D01*
X43960642Y-10780214D01*
X44151119Y-10780214D01*
X44246357Y-10827833D01*
X44293976Y-10923071D01*
X44293976Y-11018309D01*
X43817785Y-11113547D01*
X44484452Y-11542119D02*
X45246357Y-11542119D01*
X45436833Y-11399261D02*
X45579690Y-11446880D01*
X45817785Y-11446880D01*
X45913023Y-11399261D01*
X45960642Y-11351642D01*
X46008261Y-11256404D01*
X46008261Y-11161166D01*
X45960642Y-11065928D01*
X45913023Y-11018309D01*
X45817785Y-10970690D01*
X45627309Y-10923071D01*
X45532071Y-10875452D01*
X45484452Y-10827833D01*
X45436833Y-10732595D01*
X45436833Y-10637357D01*
X45484452Y-10542119D01*
X45532071Y-10494500D01*
X45627309Y-10446880D01*
X45865404Y-10446880D01*
X46008261Y-10494500D01*
X46579690Y-11446880D02*
X46484452Y-11399261D01*
X46436833Y-11304023D01*
X46436833Y-10446880D01*
X47103500Y-11446880D02*
X47008261Y-11399261D01*
X46960642Y-11351642D01*
X46913023Y-11256404D01*
X46913023Y-10970690D01*
X46960642Y-10875452D01*
X47008261Y-10827833D01*
X47103500Y-10780214D01*
X47246357Y-10780214D01*
X47341595Y-10827833D01*
X47389214Y-10875452D01*
X47436833Y-10970690D01*
X47436833Y-11256404D01*
X47389214Y-11351642D01*
X47341595Y-11399261D01*
X47246357Y-11446880D01*
X47103500Y-11446880D01*
X47722547Y-10780214D02*
X48103500Y-10780214D01*
X47865404Y-10446880D02*
X47865404Y-11304023D01*
X47913023Y-11399261D01*
X48008261Y-11446880D01*
X48103500Y-11446880D01*
X48293976Y-10780214D02*
X48674928Y-10780214D01*
X48436833Y-10446880D02*
X48436833Y-11304023D01*
X48484452Y-11399261D01*
X48579690Y-11446880D01*
X48674928Y-11446880D01*
X49389214Y-11399261D02*
X49293976Y-11446880D01*
X49103500Y-11446880D01*
X49008261Y-11399261D01*
X48960642Y-11304023D01*
X48960642Y-10923071D01*
X49008261Y-10827833D01*
X49103500Y-10780214D01*
X49293976Y-10780214D01*
X49389214Y-10827833D01*
X49436833Y-10923071D01*
X49436833Y-11018309D01*
X48960642Y-11113547D01*
X50293976Y-11446880D02*
X50293976Y-10446880D01*
X50293976Y-11399261D02*
X50198738Y-11446880D01*
X50008261Y-11446880D01*
X49913023Y-11399261D01*
X49865404Y-11351642D01*
X49817785Y-11256404D01*
X49817785Y-10970690D01*
X49865404Y-10875452D01*
X49913023Y-10827833D01*
X50008261Y-10780214D01*
X50198738Y-10780214D01*
X50293976Y-10827833D01*
X41641595Y-7246880D02*
X41641595Y-6246880D01*
X41641595Y-6723071D02*
X42213023Y-6723071D01*
X42213023Y-7246880D02*
X42213023Y-6246880D01*
X43117785Y-6246880D02*
X42927309Y-6246880D01*
X42832071Y-6294500D01*
X42784452Y-6342119D01*
X42689214Y-6484976D01*
X42641595Y-6675452D01*
X42641595Y-7056404D01*
X42689214Y-7151642D01*
X42736833Y-7199261D01*
X42832071Y-7246880D01*
X43022547Y-7246880D01*
X43117785Y-7199261D01*
X43165404Y-7151642D01*
X43213023Y-7056404D01*
X43213023Y-6818309D01*
X43165404Y-6723071D01*
X43117785Y-6675452D01*
X43022547Y-6627833D01*
X42832071Y-6627833D01*
X42736833Y-6675452D01*
X42689214Y-6723071D01*
X42641595Y-6818309D01*
%TO.C,H7*%
X30718523Y-192252880D02*
X30718523Y-192967166D01*
X30670904Y-193110023D01*
X30575666Y-193205261D01*
X30432809Y-193252880D01*
X30337571Y-193252880D01*
X31623285Y-193252880D02*
X31623285Y-192729071D01*
X31575666Y-192633833D01*
X31480428Y-192586214D01*
X31289952Y-192586214D01*
X31194714Y-192633833D01*
X31623285Y-193205261D02*
X31528047Y-193252880D01*
X31289952Y-193252880D01*
X31194714Y-193205261D01*
X31147095Y-193110023D01*
X31147095Y-193014785D01*
X31194714Y-192919547D01*
X31289952Y-192871928D01*
X31528047Y-192871928D01*
X31623285Y-192824309D01*
X32528047Y-193205261D02*
X32432809Y-193252880D01*
X32242333Y-193252880D01*
X32147095Y-193205261D01*
X32099476Y-193157642D01*
X32051857Y-193062404D01*
X32051857Y-192776690D01*
X32099476Y-192681452D01*
X32147095Y-192633833D01*
X32242333Y-192586214D01*
X32432809Y-192586214D01*
X32528047Y-192633833D01*
X32956619Y-193252880D02*
X32956619Y-192252880D01*
X33051857Y-192871928D02*
X33337571Y-193252880D01*
X33337571Y-192586214D02*
X32956619Y-192967166D01*
X33528047Y-193348119D02*
X34289952Y-193348119D01*
X34528047Y-193252880D02*
X34528047Y-192252880D01*
X34528047Y-192729071D02*
X35099476Y-192729071D01*
X35099476Y-193252880D02*
X35099476Y-192252880D01*
X35718523Y-193252880D02*
X35623285Y-193205261D01*
X35575666Y-193157642D01*
X35528047Y-193062404D01*
X35528047Y-192776690D01*
X35575666Y-192681452D01*
X35623285Y-192633833D01*
X35718523Y-192586214D01*
X35861380Y-192586214D01*
X35956619Y-192633833D01*
X36004238Y-192681452D01*
X36051857Y-192776690D01*
X36051857Y-193062404D01*
X36004238Y-193157642D01*
X35956619Y-193205261D01*
X35861380Y-193252880D01*
X35718523Y-193252880D01*
X36623285Y-193252880D02*
X36528047Y-193205261D01*
X36480428Y-193110023D01*
X36480428Y-192252880D01*
X37385190Y-193205261D02*
X37289952Y-193252880D01*
X37099476Y-193252880D01*
X37004238Y-193205261D01*
X36956619Y-193110023D01*
X36956619Y-192729071D01*
X37004238Y-192633833D01*
X37099476Y-192586214D01*
X37289952Y-192586214D01*
X37385190Y-192633833D01*
X37432809Y-192729071D01*
X37432809Y-192824309D01*
X36956619Y-192919547D01*
X33447095Y-182252880D02*
X33447095Y-181252880D01*
X33447095Y-181729071D02*
X34018523Y-181729071D01*
X34018523Y-182252880D02*
X34018523Y-181252880D01*
X34399476Y-181252880D02*
X35066142Y-181252880D01*
X34637571Y-182252880D01*
%TO.C,H8*%
X22035119Y-48354880D02*
X22606547Y-48354880D01*
X22320833Y-49354880D02*
X22320833Y-48354880D01*
X22939880Y-49354880D02*
X22939880Y-48688214D01*
X22939880Y-48878690D02*
X22987500Y-48783452D01*
X23035119Y-48735833D01*
X23130357Y-48688214D01*
X23225595Y-48688214D01*
X23558928Y-49354880D02*
X23558928Y-48688214D01*
X23558928Y-48354880D02*
X23511309Y-48402500D01*
X23558928Y-48450119D01*
X23606547Y-48402500D01*
X23558928Y-48354880D01*
X23558928Y-48450119D01*
X24035119Y-49354880D02*
X24035119Y-48688214D01*
X24035119Y-48783452D02*
X24082738Y-48735833D01*
X24177976Y-48688214D01*
X24320833Y-48688214D01*
X24416071Y-48735833D01*
X24463690Y-48831071D01*
X24463690Y-49354880D01*
X24463690Y-48831071D02*
X24511309Y-48735833D01*
X24606547Y-48688214D01*
X24749404Y-48688214D01*
X24844642Y-48735833D01*
X24892261Y-48831071D01*
X24892261Y-49354880D01*
X25368452Y-49354880D02*
X25368452Y-48688214D01*
X25368452Y-48783452D02*
X25416071Y-48735833D01*
X25511309Y-48688214D01*
X25654166Y-48688214D01*
X25749404Y-48735833D01*
X25797023Y-48831071D01*
X25797023Y-49354880D01*
X25797023Y-48831071D02*
X25844642Y-48735833D01*
X25939880Y-48688214D01*
X26082738Y-48688214D01*
X26177976Y-48735833D01*
X26225595Y-48831071D01*
X26225595Y-49354880D01*
X27082738Y-49307261D02*
X26987500Y-49354880D01*
X26797023Y-49354880D01*
X26701785Y-49307261D01*
X26654166Y-49212023D01*
X26654166Y-48831071D01*
X26701785Y-48735833D01*
X26797023Y-48688214D01*
X26987500Y-48688214D01*
X27082738Y-48735833D01*
X27130357Y-48831071D01*
X27130357Y-48926309D01*
X26654166Y-49021547D01*
X27558928Y-49354880D02*
X27558928Y-48688214D01*
X27558928Y-48878690D02*
X27606547Y-48783452D01*
X27654166Y-48735833D01*
X27749404Y-48688214D01*
X27844642Y-48688214D01*
X27939880Y-49450119D02*
X28701785Y-49450119D01*
X28939880Y-49354880D02*
X28939880Y-48354880D01*
X28939880Y-48831071D02*
X29511309Y-48831071D01*
X29511309Y-49354880D02*
X29511309Y-48354880D01*
X30130357Y-49354880D02*
X30035119Y-49307261D01*
X29987500Y-49259642D01*
X29939880Y-49164404D01*
X29939880Y-48878690D01*
X29987500Y-48783452D01*
X30035119Y-48735833D01*
X30130357Y-48688214D01*
X30273214Y-48688214D01*
X30368452Y-48735833D01*
X30416071Y-48783452D01*
X30463690Y-48878690D01*
X30463690Y-49164404D01*
X30416071Y-49259642D01*
X30368452Y-49307261D01*
X30273214Y-49354880D01*
X30130357Y-49354880D01*
X31035119Y-49354880D02*
X30939880Y-49307261D01*
X30892261Y-49212023D01*
X30892261Y-48354880D01*
X31797023Y-49307261D02*
X31701785Y-49354880D01*
X31511309Y-49354880D01*
X31416071Y-49307261D01*
X31368452Y-49212023D01*
X31368452Y-48831071D01*
X31416071Y-48735833D01*
X31511309Y-48688214D01*
X31701785Y-48688214D01*
X31797023Y-48735833D01*
X31844642Y-48831071D01*
X31844642Y-48926309D01*
X31368452Y-49021547D01*
X26525595Y-45854880D02*
X26525595Y-44854880D01*
X26525595Y-45331071D02*
X27097023Y-45331071D01*
X27097023Y-45854880D02*
X27097023Y-44854880D01*
X27716071Y-45283452D02*
X27620833Y-45235833D01*
X27573214Y-45188214D01*
X27525595Y-45092976D01*
X27525595Y-45045357D01*
X27573214Y-44950119D01*
X27620833Y-44902500D01*
X27716071Y-44854880D01*
X27906547Y-44854880D01*
X28001785Y-44902500D01*
X28049404Y-44950119D01*
X28097023Y-45045357D01*
X28097023Y-45092976D01*
X28049404Y-45188214D01*
X28001785Y-45235833D01*
X27906547Y-45283452D01*
X27716071Y-45283452D01*
X27620833Y-45331071D01*
X27573214Y-45378690D01*
X27525595Y-45473928D01*
X27525595Y-45664404D01*
X27573214Y-45759642D01*
X27620833Y-45807261D01*
X27716071Y-45854880D01*
X27906547Y-45854880D01*
X28001785Y-45807261D01*
X28049404Y-45759642D01*
X28097023Y-45664404D01*
X28097023Y-45473928D01*
X28049404Y-45378690D01*
X28001785Y-45331071D01*
X27906547Y-45283452D01*
%TO.C,H9*%
X33913023Y-205502880D02*
X33913023Y-204502880D01*
X34246357Y-205217166D01*
X34579690Y-204502880D01*
X34579690Y-205502880D01*
X35198738Y-205502880D02*
X35103500Y-205455261D01*
X35055880Y-205407642D01*
X35008261Y-205312404D01*
X35008261Y-205026690D01*
X35055880Y-204931452D01*
X35103500Y-204883833D01*
X35198738Y-204836214D01*
X35341595Y-204836214D01*
X35436833Y-204883833D01*
X35484452Y-204931452D01*
X35532071Y-205026690D01*
X35532071Y-205312404D01*
X35484452Y-205407642D01*
X35436833Y-205455261D01*
X35341595Y-205502880D01*
X35198738Y-205502880D01*
X36389214Y-204836214D02*
X36389214Y-205502880D01*
X35960642Y-204836214D02*
X35960642Y-205360023D01*
X36008261Y-205455261D01*
X36103500Y-205502880D01*
X36246357Y-205502880D01*
X36341595Y-205455261D01*
X36389214Y-205407642D01*
X36865404Y-204836214D02*
X36865404Y-205502880D01*
X36865404Y-204931452D02*
X36913023Y-204883833D01*
X37008261Y-204836214D01*
X37151119Y-204836214D01*
X37246357Y-204883833D01*
X37293976Y-204979071D01*
X37293976Y-205502880D01*
X37627309Y-204836214D02*
X38008261Y-204836214D01*
X37770166Y-204502880D02*
X37770166Y-205360023D01*
X37817785Y-205455261D01*
X37913023Y-205502880D01*
X38008261Y-205502880D01*
X38341595Y-205502880D02*
X38341595Y-204836214D01*
X38341595Y-204502880D02*
X38293976Y-204550500D01*
X38341595Y-204598119D01*
X38389214Y-204550500D01*
X38341595Y-204502880D01*
X38341595Y-204598119D01*
X38817785Y-204836214D02*
X38817785Y-205502880D01*
X38817785Y-204931452D02*
X38865404Y-204883833D01*
X38960642Y-204836214D01*
X39103500Y-204836214D01*
X39198738Y-204883833D01*
X39246357Y-204979071D01*
X39246357Y-205502880D01*
X40151119Y-204836214D02*
X40151119Y-205645738D01*
X40103500Y-205740976D01*
X40055880Y-205788595D01*
X39960642Y-205836214D01*
X39817785Y-205836214D01*
X39722547Y-205788595D01*
X40151119Y-205455261D02*
X40055880Y-205502880D01*
X39865404Y-205502880D01*
X39770166Y-205455261D01*
X39722547Y-205407642D01*
X39674928Y-205312404D01*
X39674928Y-205026690D01*
X39722547Y-204931452D01*
X39770166Y-204883833D01*
X39865404Y-204836214D01*
X40055880Y-204836214D01*
X40151119Y-204883833D01*
X40389214Y-205598119D02*
X41151119Y-205598119D01*
X41389214Y-205502880D02*
X41389214Y-204502880D01*
X41389214Y-204979071D02*
X41960642Y-204979071D01*
X41960642Y-205502880D02*
X41960642Y-204502880D01*
X42579690Y-205502880D02*
X42484452Y-205455261D01*
X42436833Y-205407642D01*
X42389214Y-205312404D01*
X42389214Y-205026690D01*
X42436833Y-204931452D01*
X42484452Y-204883833D01*
X42579690Y-204836214D01*
X42722547Y-204836214D01*
X42817785Y-204883833D01*
X42865404Y-204931452D01*
X42913023Y-205026690D01*
X42913023Y-205312404D01*
X42865404Y-205407642D01*
X42817785Y-205455261D01*
X42722547Y-205502880D01*
X42579690Y-205502880D01*
X43484452Y-205502880D02*
X43389214Y-205455261D01*
X43341595Y-205360023D01*
X43341595Y-204502880D01*
X44246357Y-205455261D02*
X44151119Y-205502880D01*
X43960642Y-205502880D01*
X43865404Y-205455261D01*
X43817785Y-205360023D01*
X43817785Y-204979071D01*
X43865404Y-204883833D01*
X43960642Y-204836214D01*
X44151119Y-204836214D01*
X44246357Y-204883833D01*
X44293976Y-204979071D01*
X44293976Y-205074309D01*
X43817785Y-205169547D01*
X44484452Y-205598119D02*
X45246357Y-205598119D01*
X45436833Y-205455261D02*
X45579690Y-205502880D01*
X45817785Y-205502880D01*
X45913023Y-205455261D01*
X45960642Y-205407642D01*
X46008261Y-205312404D01*
X46008261Y-205217166D01*
X45960642Y-205121928D01*
X45913023Y-205074309D01*
X45817785Y-205026690D01*
X45627309Y-204979071D01*
X45532071Y-204931452D01*
X45484452Y-204883833D01*
X45436833Y-204788595D01*
X45436833Y-204693357D01*
X45484452Y-204598119D01*
X45532071Y-204550500D01*
X45627309Y-204502880D01*
X45865404Y-204502880D01*
X46008261Y-204550500D01*
X46579690Y-205502880D02*
X46484452Y-205455261D01*
X46436833Y-205360023D01*
X46436833Y-204502880D01*
X47103500Y-205502880D02*
X47008261Y-205455261D01*
X46960642Y-205407642D01*
X46913023Y-205312404D01*
X46913023Y-205026690D01*
X46960642Y-204931452D01*
X47008261Y-204883833D01*
X47103500Y-204836214D01*
X47246357Y-204836214D01*
X47341595Y-204883833D01*
X47389214Y-204931452D01*
X47436833Y-205026690D01*
X47436833Y-205312404D01*
X47389214Y-205407642D01*
X47341595Y-205455261D01*
X47246357Y-205502880D01*
X47103500Y-205502880D01*
X47722547Y-204836214D02*
X48103500Y-204836214D01*
X47865404Y-204502880D02*
X47865404Y-205360023D01*
X47913023Y-205455261D01*
X48008261Y-205502880D01*
X48103500Y-205502880D01*
X48293976Y-204836214D02*
X48674928Y-204836214D01*
X48436833Y-204502880D02*
X48436833Y-205360023D01*
X48484452Y-205455261D01*
X48579690Y-205502880D01*
X48674928Y-205502880D01*
X49389214Y-205455261D02*
X49293976Y-205502880D01*
X49103500Y-205502880D01*
X49008261Y-205455261D01*
X48960642Y-205360023D01*
X48960642Y-204979071D01*
X49008261Y-204883833D01*
X49103500Y-204836214D01*
X49293976Y-204836214D01*
X49389214Y-204883833D01*
X49436833Y-204979071D01*
X49436833Y-205074309D01*
X48960642Y-205169547D01*
X50293976Y-205502880D02*
X50293976Y-204502880D01*
X50293976Y-205455261D02*
X50198738Y-205502880D01*
X50008261Y-205502880D01*
X49913023Y-205455261D01*
X49865404Y-205407642D01*
X49817785Y-205312404D01*
X49817785Y-205026690D01*
X49865404Y-204931452D01*
X49913023Y-204883833D01*
X50008261Y-204836214D01*
X50198738Y-204836214D01*
X50293976Y-204883833D01*
X41641595Y-201302880D02*
X41641595Y-200302880D01*
X41641595Y-200779071D02*
X42213023Y-200779071D01*
X42213023Y-201302880D02*
X42213023Y-200302880D01*
X42736833Y-201302880D02*
X42927309Y-201302880D01*
X43022547Y-201255261D01*
X43070166Y-201207642D01*
X43165404Y-201064785D01*
X43213023Y-200874309D01*
X43213023Y-200493357D01*
X43165404Y-200398119D01*
X43117785Y-200350500D01*
X43022547Y-200302880D01*
X42832071Y-200302880D01*
X42736833Y-200350500D01*
X42689214Y-200398119D01*
X42641595Y-200493357D01*
X42641595Y-200731452D01*
X42689214Y-200826690D01*
X42736833Y-200874309D01*
X42832071Y-200921928D01*
X43022547Y-200921928D01*
X43117785Y-200874309D01*
X43165404Y-200826690D01*
X43213023Y-200731452D01*
%TO.C,H10*%
X30718523Y-170218380D02*
X30718523Y-170932666D01*
X30670904Y-171075523D01*
X30575666Y-171170761D01*
X30432809Y-171218380D01*
X30337571Y-171218380D01*
X31623285Y-171218380D02*
X31623285Y-170694571D01*
X31575666Y-170599333D01*
X31480428Y-170551714D01*
X31289952Y-170551714D01*
X31194714Y-170599333D01*
X31623285Y-171170761D02*
X31528047Y-171218380D01*
X31289952Y-171218380D01*
X31194714Y-171170761D01*
X31147095Y-171075523D01*
X31147095Y-170980285D01*
X31194714Y-170885047D01*
X31289952Y-170837428D01*
X31528047Y-170837428D01*
X31623285Y-170789809D01*
X32528047Y-171170761D02*
X32432809Y-171218380D01*
X32242333Y-171218380D01*
X32147095Y-171170761D01*
X32099476Y-171123142D01*
X32051857Y-171027904D01*
X32051857Y-170742190D01*
X32099476Y-170646952D01*
X32147095Y-170599333D01*
X32242333Y-170551714D01*
X32432809Y-170551714D01*
X32528047Y-170599333D01*
X32956619Y-171218380D02*
X32956619Y-170218380D01*
X33051857Y-170837428D02*
X33337571Y-171218380D01*
X33337571Y-170551714D02*
X32956619Y-170932666D01*
X33528047Y-171313619D02*
X34289952Y-171313619D01*
X34528047Y-171218380D02*
X34528047Y-170218380D01*
X34528047Y-170694571D02*
X35099476Y-170694571D01*
X35099476Y-171218380D02*
X35099476Y-170218380D01*
X35718523Y-171218380D02*
X35623285Y-171170761D01*
X35575666Y-171123142D01*
X35528047Y-171027904D01*
X35528047Y-170742190D01*
X35575666Y-170646952D01*
X35623285Y-170599333D01*
X35718523Y-170551714D01*
X35861380Y-170551714D01*
X35956619Y-170599333D01*
X36004238Y-170646952D01*
X36051857Y-170742190D01*
X36051857Y-171027904D01*
X36004238Y-171123142D01*
X35956619Y-171170761D01*
X35861380Y-171218380D01*
X35718523Y-171218380D01*
X36623285Y-171218380D02*
X36528047Y-171170761D01*
X36480428Y-171075523D01*
X36480428Y-170218380D01*
X37385190Y-171170761D02*
X37289952Y-171218380D01*
X37099476Y-171218380D01*
X37004238Y-171170761D01*
X36956619Y-171075523D01*
X36956619Y-170694571D01*
X37004238Y-170599333D01*
X37099476Y-170551714D01*
X37289952Y-170551714D01*
X37385190Y-170599333D01*
X37432809Y-170694571D01*
X37432809Y-170789809D01*
X36956619Y-170885047D01*
X32970904Y-160218380D02*
X32970904Y-159218380D01*
X32970904Y-159694571D02*
X33542333Y-159694571D01*
X33542333Y-160218380D02*
X33542333Y-159218380D01*
X34542333Y-160218380D02*
X33970904Y-160218380D01*
X34256619Y-160218380D02*
X34256619Y-159218380D01*
X34161380Y-159361238D01*
X34066142Y-159456476D01*
X33970904Y-159504095D01*
X35161380Y-159218380D02*
X35256619Y-159218380D01*
X35351857Y-159266000D01*
X35399476Y-159313619D01*
X35447095Y-159408857D01*
X35494714Y-159599333D01*
X35494714Y-159837428D01*
X35447095Y-160027904D01*
X35399476Y-160123142D01*
X35351857Y-160170761D01*
X35256619Y-160218380D01*
X35161380Y-160218380D01*
X35066142Y-160170761D01*
X35018523Y-160123142D01*
X34970904Y-160027904D01*
X34923285Y-159837428D01*
X34923285Y-159599333D01*
X34970904Y-159408857D01*
X35018523Y-159313619D01*
X35066142Y-159266000D01*
X35161380Y-159218380D01*
%TO.C,H11*%
X30925119Y-42703380D02*
X31496547Y-42703380D01*
X31210833Y-43703380D02*
X31210833Y-42703380D01*
X31829880Y-43703380D02*
X31829880Y-43036714D01*
X31829880Y-43227190D02*
X31877500Y-43131952D01*
X31925119Y-43084333D01*
X32020357Y-43036714D01*
X32115595Y-43036714D01*
X32448928Y-43703380D02*
X32448928Y-43036714D01*
X32448928Y-42703380D02*
X32401309Y-42751000D01*
X32448928Y-42798619D01*
X32496547Y-42751000D01*
X32448928Y-42703380D01*
X32448928Y-42798619D01*
X32925119Y-43703380D02*
X32925119Y-43036714D01*
X32925119Y-43131952D02*
X32972738Y-43084333D01*
X33067976Y-43036714D01*
X33210833Y-43036714D01*
X33306071Y-43084333D01*
X33353690Y-43179571D01*
X33353690Y-43703380D01*
X33353690Y-43179571D02*
X33401309Y-43084333D01*
X33496547Y-43036714D01*
X33639404Y-43036714D01*
X33734642Y-43084333D01*
X33782261Y-43179571D01*
X33782261Y-43703380D01*
X34258452Y-43703380D02*
X34258452Y-43036714D01*
X34258452Y-43131952D02*
X34306071Y-43084333D01*
X34401309Y-43036714D01*
X34544166Y-43036714D01*
X34639404Y-43084333D01*
X34687023Y-43179571D01*
X34687023Y-43703380D01*
X34687023Y-43179571D02*
X34734642Y-43084333D01*
X34829880Y-43036714D01*
X34972738Y-43036714D01*
X35067976Y-43084333D01*
X35115595Y-43179571D01*
X35115595Y-43703380D01*
X35972738Y-43655761D02*
X35877500Y-43703380D01*
X35687023Y-43703380D01*
X35591785Y-43655761D01*
X35544166Y-43560523D01*
X35544166Y-43179571D01*
X35591785Y-43084333D01*
X35687023Y-43036714D01*
X35877500Y-43036714D01*
X35972738Y-43084333D01*
X36020357Y-43179571D01*
X36020357Y-43274809D01*
X35544166Y-43370047D01*
X36448928Y-43703380D02*
X36448928Y-43036714D01*
X36448928Y-43227190D02*
X36496547Y-43131952D01*
X36544166Y-43084333D01*
X36639404Y-43036714D01*
X36734642Y-43036714D01*
X36829880Y-43798619D02*
X37591785Y-43798619D01*
X37829880Y-43703380D02*
X37829880Y-42703380D01*
X37829880Y-43179571D02*
X38401309Y-43179571D01*
X38401309Y-43703380D02*
X38401309Y-42703380D01*
X39020357Y-43703380D02*
X38925119Y-43655761D01*
X38877500Y-43608142D01*
X38829880Y-43512904D01*
X38829880Y-43227190D01*
X38877500Y-43131952D01*
X38925119Y-43084333D01*
X39020357Y-43036714D01*
X39163214Y-43036714D01*
X39258452Y-43084333D01*
X39306071Y-43131952D01*
X39353690Y-43227190D01*
X39353690Y-43512904D01*
X39306071Y-43608142D01*
X39258452Y-43655761D01*
X39163214Y-43703380D01*
X39020357Y-43703380D01*
X39925119Y-43703380D02*
X39829880Y-43655761D01*
X39782261Y-43560523D01*
X39782261Y-42703380D01*
X40687023Y-43655761D02*
X40591785Y-43703380D01*
X40401309Y-43703380D01*
X40306071Y-43655761D01*
X40258452Y-43560523D01*
X40258452Y-43179571D01*
X40306071Y-43084333D01*
X40401309Y-43036714D01*
X40591785Y-43036714D01*
X40687023Y-43084333D01*
X40734642Y-43179571D01*
X40734642Y-43274809D01*
X40258452Y-43370047D01*
X34939404Y-40203380D02*
X34939404Y-39203380D01*
X34939404Y-39679571D02*
X35510833Y-39679571D01*
X35510833Y-40203380D02*
X35510833Y-39203380D01*
X36510833Y-40203380D02*
X35939404Y-40203380D01*
X36225119Y-40203380D02*
X36225119Y-39203380D01*
X36129880Y-39346238D01*
X36034642Y-39441476D01*
X35939404Y-39489095D01*
X37463214Y-40203380D02*
X36891785Y-40203380D01*
X37177500Y-40203380D02*
X37177500Y-39203380D01*
X37082261Y-39346238D01*
X36987023Y-39441476D01*
X36891785Y-39489095D01*
%TO.C,H12*%
X17527023Y-205375880D02*
X17527023Y-204375880D01*
X17860357Y-205090166D01*
X18193690Y-204375880D01*
X18193690Y-205375880D01*
X18812738Y-205375880D02*
X18717500Y-205328261D01*
X18669880Y-205280642D01*
X18622261Y-205185404D01*
X18622261Y-204899690D01*
X18669880Y-204804452D01*
X18717500Y-204756833D01*
X18812738Y-204709214D01*
X18955595Y-204709214D01*
X19050833Y-204756833D01*
X19098452Y-204804452D01*
X19146071Y-204899690D01*
X19146071Y-205185404D01*
X19098452Y-205280642D01*
X19050833Y-205328261D01*
X18955595Y-205375880D01*
X18812738Y-205375880D01*
X20003214Y-204709214D02*
X20003214Y-205375880D01*
X19574642Y-204709214D02*
X19574642Y-205233023D01*
X19622261Y-205328261D01*
X19717500Y-205375880D01*
X19860357Y-205375880D01*
X19955595Y-205328261D01*
X20003214Y-205280642D01*
X20479404Y-204709214D02*
X20479404Y-205375880D01*
X20479404Y-204804452D02*
X20527023Y-204756833D01*
X20622261Y-204709214D01*
X20765119Y-204709214D01*
X20860357Y-204756833D01*
X20907976Y-204852071D01*
X20907976Y-205375880D01*
X21241309Y-204709214D02*
X21622261Y-204709214D01*
X21384166Y-204375880D02*
X21384166Y-205233023D01*
X21431785Y-205328261D01*
X21527023Y-205375880D01*
X21622261Y-205375880D01*
X21955595Y-205375880D02*
X21955595Y-204709214D01*
X21955595Y-204375880D02*
X21907976Y-204423500D01*
X21955595Y-204471119D01*
X22003214Y-204423500D01*
X21955595Y-204375880D01*
X21955595Y-204471119D01*
X22431785Y-204709214D02*
X22431785Y-205375880D01*
X22431785Y-204804452D02*
X22479404Y-204756833D01*
X22574642Y-204709214D01*
X22717500Y-204709214D01*
X22812738Y-204756833D01*
X22860357Y-204852071D01*
X22860357Y-205375880D01*
X23765119Y-204709214D02*
X23765119Y-205518738D01*
X23717500Y-205613976D01*
X23669880Y-205661595D01*
X23574642Y-205709214D01*
X23431785Y-205709214D01*
X23336547Y-205661595D01*
X23765119Y-205328261D02*
X23669880Y-205375880D01*
X23479404Y-205375880D01*
X23384166Y-205328261D01*
X23336547Y-205280642D01*
X23288928Y-205185404D01*
X23288928Y-204899690D01*
X23336547Y-204804452D01*
X23384166Y-204756833D01*
X23479404Y-204709214D01*
X23669880Y-204709214D01*
X23765119Y-204756833D01*
X24003214Y-205471119D02*
X24765119Y-205471119D01*
X25003214Y-205375880D02*
X25003214Y-204375880D01*
X25003214Y-204852071D02*
X25574642Y-204852071D01*
X25574642Y-205375880D02*
X25574642Y-204375880D01*
X26193690Y-205375880D02*
X26098452Y-205328261D01*
X26050833Y-205280642D01*
X26003214Y-205185404D01*
X26003214Y-204899690D01*
X26050833Y-204804452D01*
X26098452Y-204756833D01*
X26193690Y-204709214D01*
X26336547Y-204709214D01*
X26431785Y-204756833D01*
X26479404Y-204804452D01*
X26527023Y-204899690D01*
X26527023Y-205185404D01*
X26479404Y-205280642D01*
X26431785Y-205328261D01*
X26336547Y-205375880D01*
X26193690Y-205375880D01*
X27098452Y-205375880D02*
X27003214Y-205328261D01*
X26955595Y-205233023D01*
X26955595Y-204375880D01*
X27860357Y-205328261D02*
X27765119Y-205375880D01*
X27574642Y-205375880D01*
X27479404Y-205328261D01*
X27431785Y-205233023D01*
X27431785Y-204852071D01*
X27479404Y-204756833D01*
X27574642Y-204709214D01*
X27765119Y-204709214D01*
X27860357Y-204756833D01*
X27907976Y-204852071D01*
X27907976Y-204947309D01*
X27431785Y-205042547D01*
X28098452Y-205471119D02*
X28860357Y-205471119D01*
X29050833Y-205328261D02*
X29193690Y-205375880D01*
X29431785Y-205375880D01*
X29527023Y-205328261D01*
X29574642Y-205280642D01*
X29622261Y-205185404D01*
X29622261Y-205090166D01*
X29574642Y-204994928D01*
X29527023Y-204947309D01*
X29431785Y-204899690D01*
X29241309Y-204852071D01*
X29146071Y-204804452D01*
X29098452Y-204756833D01*
X29050833Y-204661595D01*
X29050833Y-204566357D01*
X29098452Y-204471119D01*
X29146071Y-204423500D01*
X29241309Y-204375880D01*
X29479404Y-204375880D01*
X29622261Y-204423500D01*
X30193690Y-205375880D02*
X30098452Y-205328261D01*
X30050833Y-205233023D01*
X30050833Y-204375880D01*
X30717500Y-205375880D02*
X30622261Y-205328261D01*
X30574642Y-205280642D01*
X30527023Y-205185404D01*
X30527023Y-204899690D01*
X30574642Y-204804452D01*
X30622261Y-204756833D01*
X30717500Y-204709214D01*
X30860357Y-204709214D01*
X30955595Y-204756833D01*
X31003214Y-204804452D01*
X31050833Y-204899690D01*
X31050833Y-205185404D01*
X31003214Y-205280642D01*
X30955595Y-205328261D01*
X30860357Y-205375880D01*
X30717500Y-205375880D01*
X31336547Y-204709214D02*
X31717500Y-204709214D01*
X31479404Y-204375880D02*
X31479404Y-205233023D01*
X31527023Y-205328261D01*
X31622261Y-205375880D01*
X31717500Y-205375880D01*
X31907976Y-204709214D02*
X32288928Y-204709214D01*
X32050833Y-204375880D02*
X32050833Y-205233023D01*
X32098452Y-205328261D01*
X32193690Y-205375880D01*
X32288928Y-205375880D01*
X33003214Y-205328261D02*
X32907976Y-205375880D01*
X32717500Y-205375880D01*
X32622261Y-205328261D01*
X32574642Y-205233023D01*
X32574642Y-204852071D01*
X32622261Y-204756833D01*
X32717500Y-204709214D01*
X32907976Y-204709214D01*
X33003214Y-204756833D01*
X33050833Y-204852071D01*
X33050833Y-204947309D01*
X32574642Y-205042547D01*
X33907976Y-205375880D02*
X33907976Y-204375880D01*
X33907976Y-205328261D02*
X33812738Y-205375880D01*
X33622261Y-205375880D01*
X33527023Y-205328261D01*
X33479404Y-205280642D01*
X33431785Y-205185404D01*
X33431785Y-204899690D01*
X33479404Y-204804452D01*
X33527023Y-204756833D01*
X33622261Y-204709214D01*
X33812738Y-204709214D01*
X33907976Y-204756833D01*
X24779404Y-201175880D02*
X24779404Y-200175880D01*
X24779404Y-200652071D02*
X25350833Y-200652071D01*
X25350833Y-201175880D02*
X25350833Y-200175880D01*
X26350833Y-201175880D02*
X25779404Y-201175880D01*
X26065119Y-201175880D02*
X26065119Y-200175880D01*
X25969880Y-200318738D01*
X25874642Y-200413976D01*
X25779404Y-200461595D01*
X26731785Y-200271119D02*
X26779404Y-200223500D01*
X26874642Y-200175880D01*
X27112738Y-200175880D01*
X27207976Y-200223500D01*
X27255595Y-200271119D01*
X27303214Y-200366357D01*
X27303214Y-200461595D01*
X27255595Y-200604452D01*
X26684166Y-201175880D01*
X27303214Y-201175880D01*
%TD*%
M02*
